%TF.GenerationSoftware,KiCad,Pcbnew,(6.0.7)*%
%TF.CreationDate,2022-09-16T15:15:22+01:00*%
%TF.ProjectId,iso_adc_cvm,69736f5f-6164-4635-9f63-766d2e6b6963,rev?*%
%TF.SameCoordinates,Original*%
%TF.FileFunction,Soldermask,Bot*%
%TF.FilePolarity,Negative*%
%FSLAX46Y46*%
G04 Gerber Fmt 4.6, Leading zero omitted, Abs format (unit mm)*
G04 Created by KiCad (PCBNEW (6.0.7)) date 2022-09-16 15:15:22*
%MOMM*%
%LPD*%
G01*
G04 APERTURE LIST*
%ADD10R,1.600000X1.600000*%
%ADD11C,1.600000*%
%ADD12C,4.000000*%
%ADD13C,1.500000*%
%ADD14R,2.100000X2.100000*%
%ADD15C,2.100000*%
%ADD16R,1.800000X1.800000*%
%ADD17C,1.800000*%
%ADD18O,1.800000X1.800000*%
%ADD19O,1.500000X1.500000*%
%ADD20O,1.700000X1.700000*%
%ADD21R,1.700000X1.700000*%
G04 APERTURE END LIST*
D10*
%TO.C,A1*%
X84947500Y-108650000D03*
D11*
X84947500Y-111190000D03*
X84947500Y-113730000D03*
X84947500Y-116270000D03*
X84947500Y-118810000D03*
X84947500Y-121350000D03*
X84947500Y-123890000D03*
X84947500Y-126430000D03*
X84947500Y-128970000D03*
X84947500Y-131510000D03*
X84947500Y-134050000D03*
X84947500Y-136590000D03*
X84947500Y-139130000D03*
X84947500Y-141670000D03*
X84947500Y-144210000D03*
X84947500Y-146750000D03*
X105267500Y-146750000D03*
X105267500Y-144210000D03*
X105267500Y-141670000D03*
X105267500Y-139130000D03*
X105267500Y-136590000D03*
X105267500Y-134050000D03*
X105267500Y-131510000D03*
X105267500Y-128970000D03*
X105267500Y-126430000D03*
X105267500Y-123890000D03*
X105267500Y-121350000D03*
X105267500Y-118810000D03*
%TD*%
D12*
%TO.C,J3*%
X23320000Y-33330000D03*
X70420000Y-33330000D03*
D10*
X30250000Y-34750000D03*
D11*
X33020000Y-34750000D03*
X35790000Y-34750000D03*
X38560000Y-34750000D03*
X41330000Y-34750000D03*
X44100000Y-34750000D03*
X46870000Y-34750000D03*
X49640000Y-34750000D03*
X52410000Y-34750000D03*
X55180000Y-34750000D03*
X57950000Y-34750000D03*
X60720000Y-34750000D03*
X63490000Y-34750000D03*
X31635000Y-31910000D03*
X34405000Y-31910000D03*
X37175000Y-31910000D03*
X39945000Y-31910000D03*
X42715000Y-31910000D03*
X45485000Y-31910000D03*
X48255000Y-31910000D03*
X51025000Y-31910000D03*
X53795000Y-31910000D03*
X56565000Y-31910000D03*
X59335000Y-31910000D03*
X62105000Y-31910000D03*
%TD*%
D13*
%TO.C,J1*%
X23125000Y-121000000D03*
X28125000Y-118500000D03*
X23125000Y-116000000D03*
X28125000Y-113500000D03*
X23125000Y-111000000D03*
X28125000Y-108500000D03*
X23125000Y-106000000D03*
X28125000Y-103500000D03*
X23125000Y-101000000D03*
X28125000Y-98500000D03*
X23125000Y-96000000D03*
X28125000Y-93500000D03*
X23125000Y-91000000D03*
%TD*%
D14*
%TO.C,J6*%
X101050000Y-86750000D03*
D15*
X98550000Y-86750000D03*
X96050000Y-86750000D03*
%TD*%
D16*
%TO.C,J4*%
X129700000Y-82233300D03*
D17*
X129700000Y-84733300D03*
X129700000Y-87233300D03*
X129700000Y-89733300D03*
X129700000Y-92233300D03*
%TD*%
D16*
%TO.C,J5*%
X129250000Y-44383300D03*
D17*
X129250000Y-46883300D03*
X129250000Y-49383300D03*
X129250000Y-51883300D03*
X129250000Y-54383300D03*
%TD*%
D18*
%TO.C,U1*%
X91575000Y-14800000D03*
D19*
X91875000Y-17830000D03*
D18*
X97025000Y-14800000D03*
D19*
X96725000Y-17830000D03*
D20*
X85410000Y-14670000D03*
X85410000Y-17210000D03*
D21*
X85410000Y-19750000D03*
D20*
X85410000Y-22290000D03*
X85410000Y-24830000D03*
X85410000Y-27370000D03*
X85410000Y-29910000D03*
D21*
X85410000Y-32450000D03*
D20*
X85410000Y-34990000D03*
X85410000Y-37530000D03*
X85410000Y-40070000D03*
X85410000Y-42610000D03*
D21*
X85410000Y-45150000D03*
D20*
X85410000Y-47690000D03*
X85410000Y-50230000D03*
X85410000Y-52770000D03*
X85410000Y-55310000D03*
D21*
X85410000Y-57850000D03*
D20*
X85410000Y-60390000D03*
X85410000Y-62930000D03*
X103190000Y-62930000D03*
X103190000Y-60390000D03*
D21*
X103190000Y-57850000D03*
D20*
X103190000Y-55310000D03*
X103190000Y-52770000D03*
X103190000Y-50230000D03*
X103190000Y-47690000D03*
D21*
X103190000Y-45150000D03*
D20*
X103190000Y-42610000D03*
X103190000Y-40070000D03*
X103190000Y-37530000D03*
X103190000Y-34990000D03*
D21*
X103190000Y-32450000D03*
D20*
X103190000Y-29910000D03*
X103190000Y-27370000D03*
X103190000Y-24830000D03*
X103190000Y-22290000D03*
D21*
X103190000Y-19750000D03*
D20*
X103190000Y-17210000D03*
X103190000Y-14670000D03*
X91760000Y-62700000D03*
D21*
X94300000Y-62700000D03*
D20*
X96840000Y-62700000D03*
%TD*%
D15*
%TO.C,J7*%
X116475000Y-20375000D03*
D14*
X118975000Y-20375000D03*
%TD*%
D13*
%TO.C,J2*%
X23125000Y-72500000D03*
X28125000Y-70000000D03*
X23125000Y-67500000D03*
X28125000Y-65000000D03*
X23125000Y-62500000D03*
X28125000Y-60000000D03*
X23125000Y-57500000D03*
X28125000Y-55000000D03*
X23125000Y-52500000D03*
X28125000Y-50000000D03*
X23125000Y-47500000D03*
X28125000Y-45000000D03*
X23125000Y-42500000D03*
%TD*%
M02*
