%TF.GenerationSoftware,KiCad,Pcbnew,(6.0.7)*%
%TF.CreationDate,2022-09-16T15:15:22+01:00*%
%TF.ProjectId,iso_adc_cvm,69736f5f-6164-4635-9f63-766d2e6b6963,rev?*%
%TF.SameCoordinates,Original*%
%TF.FileFunction,Paste,Top*%
%TF.FilePolarity,Positive*%
%FSLAX46Y46*%
G04 Gerber Fmt 4.6, Leading zero omitted, Abs format (unit mm)*
G04 Created by KiCad (PCBNEW (6.0.7)) date 2022-09-16 15:15:22*
%MOMM*%
%LPD*%
G01*
G04 APERTURE LIST*
G04 Aperture macros list*
%AMRoundRect*
0 Rectangle with rounded corners*
0 $1 Rounding radius*
0 $2 $3 $4 $5 $6 $7 $8 $9 X,Y pos of 4 corners*
0 Add a 4 corners polygon primitive as box body*
4,1,4,$2,$3,$4,$5,$6,$7,$8,$9,$2,$3,0*
0 Add four circle primitives for the rounded corners*
1,1,$1+$1,$2,$3*
1,1,$1+$1,$4,$5*
1,1,$1+$1,$6,$7*
1,1,$1+$1,$8,$9*
0 Add four rect primitives between the rounded corners*
20,1,$1+$1,$2,$3,$4,$5,0*
20,1,$1+$1,$4,$5,$6,$7,0*
20,1,$1+$1,$6,$7,$8,$9,0*
20,1,$1+$1,$8,$9,$2,$3,0*%
G04 Aperture macros list end*
%ADD10RoundRect,0.237500X0.250000X0.237500X-0.250000X0.237500X-0.250000X-0.237500X0.250000X-0.237500X0*%
%ADD11RoundRect,0.237500X0.237500X-0.250000X0.237500X0.250000X-0.237500X0.250000X-0.237500X-0.250000X0*%
%ADD12RoundRect,0.237500X-0.237500X0.250000X-0.237500X-0.250000X0.237500X-0.250000X0.237500X0.250000X0*%
%ADD13RoundRect,0.150000X-0.150000X0.587500X-0.150000X-0.587500X0.150000X-0.587500X0.150000X0.587500X0*%
%ADD14RoundRect,0.150000X0.587500X0.150000X-0.587500X0.150000X-0.587500X-0.150000X0.587500X-0.150000X0*%
%ADD15R,1.705000X0.450000*%
%ADD16RoundRect,0.237500X-0.237500X0.300000X-0.237500X-0.300000X0.237500X-0.300000X0.237500X0.300000X0*%
%ADD17RoundRect,0.237500X-0.300000X-0.237500X0.300000X-0.237500X0.300000X0.237500X-0.300000X0.237500X0*%
%ADD18RoundRect,0.237500X0.300000X0.237500X-0.300000X0.237500X-0.300000X-0.237500X0.300000X-0.237500X0*%
%ADD19RoundRect,0.237500X0.237500X-0.300000X0.237500X0.300000X-0.237500X0.300000X-0.237500X-0.300000X0*%
%ADD20RoundRect,0.237500X-0.250000X-0.237500X0.250000X-0.237500X0.250000X0.237500X-0.250000X0.237500X0*%
G04 APERTURE END LIST*
D10*
%TO.C,R64*%
X119712500Y-47316700D03*
X117887500Y-47316700D03*
%TD*%
%TO.C,R63*%
X114950000Y-41416700D03*
X113125000Y-41416700D03*
%TD*%
%TO.C,R62*%
X119712500Y-66583300D03*
X117887500Y-66583300D03*
%TD*%
%TO.C,R61*%
X119712500Y-37683300D03*
X117887500Y-37683300D03*
%TD*%
%TO.C,R60*%
X114950000Y-60683300D03*
X113125000Y-60683300D03*
%TD*%
%TO.C,R59*%
X114950000Y-31783300D03*
X113125000Y-31783300D03*
%TD*%
D11*
%TO.C,R58*%
X89350000Y-77637500D03*
X89350000Y-79462500D03*
%TD*%
D10*
%TO.C,R57*%
X119712500Y-56950000D03*
X117887500Y-56950000D03*
%TD*%
%TO.C,R56*%
X119725000Y-76333300D03*
X117900000Y-76333300D03*
%TD*%
%TO.C,R55*%
X119725000Y-103383300D03*
X117900000Y-103383300D03*
%TD*%
%TO.C,R54*%
X119725000Y-85350000D03*
X117900000Y-85350000D03*
%TD*%
D11*
%TO.C,R53*%
X95250000Y-72875000D03*
X95250000Y-74700000D03*
%TD*%
D10*
%TO.C,R52*%
X114950000Y-51050000D03*
X113125000Y-51050000D03*
%TD*%
%TO.C,R51*%
X114962500Y-70433300D03*
X113137500Y-70433300D03*
%TD*%
%TO.C,R50*%
X114962500Y-97483300D03*
X113137500Y-97483300D03*
%TD*%
%TO.C,R49*%
X114962500Y-79450000D03*
X113137500Y-79450000D03*
%TD*%
%TO.C,R48*%
X119725000Y-94366700D03*
X117900000Y-94366700D03*
%TD*%
%TO.C,R47*%
X114962500Y-88466700D03*
X113137500Y-88466700D03*
%TD*%
D12*
%TO.C,R46*%
X58498000Y-147112500D03*
X58498000Y-145287500D03*
%TD*%
%TO.C,R45*%
X50878000Y-147112500D03*
X50878000Y-145287500D03*
%TD*%
%TO.C,R44*%
X43458000Y-147112500D03*
X43458000Y-145287500D03*
%TD*%
%TO.C,R43*%
X36150000Y-147112500D03*
X36150000Y-145287500D03*
%TD*%
%TO.C,R42*%
X50998000Y-140700000D03*
X50998000Y-142525000D03*
%TD*%
%TO.C,R41*%
X46998000Y-140700000D03*
X46998000Y-142525000D03*
%TD*%
%TO.C,R40*%
X43498000Y-140700000D03*
X43498000Y-142525000D03*
%TD*%
%TO.C,R39*%
X39748000Y-140787500D03*
X39748000Y-142612500D03*
%TD*%
D13*
%TO.C,Q9*%
X115900000Y-44579200D03*
X114000000Y-44579200D03*
X114950000Y-46454200D03*
%TD*%
%TO.C,Q8*%
X115900000Y-63845800D03*
X114000000Y-63845800D03*
X114950000Y-65720800D03*
%TD*%
%TO.C,Q7*%
X115900000Y-34945800D03*
X114000000Y-34945800D03*
X114950000Y-36820800D03*
%TD*%
D14*
%TO.C,Q6*%
X90212500Y-74700000D03*
X92087500Y-73750000D03*
X92087500Y-75650000D03*
%TD*%
D13*
%TO.C,Q5*%
X115900000Y-54212500D03*
X114000000Y-54212500D03*
X114950000Y-56087500D03*
%TD*%
%TO.C,Q4*%
X115912500Y-73595800D03*
X114012500Y-73595800D03*
X114962500Y-75470800D03*
%TD*%
%TO.C,Q3*%
X115912500Y-100645800D03*
X114012500Y-100645800D03*
X114962500Y-102520800D03*
%TD*%
%TO.C,Q2*%
X115912500Y-82612500D03*
X114012500Y-82612500D03*
X114962500Y-84487500D03*
%TD*%
%TO.C,Q1*%
X115912500Y-91629200D03*
X114012500Y-91629200D03*
X114962500Y-93504200D03*
%TD*%
D15*
%TO.C,IC7*%
X63250000Y-140675000D03*
X63250000Y-141325000D03*
X63250000Y-141975000D03*
X63250000Y-142625000D03*
X63250000Y-143275000D03*
X63250000Y-143925000D03*
X63250000Y-144575000D03*
X63250000Y-145225000D03*
X63250000Y-145875000D03*
X63250000Y-146525000D03*
X70246000Y-146525000D03*
X70246000Y-145875000D03*
X70246000Y-145225000D03*
X70246000Y-144575000D03*
X70246000Y-143925000D03*
X70246000Y-143275000D03*
X70246000Y-142625000D03*
X70246000Y-141975000D03*
X70246000Y-141325000D03*
X70246000Y-140675000D03*
%TD*%
D16*
%TO.C,C77*%
X73998000Y-144837500D03*
X73998000Y-146562500D03*
%TD*%
D17*
%TO.C,C76*%
X73773000Y-140200000D03*
X75498000Y-140200000D03*
%TD*%
D16*
%TO.C,C75*%
X76998000Y-144837500D03*
X76998000Y-146562500D03*
%TD*%
D17*
%TO.C,C74*%
X56515500Y-151200000D03*
X58240500Y-151200000D03*
%TD*%
D18*
%TO.C,C73*%
X52860500Y-151200000D03*
X51135500Y-151200000D03*
%TD*%
D16*
%TO.C,C72*%
X58498000Y-140725000D03*
X58498000Y-142450000D03*
%TD*%
%TO.C,C71*%
X54498000Y-140837500D03*
X54498000Y-142562500D03*
%TD*%
%TO.C,C70*%
X54588000Y-145337500D03*
X54588000Y-147062500D03*
%TD*%
%TO.C,C69*%
X47168000Y-145337500D03*
X47168000Y-147062500D03*
%TD*%
%TO.C,C68*%
X39748000Y-145337500D03*
X39748000Y-147062500D03*
%TD*%
D19*
%TO.C,C67*%
X36190000Y-142475000D03*
X36190000Y-140750000D03*
%TD*%
D16*
%TO.C,C2*%
X39750000Y-108837500D03*
X39750000Y-110562500D03*
%TD*%
D18*
%TO.C,C40*%
X52862500Y-54900000D03*
X51137500Y-54900000D03*
%TD*%
D12*
%TO.C,R25*%
X43500000Y-76487600D03*
X43500000Y-78312600D03*
%TD*%
D16*
%TO.C,C56*%
X77000000Y-112837500D03*
X77000000Y-114562500D03*
%TD*%
D12*
%TO.C,R4*%
X43500000Y-108700000D03*
X43500000Y-110525000D03*
%TD*%
%TO.C,R11*%
X51000000Y-97137500D03*
X51000000Y-98962500D03*
%TD*%
D17*
%TO.C,C45*%
X56517500Y-86900100D03*
X58242500Y-86900100D03*
%TD*%
D12*
%TO.C,R32*%
X43500000Y-65487600D03*
X43500000Y-67312600D03*
%TD*%
%TO.C,R26*%
X47250000Y-76487600D03*
X47250000Y-78312600D03*
%TD*%
%TO.C,R14*%
X50880000Y-113287500D03*
X50880000Y-115112500D03*
%TD*%
%TO.C,R5*%
X47000000Y-108700000D03*
X47000000Y-110525000D03*
%TD*%
%TO.C,R1*%
X43500000Y-92637500D03*
X43500000Y-94462500D03*
%TD*%
D17*
%TO.C,C52*%
X73637500Y-44150000D03*
X75362500Y-44150000D03*
%TD*%
D15*
%TO.C,IC4*%
X63252000Y-44675000D03*
X63252000Y-45325000D03*
X63252000Y-45975000D03*
X63252000Y-46625000D03*
X63252000Y-47275000D03*
X63252000Y-47925000D03*
X63252000Y-48575000D03*
X63252000Y-49225000D03*
X63252000Y-49875000D03*
X63252000Y-50525000D03*
X70248000Y-50525000D03*
X70248000Y-49875000D03*
X70248000Y-49225000D03*
X70248000Y-48575000D03*
X70248000Y-47925000D03*
X70248000Y-47275000D03*
X70248000Y-46625000D03*
X70248000Y-45975000D03*
X70248000Y-45325000D03*
X70248000Y-44675000D03*
%TD*%
D16*
%TO.C,C3*%
X39750000Y-97187500D03*
X39750000Y-98912500D03*
%TD*%
%TO.C,C31*%
X54750000Y-49537500D03*
X54750000Y-51262500D03*
%TD*%
D12*
%TO.C,R9*%
X50998000Y-124700000D03*
X50998000Y-126525000D03*
%TD*%
%TO.C,R2*%
X47250000Y-92637500D03*
X47250000Y-94462500D03*
%TD*%
D16*
%TO.C,C32*%
X39750000Y-60537600D03*
X39750000Y-62262600D03*
%TD*%
%TO.C,C46*%
X54750000Y-44537500D03*
X54750000Y-46262500D03*
%TD*%
%TO.C,C34*%
X39750000Y-65537600D03*
X39750000Y-67262600D03*
%TD*%
D12*
%TO.C,R19*%
X43500000Y-44487500D03*
X43500000Y-46312500D03*
%TD*%
D10*
%TO.C,R37*%
X101237500Y-75900000D03*
X103062500Y-75900000D03*
%TD*%
D16*
%TO.C,C36*%
X54750000Y-65537600D03*
X54750000Y-67262600D03*
%TD*%
D17*
%TO.C,C43*%
X56517500Y-54900000D03*
X58242500Y-54900000D03*
%TD*%
D16*
%TO.C,C23*%
X54498000Y-124837500D03*
X54498000Y-126562500D03*
%TD*%
D12*
%TO.C,R3*%
X51000000Y-92637500D03*
X51000000Y-94462500D03*
%TD*%
D16*
%TO.C,C50*%
X54750000Y-76537600D03*
X54750000Y-78262600D03*
%TD*%
%TO.C,C60*%
X73998000Y-128837500D03*
X73998000Y-130562500D03*
%TD*%
D12*
%TO.C,R29*%
X51000000Y-49487500D03*
X51000000Y-51312500D03*
%TD*%
%TO.C,R30*%
X58500000Y-49487500D03*
X58500000Y-51312500D03*
%TD*%
D16*
%TO.C,C47*%
X58500000Y-44537500D03*
X58500000Y-46262500D03*
%TD*%
D18*
%TO.C,C15*%
X52860500Y-135200000D03*
X51135500Y-135200000D03*
%TD*%
D17*
%TO.C,C18*%
X56515500Y-135200000D03*
X58240500Y-135200000D03*
%TD*%
D16*
%TO.C,C5*%
X54750000Y-97187500D03*
X54750000Y-98912500D03*
%TD*%
D18*
%TO.C,C13*%
X52862500Y-102800000D03*
X51137500Y-102800000D03*
%TD*%
D16*
%TO.C,C49*%
X58500000Y-60537600D03*
X58500000Y-62262600D03*
%TD*%
D12*
%TO.C,R34*%
X43500000Y-81487600D03*
X43500000Y-83312600D03*
%TD*%
D16*
%TO.C,C39*%
X54750000Y-81537600D03*
X54750000Y-83262600D03*
%TD*%
D15*
%TO.C,IC1*%
X63252000Y-92675000D03*
X63252000Y-93325000D03*
X63252000Y-93975000D03*
X63252000Y-94625000D03*
X63252000Y-95275000D03*
X63252000Y-95925000D03*
X63252000Y-96575000D03*
X63252000Y-97225000D03*
X63252000Y-97875000D03*
X63252000Y-98525000D03*
X70248000Y-98525000D03*
X70248000Y-97875000D03*
X70248000Y-97225000D03*
X70248000Y-96575000D03*
X70248000Y-95925000D03*
X70248000Y-95275000D03*
X70248000Y-94625000D03*
X70248000Y-93975000D03*
X70248000Y-93325000D03*
X70248000Y-92675000D03*
%TD*%
D17*
%TO.C,C27*%
X73773000Y-124200000D03*
X75498000Y-124200000D03*
%TD*%
D16*
%TO.C,C37*%
X39750000Y-81537600D03*
X39750000Y-83262600D03*
%TD*%
D12*
%TO.C,R18*%
X58498000Y-129287500D03*
X58498000Y-131112500D03*
%TD*%
%TO.C,R35*%
X51000000Y-81487600D03*
X51000000Y-83312600D03*
%TD*%
D16*
%TO.C,C21*%
X54500000Y-108837500D03*
X54500000Y-110562500D03*
%TD*%
D12*
%TO.C,R21*%
X51000000Y-44487500D03*
X51000000Y-46312500D03*
%TD*%
D18*
%TO.C,C41*%
X52862500Y-70900100D03*
X51137500Y-70900100D03*
%TD*%
D15*
%TO.C,IC3*%
X63250000Y-124675000D03*
X63250000Y-125325000D03*
X63250000Y-125975000D03*
X63250000Y-126625000D03*
X63250000Y-127275000D03*
X63250000Y-127925000D03*
X63250000Y-128575000D03*
X63250000Y-129225000D03*
X63250000Y-129875000D03*
X63250000Y-130525000D03*
X70246000Y-130525000D03*
X70246000Y-129875000D03*
X70246000Y-129225000D03*
X70246000Y-128575000D03*
X70246000Y-127925000D03*
X70246000Y-127275000D03*
X70246000Y-126625000D03*
X70246000Y-125975000D03*
X70246000Y-125325000D03*
X70246000Y-124675000D03*
%TD*%
D18*
%TO.C,C42*%
X52862500Y-86900100D03*
X51137500Y-86900100D03*
%TD*%
D12*
%TO.C,R23*%
X47250000Y-60487600D03*
X47250000Y-62312600D03*
%TD*%
%TO.C,R33*%
X58500000Y-65487600D03*
X58500000Y-67312600D03*
%TD*%
%TO.C,R22*%
X43500000Y-60487600D03*
X43500000Y-62312600D03*
%TD*%
%TO.C,R20*%
X47250000Y-44487500D03*
X47250000Y-46312500D03*
%TD*%
D16*
%TO.C,C35*%
X47250000Y-65537600D03*
X47250000Y-67262600D03*
%TD*%
%TO.C,C59*%
X74000000Y-112837500D03*
X74000000Y-114562500D03*
%TD*%
D12*
%TO.C,R31*%
X51000000Y-65487600D03*
X51000000Y-67312600D03*
%TD*%
%TO.C,R24*%
X51000000Y-60487600D03*
X51000000Y-62312600D03*
%TD*%
D16*
%TO.C,C64*%
X73750000Y-49037500D03*
X73750000Y-50762500D03*
%TD*%
%TO.C,C20*%
X58500000Y-92687500D03*
X58500000Y-94412500D03*
%TD*%
D17*
%TO.C,C16*%
X56517500Y-102800000D03*
X58242500Y-102800000D03*
%TD*%
D12*
%TO.C,R8*%
X46998000Y-124700000D03*
X46998000Y-126525000D03*
%TD*%
%TO.C,R17*%
X50878000Y-129287500D03*
X50878000Y-131112500D03*
%TD*%
D16*
%TO.C,C38*%
X47250000Y-81537600D03*
X47250000Y-83262600D03*
%TD*%
%TO.C,C8*%
X54590000Y-113337500D03*
X54590000Y-115062500D03*
%TD*%
%TO.C,C12*%
X54588000Y-129337500D03*
X54588000Y-131062500D03*
%TD*%
%TO.C,C48*%
X54750000Y-60537600D03*
X54750000Y-62262600D03*
%TD*%
D12*
%TO.C,R7*%
X43498000Y-124700000D03*
X43498000Y-126525000D03*
%TD*%
D16*
%TO.C,C65*%
X73750000Y-65037600D03*
X73750000Y-66762600D03*
%TD*%
%TO.C,C57*%
X76998000Y-128837500D03*
X76998000Y-130562500D03*
%TD*%
D17*
%TO.C,C17*%
X56517500Y-119200000D03*
X58242500Y-119200000D03*
%TD*%
D16*
%TO.C,C22*%
X58500000Y-108725000D03*
X58500000Y-110450000D03*
%TD*%
%TO.C,C10*%
X39748000Y-129337500D03*
X39748000Y-131062500D03*
%TD*%
D12*
%TO.C,R36*%
X58500000Y-81487600D03*
X58500000Y-83312600D03*
%TD*%
D16*
%TO.C,C24*%
X58498000Y-124725000D03*
X58498000Y-126450000D03*
%TD*%
%TO.C,C58*%
X73750000Y-96937500D03*
X73750000Y-98662500D03*
%TD*%
%TO.C,C61*%
X76750000Y-49037500D03*
X76750000Y-50762500D03*
%TD*%
D17*
%TO.C,C44*%
X56517500Y-70900100D03*
X58242500Y-70900100D03*
%TD*%
D16*
%TO.C,C62*%
X76750000Y-65037600D03*
X76750000Y-66762600D03*
%TD*%
%TO.C,C55*%
X77000000Y-96937500D03*
X77000000Y-98662500D03*
%TD*%
%TO.C,C28*%
X39750000Y-44537500D03*
X39750000Y-46262500D03*
%TD*%
%TO.C,C29*%
X39750000Y-49537500D03*
X39750000Y-51262500D03*
%TD*%
%TO.C,C11*%
X47168000Y-129337500D03*
X47168000Y-131062500D03*
%TD*%
D15*
%TO.C,IC2*%
X63252000Y-108675000D03*
X63252000Y-109325000D03*
X63252000Y-109975000D03*
X63252000Y-110625000D03*
X63252000Y-111275000D03*
X63252000Y-111925000D03*
X63252000Y-112575000D03*
X63252000Y-113225000D03*
X63252000Y-113875000D03*
X63252000Y-114525000D03*
X70248000Y-114525000D03*
X70248000Y-113875000D03*
X70248000Y-113225000D03*
X70248000Y-112575000D03*
X70248000Y-111925000D03*
X70248000Y-111275000D03*
X70248000Y-110625000D03*
X70248000Y-109975000D03*
X70248000Y-109325000D03*
X70248000Y-108675000D03*
%TD*%
D12*
%TO.C,R27*%
X51000000Y-76487600D03*
X51000000Y-78312600D03*
%TD*%
%TO.C,R28*%
X43500000Y-49487500D03*
X43500000Y-51312500D03*
%TD*%
%TO.C,R13*%
X43460000Y-113287500D03*
X43460000Y-115112500D03*
%TD*%
D16*
%TO.C,C7*%
X47170000Y-113337500D03*
X47170000Y-115062500D03*
%TD*%
%TO.C,C66*%
X73750000Y-81037600D03*
X73750000Y-82762600D03*
%TD*%
%TO.C,C9*%
X39748000Y-124837500D03*
X39748000Y-126562500D03*
%TD*%
D17*
%TO.C,C53*%
X73637500Y-60150100D03*
X75362500Y-60150100D03*
%TD*%
D16*
%TO.C,C33*%
X39750000Y-76537600D03*
X39750000Y-78262600D03*
%TD*%
%TO.C,C51*%
X58500000Y-76537600D03*
X58500000Y-78262600D03*
%TD*%
D18*
%TO.C,C14*%
X52862500Y-119200000D03*
X51137500Y-119200000D03*
%TD*%
D16*
%TO.C,C30*%
X47250000Y-49537500D03*
X47250000Y-51262500D03*
%TD*%
D12*
%TO.C,R15*%
X58500000Y-113287500D03*
X58500000Y-115112500D03*
%TD*%
D15*
%TO.C,IC5*%
X63252000Y-60675100D03*
X63252000Y-61325100D03*
X63252000Y-61975100D03*
X63252000Y-62625100D03*
X63252000Y-63275100D03*
X63252000Y-63925100D03*
X63252000Y-64575100D03*
X63252000Y-65225100D03*
X63252000Y-65875100D03*
X63252000Y-66525100D03*
X70248000Y-66525100D03*
X70248000Y-65875100D03*
X70248000Y-65225100D03*
X70248000Y-64575100D03*
X70248000Y-63925100D03*
X70248000Y-63275100D03*
X70248000Y-62625100D03*
X70248000Y-61975100D03*
X70248000Y-61325100D03*
X70248000Y-60675100D03*
%TD*%
D12*
%TO.C,R10*%
X43500000Y-97137500D03*
X43500000Y-98962500D03*
%TD*%
%TO.C,R12*%
X58500000Y-97137500D03*
X58500000Y-98962500D03*
%TD*%
D17*
%TO.C,C25*%
X74137500Y-92300000D03*
X75862500Y-92300000D03*
%TD*%
%TO.C,C54*%
X73637500Y-76150100D03*
X75362500Y-76150100D03*
%TD*%
D20*
%TO.C,R38*%
X103062500Y-78900000D03*
X101237500Y-78900000D03*
%TD*%
D17*
%TO.C,C26*%
X73775000Y-108200000D03*
X75500000Y-108200000D03*
%TD*%
D16*
%TO.C,C6*%
X39750000Y-113337500D03*
X39750000Y-115062500D03*
%TD*%
%TO.C,C4*%
X47250000Y-97187500D03*
X47250000Y-98912500D03*
%TD*%
D12*
%TO.C,R6*%
X51000000Y-108700000D03*
X51000000Y-110525000D03*
%TD*%
D16*
%TO.C,C1*%
X39750000Y-92687500D03*
X39750000Y-94412500D03*
%TD*%
%TO.C,C63*%
X76750000Y-81037600D03*
X76750000Y-82762600D03*
%TD*%
D15*
%TO.C,IC6*%
X63252000Y-76675100D03*
X63252000Y-77325100D03*
X63252000Y-77975100D03*
X63252000Y-78625100D03*
X63252000Y-79275100D03*
X63252000Y-79925100D03*
X63252000Y-80575100D03*
X63252000Y-81225100D03*
X63252000Y-81875100D03*
X63252000Y-82525100D03*
X70248000Y-82525100D03*
X70248000Y-81875100D03*
X70248000Y-81225100D03*
X70248000Y-80575100D03*
X70248000Y-79925100D03*
X70248000Y-79275100D03*
X70248000Y-78625100D03*
X70248000Y-77975100D03*
X70248000Y-77325100D03*
X70248000Y-76675100D03*
%TD*%
D16*
%TO.C,C19*%
X54750000Y-92687500D03*
X54750000Y-94412500D03*
%TD*%
D12*
%TO.C,R16*%
X43458000Y-129287500D03*
X43458000Y-131112500D03*
%TD*%
M02*
