%TF.GenerationSoftware,KiCad,Pcbnew,(6.0.7)*%
%TF.CreationDate,2022-09-16T11:30:18+01:00*%
%TF.ProjectId,SCU rig control,53435520-7269-4672-9063-6f6e74726f6c,rev?*%
%TF.SameCoordinates,Original*%
%TF.FileFunction,Plated,1,2,PTH,Drill*%
%TF.FilePolarity,Positive*%
%FSLAX46Y46*%
G04 Gerber Fmt 4.6, Leading zero omitted, Abs format (unit mm)*
G04 Created by KiCad (PCBNEW (6.0.7)) date 2022-09-16 11:30:18*
%MOMM*%
%LPD*%
G01*
G04 APERTURE LIST*
%TA.AperFunction,ViaDrill*%
%ADD10C,0.400000*%
%TD*%
%TA.AperFunction,ComponentDrill*%
%ADD11C,0.800000*%
%TD*%
%TA.AperFunction,ComponentDrill*%
%ADD12C,1.000000*%
%TD*%
%TA.AperFunction,ComponentDrill*%
%ADD13C,1.016000*%
%TD*%
%TA.AperFunction,ComponentDrill*%
%ADD14C,1.200000*%
%TD*%
%TA.AperFunction,ComponentDrill*%
%ADD15C,1.280000*%
%TD*%
%TA.AperFunction,ComponentDrill*%
%ADD16C,1.400000*%
%TD*%
%TA.AperFunction,ComponentDrill*%
%ADD17C,2.499360*%
%TD*%
%TA.AperFunction,ComponentDrill*%
%ADD18C,2.500000*%
%TD*%
G04 APERTURE END LIST*
D10*
X34631200Y-47936000D03*
X65797100Y-35653900D03*
X66428600Y-48462900D03*
X73413100Y-33103100D03*
X76650000Y-65353500D03*
X88536100Y-93087900D03*
X97723200Y-81205100D03*
X99744900Y-82367300D03*
X111995800Y-94018600D03*
X112171400Y-74098000D03*
X113044800Y-115981100D03*
X117628200Y-56703300D03*
X117912000Y-47985800D03*
X119558300Y-60090200D03*
X125088700Y-68467600D03*
X138810000Y-69542300D03*
X139766700Y-73798200D03*
X141626600Y-32008100D03*
X142196500Y-47668000D03*
X147242700Y-60593800D03*
X148088800Y-48793600D03*
X253052000Y-101497600D03*
D11*
%TO.C,J3*%
X43655000Y-36460000D03*
X46195000Y-36460000D03*
X48735000Y-36460000D03*
X51275000Y-36460000D03*
X53815000Y-36460000D03*
X56355000Y-36460000D03*
X58895000Y-36460000D03*
X61435000Y-36460000D03*
X63975000Y-36460000D03*
%TO.C,J2*%
X70030000Y-36460000D03*
X72570000Y-36460000D03*
X75110000Y-36460000D03*
X77650000Y-36460000D03*
X80190000Y-36460000D03*
X82730000Y-36460000D03*
X85270000Y-36460000D03*
X87810000Y-36460000D03*
X90350000Y-36460000D03*
%TO.C,J1*%
X96405000Y-36460000D03*
X98945000Y-36460000D03*
X101485000Y-36460000D03*
X104025000Y-36460000D03*
X106565000Y-36460000D03*
X109105000Y-36460000D03*
X111645000Y-36460000D03*
X114185000Y-36460000D03*
X116725000Y-36460000D03*
%TO.C,C1*%
X162250000Y-88500000D03*
X164250000Y-88500000D03*
D12*
%TO.C,J30*%
X30410000Y-29135000D03*
X30410000Y-31905000D03*
X30410000Y-34675000D03*
X30410000Y-37445000D03*
X30410000Y-40215000D03*
X30410000Y-42985000D03*
X30410000Y-45755000D03*
X33250000Y-27750000D03*
X33250000Y-30520000D03*
X33250000Y-33290000D03*
X33250000Y-36060000D03*
X33250000Y-38830000D03*
X33250000Y-41600000D03*
X33250000Y-44370000D03*
X33250000Y-47140000D03*
%TO.C,U1*%
X141096000Y-22747000D03*
X141096000Y-25287000D03*
X141096000Y-27827000D03*
X141096000Y-30367000D03*
X141096000Y-35447000D03*
X141096000Y-37987000D03*
X141096000Y-40527000D03*
X141096000Y-43067000D03*
X141096000Y-50433000D03*
X141096000Y-52973000D03*
X141096000Y-55513000D03*
X141096000Y-58053000D03*
X141096000Y-63133000D03*
X141096000Y-65673000D03*
X141096000Y-68213000D03*
X141096000Y-70753000D03*
X143636000Y-22747000D03*
X143636000Y-25287000D03*
X143636000Y-27827000D03*
X143636000Y-30367000D03*
X143636000Y-35447000D03*
X143636000Y-37987000D03*
X143636000Y-40527000D03*
X143636000Y-43067000D03*
X143636000Y-50433000D03*
X143636000Y-52973000D03*
X143636000Y-55513000D03*
X143636000Y-58053000D03*
X143636000Y-63133000D03*
X143636000Y-65673000D03*
X143636000Y-68213000D03*
X143636000Y-70753000D03*
X146176000Y-22747000D03*
X146176000Y-25287000D03*
X146176000Y-27827000D03*
X146176000Y-30367000D03*
X146176000Y-35447000D03*
X146176000Y-37987000D03*
X146176000Y-40527000D03*
X146176000Y-43067000D03*
X146176000Y-50433000D03*
X146176000Y-52973000D03*
X146176000Y-55513000D03*
X146176000Y-58053000D03*
X146176000Y-63133000D03*
X146176000Y-65673000D03*
X146176000Y-68213000D03*
X146176000Y-70753000D03*
D13*
%TO.C,Process_MCU1*%
X38296000Y-69950000D03*
X40836000Y-69950000D03*
X43376000Y-69950000D03*
X45916000Y-69950000D03*
X47440000Y-118210000D03*
X48456000Y-69950000D03*
X49980000Y-118210000D03*
X50996000Y-69950000D03*
X52520000Y-118210000D03*
X53536000Y-69950000D03*
X55060000Y-118210000D03*
X56076000Y-69950000D03*
X57600000Y-118210000D03*
X58616000Y-69950000D03*
X60140000Y-118210000D03*
X61156000Y-69950000D03*
X62680000Y-118210000D03*
X65220000Y-69950000D03*
X65220000Y-118210000D03*
X67760000Y-69950000D03*
X70300000Y-69950000D03*
X70300000Y-118210000D03*
X72840000Y-69950000D03*
X72840000Y-118210000D03*
X75380000Y-69950000D03*
X75380000Y-118210000D03*
X77920000Y-69950000D03*
X77920000Y-118210000D03*
X80460000Y-69950000D03*
X80460000Y-118210000D03*
X83000000Y-69950000D03*
X83000000Y-118210000D03*
X83127000Y-90270000D03*
X83127000Y-92810000D03*
X83127000Y-95350000D03*
X85540000Y-118210000D03*
X85667000Y-90270000D03*
X85667000Y-92810000D03*
X85667000Y-95350000D03*
X88080000Y-69950000D03*
X88080000Y-118210000D03*
X90620000Y-69950000D03*
X93160000Y-69950000D03*
X93160000Y-118210000D03*
X95700000Y-69950000D03*
X95700000Y-118210000D03*
X98240000Y-69950000D03*
X98240000Y-118210000D03*
X100780000Y-69950000D03*
X100780000Y-118210000D03*
X103320000Y-69950000D03*
X103320000Y-118210000D03*
X105860000Y-69950000D03*
X105860000Y-118210000D03*
X108400000Y-118210000D03*
X110940000Y-118210000D03*
X113480000Y-69950000D03*
X113480000Y-72490000D03*
X113480000Y-75030000D03*
X113480000Y-77570000D03*
X113480000Y-80110000D03*
X113480000Y-82650000D03*
X113480000Y-85190000D03*
X113480000Y-87730000D03*
X113480000Y-90270000D03*
X113480000Y-92810000D03*
X113480000Y-95350000D03*
X113480000Y-97890000D03*
X113480000Y-100430000D03*
X113480000Y-102970000D03*
X113480000Y-105510000D03*
X113480000Y-108050000D03*
X113480000Y-110590000D03*
X113480000Y-113130000D03*
X116020000Y-69950000D03*
X116020000Y-72490000D03*
X116020000Y-75030000D03*
X116020000Y-77570000D03*
X116020000Y-80110000D03*
X116020000Y-82650000D03*
X116020000Y-85190000D03*
X116020000Y-87730000D03*
X116020000Y-90270000D03*
X116020000Y-92810000D03*
X116020000Y-95350000D03*
X116020000Y-97890000D03*
X116020000Y-100430000D03*
X116020000Y-102970000D03*
X116020000Y-105510000D03*
X116020000Y-108050000D03*
X116020000Y-110590000D03*
X116020000Y-113130000D03*
%TO.C,U1*%
X128650000Y-17667000D03*
X128650000Y-75833000D03*
X131190000Y-17667000D03*
X131190000Y-75833000D03*
X133730000Y-17667000D03*
X133730000Y-75833000D03*
X136270000Y-17667000D03*
X136270000Y-75833000D03*
X138810000Y-17667000D03*
X138810000Y-75833000D03*
X141350000Y-17667000D03*
X141350000Y-75833000D03*
%TO.C,XA1*%
X194700000Y-55480000D03*
X194700000Y-58020000D03*
X194700000Y-65640000D03*
X194700000Y-68180000D03*
X194700000Y-70720000D03*
X194700000Y-73260000D03*
X194700000Y-75800000D03*
X194700000Y-78340000D03*
X194700000Y-80880000D03*
X194700000Y-83420000D03*
X194700000Y-88500000D03*
X194700000Y-91040000D03*
X194700000Y-93580000D03*
X194700000Y-96120000D03*
X194700000Y-98660000D03*
X194700000Y-101200000D03*
X194700000Y-103740000D03*
X194700000Y-106280000D03*
X194700000Y-110344000D03*
X194700000Y-112884000D03*
X194700000Y-115424000D03*
X194700000Y-117964000D03*
X194700000Y-120504000D03*
X194700000Y-123044000D03*
X194700000Y-125584000D03*
X194700000Y-128124000D03*
X194700000Y-130664000D03*
X194700000Y-133204000D03*
X197240000Y-55480000D03*
X197240000Y-58020000D03*
X199780000Y-55480000D03*
X199780000Y-58020000D03*
X202320000Y-55480000D03*
X202320000Y-58020000D03*
X204860000Y-55480000D03*
X204860000Y-58020000D03*
X207400000Y-55480000D03*
X207400000Y-58020000D03*
X209940000Y-55480000D03*
X209940000Y-58020000D03*
X212480000Y-55480000D03*
X212480000Y-58020000D03*
X215020000Y-55480000D03*
X215020000Y-58020000D03*
X215020000Y-85833000D03*
X215020000Y-88373000D03*
X217560000Y-55480000D03*
X217560000Y-58020000D03*
X217560000Y-85833000D03*
X217560000Y-88373000D03*
X220100000Y-55480000D03*
X220100000Y-58020000D03*
X220100000Y-85833000D03*
X220100000Y-88373000D03*
X222640000Y-55480000D03*
X222640000Y-58020000D03*
X225180000Y-55480000D03*
X225180000Y-58020000D03*
X227720000Y-55480000D03*
X227720000Y-58020000D03*
X230260000Y-55480000D03*
X230260000Y-58020000D03*
X232800000Y-55480000D03*
X232800000Y-58020000D03*
X235340000Y-55480000D03*
X235340000Y-58020000D03*
X237880000Y-55480000D03*
X237880000Y-58020000D03*
X242960000Y-60560000D03*
X242960000Y-63100000D03*
X242960000Y-65640000D03*
X242960000Y-68180000D03*
X242960000Y-70720000D03*
X242960000Y-73260000D03*
X242960000Y-75800000D03*
X242960000Y-78340000D03*
X242960000Y-83420000D03*
X242960000Y-85960000D03*
X242960000Y-88500000D03*
X242960000Y-91040000D03*
X242960000Y-93580000D03*
X242960000Y-96120000D03*
X242960000Y-98660000D03*
X242960000Y-101200000D03*
X242960000Y-106280000D03*
X242960000Y-108820000D03*
X242960000Y-111360000D03*
X242960000Y-113900000D03*
X242960000Y-116440000D03*
X242960000Y-118980000D03*
X242960000Y-121520000D03*
X242960000Y-124060000D03*
D14*
%TO.C,R2*%
X21000000Y-40750000D03*
X21000000Y-55990000D03*
%TO.C,R1*%
X21750000Y-61750000D03*
X36990000Y-61750000D03*
%TO.C,J26*%
X60075000Y-47000000D03*
X60075000Y-49500000D03*
X60075000Y-52000000D03*
X60075000Y-54500000D03*
X60075000Y-57000000D03*
%TO.C,J27*%
X100875000Y-47000000D03*
X100875000Y-49500000D03*
X100875000Y-52000000D03*
X100875000Y-54500000D03*
X100875000Y-57000000D03*
%TO.C,R4*%
X128510000Y-82750000D03*
X143750000Y-82750000D03*
%TO.C,R3*%
X153390000Y-74858300D03*
X168630000Y-74858300D03*
D15*
%TO.C,Q2*%
X131250000Y-94000000D03*
%TO.C,Q4*%
X131250000Y-101417000D03*
%TO.C,Q7*%
X131250000Y-108833000D03*
%TO.C,Q1*%
X131250000Y-116250000D03*
%TO.C,Q8*%
X131250000Y-123667000D03*
%TO.C,Q6*%
X131250000Y-131083000D03*
%TO.C,Q5*%
X131250000Y-138500000D03*
%TO.C,Q2*%
X133790000Y-94000000D03*
%TO.C,Q4*%
X133790000Y-101417000D03*
%TO.C,Q7*%
X133790000Y-108833000D03*
%TO.C,Q1*%
X133790000Y-116250000D03*
%TO.C,Q8*%
X133790000Y-123667000D03*
%TO.C,Q6*%
X133790000Y-131083000D03*
%TO.C,Q5*%
X133790000Y-138500000D03*
%TO.C,Q2*%
X136330000Y-94000000D03*
%TO.C,Q4*%
X136330000Y-101417000D03*
%TO.C,Q7*%
X136330000Y-108833000D03*
%TO.C,Q1*%
X136330000Y-116250000D03*
%TO.C,Q8*%
X136330000Y-123667000D03*
%TO.C,Q6*%
X136330000Y-131083000D03*
%TO.C,Q5*%
X136330000Y-138500000D03*
%TO.C,Q9*%
X154920000Y-19000000D03*
%TO.C,Q12*%
X154920000Y-26156700D03*
%TO.C,Q15*%
X154920000Y-33313300D03*
%TO.C,Q10*%
X154920000Y-40470000D03*
%TO.C,Q16*%
X154920000Y-54783300D03*
%TO.C,Q11*%
X154920000Y-61940000D03*
%TO.C,Q3*%
X154920000Y-69096700D03*
%TO.C,Q14*%
X154920000Y-82320000D03*
%TO.C,Q13*%
X155000000Y-47500000D03*
%TO.C,Q9*%
X157460000Y-19000000D03*
%TO.C,Q12*%
X157460000Y-26156700D03*
%TO.C,Q15*%
X157460000Y-33313300D03*
%TO.C,Q10*%
X157460000Y-40470000D03*
%TO.C,Q16*%
X157460000Y-54783300D03*
%TO.C,Q11*%
X157460000Y-61940000D03*
%TO.C,Q3*%
X157460000Y-69096700D03*
%TO.C,Q14*%
X157460000Y-82320000D03*
%TO.C,Q13*%
X157540000Y-47500000D03*
%TO.C,Q9*%
X160000000Y-19000000D03*
%TO.C,Q12*%
X160000000Y-26156700D03*
%TO.C,Q15*%
X160000000Y-33313300D03*
%TO.C,Q10*%
X160000000Y-40470000D03*
%TO.C,Q16*%
X160000000Y-54783300D03*
%TO.C,Q11*%
X160000000Y-61940000D03*
%TO.C,Q3*%
X160000000Y-69096700D03*
%TO.C,Q14*%
X160000000Y-82320000D03*
%TO.C,Q13*%
X160080000Y-47500000D03*
%TO.C,Q17*%
X266750000Y-29420000D03*
X266750000Y-31960000D03*
X266750000Y-34500000D03*
%TO.C,Q18*%
X266750000Y-42420000D03*
X266750000Y-44960000D03*
X266750000Y-47500000D03*
D16*
%TO.C,J10*%
X25250000Y-133000000D03*
X25250000Y-135500000D03*
X25250000Y-138000000D03*
%TO.C,J5*%
X25250000Y-147500000D03*
X25250000Y-150000000D03*
X25250000Y-152500000D03*
X25250000Y-155000000D03*
%TO.C,J17*%
X37944400Y-147500000D03*
X37944400Y-150000000D03*
X37944400Y-152500000D03*
X37944400Y-155000000D03*
%TO.C,J22*%
X38035700Y-133000000D03*
X38035700Y-135500000D03*
X38035700Y-138000000D03*
%TO.C,J4*%
X46500000Y-47000000D03*
X46500000Y-49500000D03*
X46500000Y-52000000D03*
X46500000Y-54500000D03*
%TO.C,J6*%
X50638900Y-147500000D03*
X50638900Y-150000000D03*
X50638900Y-152500000D03*
X50638900Y-155000000D03*
%TO.C,J11*%
X50821400Y-133000000D03*
X50821400Y-135500000D03*
X50821400Y-138000000D03*
%TO.C,J18*%
X63333300Y-147500000D03*
X63333300Y-150000000D03*
X63333300Y-152500000D03*
X63333300Y-155000000D03*
%TO.C,J23*%
X63607100Y-133000000D03*
X63607100Y-135500000D03*
X63607100Y-138000000D03*
%TO.C,J29*%
X73700000Y-47000000D03*
X73700000Y-49500000D03*
X73700000Y-52000000D03*
X73700000Y-54500000D03*
%TO.C,J7*%
X76027800Y-147500000D03*
X76027800Y-150000000D03*
X76027800Y-152500000D03*
X76027800Y-155000000D03*
%TO.C,J12*%
X76392900Y-133000000D03*
X76392900Y-135500000D03*
X76392900Y-138000000D03*
%TO.C,J28*%
X87300000Y-47000000D03*
X87300000Y-49500000D03*
X87300000Y-52000000D03*
%TO.C,J19*%
X88722200Y-147500000D03*
X88722200Y-150000000D03*
X88722200Y-152500000D03*
X88722200Y-155000000D03*
%TO.C,J24*%
X89178600Y-133000000D03*
X89178600Y-135500000D03*
X89178600Y-138000000D03*
%TO.C,J8*%
X101417000Y-147500000D03*
X101417000Y-150000000D03*
X101417000Y-152500000D03*
X101417000Y-155000000D03*
%TO.C,J13*%
X101964000Y-133000000D03*
X101964000Y-135500000D03*
X101964000Y-138000000D03*
%TO.C,J14*%
X113750000Y-46500000D03*
X113750000Y-49000000D03*
%TO.C,J72*%
X113825000Y-56725000D03*
X113825000Y-59225000D03*
X113825000Y-61725000D03*
%TO.C,J20*%
X114111000Y-147500000D03*
X114111000Y-150000000D03*
X114111000Y-152500000D03*
X114111000Y-155000000D03*
%TO.C,J25*%
X114750000Y-133000000D03*
X114750000Y-135500000D03*
X114750000Y-138000000D03*
%TO.C,J9*%
X126806000Y-147500000D03*
X126806000Y-150000000D03*
X126806000Y-152500000D03*
X126806000Y-155000000D03*
%TO.C,J21*%
X139500000Y-147500000D03*
X139500000Y-150000000D03*
X139500000Y-152500000D03*
X139500000Y-155000000D03*
%TO.C,J32*%
X145750000Y-99000000D03*
%TO.C,J31*%
X145750000Y-111500000D03*
%TO.C,J36*%
X145750000Y-124000000D03*
%TO.C,J35*%
X145750000Y-136500000D03*
%TO.C,J32*%
X148250000Y-99000000D03*
%TO.C,J31*%
X148250000Y-111500000D03*
%TO.C,J36*%
X148250000Y-124000000D03*
%TO.C,J35*%
X148250000Y-136500000D03*
%TO.C,J34*%
X157500000Y-99000000D03*
%TO.C,J37*%
X157500000Y-111500000D03*
%TO.C,J38*%
X157500000Y-124000000D03*
%TO.C,J34*%
X160000000Y-99000000D03*
%TO.C,J37*%
X160000000Y-111500000D03*
%TO.C,J38*%
X160000000Y-124000000D03*
%TO.C,J39*%
X176000000Y-20500000D03*
%TO.C,J42*%
X176000000Y-31714800D03*
%TO.C,J45*%
X176000000Y-42929700D03*
%TO.C,J40*%
X176000000Y-54144500D03*
%TO.C,J43*%
X176000000Y-65359400D03*
%TO.C,J46*%
X176000000Y-76574200D03*
%TO.C,J41*%
X176000000Y-87789100D03*
%TO.C,J33*%
X176000000Y-99003900D03*
%TO.C,J44*%
X176000000Y-110500000D03*
%TO.C,J39*%
X178500000Y-20500000D03*
%TO.C,J42*%
X178500000Y-31714800D03*
%TO.C,J45*%
X178500000Y-42929700D03*
%TO.C,J40*%
X178500000Y-54144500D03*
%TO.C,J43*%
X178500000Y-65359400D03*
%TO.C,J46*%
X178500000Y-76574200D03*
%TO.C,J41*%
X178500000Y-87789100D03*
%TO.C,J33*%
X178500000Y-99003900D03*
%TO.C,J44*%
X178500000Y-110500000D03*
%TO.C,J61*%
X195750000Y-27750000D03*
%TO.C,J60*%
X195750000Y-43500000D03*
%TO.C,J61*%
X198250000Y-27750000D03*
%TO.C,J60*%
X198250000Y-43500000D03*
%TO.C,J59*%
X207812500Y-27750000D03*
%TO.C,J58*%
X207812500Y-43500000D03*
%TO.C,J59*%
X210312500Y-27750000D03*
%TO.C,J58*%
X210312500Y-43500000D03*
%TO.C,J57*%
X219875000Y-27750000D03*
%TO.C,J56*%
X219875000Y-43500000D03*
%TO.C,J57*%
X222375000Y-27750000D03*
%TO.C,J56*%
X222375000Y-43500000D03*
%TO.C,J55*%
X231937500Y-27750000D03*
%TO.C,J54*%
X231937500Y-43500000D03*
%TO.C,J55*%
X234437500Y-27750000D03*
%TO.C,J54*%
X234437500Y-43500000D03*
%TO.C,J53*%
X244000000Y-27750000D03*
%TO.C,J52*%
X244000000Y-43500000D03*
%TO.C,J53*%
X246500000Y-27750000D03*
%TO.C,J52*%
X246500000Y-43500000D03*
%TO.C,J70*%
X255250000Y-57750000D03*
X255250000Y-60250000D03*
%TO.C,J67*%
X255500000Y-70500000D03*
X255500000Y-73000000D03*
X255500000Y-75500000D03*
%TO.C,J51*%
X255750000Y-84250000D03*
X255750000Y-86750000D03*
X255750000Y-89250000D03*
%TO.C,J50*%
X255750000Y-98875000D03*
X255750000Y-101375000D03*
X255750000Y-103875000D03*
%TO.C,J49*%
X255750000Y-113500000D03*
X255750000Y-116000000D03*
X255750000Y-118500000D03*
%TO.C,J48*%
X255750000Y-128125000D03*
X255750000Y-130625000D03*
X255750000Y-133125000D03*
%TO.C,J47*%
X255750000Y-142750000D03*
X255750000Y-145250000D03*
X255750000Y-147750000D03*
%TO.C,J69*%
X256960000Y-43225000D03*
X256960000Y-45725000D03*
%TO.C,J68*%
X257000000Y-30500000D03*
X257000000Y-33000000D03*
%TO.C,J66*%
X269750000Y-84250000D03*
X269750000Y-86750000D03*
X269750000Y-89250000D03*
%TO.C,J65*%
X269750000Y-98875000D03*
X269750000Y-101375000D03*
X269750000Y-103875000D03*
%TO.C,J64*%
X269750000Y-113500000D03*
X269750000Y-116000000D03*
X269750000Y-118500000D03*
%TO.C,J63*%
X269750000Y-128125000D03*
X269750000Y-130625000D03*
X269750000Y-133125000D03*
%TO.C,J62*%
X269750000Y-142750000D03*
X269750000Y-145250000D03*
X269750000Y-147750000D03*
%TO.C,J71*%
X270000000Y-65750000D03*
X270000000Y-68250000D03*
D17*
%TO.C,J16*%
X171630000Y-123250000D03*
%TO.C,J15*%
X171630000Y-134750000D03*
%TO.C,J16*%
X179250000Y-123250000D03*
%TO.C,J15*%
X179250000Y-134750000D03*
D18*
%TO.C,U1*%
X125602000Y-18937000D03*
X125602000Y-74563000D03*
X144398000Y-18937000D03*
X144398000Y-74563000D03*
M02*
