%TF.GenerationSoftware,KiCad,Pcbnew,(6.0.7)*%
%TF.CreationDate,2022-09-16T11:30:14+01:00*%
%TF.ProjectId,SCU rig control,53435520-7269-4672-9063-6f6e74726f6c,rev?*%
%TF.SameCoordinates,Original*%
%TF.FileFunction,Profile,NP*%
%FSLAX46Y46*%
G04 Gerber Fmt 4.6, Leading zero omitted, Abs format (unit mm)*
G04 Created by KiCad (PCBNEW (6.0.7)) date 2022-09-16 11:30:14*
%MOMM*%
%LPD*%
G01*
G04 APERTURE LIST*
%TA.AperFunction,Profile*%
%ADD10C,0.050000*%
%TD*%
G04 APERTURE END LIST*
D10*
X187500000Y-158500000D02*
X187500000Y-145250000D01*
X12000000Y-158500000D02*
X12000000Y-15500000D01*
X12000000Y-158500000D02*
G75*
G03*
X15500000Y-162000000I3500000J0D01*
G01*
X181000000Y-162000000D02*
X15500000Y-162000000D01*
X184500000Y-15500000D02*
G75*
G03*
X181000000Y-12000000I-3500000J0D01*
G01*
X184500000Y-86249984D02*
G75*
G03*
X187500000Y-86249984I1500000J-16D01*
G01*
X184500000Y-92500000D02*
X184500000Y-138999984D01*
X191000000Y-162000000D02*
X274000000Y-162000000D01*
X187500000Y-34750000D02*
G75*
G03*
X184500000Y-34750000I-1500000J16D01*
G01*
X184500000Y-34750000D02*
X184500000Y-86249984D01*
X187500000Y-145250000D02*
G75*
G03*
X184500000Y-145250000I-1500000J16D01*
G01*
X191000000Y-12000000D02*
G75*
G03*
X187500000Y-15500000I0J-3500000D01*
G01*
X277500000Y-15500000D02*
G75*
G03*
X274000000Y-12000000I-3500000J0D01*
G01*
X184500000Y-15500000D02*
X184500000Y-28499984D01*
X184500000Y-28499984D02*
G75*
G03*
X187500000Y-28499984I1500000J-16D01*
G01*
X15500000Y-12000000D02*
G75*
G03*
X12000000Y-15500000I0J-3500000D01*
G01*
X15500000Y-12000000D02*
X181000000Y-12000000D01*
X187500000Y-28499984D02*
X187500000Y-15500000D01*
X187500000Y-158500000D02*
G75*
G03*
X191000000Y-162000000I3500000J0D01*
G01*
X274000000Y-162000000D02*
G75*
G03*
X277500000Y-158500000I0J3500000D01*
G01*
X187500000Y-138999984D02*
X187500000Y-92500000D01*
X187500000Y-92500000D02*
G75*
G03*
X184500000Y-92500000I-1500000J16D01*
G01*
X184500000Y-138999984D02*
G75*
G03*
X187500000Y-138999984I1500000J-16D01*
G01*
X277500000Y-158500000D02*
X277500000Y-15500000D01*
X184500000Y-145250000D02*
X184500000Y-158500000D01*
X274000000Y-12000000D02*
X191000000Y-12000000D01*
X181000000Y-162000000D02*
G75*
G03*
X184500000Y-158500000I0J3500000D01*
G01*
X187500000Y-86249984D02*
X187500000Y-34750000D01*
M02*
