%TF.GenerationSoftware,KiCad,Pcbnew,(6.0.7)*%
%TF.CreationDate,2022-10-24T16:08:39+01:00*%
%TF.ProjectId,controlCircuit,636f6e74-726f-46c4-9369-72637569742e,rev?*%
%TF.SameCoordinates,Original*%
%TF.FileFunction,Soldermask,Bot*%
%TF.FilePolarity,Negative*%
%FSLAX46Y46*%
G04 Gerber Fmt 4.6, Leading zero omitted, Abs format (unit mm)*
G04 Created by KiCad (PCBNEW (6.0.7)) date 2022-10-24 16:08:39*
%MOMM*%
%LPD*%
G01*
G04 APERTURE LIST*
%ADD10C,1.400000*%
%ADD11C,4.650000*%
%ADD12R,2.100000X2.100000*%
%ADD13C,2.100000*%
%ADD14R,1.200000X1.200000*%
%ADD15C,1.200000*%
%ADD16C,2.500000*%
%ADD17O,1.800000X1.800000*%
%ADD18O,1.500000X1.500000*%
%ADD19O,1.700000X1.700000*%
%ADD20R,1.700000X1.700000*%
G04 APERTURE END LIST*
D10*
%TO.C,EXT_CON1*%
X185466000Y-65545500D03*
X185466000Y-68305500D03*
X185466000Y-71065500D03*
X185466000Y-73825500D03*
X185466000Y-76585500D03*
X185466000Y-79345500D03*
X185466000Y-82105500D03*
X185466000Y-84865500D03*
X185466000Y-87625500D03*
X185466000Y-90385500D03*
X185466000Y-93145500D03*
X185466000Y-95905500D03*
X185466000Y-98665500D03*
X188306000Y-66925500D03*
X188306000Y-69685500D03*
X188306000Y-72445500D03*
X188306000Y-75205500D03*
X188306000Y-77965500D03*
X188306000Y-80725500D03*
X188306000Y-83485500D03*
X188306000Y-86245500D03*
X188306000Y-89005500D03*
X188306000Y-91765500D03*
X188306000Y-94525500D03*
X188306000Y-97285500D03*
D11*
X186886000Y-58585500D03*
X186886000Y-105625500D03*
%TD*%
D12*
%TO.C,flags1*%
X57646000Y-87693500D03*
D13*
X57646000Y-90193500D03*
X57646000Y-92693500D03*
%TD*%
D12*
%TO.C,IGBT_1_Gate1*%
X77842000Y-135321500D03*
D13*
X75342000Y-135321500D03*
%TD*%
D12*
%TO.C,I2C_1*%
X57646000Y-72961500D03*
D13*
X57646000Y-75461500D03*
X57646000Y-77961500D03*
X57646000Y-80461500D03*
%TD*%
D12*
%TO.C,I2C1*%
X226154000Y-59760500D03*
D13*
X223654000Y-59760500D03*
X221154000Y-59760500D03*
X218654000Y-59760500D03*
%TD*%
D12*
%TO.C,I2C_0*%
X57646000Y-58315500D03*
D13*
X57646000Y-60815500D03*
X57646000Y-63315500D03*
X57646000Y-65815500D03*
%TD*%
D12*
%TO.C,IGBT_2_Gate1*%
X127839000Y-135321500D03*
D13*
X125339000Y-135321500D03*
%TD*%
D14*
%TO.C,C3*%
X178816000Y-96266000D03*
D15*
X178816000Y-98266000D03*
%TD*%
D16*
%TO.C,J10*%
X226916000Y-100901500D03*
X221836000Y-100901500D03*
X216756000Y-100901500D03*
X238836000Y-136901500D03*
X238836000Y-108901500D03*
X204836000Y-108901500D03*
X204836000Y-136901500D03*
%TD*%
D12*
%TO.C,5VD_supply1*%
X75692000Y-59436000D03*
D13*
X73192000Y-59436000D03*
%TD*%
D12*
%TO.C,12V_supply1*%
X190011000Y-133708500D03*
D13*
X190011000Y-136208500D03*
%TD*%
D12*
%TO.C,FC_V1*%
X190011000Y-114445500D03*
D13*
X190011000Y-116945500D03*
%TD*%
D14*
%TO.C,C4*%
X178816000Y-110744000D03*
D15*
X178816000Y-112744000D03*
%TD*%
D17*
%TO.C,U2*%
X104325000Y-56600500D03*
D18*
X99175000Y-59630500D03*
D17*
X98875000Y-56600500D03*
D18*
X104025000Y-59630500D03*
D19*
X92710000Y-56470500D03*
X92710000Y-59010500D03*
D20*
X92710000Y-61550500D03*
D19*
X92710000Y-64090500D03*
X92710000Y-66630500D03*
X92710000Y-69170500D03*
X92710000Y-71710500D03*
D20*
X92710000Y-74250500D03*
D19*
X92710000Y-76790500D03*
X92710000Y-79330500D03*
X92710000Y-81870500D03*
X92710000Y-84410500D03*
D20*
X92710000Y-86950500D03*
D19*
X92710000Y-89490500D03*
X92710000Y-92030500D03*
X92710000Y-94570500D03*
X92710000Y-97110500D03*
D20*
X92710000Y-99650500D03*
D19*
X92710000Y-102190500D03*
X92710000Y-104730500D03*
X110490000Y-104730500D03*
X110490000Y-102190500D03*
D20*
X110490000Y-99650500D03*
D19*
X110490000Y-97110500D03*
X110490000Y-94570500D03*
X110490000Y-92030500D03*
X110490000Y-89490500D03*
D20*
X110490000Y-86950500D03*
D19*
X110490000Y-84410500D03*
X110490000Y-81870500D03*
X110490000Y-79330500D03*
X110490000Y-76790500D03*
D20*
X110490000Y-74250500D03*
D19*
X110490000Y-71710500D03*
X110490000Y-69170500D03*
X110490000Y-66630500D03*
X110490000Y-64090500D03*
D20*
X110490000Y-61550500D03*
D19*
X110490000Y-59010500D03*
X110490000Y-56470500D03*
X99060000Y-104500500D03*
D20*
X101600000Y-104500500D03*
D19*
X104140000Y-104500500D03*
%TD*%
D12*
%TO.C,UART_1*%
X57646000Y-99885500D03*
D13*
X57646000Y-102385500D03*
X57646000Y-104885500D03*
%TD*%
D12*
%TO.C,UART_0*%
X57646000Y-112077500D03*
D13*
X57646000Y-114577500D03*
X57646000Y-117077500D03*
%TD*%
D12*
%TO.C,5V_supply1*%
X190011000Y-124056500D03*
D13*
X190011000Y-126556500D03*
%TD*%
M02*
