%TF.GenerationSoftware,KiCad,Pcbnew,(6.0.7)*%
%TF.CreationDate,2022-10-24T16:08:39+01:00*%
%TF.ProjectId,controlCircuit,636f6e74-726f-46c4-9369-72637569742e,rev?*%
%TF.SameCoordinates,Original*%
%TF.FileFunction,Paste,Top*%
%TF.FilePolarity,Positive*%
%FSLAX46Y46*%
G04 Gerber Fmt 4.6, Leading zero omitted, Abs format (unit mm)*
G04 Created by KiCad (PCBNEW (6.0.7)) date 2022-10-24 16:08:39*
%MOMM*%
%LPD*%
G01*
G04 APERTURE LIST*
G04 Aperture macros list*
%AMRoundRect*
0 Rectangle with rounded corners*
0 $1 Rounding radius*
0 $2 $3 $4 $5 $6 $7 $8 $9 X,Y pos of 4 corners*
0 Add a 4 corners polygon primitive as box body*
4,1,4,$2,$3,$4,$5,$6,$7,$8,$9,$2,$3,0*
0 Add four circle primitives for the rounded corners*
1,1,$1+$1,$2,$3*
1,1,$1+$1,$4,$5*
1,1,$1+$1,$6,$7*
1,1,$1+$1,$8,$9*
0 Add four rect primitives between the rounded corners*
20,1,$1+$1,$2,$3,$4,$5,0*
20,1,$1+$1,$4,$5,$6,$7,0*
20,1,$1+$1,$6,$7,$8,$9,0*
20,1,$1+$1,$8,$9,$2,$3,0*%
G04 Aperture macros list end*
%ADD10RoundRect,0.237500X-0.237500X0.300000X-0.237500X-0.300000X0.237500X-0.300000X0.237500X0.300000X0*%
%ADD11RoundRect,0.150000X0.587500X0.150000X-0.587500X0.150000X-0.587500X-0.150000X0.587500X-0.150000X0*%
%ADD12RoundRect,0.237500X-0.237500X0.250000X-0.237500X-0.250000X0.237500X-0.250000X0.237500X0.250000X0*%
%ADD13RoundRect,0.237500X0.250000X0.237500X-0.250000X0.237500X-0.250000X-0.237500X0.250000X-0.237500X0*%
%ADD14RoundRect,0.237500X0.300000X0.237500X-0.300000X0.237500X-0.300000X-0.237500X0.300000X-0.237500X0*%
%ADD15RoundRect,0.237500X-0.287500X-0.237500X0.287500X-0.237500X0.287500X0.237500X-0.287500X0.237500X0*%
%ADD16R,1.495000X0.435000*%
%ADD17R,0.710000X0.580000*%
%ADD18R,0.750000X0.300000*%
%ADD19RoundRect,0.150000X-0.587500X-0.150000X0.587500X-0.150000X0.587500X0.150000X-0.587500X0.150000X0*%
%ADD20RoundRect,0.237500X0.237500X-0.300000X0.237500X0.300000X-0.237500X0.300000X-0.237500X-0.300000X0*%
%ADD21R,0.750000X1.200000*%
%ADD22RoundRect,0.237500X-0.250000X-0.237500X0.250000X-0.237500X0.250000X0.237500X-0.250000X0.237500X0*%
%ADD23RoundRect,0.237500X-0.300000X-0.237500X0.300000X-0.237500X0.300000X0.237500X-0.300000X0.237500X0*%
%ADD24R,1.705000X0.450000*%
%ADD25RoundRect,0.237500X0.237500X-0.250000X0.237500X0.250000X-0.237500X0.250000X-0.237500X-0.250000X0*%
%ADD26R,4.230000X2.400000*%
%ADD27R,6.500000X8.000000*%
%ADD28R,4.020000X11.000000*%
%ADD29R,1.200000X0.600000*%
%ADD30R,0.650000X1.800000*%
G04 APERTURE END LIST*
D10*
%TO.C,C1*%
X155920000Y-107087500D03*
X155920000Y-108812500D03*
%TD*%
D11*
%TO.C,Q8*%
X77391500Y-83719500D03*
X77391500Y-81819500D03*
X75516500Y-82769500D03*
%TD*%
D12*
%TO.C,R47*%
X212852000Y-77423000D03*
X212852000Y-79248000D03*
%TD*%
D13*
%TO.C,R20*%
X157630500Y-81788000D03*
X155805500Y-81788000D03*
%TD*%
D12*
%TO.C,R8*%
X167132000Y-86821000D03*
X167132000Y-88646000D03*
%TD*%
D14*
%TO.C,C5*%
X152536500Y-120904000D03*
X150811500Y-120904000D03*
%TD*%
D15*
%TO.C,D7*%
X150587500Y-99314000D03*
X152337500Y-99314000D03*
%TD*%
D13*
%TO.C,R31*%
X126896500Y-62484000D03*
X125071500Y-62484000D03*
%TD*%
D15*
%TO.C,D3*%
X150844000Y-81788000D03*
X152594000Y-81788000D03*
%TD*%
%TO.C,D2*%
X150844000Y-75946000D03*
X152594000Y-75946000D03*
%TD*%
D12*
%TO.C,R37*%
X156567500Y-61571500D03*
X156567500Y-63396500D03*
%TD*%
D10*
%TO.C,C16*%
X226060000Y-79047000D03*
X226060000Y-80772000D03*
%TD*%
D16*
%TO.C,IC1*%
X138268000Y-73405500D03*
X138268000Y-74041500D03*
X138268000Y-74675500D03*
X138268000Y-75311500D03*
X138268000Y-75945500D03*
X138268000Y-76581500D03*
X138268000Y-77215500D03*
X138268000Y-77851500D03*
X138268000Y-78485500D03*
X138268000Y-79121500D03*
X143672000Y-79121500D03*
X143672000Y-78485500D03*
X143672000Y-77851500D03*
X143672000Y-77215500D03*
X143672000Y-76581500D03*
X143672000Y-75945500D03*
X143672000Y-75311500D03*
X143672000Y-74675500D03*
X143672000Y-74041500D03*
X143672000Y-73405500D03*
%TD*%
D10*
%TO.C,C22*%
X156718000Y-131587500D03*
X156718000Y-133312500D03*
%TD*%
D17*
%TO.C,U1*%
X218510500Y-79647500D03*
X219385500Y-80372500D03*
X219385500Y-79647500D03*
X218510500Y-80372500D03*
D18*
X220398000Y-80760000D03*
X220398000Y-80260000D03*
X220398000Y-79760000D03*
X220398000Y-79260000D03*
X217498000Y-79260000D03*
X217498000Y-79760000D03*
X217498000Y-80260000D03*
X217498000Y-80760000D03*
%TD*%
D12*
%TO.C,R56*%
X69850000Y-81741000D03*
X69850000Y-83566000D03*
%TD*%
D19*
%TO.C,Q6*%
X177878500Y-67884000D03*
X177878500Y-69784000D03*
X179753500Y-68834000D03*
%TD*%
D13*
%TO.C,R45*%
X179728500Y-132588000D03*
X177903500Y-132588000D03*
%TD*%
D12*
%TO.C,R57*%
X69850000Y-95819000D03*
X69850000Y-97644000D03*
%TD*%
D20*
%TO.C,C6*%
X151384000Y-108812500D03*
X151384000Y-107087500D03*
%TD*%
D12*
%TO.C,R58*%
X69850000Y-74735000D03*
X69850000Y-76560000D03*
%TD*%
%TO.C,R53*%
X82042000Y-88791500D03*
X82042000Y-90616500D03*
%TD*%
D21*
%TO.C,D9*%
X170688000Y-134444000D03*
X170688000Y-137844000D03*
%TD*%
D11*
%TO.C,Q9*%
X77645500Y-97731500D03*
X77645500Y-95831500D03*
X75770500Y-96781500D03*
%TD*%
D22*
%TO.C,R27*%
X177903500Y-92964000D03*
X179728500Y-92964000D03*
%TD*%
D23*
%TO.C,C7*%
X150811500Y-115824000D03*
X152536500Y-115824000D03*
%TD*%
D15*
%TO.C,D6*%
X119970500Y-62484000D03*
X121720500Y-62484000D03*
%TD*%
D12*
%TO.C,R36*%
X161798000Y-61571500D03*
X161798000Y-63396500D03*
%TD*%
%TO.C,R6*%
X125984000Y-85701500D03*
X125984000Y-87526500D03*
%TD*%
D10*
%TO.C,C21*%
X156718000Y-125745500D03*
X156718000Y-127470500D03*
%TD*%
D13*
%TO.C,R22*%
X157349000Y-99568000D03*
X155524000Y-99568000D03*
%TD*%
D24*
%TO.C,IC3*%
X144468000Y-114494500D03*
X144468000Y-113844500D03*
X144468000Y-113194500D03*
X144468000Y-112544500D03*
X144468000Y-111894500D03*
X144468000Y-111244500D03*
X144468000Y-110594500D03*
X144468000Y-109944500D03*
X144468000Y-109294500D03*
X144468000Y-108644500D03*
X137472000Y-108644500D03*
X137472000Y-109294500D03*
X137472000Y-109944500D03*
X137472000Y-110594500D03*
X137472000Y-111244500D03*
X137472000Y-111894500D03*
X137472000Y-112544500D03*
X137472000Y-113194500D03*
X137472000Y-113844500D03*
X137472000Y-114494500D03*
%TD*%
D13*
%TO.C,R32*%
X162710500Y-121158000D03*
X160885500Y-121158000D03*
%TD*%
D20*
%TO.C,C8*%
X122682000Y-104177000D03*
X122682000Y-102452000D03*
%TD*%
D13*
%TO.C,R33*%
X157630500Y-121158000D03*
X155805500Y-121158000D03*
%TD*%
D10*
%TO.C,C10*%
X128778000Y-102515500D03*
X128778000Y-104240500D03*
%TD*%
%TO.C,C14*%
X109728000Y-124359500D03*
X109728000Y-126084500D03*
%TD*%
D12*
%TO.C,R46*%
X161798000Y-131537500D03*
X161798000Y-133362500D03*
%TD*%
%TO.C,R44*%
X161798000Y-125695500D03*
X161798000Y-127520500D03*
%TD*%
%TO.C,R39*%
X226060000Y-84685500D03*
X226060000Y-86510500D03*
%TD*%
D25*
%TO.C,R13*%
X161798000Y-93876500D03*
X161798000Y-92051500D03*
%TD*%
D19*
%TO.C,Q12*%
X166448500Y-74845500D03*
X166448500Y-76745500D03*
X168323500Y-75795500D03*
%TD*%
D25*
%TO.C,R30*%
X130556000Y-63396500D03*
X130556000Y-61571500D03*
%TD*%
D26*
%TO.C,R48*%
X135419000Y-131381500D03*
X135419000Y-136461500D03*
D27*
X143034000Y-133921500D03*
D28*
X148293000Y-133921500D03*
%TD*%
D26*
%TO.C,R51*%
X68580000Y-136461500D03*
X68580000Y-131381500D03*
D28*
X55706000Y-133921500D03*
D27*
X60965000Y-133921500D03*
%TD*%
D13*
%TO.C,R43*%
X179728500Y-126746000D03*
X177903500Y-126746000D03*
%TD*%
%TO.C,R16*%
X157630500Y-68834000D03*
X155805500Y-68834000D03*
%TD*%
D10*
%TO.C,C13*%
X92964000Y-124206000D03*
X92964000Y-125931000D03*
%TD*%
D19*
%TO.C,Q2*%
X172036500Y-92014000D03*
X172036500Y-93914000D03*
X173911500Y-92964000D03*
%TD*%
D14*
%TO.C,C12*%
X157580500Y-116232000D03*
X155855500Y-116232000D03*
%TD*%
D12*
%TO.C,R40*%
X167282500Y-69803000D03*
X167282500Y-71628000D03*
%TD*%
%TO.C,R24*%
X178816000Y-86971500D03*
X178816000Y-88796500D03*
%TD*%
D10*
%TO.C,C18*%
X212852000Y-84582000D03*
X212852000Y-86307000D03*
%TD*%
D29*
%TO.C,IC6*%
X227310000Y-73086000D03*
X227310000Y-72136000D03*
X227310000Y-71186000D03*
X224810000Y-71186000D03*
X224810000Y-73086000D03*
%TD*%
D15*
%TO.C,D4*%
X150869000Y-92964000D03*
X152619000Y-92964000D03*
%TD*%
D25*
%TO.C,R19*%
X161798000Y-82700500D03*
X161798000Y-80875500D03*
%TD*%
D19*
%TO.C,Q11*%
X172036500Y-105476000D03*
X172036500Y-107376000D03*
X173911500Y-106426000D03*
%TD*%
D22*
%TO.C,R7*%
X119913000Y-91994500D03*
X121738000Y-91994500D03*
%TD*%
%TO.C,R25*%
X166219500Y-100941500D03*
X168044500Y-100941500D03*
%TD*%
D12*
%TO.C,R52*%
X82042000Y-74779500D03*
X82042000Y-76604500D03*
%TD*%
D21*
%TO.C,D8*%
X170688000Y-125808000D03*
X170688000Y-129208000D03*
%TD*%
D15*
%TO.C,D1*%
X150844000Y-68834000D03*
X152594000Y-68834000D03*
%TD*%
D19*
%TO.C,Q4*%
X177878500Y-80838000D03*
X177878500Y-82738000D03*
X179753500Y-81788000D03*
%TD*%
D10*
%TO.C,C17*%
X218948000Y-87376000D03*
X218948000Y-89101000D03*
%TD*%
D19*
%TO.C,Q3*%
X172036500Y-74996000D03*
X172036500Y-76896000D03*
X173911500Y-75946000D03*
%TD*%
D16*
%TO.C,IC7*%
X138268000Y-89661500D03*
X138268000Y-90297500D03*
X138268000Y-90931500D03*
X138268000Y-91567500D03*
X138268000Y-92201500D03*
X138268000Y-92837500D03*
X138268000Y-93471500D03*
X138268000Y-94107500D03*
X138268000Y-94741500D03*
X138268000Y-95377500D03*
X143672000Y-95377500D03*
X143672000Y-94741500D03*
X143672000Y-94107500D03*
X143672000Y-93471500D03*
X143672000Y-92837500D03*
X143672000Y-92201500D03*
X143672000Y-91567500D03*
X143672000Y-90931500D03*
X143672000Y-90297500D03*
X143672000Y-89661500D03*
%TD*%
D13*
%TO.C,R18*%
X157630500Y-75946000D03*
X155805500Y-75946000D03*
%TD*%
D12*
%TO.C,R59*%
X69850000Y-88747000D03*
X69850000Y-90572000D03*
%TD*%
D26*
%TO.C,R50*%
X85034000Y-131381500D03*
X85034000Y-136461500D03*
D27*
X92649000Y-133921500D03*
D28*
X97908000Y-133921500D03*
%TD*%
D25*
%TO.C,R21*%
X161516500Y-100480500D03*
X161516500Y-98655500D03*
%TD*%
D20*
%TO.C,C2*%
X92964000Y-114146500D03*
X92964000Y-112421500D03*
%TD*%
D11*
%TO.C,Q7*%
X77645500Y-90725500D03*
X77645500Y-88825500D03*
X75770500Y-89775500D03*
%TD*%
D12*
%TO.C,R35*%
X156718000Y-56745500D03*
X156718000Y-58570500D03*
%TD*%
%TO.C,R54*%
X82042000Y-81785500D03*
X82042000Y-83610500D03*
%TD*%
D25*
%TO.C,R15*%
X161798000Y-69746500D03*
X161798000Y-67921500D03*
%TD*%
D12*
%TO.C,R34*%
X161798000Y-56745500D03*
X161798000Y-58570500D03*
%TD*%
D10*
%TO.C,C9*%
X128778000Y-109273000D03*
X128778000Y-110998000D03*
%TD*%
D22*
%TO.C,R11*%
X119913000Y-96265500D03*
X121738000Y-96265500D03*
%TD*%
D25*
%TO.C,R10*%
X130556000Y-58570500D03*
X130556000Y-56745500D03*
%TD*%
D22*
%TO.C,R26*%
X172061500Y-101092000D03*
X173886500Y-101092000D03*
%TD*%
D12*
%TO.C,R4*%
X125984000Y-79605500D03*
X125984000Y-81430500D03*
%TD*%
D22*
%TO.C,R42*%
X177903500Y-106426000D03*
X179728500Y-106426000D03*
%TD*%
D12*
%TO.C,R2*%
X125984000Y-74525500D03*
X125984000Y-76350500D03*
%TD*%
D16*
%TO.C,IC2*%
X143672000Y-63627500D03*
X143672000Y-62991500D03*
X143672000Y-62357500D03*
X143672000Y-61721500D03*
X143672000Y-61087500D03*
X143672000Y-60451500D03*
X143672000Y-59817500D03*
X143672000Y-59181500D03*
X143672000Y-58547500D03*
X143672000Y-57911500D03*
X138268000Y-57911500D03*
X138268000Y-58547500D03*
X138268000Y-59181500D03*
X138268000Y-59817500D03*
X138268000Y-60451500D03*
X138268000Y-61087500D03*
X138268000Y-61721500D03*
X138268000Y-62357500D03*
X138268000Y-62991500D03*
X138268000Y-63627500D03*
%TD*%
D22*
%TO.C,R1*%
X119913000Y-75502000D03*
X121738000Y-75502000D03*
%TD*%
D12*
%TO.C,R55*%
X82042000Y-95819000D03*
X82042000Y-97644000D03*
%TD*%
D19*
%TO.C,Q10*%
X166194500Y-105325500D03*
X166194500Y-107225500D03*
X168069500Y-106275500D03*
%TD*%
D13*
%TO.C,R14*%
X157630500Y-92964000D03*
X155805500Y-92964000D03*
%TD*%
D25*
%TO.C,R38*%
X226060000Y-91948000D03*
X226060000Y-90123000D03*
%TD*%
D12*
%TO.C,R28*%
X178816000Y-101195500D03*
X178816000Y-103020500D03*
%TD*%
D30*
%TO.C,IC5*%
X119578000Y-115239500D03*
X118308000Y-115239500D03*
X117038000Y-115239500D03*
X115768000Y-115239500D03*
X115768000Y-124789500D03*
X117038000Y-124789500D03*
X118308000Y-124789500D03*
X119578000Y-124789500D03*
%TD*%
%TO.C,IC4*%
X87113000Y-115239500D03*
X85843000Y-115239500D03*
X84573000Y-115239500D03*
X83303000Y-115239500D03*
X83303000Y-124789500D03*
X84573000Y-124789500D03*
X85843000Y-124789500D03*
X87113000Y-124789500D03*
%TD*%
D12*
%TO.C,R12*%
X125984000Y-95353000D03*
X125984000Y-97178000D03*
%TD*%
D22*
%TO.C,R3*%
X119913000Y-80582000D03*
X121738000Y-80582000D03*
%TD*%
D12*
%TO.C,R60*%
X218948000Y-73001500D03*
X218948000Y-74826500D03*
%TD*%
D22*
%TO.C,R5*%
X119913000Y-86828500D03*
X121738000Y-86828500D03*
%TD*%
D12*
%TO.C,R23*%
X172974000Y-86971500D03*
X172974000Y-88796500D03*
%TD*%
D15*
%TO.C,D5*%
X119970500Y-57658000D03*
X121720500Y-57658000D03*
%TD*%
D11*
%TO.C,Q5*%
X77470000Y-76713500D03*
X77470000Y-74813500D03*
X75595000Y-75763500D03*
%TD*%
D13*
%TO.C,R29*%
X126896500Y-57658000D03*
X125071500Y-57658000D03*
%TD*%
D12*
%TO.C,R41*%
X172974000Y-69953500D03*
X172974000Y-71778500D03*
%TD*%
D10*
%TO.C,C15*%
X232664000Y-71255400D03*
X232664000Y-72980400D03*
%TD*%
D26*
%TO.C,R49*%
X118430000Y-136461500D03*
X118430000Y-131381500D03*
D27*
X110815000Y-133921500D03*
D28*
X105556000Y-133921500D03*
%TD*%
D19*
%TO.C,Q1*%
X166194500Y-91863500D03*
X166194500Y-93763500D03*
X168069500Y-92813500D03*
%TD*%
D20*
%TO.C,C11*%
X123952000Y-110744000D03*
X123952000Y-109019000D03*
%TD*%
D25*
%TO.C,R17*%
X161798000Y-76858500D03*
X161798000Y-75033500D03*
%TD*%
D12*
%TO.C,R9*%
X125984000Y-91035000D03*
X125984000Y-92860000D03*
%TD*%
M02*
