%TF.GenerationSoftware,KiCad,Pcbnew,(6.0.7)*%
%TF.CreationDate,2022-10-19T11:54:54+01:00*%
%TF.ProjectId,controlCircuit,636f6e74-726f-46c4-9369-72637569742e,rev?*%
%TF.SameCoordinates,Original*%
%TF.FileFunction,Drillmap*%
%TF.FilePolarity,Positive*%
%FSLAX45Y45*%
G04 Gerber Fmt 4.5, Leading zero omitted, Abs format (unit mm)*
G04 Created by KiCad (PCBNEW (6.0.7)) date 2022-10-19 11:54:54*
%MOMM*%
%LPD*%
G01*
G04 APERTURE LIST*
%ADD10C,0.050000*%
%ADD11C,0.200000*%
%ADD12C,0.040000*%
%ADD13C,0.060000*%
%ADD14C,0.090000*%
%ADD15C,0.102000*%
%ADD16C,0.135000*%
%ADD17C,0.140000*%
%ADD18C,0.310000*%
G04 APERTURE END LIST*
D10*
X19798400Y-5592150D02*
G75*
G03*
X19448400Y-5242150I-350000J0D01*
G01*
X24307800Y-5592150D02*
G75*
G03*
X23957800Y-5242150I-350000J0D01*
G01*
X24307800Y-13722350D02*
X24307800Y-5670550D01*
X20092400Y-12447950D02*
G75*
G03*
X19792400Y-12447950I-150000J2D01*
G01*
X20098400Y-11817350D02*
X20098400Y-7522352D01*
X5114802Y-13823950D02*
G75*
G03*
X5464800Y-14123150I349998J55110D01*
G01*
X19798400Y-7522352D02*
X19798400Y-11817350D01*
X5114800Y-13823950D02*
X5114800Y-13798550D01*
X23926800Y-5242150D02*
X20448400Y-5242150D01*
X23926800Y-5242150D02*
X23957800Y-5242150D01*
X23957800Y-14122950D02*
G75*
G03*
X24307800Y-13772950I0J350000D01*
G01*
X19792400Y-12447950D02*
X19792400Y-13772950D01*
X5470800Y-5242350D02*
X19448400Y-5242150D01*
X24307800Y-5619750D02*
X24307800Y-5592150D01*
X24307800Y-13722350D02*
X24307800Y-13772950D01*
X19442400Y-14122950D02*
X5464800Y-14123150D01*
X20098400Y-7522352D02*
G75*
G03*
X19798400Y-7522352I-150000J2D01*
G01*
X20448400Y-5242150D02*
G75*
G03*
X20098400Y-5592150I0J-350000D01*
G01*
X23901400Y-14122950D02*
X23957800Y-14122950D01*
X5470800Y-5242350D02*
G75*
G03*
X5120800Y-5592350I0J-350000D01*
G01*
X5114800Y-13798550D02*
X5120800Y-5592350D01*
X20098400Y-6892148D02*
X20098400Y-5592150D01*
X19798400Y-5592150D02*
X19798400Y-6892148D01*
X19442400Y-14122950D02*
G75*
G03*
X19792400Y-13772950I0J350000D01*
G01*
X20092400Y-13772950D02*
G75*
G03*
X20442400Y-14122950I350000J0D01*
G01*
X19798400Y-11817350D02*
G75*
G03*
X20098400Y-11817350I150000J-2D01*
G01*
X24307800Y-5619750D02*
X24307800Y-5670550D01*
X20092400Y-13772950D02*
X20092400Y-12447950D01*
X20442400Y-14122950D02*
X23901400Y-14122950D01*
X19798400Y-6892148D02*
G75*
G03*
X20098400Y-6892148I150000J-2D01*
G01*
D11*
D12*
X6165440Y-8360350D02*
X6205440Y-8400350D01*
X6205440Y-8360350D02*
X6165440Y-8400350D01*
X6609300Y-5934050D02*
X6649300Y-5974050D01*
X6649300Y-5934050D02*
X6609300Y-5974050D01*
X8764290Y-11366830D02*
X8804290Y-11406830D01*
X8804290Y-11366830D02*
X8764290Y-11406830D01*
X10140000Y-12375200D02*
X10180000Y-12415200D01*
X10180000Y-12375200D02*
X10140000Y-12415200D01*
X12222800Y-11283000D02*
X12262800Y-11323000D01*
X12262800Y-11283000D02*
X12222800Y-11323000D01*
X12248200Y-10622600D02*
X12288200Y-10662600D01*
X12288200Y-10622600D02*
X12248200Y-10662600D01*
X12324400Y-5974400D02*
X12364400Y-6014400D01*
X12364400Y-5974400D02*
X12324400Y-6014400D01*
X12349800Y-9327200D02*
X12389800Y-9367200D01*
X12389800Y-9327200D02*
X12349800Y-9367200D01*
X12375200Y-7777800D02*
X12415200Y-7817800D01*
X12415200Y-7777800D02*
X12375200Y-7817800D01*
X12461300Y-10554340D02*
X12501300Y-10594340D01*
X12501300Y-10554340D02*
X12461300Y-10594340D01*
X12680000Y-10317800D02*
X12720000Y-10357800D01*
X12720000Y-10317800D02*
X12680000Y-10357800D01*
X12817510Y-6158620D02*
X12857510Y-6198620D01*
X12857510Y-6158620D02*
X12817510Y-6198620D01*
X12857800Y-11384600D02*
X12897800Y-11424600D01*
X12897800Y-11384600D02*
X12857800Y-11424600D01*
X13111800Y-10622600D02*
X13151800Y-10662600D01*
X13151800Y-10622600D02*
X13111800Y-10662600D01*
X13216170Y-11169450D02*
X13256170Y-11209450D01*
X13256170Y-11169450D02*
X13216170Y-11209450D01*
X13238800Y-7625400D02*
X13278800Y-7665400D01*
X13278800Y-7625400D02*
X13238800Y-7665400D01*
X13264200Y-6126800D02*
X13304200Y-6166800D01*
X13304200Y-6126800D02*
X13264200Y-6166800D01*
X13264200Y-6609400D02*
X13304200Y-6649400D01*
X13304200Y-6609400D02*
X13264200Y-6649400D01*
X13309730Y-11244540D02*
X13349730Y-11284540D01*
X13349730Y-11244540D02*
X13309730Y-11284540D01*
X13472010Y-11294460D02*
X13512010Y-11334460D01*
X13512010Y-11294460D02*
X13472010Y-11334460D01*
X13823000Y-6812600D02*
X13863000Y-6852600D01*
X13863000Y-6812600D02*
X13823000Y-6852600D01*
X14635800Y-9708200D02*
X14675800Y-9748200D01*
X14675800Y-9708200D02*
X14635800Y-9748200D01*
X14737400Y-10749600D02*
X14777400Y-10789600D01*
X14777400Y-10749600D02*
X14737400Y-10789600D01*
X14788200Y-11003600D02*
X14828200Y-11043600D01*
X14828200Y-11003600D02*
X14788200Y-11043600D01*
X14788200Y-11333800D02*
X14828200Y-11373800D01*
X14828200Y-11333800D02*
X14788200Y-11373800D01*
X14788200Y-11689400D02*
X14828200Y-11729400D01*
X14828200Y-11689400D02*
X14788200Y-11729400D01*
X14813600Y-9098600D02*
X14853600Y-9138600D01*
X14853600Y-9098600D02*
X14813600Y-9138600D01*
X14915200Y-5847400D02*
X14955200Y-5887400D01*
X14955200Y-5847400D02*
X14915200Y-5887400D01*
X14995350Y-9686450D02*
X15035350Y-9726450D01*
X15035350Y-9686450D02*
X14995350Y-9726450D01*
X15270800Y-11283000D02*
X15310800Y-11323000D01*
X15310800Y-11283000D02*
X15270800Y-11323000D01*
X15575600Y-11130600D02*
X15615600Y-11170600D01*
X15615600Y-11130600D02*
X15575600Y-11170600D01*
X15880400Y-6050600D02*
X15920400Y-6090600D01*
X15920400Y-6050600D02*
X15880400Y-6090600D01*
X16439200Y-6965000D02*
X16479200Y-7005000D01*
X16479200Y-6965000D02*
X16439200Y-7005000D01*
X17125000Y-8971600D02*
X17165000Y-9011600D01*
X17165000Y-8971600D02*
X17125000Y-9011600D01*
X22306600Y-8031800D02*
X22346600Y-8071800D01*
X22346600Y-8031800D02*
X22306600Y-8071800D01*
X22586000Y-8819200D02*
X22626000Y-8859200D01*
X22626000Y-8819200D02*
X22586000Y-8859200D01*
D13*
X17911600Y-9626600D02*
G75*
G03*
X17911600Y-9626600I-30000J0D01*
G01*
X17911600Y-9826600D02*
G75*
G03*
X17911600Y-9826600I-30000J0D01*
G01*
X17911600Y-11074400D02*
G75*
G03*
X17911600Y-11074400I-30000J0D01*
G01*
X17911600Y-11274400D02*
G75*
G03*
X17911600Y-11274400I-30000J0D01*
G01*
D14*
X18546600Y-6509550D02*
X18546600Y-6599550D01*
X18501600Y-6554550D02*
X18591600Y-6554550D01*
X18546600Y-6785550D02*
X18546600Y-6875550D01*
X18501600Y-6830550D02*
X18591600Y-6830550D01*
X18546600Y-7061550D02*
X18546600Y-7151550D01*
X18501600Y-7106550D02*
X18591600Y-7106550D01*
X18546600Y-7337550D02*
X18546600Y-7427550D01*
X18501600Y-7382550D02*
X18591600Y-7382550D01*
X18546600Y-7613550D02*
X18546600Y-7703550D01*
X18501600Y-7658550D02*
X18591600Y-7658550D01*
X18546600Y-7889550D02*
X18546600Y-7979550D01*
X18501600Y-7934550D02*
X18591600Y-7934550D01*
X18546600Y-8165550D02*
X18546600Y-8255550D01*
X18501600Y-8210550D02*
X18591600Y-8210550D01*
X18546600Y-8441550D02*
X18546600Y-8531550D01*
X18501600Y-8486550D02*
X18591600Y-8486550D01*
X18546600Y-8717550D02*
X18546600Y-8807550D01*
X18501600Y-8762550D02*
X18591600Y-8762550D01*
X18546600Y-8993550D02*
X18546600Y-9083550D01*
X18501600Y-9038550D02*
X18591600Y-9038550D01*
X18546600Y-9269550D02*
X18546600Y-9359550D01*
X18501600Y-9314550D02*
X18591600Y-9314550D01*
X18546600Y-9545550D02*
X18546600Y-9635550D01*
X18501600Y-9590550D02*
X18591600Y-9590550D01*
X18546600Y-9821550D02*
X18546600Y-9911550D01*
X18501600Y-9866550D02*
X18591600Y-9866550D01*
X18830600Y-6647550D02*
X18830600Y-6737550D01*
X18785600Y-6692550D02*
X18875600Y-6692550D01*
X18830600Y-6923550D02*
X18830600Y-7013550D01*
X18785600Y-6968550D02*
X18875600Y-6968550D01*
X18830600Y-7199550D02*
X18830600Y-7289550D01*
X18785600Y-7244550D02*
X18875600Y-7244550D01*
X18830600Y-7475550D02*
X18830600Y-7565550D01*
X18785600Y-7520550D02*
X18875600Y-7520550D01*
X18830600Y-7751550D02*
X18830600Y-7841550D01*
X18785600Y-7796550D02*
X18875600Y-7796550D01*
X18830600Y-8027550D02*
X18830600Y-8117550D01*
X18785600Y-8072550D02*
X18875600Y-8072550D01*
X18830600Y-8303550D02*
X18830600Y-8393550D01*
X18785600Y-8348550D02*
X18875600Y-8348550D01*
X18830600Y-8579550D02*
X18830600Y-8669550D01*
X18785600Y-8624550D02*
X18875600Y-8624550D01*
X18830600Y-8855550D02*
X18830600Y-8945550D01*
X18785600Y-8900550D02*
X18875600Y-8900550D01*
X18830600Y-9131550D02*
X18830600Y-9221550D01*
X18785600Y-9176550D02*
X18875600Y-9176550D01*
X18830600Y-9407550D02*
X18830600Y-9497550D01*
X18785600Y-9452550D02*
X18875600Y-9452550D01*
X18830600Y-9683550D02*
X18830600Y-9773550D01*
X18785600Y-9728550D02*
X18875600Y-9728550D01*
D15*
X9307063Y-5683113D02*
X9307063Y-5610987D01*
X9234937Y-5610987D01*
X9234937Y-5683113D01*
X9307063Y-5683113D01*
X9307063Y-5937113D02*
X9307063Y-5864987D01*
X9234937Y-5864987D01*
X9234937Y-5937113D01*
X9307063Y-5937113D01*
X9307063Y-6191113D02*
X9307063Y-6118987D01*
X9234937Y-6118987D01*
X9234937Y-6191113D01*
X9307063Y-6191113D01*
X9307063Y-6445113D02*
X9307063Y-6372987D01*
X9234937Y-6372987D01*
X9234937Y-6445113D01*
X9307063Y-6445113D01*
X9307063Y-6699113D02*
X9307063Y-6626987D01*
X9234937Y-6626987D01*
X9234937Y-6699113D01*
X9307063Y-6699113D01*
X9307063Y-6953113D02*
X9307063Y-6880987D01*
X9234937Y-6880987D01*
X9234937Y-6953113D01*
X9307063Y-6953113D01*
X9307063Y-7207113D02*
X9307063Y-7134987D01*
X9234937Y-7134987D01*
X9234937Y-7207113D01*
X9307063Y-7207113D01*
X9307063Y-7461113D02*
X9307063Y-7388987D01*
X9234937Y-7388987D01*
X9234937Y-7461113D01*
X9307063Y-7461113D01*
X9307063Y-7715113D02*
X9307063Y-7642987D01*
X9234937Y-7642987D01*
X9234937Y-7715113D01*
X9307063Y-7715113D01*
X9307063Y-7969113D02*
X9307063Y-7896987D01*
X9234937Y-7896987D01*
X9234937Y-7969113D01*
X9307063Y-7969113D01*
X9307063Y-8223113D02*
X9307063Y-8150987D01*
X9234937Y-8150987D01*
X9234937Y-8223113D01*
X9307063Y-8223113D01*
X9307063Y-8477113D02*
X9307063Y-8404987D01*
X9234937Y-8404987D01*
X9234937Y-8477113D01*
X9307063Y-8477113D01*
X9307063Y-8731113D02*
X9307063Y-8658987D01*
X9234937Y-8658987D01*
X9234937Y-8731113D01*
X9307063Y-8731113D01*
X9307063Y-8985113D02*
X9307063Y-8912987D01*
X9234937Y-8912987D01*
X9234937Y-8985113D01*
X9307063Y-8985113D01*
X9307063Y-9239113D02*
X9307063Y-9166987D01*
X9234937Y-9166987D01*
X9234937Y-9239113D01*
X9307063Y-9239113D01*
X9307063Y-9493113D02*
X9307063Y-9420987D01*
X9234937Y-9420987D01*
X9234937Y-9493113D01*
X9307063Y-9493113D01*
X9307063Y-9747113D02*
X9307063Y-9674987D01*
X9234937Y-9674987D01*
X9234937Y-9747113D01*
X9307063Y-9747113D01*
X9307063Y-10001113D02*
X9307063Y-9928987D01*
X9234937Y-9928987D01*
X9234937Y-10001113D01*
X9307063Y-10001113D01*
X9307063Y-10255113D02*
X9307063Y-10182987D01*
X9234937Y-10182987D01*
X9234937Y-10255113D01*
X9307063Y-10255113D01*
X9307063Y-10509113D02*
X9307063Y-10436987D01*
X9234937Y-10436987D01*
X9234937Y-10509113D01*
X9307063Y-10509113D01*
X9942063Y-10486113D02*
X9942063Y-10413987D01*
X9869937Y-10413987D01*
X9869937Y-10486113D01*
X9942063Y-10486113D01*
X10196063Y-10486113D02*
X10196063Y-10413987D01*
X10123937Y-10413987D01*
X10123937Y-10486113D01*
X10196063Y-10486113D01*
X10450063Y-10486113D02*
X10450063Y-10413987D01*
X10377937Y-10413987D01*
X10377937Y-10486113D01*
X10450063Y-10486113D01*
X11085063Y-5683113D02*
X11085063Y-5610987D01*
X11012937Y-5610987D01*
X11012937Y-5683113D01*
X11085063Y-5683113D01*
X11085063Y-5937113D02*
X11085063Y-5864987D01*
X11012937Y-5864987D01*
X11012937Y-5937113D01*
X11085063Y-5937113D01*
X11085063Y-6191113D02*
X11085063Y-6118987D01*
X11012937Y-6118987D01*
X11012937Y-6191113D01*
X11085063Y-6191113D01*
X11085063Y-6445113D02*
X11085063Y-6372987D01*
X11012937Y-6372987D01*
X11012937Y-6445113D01*
X11085063Y-6445113D01*
X11085063Y-6699113D02*
X11085063Y-6626987D01*
X11012937Y-6626987D01*
X11012937Y-6699113D01*
X11085063Y-6699113D01*
X11085063Y-6953113D02*
X11085063Y-6880987D01*
X11012937Y-6880987D01*
X11012937Y-6953113D01*
X11085063Y-6953113D01*
X11085063Y-7207113D02*
X11085063Y-7134987D01*
X11012937Y-7134987D01*
X11012937Y-7207113D01*
X11085063Y-7207113D01*
X11085063Y-7461113D02*
X11085063Y-7388987D01*
X11012937Y-7388987D01*
X11012937Y-7461113D01*
X11085063Y-7461113D01*
X11085063Y-7715113D02*
X11085063Y-7642987D01*
X11012937Y-7642987D01*
X11012937Y-7715113D01*
X11085063Y-7715113D01*
X11085063Y-7969113D02*
X11085063Y-7896987D01*
X11012937Y-7896987D01*
X11012937Y-7969113D01*
X11085063Y-7969113D01*
X11085063Y-8223113D02*
X11085063Y-8150987D01*
X11012937Y-8150987D01*
X11012937Y-8223113D01*
X11085063Y-8223113D01*
X11085063Y-8477113D02*
X11085063Y-8404987D01*
X11012937Y-8404987D01*
X11012937Y-8477113D01*
X11085063Y-8477113D01*
X11085063Y-8731113D02*
X11085063Y-8658987D01*
X11012937Y-8658987D01*
X11012937Y-8731113D01*
X11085063Y-8731113D01*
X11085063Y-8985113D02*
X11085063Y-8912987D01*
X11012937Y-8912987D01*
X11012937Y-8985113D01*
X11085063Y-8985113D01*
X11085063Y-9239113D02*
X11085063Y-9166987D01*
X11012937Y-9166987D01*
X11012937Y-9239113D01*
X11085063Y-9239113D01*
X11085063Y-9493113D02*
X11085063Y-9420987D01*
X11012937Y-9420987D01*
X11012937Y-9493113D01*
X11085063Y-9493113D01*
X11085063Y-9747113D02*
X11085063Y-9674987D01*
X11012937Y-9674987D01*
X11012937Y-9747113D01*
X11085063Y-9747113D01*
X11085063Y-10001113D02*
X11085063Y-9928987D01*
X11012937Y-9928987D01*
X11012937Y-10001113D01*
X11085063Y-10001113D01*
X11085063Y-10255113D02*
X11085063Y-10182987D01*
X11012937Y-10182987D01*
X11012937Y-10255113D01*
X11085063Y-10255113D01*
X11085063Y-10509113D02*
X11085063Y-10436987D01*
X11012937Y-10436987D01*
X11012937Y-10509113D01*
X11085063Y-10509113D01*
D16*
X20483600Y-10957650D02*
X20551100Y-10890150D01*
X20483600Y-10822650D01*
X20416100Y-10890150D01*
X20483600Y-10957650D01*
X20483600Y-13757650D02*
X20551100Y-13690150D01*
X20483600Y-13622650D01*
X20416100Y-13690150D01*
X20483600Y-13757650D01*
X21675600Y-10157650D02*
X21743100Y-10090150D01*
X21675600Y-10022650D01*
X21608100Y-10090150D01*
X21675600Y-10157650D01*
X22183600Y-10157650D02*
X22251100Y-10090150D01*
X22183600Y-10022650D01*
X22116100Y-10090150D01*
X22183600Y-10157650D01*
X22691600Y-10157650D02*
X22759100Y-10090150D01*
X22691600Y-10022650D01*
X22624100Y-10090150D01*
X22691600Y-10157650D01*
X23883600Y-10957650D02*
X23951100Y-10890150D01*
X23883600Y-10822650D01*
X23816100Y-10890150D01*
X23883600Y-10957650D01*
X23883600Y-13757650D02*
X23951100Y-13690150D01*
X23883600Y-13622650D01*
X23816100Y-13690150D01*
X23883600Y-13757650D01*
D17*
X5694600Y-5761550D02*
X5834600Y-5901550D01*
X5834600Y-5761550D02*
X5694600Y-5901550D01*
X5834600Y-5831550D02*
G75*
G03*
X5834600Y-5831550I-70000J0D01*
G01*
X5694600Y-6011550D02*
X5834600Y-6151550D01*
X5834600Y-6011550D02*
X5694600Y-6151550D01*
X5834600Y-6081550D02*
G75*
G03*
X5834600Y-6081550I-70000J0D01*
G01*
X5694600Y-6261550D02*
X5834600Y-6401550D01*
X5834600Y-6261550D02*
X5694600Y-6401550D01*
X5834600Y-6331550D02*
G75*
G03*
X5834600Y-6331550I-70000J0D01*
G01*
X5694600Y-6511550D02*
X5834600Y-6651550D01*
X5834600Y-6511550D02*
X5694600Y-6651550D01*
X5834600Y-6581550D02*
G75*
G03*
X5834600Y-6581550I-70000J0D01*
G01*
X5694600Y-7226150D02*
X5834600Y-7366150D01*
X5834600Y-7226150D02*
X5694600Y-7366150D01*
X5834600Y-7296150D02*
G75*
G03*
X5834600Y-7296150I-70000J0D01*
G01*
X5694600Y-7476150D02*
X5834600Y-7616150D01*
X5834600Y-7476150D02*
X5694600Y-7616150D01*
X5834600Y-7546150D02*
G75*
G03*
X5834600Y-7546150I-70000J0D01*
G01*
X5694600Y-7726150D02*
X5834600Y-7866150D01*
X5834600Y-7726150D02*
X5694600Y-7866150D01*
X5834600Y-7796150D02*
G75*
G03*
X5834600Y-7796150I-70000J0D01*
G01*
X5694600Y-7976150D02*
X5834600Y-8116150D01*
X5834600Y-7976150D02*
X5694600Y-8116150D01*
X5834600Y-8046150D02*
G75*
G03*
X5834600Y-8046150I-70000J0D01*
G01*
X5694600Y-8699350D02*
X5834600Y-8839350D01*
X5834600Y-8699350D02*
X5694600Y-8839350D01*
X5834600Y-8769350D02*
G75*
G03*
X5834600Y-8769350I-70000J0D01*
G01*
X5694600Y-8949350D02*
X5834600Y-9089350D01*
X5834600Y-8949350D02*
X5694600Y-9089350D01*
X5834600Y-9019350D02*
G75*
G03*
X5834600Y-9019350I-70000J0D01*
G01*
X5694600Y-9199350D02*
X5834600Y-9339350D01*
X5834600Y-9199350D02*
X5694600Y-9339350D01*
X5834600Y-9269350D02*
G75*
G03*
X5834600Y-9269350I-70000J0D01*
G01*
X5694600Y-9918550D02*
X5834600Y-10058550D01*
X5834600Y-9918550D02*
X5694600Y-10058550D01*
X5834600Y-9988550D02*
G75*
G03*
X5834600Y-9988550I-70000J0D01*
G01*
X5694600Y-10168550D02*
X5834600Y-10308550D01*
X5834600Y-10168550D02*
X5694600Y-10308550D01*
X5834600Y-10238550D02*
G75*
G03*
X5834600Y-10238550I-70000J0D01*
G01*
X5694600Y-10418550D02*
X5834600Y-10558550D01*
X5834600Y-10418550D02*
X5694600Y-10558550D01*
X5834600Y-10488550D02*
G75*
G03*
X5834600Y-10488550I-70000J0D01*
G01*
X5694600Y-11137750D02*
X5834600Y-11277750D01*
X5834600Y-11137750D02*
X5694600Y-11277750D01*
X5834600Y-11207750D02*
G75*
G03*
X5834600Y-11207750I-70000J0D01*
G01*
X5694600Y-11387750D02*
X5834600Y-11527750D01*
X5834600Y-11387750D02*
X5694600Y-11527750D01*
X5834600Y-11457750D02*
G75*
G03*
X5834600Y-11457750I-70000J0D01*
G01*
X5694600Y-11637750D02*
X5834600Y-11777750D01*
X5834600Y-11637750D02*
X5694600Y-11777750D01*
X5834600Y-11707750D02*
G75*
G03*
X5834600Y-11707750I-70000J0D01*
G01*
X7249200Y-5873600D02*
X7389200Y-6013600D01*
X7389200Y-5873600D02*
X7249200Y-6013600D01*
X7389200Y-5943600D02*
G75*
G03*
X7389200Y-5943600I-70000J0D01*
G01*
X7464200Y-13462150D02*
X7604200Y-13602150D01*
X7604200Y-13462150D02*
X7464200Y-13602150D01*
X7604200Y-13532150D02*
G75*
G03*
X7604200Y-13532150I-70000J0D01*
G01*
X7499200Y-5873600D02*
X7639200Y-6013600D01*
X7639200Y-5873600D02*
X7499200Y-6013600D01*
X7639200Y-5943600D02*
G75*
G03*
X7639200Y-5943600I-70000J0D01*
G01*
X7714200Y-13462150D02*
X7854200Y-13602150D01*
X7854200Y-13462150D02*
X7714200Y-13602150D01*
X7854200Y-13532150D02*
G75*
G03*
X7854200Y-13532150I-70000J0D01*
G01*
X12463900Y-13462150D02*
X12603900Y-13602150D01*
X12603900Y-13462150D02*
X12463900Y-13602150D01*
X12603900Y-13532150D02*
G75*
G03*
X12603900Y-13532150I-70000J0D01*
G01*
X12713900Y-13462150D02*
X12853900Y-13602150D01*
X12853900Y-13462150D02*
X12713900Y-13602150D01*
X12853900Y-13532150D02*
G75*
G03*
X12853900Y-13532150I-70000J0D01*
G01*
X18931100Y-11374550D02*
X19071100Y-11514550D01*
X19071100Y-11374550D02*
X18931100Y-11514550D01*
X19071100Y-11444550D02*
G75*
G03*
X19071100Y-11444550I-70000J0D01*
G01*
X18931100Y-11624550D02*
X19071100Y-11764550D01*
X19071100Y-11624550D02*
X18931100Y-11764550D01*
X19071100Y-11694550D02*
G75*
G03*
X19071100Y-11694550I-70000J0D01*
G01*
X18931100Y-12335650D02*
X19071100Y-12475650D01*
X19071100Y-12335650D02*
X18931100Y-12475650D01*
X19071100Y-12405650D02*
G75*
G03*
X19071100Y-12405650I-70000J0D01*
G01*
X18931100Y-12585650D02*
X19071100Y-12725650D01*
X19071100Y-12585650D02*
X18931100Y-12725650D01*
X19071100Y-12655650D02*
G75*
G03*
X19071100Y-12655650I-70000J0D01*
G01*
X18931100Y-13300850D02*
X19071100Y-13440850D01*
X19071100Y-13300850D02*
X18931100Y-13440850D01*
X19071100Y-13370850D02*
G75*
G03*
X19071100Y-13370850I-70000J0D01*
G01*
X18931100Y-13550850D02*
X19071100Y-13690850D01*
X19071100Y-13550850D02*
X18931100Y-13690850D01*
X19071100Y-13620850D02*
G75*
G03*
X19071100Y-13620850I-70000J0D01*
G01*
X21795400Y-5906050D02*
X21935400Y-6046050D01*
X21935400Y-5906050D02*
X21795400Y-6046050D01*
X21935400Y-5976050D02*
G75*
G03*
X21935400Y-5976050I-70000J0D01*
G01*
X22045400Y-5906050D02*
X22185400Y-6046050D01*
X22185400Y-5906050D02*
X22045400Y-6046050D01*
X22185400Y-5976050D02*
G75*
G03*
X22185400Y-5976050I-70000J0D01*
G01*
X22295400Y-5906050D02*
X22435400Y-6046050D01*
X22435400Y-5906050D02*
X22295400Y-6046050D01*
X22435400Y-5976050D02*
G75*
G03*
X22435400Y-5976050I-70000J0D01*
G01*
X22545400Y-5906050D02*
X22685400Y-6046050D01*
X22685400Y-5906050D02*
X22545400Y-6046050D01*
X22685400Y-5976050D02*
G75*
G03*
X22685400Y-5976050I-70000J0D01*
G01*
D18*
X18533600Y-5703550D02*
X18843600Y-6013550D01*
X18843600Y-5703550D02*
X18533600Y-6013550D01*
X18688600Y-5703550D02*
X18688600Y-6013550D01*
X18533600Y-5858550D02*
X18843600Y-5858550D01*
X18533600Y-10407550D02*
X18843600Y-10717550D01*
X18843600Y-10407550D02*
X18533600Y-10717550D01*
X18688600Y-10407550D02*
X18688600Y-10717550D01*
X18533600Y-10562550D02*
X18843600Y-10562550D01*
D11*
X5369919Y-14436126D02*
X5369919Y-14236126D01*
X5417538Y-14236126D01*
X5446110Y-14245650D01*
X5465157Y-14264698D01*
X5474681Y-14283745D01*
X5484205Y-14321840D01*
X5484205Y-14350412D01*
X5474681Y-14388507D01*
X5465157Y-14407555D01*
X5446110Y-14426602D01*
X5417538Y-14436126D01*
X5369919Y-14436126D01*
X5569919Y-14436126D02*
X5569919Y-14302793D01*
X5569919Y-14340888D02*
X5579443Y-14321840D01*
X5588967Y-14312317D01*
X5608014Y-14302793D01*
X5627062Y-14302793D01*
X5693728Y-14436126D02*
X5693728Y-14302793D01*
X5693728Y-14236126D02*
X5684205Y-14245650D01*
X5693728Y-14255174D01*
X5703252Y-14245650D01*
X5693728Y-14236126D01*
X5693728Y-14255174D01*
X5817538Y-14436126D02*
X5798490Y-14426602D01*
X5788967Y-14407555D01*
X5788967Y-14236126D01*
X5922300Y-14436126D02*
X5903252Y-14426602D01*
X5893728Y-14407555D01*
X5893728Y-14236126D01*
X6150871Y-14436126D02*
X6150871Y-14236126D01*
X6217538Y-14378983D01*
X6284205Y-14236126D01*
X6284205Y-14436126D01*
X6465157Y-14436126D02*
X6465157Y-14331364D01*
X6455633Y-14312317D01*
X6436586Y-14302793D01*
X6398490Y-14302793D01*
X6379443Y-14312317D01*
X6465157Y-14426602D02*
X6446109Y-14436126D01*
X6398490Y-14436126D01*
X6379443Y-14426602D01*
X6369919Y-14407555D01*
X6369919Y-14388507D01*
X6379443Y-14369459D01*
X6398490Y-14359936D01*
X6446109Y-14359936D01*
X6465157Y-14350412D01*
X6560395Y-14302793D02*
X6560395Y-14502793D01*
X6560395Y-14312317D02*
X6579443Y-14302793D01*
X6617538Y-14302793D01*
X6636586Y-14312317D01*
X6646109Y-14321840D01*
X6655633Y-14340888D01*
X6655633Y-14398031D01*
X6646109Y-14417078D01*
X6636586Y-14426602D01*
X6617538Y-14436126D01*
X6579443Y-14436126D01*
X6560395Y-14426602D01*
X6741348Y-14417078D02*
X6750871Y-14426602D01*
X6741348Y-14436126D01*
X6731824Y-14426602D01*
X6741348Y-14417078D01*
X6741348Y-14436126D01*
X6741348Y-14312317D02*
X6750871Y-14321840D01*
X6741348Y-14331364D01*
X6731824Y-14321840D01*
X6741348Y-14312317D01*
X6741348Y-14331364D01*
D12*
X5072300Y-14745650D02*
X5112300Y-14785650D01*
X5112300Y-14745650D02*
X5072300Y-14785650D01*
D11*
X5408014Y-14656126D02*
X5427062Y-14656126D01*
X5446110Y-14665650D01*
X5455633Y-14675174D01*
X5465157Y-14694221D01*
X5474681Y-14732317D01*
X5474681Y-14779936D01*
X5465157Y-14818031D01*
X5455633Y-14837078D01*
X5446110Y-14846602D01*
X5427062Y-14856126D01*
X5408014Y-14856126D01*
X5388967Y-14846602D01*
X5379443Y-14837078D01*
X5369919Y-14818031D01*
X5360395Y-14779936D01*
X5360395Y-14732317D01*
X5369919Y-14694221D01*
X5379443Y-14675174D01*
X5388967Y-14665650D01*
X5408014Y-14656126D01*
X5560395Y-14837078D02*
X5569919Y-14846602D01*
X5560395Y-14856126D01*
X5550871Y-14846602D01*
X5560395Y-14837078D01*
X5560395Y-14856126D01*
X5741348Y-14722793D02*
X5741348Y-14856126D01*
X5693728Y-14646602D02*
X5646109Y-14789459D01*
X5769919Y-14789459D01*
X5884205Y-14656126D02*
X5903252Y-14656126D01*
X5922300Y-14665650D01*
X5931824Y-14675174D01*
X5941348Y-14694221D01*
X5950871Y-14732317D01*
X5950871Y-14779936D01*
X5941348Y-14818031D01*
X5931824Y-14837078D01*
X5922300Y-14846602D01*
X5903252Y-14856126D01*
X5884205Y-14856126D01*
X5865157Y-14846602D01*
X5855633Y-14837078D01*
X5846109Y-14818031D01*
X5836586Y-14779936D01*
X5836586Y-14732317D01*
X5846109Y-14694221D01*
X5855633Y-14675174D01*
X5865157Y-14665650D01*
X5884205Y-14656126D01*
X6074681Y-14656126D02*
X6093728Y-14656126D01*
X6112776Y-14665650D01*
X6122300Y-14675174D01*
X6131824Y-14694221D01*
X6141348Y-14732317D01*
X6141348Y-14779936D01*
X6131824Y-14818031D01*
X6122300Y-14837078D01*
X6112776Y-14846602D01*
X6093728Y-14856126D01*
X6074681Y-14856126D01*
X6055633Y-14846602D01*
X6046109Y-14837078D01*
X6036586Y-14818031D01*
X6027062Y-14779936D01*
X6027062Y-14732317D01*
X6036586Y-14694221D01*
X6046109Y-14675174D01*
X6055633Y-14665650D01*
X6074681Y-14656126D01*
X6227062Y-14856126D02*
X6227062Y-14722793D01*
X6227062Y-14741840D02*
X6236586Y-14732317D01*
X6255633Y-14722793D01*
X6284205Y-14722793D01*
X6303252Y-14732317D01*
X6312776Y-14751364D01*
X6312776Y-14856126D01*
X6312776Y-14751364D02*
X6322300Y-14732317D01*
X6341348Y-14722793D01*
X6369919Y-14722793D01*
X6388967Y-14732317D01*
X6398490Y-14751364D01*
X6398490Y-14856126D01*
X6493728Y-14856126D02*
X6493728Y-14722793D01*
X6493728Y-14741840D02*
X6503252Y-14732317D01*
X6522300Y-14722793D01*
X6550871Y-14722793D01*
X6569919Y-14732317D01*
X6579443Y-14751364D01*
X6579443Y-14856126D01*
X6579443Y-14751364D02*
X6588967Y-14732317D01*
X6608014Y-14722793D01*
X6636586Y-14722793D01*
X6655633Y-14732317D01*
X6665157Y-14751364D01*
X6665157Y-14856126D01*
X7055633Y-14646602D02*
X6884205Y-14903745D01*
X7312776Y-14656126D02*
X7331824Y-14656126D01*
X7350871Y-14665650D01*
X7360395Y-14675174D01*
X7369919Y-14694221D01*
X7379443Y-14732317D01*
X7379443Y-14779936D01*
X7369919Y-14818031D01*
X7360395Y-14837078D01*
X7350871Y-14846602D01*
X7331824Y-14856126D01*
X7312776Y-14856126D01*
X7293728Y-14846602D01*
X7284205Y-14837078D01*
X7274681Y-14818031D01*
X7265157Y-14779936D01*
X7265157Y-14732317D01*
X7274681Y-14694221D01*
X7284205Y-14675174D01*
X7293728Y-14665650D01*
X7312776Y-14656126D01*
X7465157Y-14837078D02*
X7474681Y-14846602D01*
X7465157Y-14856126D01*
X7455633Y-14846602D01*
X7465157Y-14837078D01*
X7465157Y-14856126D01*
X7598490Y-14656126D02*
X7617538Y-14656126D01*
X7636586Y-14665650D01*
X7646109Y-14675174D01*
X7655633Y-14694221D01*
X7665157Y-14732317D01*
X7665157Y-14779936D01*
X7655633Y-14818031D01*
X7646109Y-14837078D01*
X7636586Y-14846602D01*
X7617538Y-14856126D01*
X7598490Y-14856126D01*
X7579443Y-14846602D01*
X7569919Y-14837078D01*
X7560395Y-14818031D01*
X7550871Y-14779936D01*
X7550871Y-14732317D01*
X7560395Y-14694221D01*
X7569919Y-14675174D01*
X7579443Y-14665650D01*
X7598490Y-14656126D01*
X7855633Y-14856126D02*
X7741348Y-14856126D01*
X7798490Y-14856126D02*
X7798490Y-14656126D01*
X7779443Y-14684698D01*
X7760395Y-14703745D01*
X7741348Y-14713269D01*
X8036586Y-14656126D02*
X7941348Y-14656126D01*
X7931824Y-14751364D01*
X7941348Y-14741840D01*
X7960395Y-14732317D01*
X8008014Y-14732317D01*
X8027062Y-14741840D01*
X8036586Y-14751364D01*
X8046109Y-14770412D01*
X8046109Y-14818031D01*
X8036586Y-14837078D01*
X8027062Y-14846602D01*
X8008014Y-14856126D01*
X7960395Y-14856126D01*
X7941348Y-14846602D01*
X7931824Y-14837078D01*
X8112776Y-14656126D02*
X8246109Y-14656126D01*
X8160395Y-14856126D01*
X8312776Y-14656126D02*
X8312776Y-14694221D01*
X8388967Y-14656126D02*
X8388967Y-14694221D01*
X8684205Y-14932317D02*
X8674681Y-14922793D01*
X8655633Y-14894221D01*
X8646110Y-14875174D01*
X8636586Y-14846602D01*
X8627062Y-14798983D01*
X8627062Y-14760888D01*
X8636586Y-14713269D01*
X8646110Y-14684698D01*
X8655633Y-14665650D01*
X8674681Y-14637078D01*
X8684205Y-14627555D01*
X8741348Y-14656126D02*
X8865157Y-14656126D01*
X8798490Y-14732317D01*
X8827062Y-14732317D01*
X8846110Y-14741840D01*
X8855633Y-14751364D01*
X8865157Y-14770412D01*
X8865157Y-14818031D01*
X8855633Y-14837078D01*
X8846110Y-14846602D01*
X8827062Y-14856126D01*
X8769919Y-14856126D01*
X8750871Y-14846602D01*
X8741348Y-14837078D01*
X9036586Y-14656126D02*
X8998490Y-14656126D01*
X8979443Y-14665650D01*
X8969919Y-14675174D01*
X8950871Y-14703745D01*
X8941348Y-14741840D01*
X8941348Y-14818031D01*
X8950871Y-14837078D01*
X8960395Y-14846602D01*
X8979443Y-14856126D01*
X9017538Y-14856126D01*
X9036586Y-14846602D01*
X9046110Y-14837078D01*
X9055633Y-14818031D01*
X9055633Y-14770412D01*
X9046110Y-14751364D01*
X9036586Y-14741840D01*
X9017538Y-14732317D01*
X8979443Y-14732317D01*
X8960395Y-14741840D01*
X8950871Y-14751364D01*
X8941348Y-14770412D01*
X9293729Y-14856126D02*
X9293729Y-14656126D01*
X9379443Y-14856126D02*
X9379443Y-14751364D01*
X9369919Y-14732317D01*
X9350871Y-14722793D01*
X9322300Y-14722793D01*
X9303252Y-14732317D01*
X9293729Y-14741840D01*
X9503252Y-14856126D02*
X9484205Y-14846602D01*
X9474681Y-14837078D01*
X9465157Y-14818031D01*
X9465157Y-14760888D01*
X9474681Y-14741840D01*
X9484205Y-14732317D01*
X9503252Y-14722793D01*
X9531824Y-14722793D01*
X9550871Y-14732317D01*
X9560395Y-14741840D01*
X9569919Y-14760888D01*
X9569919Y-14818031D01*
X9560395Y-14837078D01*
X9550871Y-14846602D01*
X9531824Y-14856126D01*
X9503252Y-14856126D01*
X9684205Y-14856126D02*
X9665157Y-14846602D01*
X9655633Y-14827555D01*
X9655633Y-14656126D01*
X9836586Y-14846602D02*
X9817538Y-14856126D01*
X9779443Y-14856126D01*
X9760395Y-14846602D01*
X9750871Y-14827555D01*
X9750871Y-14751364D01*
X9760395Y-14732317D01*
X9779443Y-14722793D01*
X9817538Y-14722793D01*
X9836586Y-14732317D01*
X9846110Y-14751364D01*
X9846110Y-14770412D01*
X9750871Y-14789459D01*
X9922300Y-14846602D02*
X9941348Y-14856126D01*
X9979443Y-14856126D01*
X9998490Y-14846602D01*
X10008014Y-14827555D01*
X10008014Y-14818031D01*
X9998490Y-14798983D01*
X9979443Y-14789459D01*
X9950871Y-14789459D01*
X9931824Y-14779936D01*
X9922300Y-14760888D01*
X9922300Y-14751364D01*
X9931824Y-14732317D01*
X9950871Y-14722793D01*
X9979443Y-14722793D01*
X9998490Y-14732317D01*
X10074681Y-14932317D02*
X10084205Y-14922793D01*
X10103252Y-14894221D01*
X10112776Y-14875174D01*
X10122300Y-14846602D01*
X10131824Y-14798983D01*
X10131824Y-14760888D01*
X10122300Y-14713269D01*
X10112776Y-14684698D01*
X10103252Y-14665650D01*
X10084205Y-14637078D01*
X10074681Y-14627555D01*
D13*
X5112300Y-15029650D02*
G75*
G03*
X5112300Y-15029650I-30000J0D01*
G01*
D11*
X5408014Y-14920126D02*
X5427062Y-14920126D01*
X5446110Y-14929650D01*
X5455633Y-14939174D01*
X5465157Y-14958221D01*
X5474681Y-14996317D01*
X5474681Y-15043936D01*
X5465157Y-15082031D01*
X5455633Y-15101078D01*
X5446110Y-15110602D01*
X5427062Y-15120126D01*
X5408014Y-15120126D01*
X5388967Y-15110602D01*
X5379443Y-15101078D01*
X5369919Y-15082031D01*
X5360395Y-15043936D01*
X5360395Y-14996317D01*
X5369919Y-14958221D01*
X5379443Y-14939174D01*
X5388967Y-14929650D01*
X5408014Y-14920126D01*
X5560395Y-15101078D02*
X5569919Y-15110602D01*
X5560395Y-15120126D01*
X5550871Y-15110602D01*
X5560395Y-15101078D01*
X5560395Y-15120126D01*
X5741348Y-14920126D02*
X5703252Y-14920126D01*
X5684205Y-14929650D01*
X5674681Y-14939174D01*
X5655633Y-14967745D01*
X5646109Y-15005840D01*
X5646109Y-15082031D01*
X5655633Y-15101078D01*
X5665157Y-15110602D01*
X5684205Y-15120126D01*
X5722300Y-15120126D01*
X5741348Y-15110602D01*
X5750871Y-15101078D01*
X5760395Y-15082031D01*
X5760395Y-15034412D01*
X5750871Y-15015364D01*
X5741348Y-15005840D01*
X5722300Y-14996317D01*
X5684205Y-14996317D01*
X5665157Y-15005840D01*
X5655633Y-15015364D01*
X5646109Y-15034412D01*
X5884205Y-14920126D02*
X5903252Y-14920126D01*
X5922300Y-14929650D01*
X5931824Y-14939174D01*
X5941348Y-14958221D01*
X5950871Y-14996317D01*
X5950871Y-15043936D01*
X5941348Y-15082031D01*
X5931824Y-15101078D01*
X5922300Y-15110602D01*
X5903252Y-15120126D01*
X5884205Y-15120126D01*
X5865157Y-15110602D01*
X5855633Y-15101078D01*
X5846109Y-15082031D01*
X5836586Y-15043936D01*
X5836586Y-14996317D01*
X5846109Y-14958221D01*
X5855633Y-14939174D01*
X5865157Y-14929650D01*
X5884205Y-14920126D01*
X6074681Y-14920126D02*
X6093728Y-14920126D01*
X6112776Y-14929650D01*
X6122300Y-14939174D01*
X6131824Y-14958221D01*
X6141348Y-14996317D01*
X6141348Y-15043936D01*
X6131824Y-15082031D01*
X6122300Y-15101078D01*
X6112776Y-15110602D01*
X6093728Y-15120126D01*
X6074681Y-15120126D01*
X6055633Y-15110602D01*
X6046109Y-15101078D01*
X6036586Y-15082031D01*
X6027062Y-15043936D01*
X6027062Y-14996317D01*
X6036586Y-14958221D01*
X6046109Y-14939174D01*
X6055633Y-14929650D01*
X6074681Y-14920126D01*
X6227062Y-15120126D02*
X6227062Y-14986793D01*
X6227062Y-15005840D02*
X6236586Y-14996317D01*
X6255633Y-14986793D01*
X6284205Y-14986793D01*
X6303252Y-14996317D01*
X6312776Y-15015364D01*
X6312776Y-15120126D01*
X6312776Y-15015364D02*
X6322300Y-14996317D01*
X6341348Y-14986793D01*
X6369919Y-14986793D01*
X6388967Y-14996317D01*
X6398490Y-15015364D01*
X6398490Y-15120126D01*
X6493728Y-15120126D02*
X6493728Y-14986793D01*
X6493728Y-15005840D02*
X6503252Y-14996317D01*
X6522300Y-14986793D01*
X6550871Y-14986793D01*
X6569919Y-14996317D01*
X6579443Y-15015364D01*
X6579443Y-15120126D01*
X6579443Y-15015364D02*
X6588967Y-14996317D01*
X6608014Y-14986793D01*
X6636586Y-14986793D01*
X6655633Y-14996317D01*
X6665157Y-15015364D01*
X6665157Y-15120126D01*
X7055633Y-14910602D02*
X6884205Y-15167745D01*
X7312776Y-14920126D02*
X7331824Y-14920126D01*
X7350871Y-14929650D01*
X7360395Y-14939174D01*
X7369919Y-14958221D01*
X7379443Y-14996317D01*
X7379443Y-15043936D01*
X7369919Y-15082031D01*
X7360395Y-15101078D01*
X7350871Y-15110602D01*
X7331824Y-15120126D01*
X7312776Y-15120126D01*
X7293728Y-15110602D01*
X7284205Y-15101078D01*
X7274681Y-15082031D01*
X7265157Y-15043936D01*
X7265157Y-14996317D01*
X7274681Y-14958221D01*
X7284205Y-14939174D01*
X7293728Y-14929650D01*
X7312776Y-14920126D01*
X7465157Y-15101078D02*
X7474681Y-15110602D01*
X7465157Y-15120126D01*
X7455633Y-15110602D01*
X7465157Y-15101078D01*
X7465157Y-15120126D01*
X7598490Y-14920126D02*
X7617538Y-14920126D01*
X7636586Y-14929650D01*
X7646109Y-14939174D01*
X7655633Y-14958221D01*
X7665157Y-14996317D01*
X7665157Y-15043936D01*
X7655633Y-15082031D01*
X7646109Y-15101078D01*
X7636586Y-15110602D01*
X7617538Y-15120126D01*
X7598490Y-15120126D01*
X7579443Y-15110602D01*
X7569919Y-15101078D01*
X7560395Y-15082031D01*
X7550871Y-15043936D01*
X7550871Y-14996317D01*
X7560395Y-14958221D01*
X7569919Y-14939174D01*
X7579443Y-14929650D01*
X7598490Y-14920126D01*
X7741348Y-14939174D02*
X7750871Y-14929650D01*
X7769919Y-14920126D01*
X7817538Y-14920126D01*
X7836586Y-14929650D01*
X7846109Y-14939174D01*
X7855633Y-14958221D01*
X7855633Y-14977269D01*
X7846109Y-15005840D01*
X7731824Y-15120126D01*
X7855633Y-15120126D01*
X7922300Y-14920126D02*
X8046109Y-14920126D01*
X7979443Y-14996317D01*
X8008014Y-14996317D01*
X8027062Y-15005840D01*
X8036586Y-15015364D01*
X8046109Y-15034412D01*
X8046109Y-15082031D01*
X8036586Y-15101078D01*
X8027062Y-15110602D01*
X8008014Y-15120126D01*
X7950871Y-15120126D01*
X7931824Y-15110602D01*
X7922300Y-15101078D01*
X8217538Y-14920126D02*
X8179443Y-14920126D01*
X8160395Y-14929650D01*
X8150871Y-14939174D01*
X8131824Y-14967745D01*
X8122300Y-15005840D01*
X8122300Y-15082031D01*
X8131824Y-15101078D01*
X8141348Y-15110602D01*
X8160395Y-15120126D01*
X8198490Y-15120126D01*
X8217538Y-15110602D01*
X8227062Y-15101078D01*
X8236586Y-15082031D01*
X8236586Y-15034412D01*
X8227062Y-15015364D01*
X8217538Y-15005840D01*
X8198490Y-14996317D01*
X8160395Y-14996317D01*
X8141348Y-15005840D01*
X8131824Y-15015364D01*
X8122300Y-15034412D01*
X8312776Y-14920126D02*
X8312776Y-14958221D01*
X8388967Y-14920126D02*
X8388967Y-14958221D01*
X8684205Y-15196317D02*
X8674681Y-15186793D01*
X8655633Y-15158221D01*
X8646110Y-15139174D01*
X8636586Y-15110602D01*
X8627062Y-15062983D01*
X8627062Y-15024888D01*
X8636586Y-14977269D01*
X8646110Y-14948698D01*
X8655633Y-14929650D01*
X8674681Y-14901078D01*
X8684205Y-14891555D01*
X8846110Y-14986793D02*
X8846110Y-15120126D01*
X8798490Y-14910602D02*
X8750871Y-15053459D01*
X8874681Y-15053459D01*
X9103252Y-15120126D02*
X9103252Y-14920126D01*
X9188967Y-15120126D02*
X9188967Y-15015364D01*
X9179443Y-14996317D01*
X9160395Y-14986793D01*
X9131824Y-14986793D01*
X9112776Y-14996317D01*
X9103252Y-15005840D01*
X9312776Y-15120126D02*
X9293729Y-15110602D01*
X9284205Y-15101078D01*
X9274681Y-15082031D01*
X9274681Y-15024888D01*
X9284205Y-15005840D01*
X9293729Y-14996317D01*
X9312776Y-14986793D01*
X9341348Y-14986793D01*
X9360395Y-14996317D01*
X9369919Y-15005840D01*
X9379443Y-15024888D01*
X9379443Y-15082031D01*
X9369919Y-15101078D01*
X9360395Y-15110602D01*
X9341348Y-15120126D01*
X9312776Y-15120126D01*
X9493729Y-15120126D02*
X9474681Y-15110602D01*
X9465157Y-15091555D01*
X9465157Y-14920126D01*
X9646110Y-15110602D02*
X9627062Y-15120126D01*
X9588967Y-15120126D01*
X9569919Y-15110602D01*
X9560395Y-15091555D01*
X9560395Y-15015364D01*
X9569919Y-14996317D01*
X9588967Y-14986793D01*
X9627062Y-14986793D01*
X9646110Y-14996317D01*
X9655633Y-15015364D01*
X9655633Y-15034412D01*
X9560395Y-15053459D01*
X9731824Y-15110602D02*
X9750871Y-15120126D01*
X9788967Y-15120126D01*
X9808014Y-15110602D01*
X9817538Y-15091555D01*
X9817538Y-15082031D01*
X9808014Y-15062983D01*
X9788967Y-15053459D01*
X9760395Y-15053459D01*
X9741348Y-15043936D01*
X9731824Y-15024888D01*
X9731824Y-15015364D01*
X9741348Y-14996317D01*
X9760395Y-14986793D01*
X9788967Y-14986793D01*
X9808014Y-14996317D01*
X9884205Y-15196317D02*
X9893729Y-15186793D01*
X9912776Y-15158221D01*
X9922300Y-15139174D01*
X9931824Y-15110602D01*
X9941348Y-15062983D01*
X9941348Y-15024888D01*
X9931824Y-14977269D01*
X9922300Y-14948698D01*
X9912776Y-14929650D01*
X9893729Y-14901078D01*
X9884205Y-14891555D01*
D14*
X5067300Y-15248650D02*
X5067300Y-15338650D01*
X5022300Y-15293650D02*
X5112300Y-15293650D01*
D11*
X5408014Y-15184126D02*
X5427062Y-15184126D01*
X5446110Y-15193650D01*
X5455633Y-15203174D01*
X5465157Y-15222221D01*
X5474681Y-15260317D01*
X5474681Y-15307936D01*
X5465157Y-15346031D01*
X5455633Y-15365078D01*
X5446110Y-15374602D01*
X5427062Y-15384126D01*
X5408014Y-15384126D01*
X5388967Y-15374602D01*
X5379443Y-15365078D01*
X5369919Y-15346031D01*
X5360395Y-15307936D01*
X5360395Y-15260317D01*
X5369919Y-15222221D01*
X5379443Y-15203174D01*
X5388967Y-15193650D01*
X5408014Y-15184126D01*
X5560395Y-15365078D02*
X5569919Y-15374602D01*
X5560395Y-15384126D01*
X5550871Y-15374602D01*
X5560395Y-15365078D01*
X5560395Y-15384126D01*
X5665157Y-15384126D02*
X5703252Y-15384126D01*
X5722300Y-15374602D01*
X5731824Y-15365078D01*
X5750871Y-15336507D01*
X5760395Y-15298412D01*
X5760395Y-15222221D01*
X5750871Y-15203174D01*
X5741348Y-15193650D01*
X5722300Y-15184126D01*
X5684205Y-15184126D01*
X5665157Y-15193650D01*
X5655633Y-15203174D01*
X5646109Y-15222221D01*
X5646109Y-15269840D01*
X5655633Y-15288888D01*
X5665157Y-15298412D01*
X5684205Y-15307936D01*
X5722300Y-15307936D01*
X5741348Y-15298412D01*
X5750871Y-15288888D01*
X5760395Y-15269840D01*
X5884205Y-15184126D02*
X5903252Y-15184126D01*
X5922300Y-15193650D01*
X5931824Y-15203174D01*
X5941348Y-15222221D01*
X5950871Y-15260317D01*
X5950871Y-15307936D01*
X5941348Y-15346031D01*
X5931824Y-15365078D01*
X5922300Y-15374602D01*
X5903252Y-15384126D01*
X5884205Y-15384126D01*
X5865157Y-15374602D01*
X5855633Y-15365078D01*
X5846109Y-15346031D01*
X5836586Y-15307936D01*
X5836586Y-15260317D01*
X5846109Y-15222221D01*
X5855633Y-15203174D01*
X5865157Y-15193650D01*
X5884205Y-15184126D01*
X6074681Y-15184126D02*
X6093728Y-15184126D01*
X6112776Y-15193650D01*
X6122300Y-15203174D01*
X6131824Y-15222221D01*
X6141348Y-15260317D01*
X6141348Y-15307936D01*
X6131824Y-15346031D01*
X6122300Y-15365078D01*
X6112776Y-15374602D01*
X6093728Y-15384126D01*
X6074681Y-15384126D01*
X6055633Y-15374602D01*
X6046109Y-15365078D01*
X6036586Y-15346031D01*
X6027062Y-15307936D01*
X6027062Y-15260317D01*
X6036586Y-15222221D01*
X6046109Y-15203174D01*
X6055633Y-15193650D01*
X6074681Y-15184126D01*
X6227062Y-15384126D02*
X6227062Y-15250793D01*
X6227062Y-15269840D02*
X6236586Y-15260317D01*
X6255633Y-15250793D01*
X6284205Y-15250793D01*
X6303252Y-15260317D01*
X6312776Y-15279364D01*
X6312776Y-15384126D01*
X6312776Y-15279364D02*
X6322300Y-15260317D01*
X6341348Y-15250793D01*
X6369919Y-15250793D01*
X6388967Y-15260317D01*
X6398490Y-15279364D01*
X6398490Y-15384126D01*
X6493728Y-15384126D02*
X6493728Y-15250793D01*
X6493728Y-15269840D02*
X6503252Y-15260317D01*
X6522300Y-15250793D01*
X6550871Y-15250793D01*
X6569919Y-15260317D01*
X6579443Y-15279364D01*
X6579443Y-15384126D01*
X6579443Y-15279364D02*
X6588967Y-15260317D01*
X6608014Y-15250793D01*
X6636586Y-15250793D01*
X6655633Y-15260317D01*
X6665157Y-15279364D01*
X6665157Y-15384126D01*
X7055633Y-15174602D02*
X6884205Y-15431745D01*
X7312776Y-15184126D02*
X7331824Y-15184126D01*
X7350871Y-15193650D01*
X7360395Y-15203174D01*
X7369919Y-15222221D01*
X7379443Y-15260317D01*
X7379443Y-15307936D01*
X7369919Y-15346031D01*
X7360395Y-15365078D01*
X7350871Y-15374602D01*
X7331824Y-15384126D01*
X7312776Y-15384126D01*
X7293728Y-15374602D01*
X7284205Y-15365078D01*
X7274681Y-15346031D01*
X7265157Y-15307936D01*
X7265157Y-15260317D01*
X7274681Y-15222221D01*
X7284205Y-15203174D01*
X7293728Y-15193650D01*
X7312776Y-15184126D01*
X7465157Y-15365078D02*
X7474681Y-15374602D01*
X7465157Y-15384126D01*
X7455633Y-15374602D01*
X7465157Y-15365078D01*
X7465157Y-15384126D01*
X7598490Y-15184126D02*
X7617538Y-15184126D01*
X7636586Y-15193650D01*
X7646109Y-15203174D01*
X7655633Y-15222221D01*
X7665157Y-15260317D01*
X7665157Y-15307936D01*
X7655633Y-15346031D01*
X7646109Y-15365078D01*
X7636586Y-15374602D01*
X7617538Y-15384126D01*
X7598490Y-15384126D01*
X7579443Y-15374602D01*
X7569919Y-15365078D01*
X7560395Y-15346031D01*
X7550871Y-15307936D01*
X7550871Y-15260317D01*
X7560395Y-15222221D01*
X7569919Y-15203174D01*
X7579443Y-15193650D01*
X7598490Y-15184126D01*
X7731824Y-15184126D02*
X7855633Y-15184126D01*
X7788967Y-15260317D01*
X7817538Y-15260317D01*
X7836586Y-15269840D01*
X7846109Y-15279364D01*
X7855633Y-15298412D01*
X7855633Y-15346031D01*
X7846109Y-15365078D01*
X7836586Y-15374602D01*
X7817538Y-15384126D01*
X7760395Y-15384126D01*
X7741348Y-15374602D01*
X7731824Y-15365078D01*
X8036586Y-15184126D02*
X7941348Y-15184126D01*
X7931824Y-15279364D01*
X7941348Y-15269840D01*
X7960395Y-15260317D01*
X8008014Y-15260317D01*
X8027062Y-15269840D01*
X8036586Y-15279364D01*
X8046109Y-15298412D01*
X8046109Y-15346031D01*
X8036586Y-15365078D01*
X8027062Y-15374602D01*
X8008014Y-15384126D01*
X7960395Y-15384126D01*
X7941348Y-15374602D01*
X7931824Y-15365078D01*
X8217538Y-15250793D02*
X8217538Y-15384126D01*
X8169919Y-15174602D02*
X8122300Y-15317459D01*
X8246109Y-15317459D01*
X8312776Y-15184126D02*
X8312776Y-15222221D01*
X8388967Y-15184126D02*
X8388967Y-15222221D01*
X8684205Y-15460317D02*
X8674681Y-15450793D01*
X8655633Y-15422221D01*
X8646110Y-15403174D01*
X8636586Y-15374602D01*
X8627062Y-15326983D01*
X8627062Y-15288888D01*
X8636586Y-15241269D01*
X8646110Y-15212698D01*
X8655633Y-15193650D01*
X8674681Y-15165078D01*
X8684205Y-15155555D01*
X8750871Y-15203174D02*
X8760395Y-15193650D01*
X8779443Y-15184126D01*
X8827062Y-15184126D01*
X8846110Y-15193650D01*
X8855633Y-15203174D01*
X8865157Y-15222221D01*
X8865157Y-15241269D01*
X8855633Y-15269840D01*
X8741348Y-15384126D01*
X8865157Y-15384126D01*
X9046110Y-15184126D02*
X8950871Y-15184126D01*
X8941348Y-15279364D01*
X8950871Y-15269840D01*
X8969919Y-15260317D01*
X9017538Y-15260317D01*
X9036586Y-15269840D01*
X9046110Y-15279364D01*
X9055633Y-15298412D01*
X9055633Y-15346031D01*
X9046110Y-15365078D01*
X9036586Y-15374602D01*
X9017538Y-15384126D01*
X8969919Y-15384126D01*
X8950871Y-15374602D01*
X8941348Y-15365078D01*
X9293729Y-15384126D02*
X9293729Y-15184126D01*
X9379443Y-15384126D02*
X9379443Y-15279364D01*
X9369919Y-15260317D01*
X9350871Y-15250793D01*
X9322300Y-15250793D01*
X9303252Y-15260317D01*
X9293729Y-15269840D01*
X9503252Y-15384126D02*
X9484205Y-15374602D01*
X9474681Y-15365078D01*
X9465157Y-15346031D01*
X9465157Y-15288888D01*
X9474681Y-15269840D01*
X9484205Y-15260317D01*
X9503252Y-15250793D01*
X9531824Y-15250793D01*
X9550871Y-15260317D01*
X9560395Y-15269840D01*
X9569919Y-15288888D01*
X9569919Y-15346031D01*
X9560395Y-15365078D01*
X9550871Y-15374602D01*
X9531824Y-15384126D01*
X9503252Y-15384126D01*
X9684205Y-15384126D02*
X9665157Y-15374602D01*
X9655633Y-15355555D01*
X9655633Y-15184126D01*
X9836586Y-15374602D02*
X9817538Y-15384126D01*
X9779443Y-15384126D01*
X9760395Y-15374602D01*
X9750871Y-15355555D01*
X9750871Y-15279364D01*
X9760395Y-15260317D01*
X9779443Y-15250793D01*
X9817538Y-15250793D01*
X9836586Y-15260317D01*
X9846110Y-15279364D01*
X9846110Y-15298412D01*
X9750871Y-15317459D01*
X9922300Y-15374602D02*
X9941348Y-15384126D01*
X9979443Y-15384126D01*
X9998490Y-15374602D01*
X10008014Y-15355555D01*
X10008014Y-15346031D01*
X9998490Y-15326983D01*
X9979443Y-15317459D01*
X9950871Y-15317459D01*
X9931824Y-15307936D01*
X9922300Y-15288888D01*
X9922300Y-15279364D01*
X9931824Y-15260317D01*
X9950871Y-15250793D01*
X9979443Y-15250793D01*
X9998490Y-15260317D01*
X10074681Y-15460317D02*
X10084205Y-15450793D01*
X10103252Y-15422221D01*
X10112776Y-15403174D01*
X10122300Y-15374602D01*
X10131824Y-15326983D01*
X10131824Y-15288888D01*
X10122300Y-15241269D01*
X10112776Y-15212698D01*
X10103252Y-15193650D01*
X10084205Y-15165078D01*
X10074681Y-15155555D01*
D15*
X5097363Y-15593713D02*
X5097363Y-15521587D01*
X5025237Y-15521587D01*
X5025237Y-15593713D01*
X5097363Y-15593713D01*
D11*
X5474681Y-15648126D02*
X5360395Y-15648126D01*
X5417538Y-15648126D02*
X5417538Y-15448126D01*
X5398490Y-15476698D01*
X5379443Y-15495745D01*
X5360395Y-15505269D01*
X5560395Y-15629078D02*
X5569919Y-15638602D01*
X5560395Y-15648126D01*
X5550871Y-15638602D01*
X5560395Y-15629078D01*
X5560395Y-15648126D01*
X5693728Y-15448126D02*
X5712776Y-15448126D01*
X5731824Y-15457650D01*
X5741348Y-15467174D01*
X5750871Y-15486221D01*
X5760395Y-15524317D01*
X5760395Y-15571936D01*
X5750871Y-15610031D01*
X5741348Y-15629078D01*
X5731824Y-15638602D01*
X5712776Y-15648126D01*
X5693728Y-15648126D01*
X5674681Y-15638602D01*
X5665157Y-15629078D01*
X5655633Y-15610031D01*
X5646109Y-15571936D01*
X5646109Y-15524317D01*
X5655633Y-15486221D01*
X5665157Y-15467174D01*
X5674681Y-15457650D01*
X5693728Y-15448126D01*
X5836586Y-15467174D02*
X5846109Y-15457650D01*
X5865157Y-15448126D01*
X5912776Y-15448126D01*
X5931824Y-15457650D01*
X5941348Y-15467174D01*
X5950871Y-15486221D01*
X5950871Y-15505269D01*
X5941348Y-15533840D01*
X5827062Y-15648126D01*
X5950871Y-15648126D01*
X6074681Y-15448126D02*
X6093728Y-15448126D01*
X6112776Y-15457650D01*
X6122300Y-15467174D01*
X6131824Y-15486221D01*
X6141348Y-15524317D01*
X6141348Y-15571936D01*
X6131824Y-15610031D01*
X6122300Y-15629078D01*
X6112776Y-15638602D01*
X6093728Y-15648126D01*
X6074681Y-15648126D01*
X6055633Y-15638602D01*
X6046109Y-15629078D01*
X6036586Y-15610031D01*
X6027062Y-15571936D01*
X6027062Y-15524317D01*
X6036586Y-15486221D01*
X6046109Y-15467174D01*
X6055633Y-15457650D01*
X6074681Y-15448126D01*
X6227062Y-15648126D02*
X6227062Y-15514793D01*
X6227062Y-15533840D02*
X6236586Y-15524317D01*
X6255633Y-15514793D01*
X6284205Y-15514793D01*
X6303252Y-15524317D01*
X6312776Y-15543364D01*
X6312776Y-15648126D01*
X6312776Y-15543364D02*
X6322300Y-15524317D01*
X6341348Y-15514793D01*
X6369919Y-15514793D01*
X6388967Y-15524317D01*
X6398490Y-15543364D01*
X6398490Y-15648126D01*
X6493728Y-15648126D02*
X6493728Y-15514793D01*
X6493728Y-15533840D02*
X6503252Y-15524317D01*
X6522300Y-15514793D01*
X6550871Y-15514793D01*
X6569919Y-15524317D01*
X6579443Y-15543364D01*
X6579443Y-15648126D01*
X6579443Y-15543364D02*
X6588967Y-15524317D01*
X6608014Y-15514793D01*
X6636586Y-15514793D01*
X6655633Y-15524317D01*
X6665157Y-15543364D01*
X6665157Y-15648126D01*
X7055633Y-15438602D02*
X6884205Y-15695745D01*
X7312776Y-15448126D02*
X7331824Y-15448126D01*
X7350871Y-15457650D01*
X7360395Y-15467174D01*
X7369919Y-15486221D01*
X7379443Y-15524317D01*
X7379443Y-15571936D01*
X7369919Y-15610031D01*
X7360395Y-15629078D01*
X7350871Y-15638602D01*
X7331824Y-15648126D01*
X7312776Y-15648126D01*
X7293728Y-15638602D01*
X7284205Y-15629078D01*
X7274681Y-15610031D01*
X7265157Y-15571936D01*
X7265157Y-15524317D01*
X7274681Y-15486221D01*
X7284205Y-15467174D01*
X7293728Y-15457650D01*
X7312776Y-15448126D01*
X7465157Y-15629078D02*
X7474681Y-15638602D01*
X7465157Y-15648126D01*
X7455633Y-15638602D01*
X7465157Y-15629078D01*
X7465157Y-15648126D01*
X7598490Y-15448126D02*
X7617538Y-15448126D01*
X7636586Y-15457650D01*
X7646109Y-15467174D01*
X7655633Y-15486221D01*
X7665157Y-15524317D01*
X7665157Y-15571936D01*
X7655633Y-15610031D01*
X7646109Y-15629078D01*
X7636586Y-15638602D01*
X7617538Y-15648126D01*
X7598490Y-15648126D01*
X7579443Y-15638602D01*
X7569919Y-15629078D01*
X7560395Y-15610031D01*
X7550871Y-15571936D01*
X7550871Y-15524317D01*
X7560395Y-15486221D01*
X7569919Y-15467174D01*
X7579443Y-15457650D01*
X7598490Y-15448126D01*
X7836586Y-15514793D02*
X7836586Y-15648126D01*
X7788967Y-15438602D02*
X7741348Y-15581459D01*
X7865157Y-15581459D01*
X7979443Y-15448126D02*
X7998490Y-15448126D01*
X8017538Y-15457650D01*
X8027062Y-15467174D01*
X8036586Y-15486221D01*
X8046109Y-15524317D01*
X8046109Y-15571936D01*
X8036586Y-15610031D01*
X8027062Y-15629078D01*
X8017538Y-15638602D01*
X7998490Y-15648126D01*
X7979443Y-15648126D01*
X7960395Y-15638602D01*
X7950871Y-15629078D01*
X7941348Y-15610031D01*
X7931824Y-15571936D01*
X7931824Y-15524317D01*
X7941348Y-15486221D01*
X7950871Y-15467174D01*
X7960395Y-15457650D01*
X7979443Y-15448126D01*
X8122300Y-15467174D02*
X8131824Y-15457650D01*
X8150871Y-15448126D01*
X8198490Y-15448126D01*
X8217538Y-15457650D01*
X8227062Y-15467174D01*
X8236586Y-15486221D01*
X8236586Y-15505269D01*
X8227062Y-15533840D01*
X8112776Y-15648126D01*
X8236586Y-15648126D01*
X8312776Y-15448126D02*
X8312776Y-15486221D01*
X8388967Y-15448126D02*
X8388967Y-15486221D01*
X8684205Y-15724317D02*
X8674681Y-15714793D01*
X8655633Y-15686221D01*
X8646110Y-15667174D01*
X8636586Y-15638602D01*
X8627062Y-15590983D01*
X8627062Y-15552888D01*
X8636586Y-15505269D01*
X8646110Y-15476698D01*
X8655633Y-15457650D01*
X8674681Y-15429078D01*
X8684205Y-15419555D01*
X8846110Y-15514793D02*
X8846110Y-15648126D01*
X8798490Y-15438602D02*
X8750871Y-15581459D01*
X8874681Y-15581459D01*
X8931824Y-15448126D02*
X9055633Y-15448126D01*
X8988967Y-15524317D01*
X9017538Y-15524317D01*
X9036586Y-15533840D01*
X9046110Y-15543364D01*
X9055633Y-15562412D01*
X9055633Y-15610031D01*
X9046110Y-15629078D01*
X9036586Y-15638602D01*
X9017538Y-15648126D01*
X8960395Y-15648126D01*
X8941348Y-15638602D01*
X8931824Y-15629078D01*
X9293729Y-15648126D02*
X9293729Y-15448126D01*
X9379443Y-15648126D02*
X9379443Y-15543364D01*
X9369919Y-15524317D01*
X9350871Y-15514793D01*
X9322300Y-15514793D01*
X9303252Y-15524317D01*
X9293729Y-15533840D01*
X9503252Y-15648126D02*
X9484205Y-15638602D01*
X9474681Y-15629078D01*
X9465157Y-15610031D01*
X9465157Y-15552888D01*
X9474681Y-15533840D01*
X9484205Y-15524317D01*
X9503252Y-15514793D01*
X9531824Y-15514793D01*
X9550871Y-15524317D01*
X9560395Y-15533840D01*
X9569919Y-15552888D01*
X9569919Y-15610031D01*
X9560395Y-15629078D01*
X9550871Y-15638602D01*
X9531824Y-15648126D01*
X9503252Y-15648126D01*
X9684205Y-15648126D02*
X9665157Y-15638602D01*
X9655633Y-15619555D01*
X9655633Y-15448126D01*
X9836586Y-15638602D02*
X9817538Y-15648126D01*
X9779443Y-15648126D01*
X9760395Y-15638602D01*
X9750871Y-15619555D01*
X9750871Y-15543364D01*
X9760395Y-15524317D01*
X9779443Y-15514793D01*
X9817538Y-15514793D01*
X9836586Y-15524317D01*
X9846110Y-15543364D01*
X9846110Y-15562412D01*
X9750871Y-15581459D01*
X9922300Y-15638602D02*
X9941348Y-15648126D01*
X9979443Y-15648126D01*
X9998490Y-15638602D01*
X10008014Y-15619555D01*
X10008014Y-15610031D01*
X9998490Y-15590983D01*
X9979443Y-15581459D01*
X9950871Y-15581459D01*
X9931824Y-15571936D01*
X9922300Y-15552888D01*
X9922300Y-15543364D01*
X9931824Y-15524317D01*
X9950871Y-15514793D01*
X9979443Y-15514793D01*
X9998490Y-15524317D01*
X10074681Y-15724317D02*
X10084205Y-15714793D01*
X10103252Y-15686221D01*
X10112776Y-15667174D01*
X10122300Y-15638602D01*
X10131824Y-15590983D01*
X10131824Y-15552888D01*
X10122300Y-15505269D01*
X10112776Y-15476698D01*
X10103252Y-15457650D01*
X10084205Y-15429078D01*
X10074681Y-15419555D01*
D16*
X5044800Y-15889150D02*
X5112300Y-15821650D01*
X5044800Y-15754150D01*
X4977300Y-15821650D01*
X5044800Y-15889150D01*
D11*
X5474681Y-15912126D02*
X5360395Y-15912126D01*
X5417538Y-15912126D02*
X5417538Y-15712126D01*
X5398490Y-15740698D01*
X5379443Y-15759745D01*
X5360395Y-15769269D01*
X5560395Y-15893078D02*
X5569919Y-15902602D01*
X5560395Y-15912126D01*
X5550871Y-15902602D01*
X5560395Y-15893078D01*
X5560395Y-15912126D01*
X5636586Y-15712126D02*
X5760395Y-15712126D01*
X5693728Y-15788317D01*
X5722300Y-15788317D01*
X5741348Y-15797840D01*
X5750871Y-15807364D01*
X5760395Y-15826412D01*
X5760395Y-15874031D01*
X5750871Y-15893078D01*
X5741348Y-15902602D01*
X5722300Y-15912126D01*
X5665157Y-15912126D01*
X5646109Y-15902602D01*
X5636586Y-15893078D01*
X5941348Y-15712126D02*
X5846109Y-15712126D01*
X5836586Y-15807364D01*
X5846109Y-15797840D01*
X5865157Y-15788317D01*
X5912776Y-15788317D01*
X5931824Y-15797840D01*
X5941348Y-15807364D01*
X5950871Y-15826412D01*
X5950871Y-15874031D01*
X5941348Y-15893078D01*
X5931824Y-15902602D01*
X5912776Y-15912126D01*
X5865157Y-15912126D01*
X5846109Y-15902602D01*
X5836586Y-15893078D01*
X6074681Y-15712126D02*
X6093728Y-15712126D01*
X6112776Y-15721650D01*
X6122300Y-15731174D01*
X6131824Y-15750221D01*
X6141348Y-15788317D01*
X6141348Y-15835936D01*
X6131824Y-15874031D01*
X6122300Y-15893078D01*
X6112776Y-15902602D01*
X6093728Y-15912126D01*
X6074681Y-15912126D01*
X6055633Y-15902602D01*
X6046109Y-15893078D01*
X6036586Y-15874031D01*
X6027062Y-15835936D01*
X6027062Y-15788317D01*
X6036586Y-15750221D01*
X6046109Y-15731174D01*
X6055633Y-15721650D01*
X6074681Y-15712126D01*
X6227062Y-15912126D02*
X6227062Y-15778793D01*
X6227062Y-15797840D02*
X6236586Y-15788317D01*
X6255633Y-15778793D01*
X6284205Y-15778793D01*
X6303252Y-15788317D01*
X6312776Y-15807364D01*
X6312776Y-15912126D01*
X6312776Y-15807364D02*
X6322300Y-15788317D01*
X6341348Y-15778793D01*
X6369919Y-15778793D01*
X6388967Y-15788317D01*
X6398490Y-15807364D01*
X6398490Y-15912126D01*
X6493728Y-15912126D02*
X6493728Y-15778793D01*
X6493728Y-15797840D02*
X6503252Y-15788317D01*
X6522300Y-15778793D01*
X6550871Y-15778793D01*
X6569919Y-15788317D01*
X6579443Y-15807364D01*
X6579443Y-15912126D01*
X6579443Y-15807364D02*
X6588967Y-15788317D01*
X6608014Y-15778793D01*
X6636586Y-15778793D01*
X6655633Y-15788317D01*
X6665157Y-15807364D01*
X6665157Y-15912126D01*
X7055633Y-15702602D02*
X6884205Y-15959745D01*
X7312776Y-15712126D02*
X7331824Y-15712126D01*
X7350871Y-15721650D01*
X7360395Y-15731174D01*
X7369919Y-15750221D01*
X7379443Y-15788317D01*
X7379443Y-15835936D01*
X7369919Y-15874031D01*
X7360395Y-15893078D01*
X7350871Y-15902602D01*
X7331824Y-15912126D01*
X7312776Y-15912126D01*
X7293728Y-15902602D01*
X7284205Y-15893078D01*
X7274681Y-15874031D01*
X7265157Y-15835936D01*
X7265157Y-15788317D01*
X7274681Y-15750221D01*
X7284205Y-15731174D01*
X7293728Y-15721650D01*
X7312776Y-15712126D01*
X7465157Y-15893078D02*
X7474681Y-15902602D01*
X7465157Y-15912126D01*
X7455633Y-15902602D01*
X7465157Y-15893078D01*
X7465157Y-15912126D01*
X7598490Y-15712126D02*
X7617538Y-15712126D01*
X7636586Y-15721650D01*
X7646109Y-15731174D01*
X7655633Y-15750221D01*
X7665157Y-15788317D01*
X7665157Y-15835936D01*
X7655633Y-15874031D01*
X7646109Y-15893078D01*
X7636586Y-15902602D01*
X7617538Y-15912126D01*
X7598490Y-15912126D01*
X7579443Y-15902602D01*
X7569919Y-15893078D01*
X7560395Y-15874031D01*
X7550871Y-15835936D01*
X7550871Y-15788317D01*
X7560395Y-15750221D01*
X7569919Y-15731174D01*
X7579443Y-15721650D01*
X7598490Y-15712126D01*
X7846109Y-15712126D02*
X7750871Y-15712126D01*
X7741348Y-15807364D01*
X7750871Y-15797840D01*
X7769919Y-15788317D01*
X7817538Y-15788317D01*
X7836586Y-15797840D01*
X7846109Y-15807364D01*
X7855633Y-15826412D01*
X7855633Y-15874031D01*
X7846109Y-15893078D01*
X7836586Y-15902602D01*
X7817538Y-15912126D01*
X7769919Y-15912126D01*
X7750871Y-15902602D01*
X7741348Y-15893078D01*
X7922300Y-15712126D02*
X8046109Y-15712126D01*
X7979443Y-15788317D01*
X8008014Y-15788317D01*
X8027062Y-15797840D01*
X8036586Y-15807364D01*
X8046109Y-15826412D01*
X8046109Y-15874031D01*
X8036586Y-15893078D01*
X8027062Y-15902602D01*
X8008014Y-15912126D01*
X7950871Y-15912126D01*
X7931824Y-15902602D01*
X7922300Y-15893078D01*
X8236586Y-15912126D02*
X8122300Y-15912126D01*
X8179443Y-15912126D02*
X8179443Y-15712126D01*
X8160395Y-15740698D01*
X8141348Y-15759745D01*
X8122300Y-15769269D01*
X8312776Y-15712126D02*
X8312776Y-15750221D01*
X8388967Y-15712126D02*
X8388967Y-15750221D01*
X8684205Y-15988317D02*
X8674681Y-15978793D01*
X8655633Y-15950221D01*
X8646110Y-15931174D01*
X8636586Y-15902602D01*
X8627062Y-15854983D01*
X8627062Y-15816888D01*
X8636586Y-15769269D01*
X8646110Y-15740698D01*
X8655633Y-15721650D01*
X8674681Y-15693078D01*
X8684205Y-15683555D01*
X8741348Y-15712126D02*
X8874681Y-15712126D01*
X8788967Y-15912126D01*
X9103252Y-15912126D02*
X9103252Y-15712126D01*
X9188967Y-15912126D02*
X9188967Y-15807364D01*
X9179443Y-15788317D01*
X9160395Y-15778793D01*
X9131824Y-15778793D01*
X9112776Y-15788317D01*
X9103252Y-15797840D01*
X9312776Y-15912126D02*
X9293729Y-15902602D01*
X9284205Y-15893078D01*
X9274681Y-15874031D01*
X9274681Y-15816888D01*
X9284205Y-15797840D01*
X9293729Y-15788317D01*
X9312776Y-15778793D01*
X9341348Y-15778793D01*
X9360395Y-15788317D01*
X9369919Y-15797840D01*
X9379443Y-15816888D01*
X9379443Y-15874031D01*
X9369919Y-15893078D01*
X9360395Y-15902602D01*
X9341348Y-15912126D01*
X9312776Y-15912126D01*
X9493729Y-15912126D02*
X9474681Y-15902602D01*
X9465157Y-15883555D01*
X9465157Y-15712126D01*
X9646110Y-15902602D02*
X9627062Y-15912126D01*
X9588967Y-15912126D01*
X9569919Y-15902602D01*
X9560395Y-15883555D01*
X9560395Y-15807364D01*
X9569919Y-15788317D01*
X9588967Y-15778793D01*
X9627062Y-15778793D01*
X9646110Y-15788317D01*
X9655633Y-15807364D01*
X9655633Y-15826412D01*
X9560395Y-15845459D01*
X9731824Y-15902602D02*
X9750871Y-15912126D01*
X9788967Y-15912126D01*
X9808014Y-15902602D01*
X9817538Y-15883555D01*
X9817538Y-15874031D01*
X9808014Y-15854983D01*
X9788967Y-15845459D01*
X9760395Y-15845459D01*
X9741348Y-15835936D01*
X9731824Y-15816888D01*
X9731824Y-15807364D01*
X9741348Y-15788317D01*
X9760395Y-15778793D01*
X9788967Y-15778793D01*
X9808014Y-15788317D01*
X9884205Y-15988317D02*
X9893729Y-15978793D01*
X9912776Y-15950221D01*
X9922300Y-15931174D01*
X9931824Y-15902602D01*
X9941348Y-15854983D01*
X9941348Y-15816888D01*
X9931824Y-15769269D01*
X9922300Y-15740698D01*
X9912776Y-15721650D01*
X9893729Y-15693078D01*
X9884205Y-15683555D01*
D17*
X4972300Y-16015650D02*
X5112300Y-16155650D01*
X5112300Y-16015650D02*
X4972300Y-16155650D01*
X5112300Y-16085650D02*
G75*
G03*
X5112300Y-16085650I-70000J0D01*
G01*
D11*
X5474681Y-16176126D02*
X5360395Y-16176126D01*
X5417538Y-16176126D02*
X5417538Y-15976126D01*
X5398490Y-16004698D01*
X5379443Y-16023745D01*
X5360395Y-16033269D01*
X5560395Y-16157078D02*
X5569919Y-16166602D01*
X5560395Y-16176126D01*
X5550871Y-16166602D01*
X5560395Y-16157078D01*
X5560395Y-16176126D01*
X5741348Y-16042793D02*
X5741348Y-16176126D01*
X5693728Y-15966602D02*
X5646109Y-16109459D01*
X5769919Y-16109459D01*
X5884205Y-15976126D02*
X5903252Y-15976126D01*
X5922300Y-15985650D01*
X5931824Y-15995174D01*
X5941348Y-16014221D01*
X5950871Y-16052317D01*
X5950871Y-16099936D01*
X5941348Y-16138031D01*
X5931824Y-16157078D01*
X5922300Y-16166602D01*
X5903252Y-16176126D01*
X5884205Y-16176126D01*
X5865157Y-16166602D01*
X5855633Y-16157078D01*
X5846109Y-16138031D01*
X5836586Y-16099936D01*
X5836586Y-16052317D01*
X5846109Y-16014221D01*
X5855633Y-15995174D01*
X5865157Y-15985650D01*
X5884205Y-15976126D01*
X6074681Y-15976126D02*
X6093728Y-15976126D01*
X6112776Y-15985650D01*
X6122300Y-15995174D01*
X6131824Y-16014221D01*
X6141348Y-16052317D01*
X6141348Y-16099936D01*
X6131824Y-16138031D01*
X6122300Y-16157078D01*
X6112776Y-16166602D01*
X6093728Y-16176126D01*
X6074681Y-16176126D01*
X6055633Y-16166602D01*
X6046109Y-16157078D01*
X6036586Y-16138031D01*
X6027062Y-16099936D01*
X6027062Y-16052317D01*
X6036586Y-16014221D01*
X6046109Y-15995174D01*
X6055633Y-15985650D01*
X6074681Y-15976126D01*
X6227062Y-16176126D02*
X6227062Y-16042793D01*
X6227062Y-16061840D02*
X6236586Y-16052317D01*
X6255633Y-16042793D01*
X6284205Y-16042793D01*
X6303252Y-16052317D01*
X6312776Y-16071364D01*
X6312776Y-16176126D01*
X6312776Y-16071364D02*
X6322300Y-16052317D01*
X6341348Y-16042793D01*
X6369919Y-16042793D01*
X6388967Y-16052317D01*
X6398490Y-16071364D01*
X6398490Y-16176126D01*
X6493728Y-16176126D02*
X6493728Y-16042793D01*
X6493728Y-16061840D02*
X6503252Y-16052317D01*
X6522300Y-16042793D01*
X6550871Y-16042793D01*
X6569919Y-16052317D01*
X6579443Y-16071364D01*
X6579443Y-16176126D01*
X6579443Y-16071364D02*
X6588967Y-16052317D01*
X6608014Y-16042793D01*
X6636586Y-16042793D01*
X6655633Y-16052317D01*
X6665157Y-16071364D01*
X6665157Y-16176126D01*
X7055633Y-15966602D02*
X6884205Y-16223745D01*
X7312776Y-15976126D02*
X7331824Y-15976126D01*
X7350871Y-15985650D01*
X7360395Y-15995174D01*
X7369919Y-16014221D01*
X7379443Y-16052317D01*
X7379443Y-16099936D01*
X7369919Y-16138031D01*
X7360395Y-16157078D01*
X7350871Y-16166602D01*
X7331824Y-16176126D01*
X7312776Y-16176126D01*
X7293728Y-16166602D01*
X7284205Y-16157078D01*
X7274681Y-16138031D01*
X7265157Y-16099936D01*
X7265157Y-16052317D01*
X7274681Y-16014221D01*
X7284205Y-15995174D01*
X7293728Y-15985650D01*
X7312776Y-15976126D01*
X7465157Y-16157078D02*
X7474681Y-16166602D01*
X7465157Y-16176126D01*
X7455633Y-16166602D01*
X7465157Y-16157078D01*
X7465157Y-16176126D01*
X7598490Y-15976126D02*
X7617538Y-15976126D01*
X7636586Y-15985650D01*
X7646109Y-15995174D01*
X7655633Y-16014221D01*
X7665157Y-16052317D01*
X7665157Y-16099936D01*
X7655633Y-16138031D01*
X7646109Y-16157078D01*
X7636586Y-16166602D01*
X7617538Y-16176126D01*
X7598490Y-16176126D01*
X7579443Y-16166602D01*
X7569919Y-16157078D01*
X7560395Y-16138031D01*
X7550871Y-16099936D01*
X7550871Y-16052317D01*
X7560395Y-16014221D01*
X7569919Y-15995174D01*
X7579443Y-15985650D01*
X7598490Y-15976126D01*
X7846109Y-15976126D02*
X7750871Y-15976126D01*
X7741348Y-16071364D01*
X7750871Y-16061840D01*
X7769919Y-16052317D01*
X7817538Y-16052317D01*
X7836586Y-16061840D01*
X7846109Y-16071364D01*
X7855633Y-16090412D01*
X7855633Y-16138031D01*
X7846109Y-16157078D01*
X7836586Y-16166602D01*
X7817538Y-16176126D01*
X7769919Y-16176126D01*
X7750871Y-16166602D01*
X7741348Y-16157078D01*
X8036586Y-15976126D02*
X7941348Y-15976126D01*
X7931824Y-16071364D01*
X7941348Y-16061840D01*
X7960395Y-16052317D01*
X8008014Y-16052317D01*
X8027062Y-16061840D01*
X8036586Y-16071364D01*
X8046109Y-16090412D01*
X8046109Y-16138031D01*
X8036586Y-16157078D01*
X8027062Y-16166602D01*
X8008014Y-16176126D01*
X7960395Y-16176126D01*
X7941348Y-16166602D01*
X7931824Y-16157078D01*
X8236586Y-16176126D02*
X8122300Y-16176126D01*
X8179443Y-16176126D02*
X8179443Y-15976126D01*
X8160395Y-16004698D01*
X8141348Y-16023745D01*
X8122300Y-16033269D01*
X8312776Y-15976126D02*
X8312776Y-16014221D01*
X8388967Y-15976126D02*
X8388967Y-16014221D01*
X8684205Y-16252317D02*
X8674681Y-16242793D01*
X8655633Y-16214221D01*
X8646110Y-16195174D01*
X8636586Y-16166602D01*
X8627062Y-16118983D01*
X8627062Y-16080888D01*
X8636586Y-16033269D01*
X8646110Y-16004698D01*
X8655633Y-15985650D01*
X8674681Y-15957078D01*
X8684205Y-15947555D01*
X8741348Y-15976126D02*
X8865157Y-15976126D01*
X8798490Y-16052317D01*
X8827062Y-16052317D01*
X8846110Y-16061840D01*
X8855633Y-16071364D01*
X8865157Y-16090412D01*
X8865157Y-16138031D01*
X8855633Y-16157078D01*
X8846110Y-16166602D01*
X8827062Y-16176126D01*
X8769919Y-16176126D01*
X8750871Y-16166602D01*
X8741348Y-16157078D01*
X8931824Y-15976126D02*
X9055633Y-15976126D01*
X8988967Y-16052317D01*
X9017538Y-16052317D01*
X9036586Y-16061840D01*
X9046110Y-16071364D01*
X9055633Y-16090412D01*
X9055633Y-16138031D01*
X9046110Y-16157078D01*
X9036586Y-16166602D01*
X9017538Y-16176126D01*
X8960395Y-16176126D01*
X8941348Y-16166602D01*
X8931824Y-16157078D01*
X9293729Y-16176126D02*
X9293729Y-15976126D01*
X9379443Y-16176126D02*
X9379443Y-16071364D01*
X9369919Y-16052317D01*
X9350871Y-16042793D01*
X9322300Y-16042793D01*
X9303252Y-16052317D01*
X9293729Y-16061840D01*
X9503252Y-16176126D02*
X9484205Y-16166602D01*
X9474681Y-16157078D01*
X9465157Y-16138031D01*
X9465157Y-16080888D01*
X9474681Y-16061840D01*
X9484205Y-16052317D01*
X9503252Y-16042793D01*
X9531824Y-16042793D01*
X9550871Y-16052317D01*
X9560395Y-16061840D01*
X9569919Y-16080888D01*
X9569919Y-16138031D01*
X9560395Y-16157078D01*
X9550871Y-16166602D01*
X9531824Y-16176126D01*
X9503252Y-16176126D01*
X9684205Y-16176126D02*
X9665157Y-16166602D01*
X9655633Y-16147555D01*
X9655633Y-15976126D01*
X9836586Y-16166602D02*
X9817538Y-16176126D01*
X9779443Y-16176126D01*
X9760395Y-16166602D01*
X9750871Y-16147555D01*
X9750871Y-16071364D01*
X9760395Y-16052317D01*
X9779443Y-16042793D01*
X9817538Y-16042793D01*
X9836586Y-16052317D01*
X9846110Y-16071364D01*
X9846110Y-16090412D01*
X9750871Y-16109459D01*
X9922300Y-16166602D02*
X9941348Y-16176126D01*
X9979443Y-16176126D01*
X9998490Y-16166602D01*
X10008014Y-16147555D01*
X10008014Y-16138031D01*
X9998490Y-16118983D01*
X9979443Y-16109459D01*
X9950871Y-16109459D01*
X9931824Y-16099936D01*
X9922300Y-16080888D01*
X9922300Y-16071364D01*
X9931824Y-16052317D01*
X9950871Y-16042793D01*
X9979443Y-16042793D01*
X9998490Y-16052317D01*
X10074681Y-16252317D02*
X10084205Y-16242793D01*
X10103252Y-16214221D01*
X10112776Y-16195174D01*
X10122300Y-16166602D01*
X10131824Y-16118983D01*
X10131824Y-16080888D01*
X10122300Y-16033269D01*
X10112776Y-16004698D01*
X10103252Y-15985650D01*
X10084205Y-15957078D01*
X10074681Y-15947555D01*
X4912300Y-16249650D02*
X5112300Y-16449650D01*
X5112300Y-16249650D02*
X4912300Y-16449650D01*
X5012300Y-16249650D02*
X5012300Y-16449650D01*
X4912300Y-16349650D02*
X5112300Y-16349650D01*
X5350871Y-16240126D02*
X5474681Y-16240126D01*
X5408014Y-16316317D01*
X5436586Y-16316317D01*
X5455633Y-16325840D01*
X5465157Y-16335364D01*
X5474681Y-16354412D01*
X5474681Y-16402031D01*
X5465157Y-16421078D01*
X5455633Y-16430602D01*
X5436586Y-16440126D01*
X5379443Y-16440126D01*
X5360395Y-16430602D01*
X5350871Y-16421078D01*
X5560395Y-16421078D02*
X5569919Y-16430602D01*
X5560395Y-16440126D01*
X5550871Y-16430602D01*
X5560395Y-16421078D01*
X5560395Y-16440126D01*
X5760395Y-16440126D02*
X5646109Y-16440126D01*
X5703252Y-16440126D02*
X5703252Y-16240126D01*
X5684205Y-16268698D01*
X5665157Y-16287745D01*
X5646109Y-16297269D01*
X5884205Y-16240126D02*
X5903252Y-16240126D01*
X5922300Y-16249650D01*
X5931824Y-16259174D01*
X5941348Y-16278221D01*
X5950871Y-16316317D01*
X5950871Y-16363936D01*
X5941348Y-16402031D01*
X5931824Y-16421078D01*
X5922300Y-16430602D01*
X5903252Y-16440126D01*
X5884205Y-16440126D01*
X5865157Y-16430602D01*
X5855633Y-16421078D01*
X5846109Y-16402031D01*
X5836586Y-16363936D01*
X5836586Y-16316317D01*
X5846109Y-16278221D01*
X5855633Y-16259174D01*
X5865157Y-16249650D01*
X5884205Y-16240126D01*
X6074681Y-16240126D02*
X6093728Y-16240126D01*
X6112776Y-16249650D01*
X6122300Y-16259174D01*
X6131824Y-16278221D01*
X6141348Y-16316317D01*
X6141348Y-16363936D01*
X6131824Y-16402031D01*
X6122300Y-16421078D01*
X6112776Y-16430602D01*
X6093728Y-16440126D01*
X6074681Y-16440126D01*
X6055633Y-16430602D01*
X6046109Y-16421078D01*
X6036586Y-16402031D01*
X6027062Y-16363936D01*
X6027062Y-16316317D01*
X6036586Y-16278221D01*
X6046109Y-16259174D01*
X6055633Y-16249650D01*
X6074681Y-16240126D01*
X6227062Y-16440126D02*
X6227062Y-16306793D01*
X6227062Y-16325840D02*
X6236586Y-16316317D01*
X6255633Y-16306793D01*
X6284205Y-16306793D01*
X6303252Y-16316317D01*
X6312776Y-16335364D01*
X6312776Y-16440126D01*
X6312776Y-16335364D02*
X6322300Y-16316317D01*
X6341348Y-16306793D01*
X6369919Y-16306793D01*
X6388967Y-16316317D01*
X6398490Y-16335364D01*
X6398490Y-16440126D01*
X6493728Y-16440126D02*
X6493728Y-16306793D01*
X6493728Y-16325840D02*
X6503252Y-16316317D01*
X6522300Y-16306793D01*
X6550871Y-16306793D01*
X6569919Y-16316317D01*
X6579443Y-16335364D01*
X6579443Y-16440126D01*
X6579443Y-16335364D02*
X6588967Y-16316317D01*
X6608014Y-16306793D01*
X6636586Y-16306793D01*
X6655633Y-16316317D01*
X6665157Y-16335364D01*
X6665157Y-16440126D01*
X7055633Y-16230602D02*
X6884205Y-16487745D01*
X7312776Y-16240126D02*
X7331824Y-16240126D01*
X7350871Y-16249650D01*
X7360395Y-16259174D01*
X7369919Y-16278221D01*
X7379443Y-16316317D01*
X7379443Y-16363936D01*
X7369919Y-16402031D01*
X7360395Y-16421078D01*
X7350871Y-16430602D01*
X7331824Y-16440126D01*
X7312776Y-16440126D01*
X7293728Y-16430602D01*
X7284205Y-16421078D01*
X7274681Y-16402031D01*
X7265157Y-16363936D01*
X7265157Y-16316317D01*
X7274681Y-16278221D01*
X7284205Y-16259174D01*
X7293728Y-16249650D01*
X7312776Y-16240126D01*
X7465157Y-16421078D02*
X7474681Y-16430602D01*
X7465157Y-16440126D01*
X7455633Y-16430602D01*
X7465157Y-16421078D01*
X7465157Y-16440126D01*
X7665157Y-16440126D02*
X7550871Y-16440126D01*
X7608014Y-16440126D02*
X7608014Y-16240126D01*
X7588967Y-16268698D01*
X7569919Y-16287745D01*
X7550871Y-16297269D01*
X7741348Y-16259174D02*
X7750871Y-16249650D01*
X7769919Y-16240126D01*
X7817538Y-16240126D01*
X7836586Y-16249650D01*
X7846109Y-16259174D01*
X7855633Y-16278221D01*
X7855633Y-16297269D01*
X7846109Y-16325840D01*
X7731824Y-16440126D01*
X7855633Y-16440126D01*
X7931824Y-16259174D02*
X7941348Y-16249650D01*
X7960395Y-16240126D01*
X8008014Y-16240126D01*
X8027062Y-16249650D01*
X8036586Y-16259174D01*
X8046109Y-16278221D01*
X8046109Y-16297269D01*
X8036586Y-16325840D01*
X7922300Y-16440126D01*
X8046109Y-16440126D01*
X8169919Y-16240126D02*
X8188967Y-16240126D01*
X8208014Y-16249650D01*
X8217538Y-16259174D01*
X8227062Y-16278221D01*
X8236586Y-16316317D01*
X8236586Y-16363936D01*
X8227062Y-16402031D01*
X8217538Y-16421078D01*
X8208014Y-16430602D01*
X8188967Y-16440126D01*
X8169919Y-16440126D01*
X8150871Y-16430602D01*
X8141348Y-16421078D01*
X8131824Y-16402031D01*
X8122300Y-16363936D01*
X8122300Y-16316317D01*
X8131824Y-16278221D01*
X8141348Y-16259174D01*
X8150871Y-16249650D01*
X8169919Y-16240126D01*
X8312776Y-16240126D02*
X8312776Y-16278221D01*
X8388967Y-16240126D02*
X8388967Y-16278221D01*
X8684205Y-16516317D02*
X8674681Y-16506793D01*
X8655633Y-16478221D01*
X8646110Y-16459174D01*
X8636586Y-16430602D01*
X8627062Y-16382983D01*
X8627062Y-16344888D01*
X8636586Y-16297269D01*
X8646110Y-16268698D01*
X8655633Y-16249650D01*
X8674681Y-16221078D01*
X8684205Y-16211555D01*
X8750871Y-16259174D02*
X8760395Y-16249650D01*
X8779443Y-16240126D01*
X8827062Y-16240126D01*
X8846110Y-16249650D01*
X8855633Y-16259174D01*
X8865157Y-16278221D01*
X8865157Y-16297269D01*
X8855633Y-16325840D01*
X8741348Y-16440126D01*
X8865157Y-16440126D01*
X9103252Y-16440126D02*
X9103252Y-16240126D01*
X9188967Y-16440126D02*
X9188967Y-16335364D01*
X9179443Y-16316317D01*
X9160395Y-16306793D01*
X9131824Y-16306793D01*
X9112776Y-16316317D01*
X9103252Y-16325840D01*
X9312776Y-16440126D02*
X9293729Y-16430602D01*
X9284205Y-16421078D01*
X9274681Y-16402031D01*
X9274681Y-16344888D01*
X9284205Y-16325840D01*
X9293729Y-16316317D01*
X9312776Y-16306793D01*
X9341348Y-16306793D01*
X9360395Y-16316317D01*
X9369919Y-16325840D01*
X9379443Y-16344888D01*
X9379443Y-16402031D01*
X9369919Y-16421078D01*
X9360395Y-16430602D01*
X9341348Y-16440126D01*
X9312776Y-16440126D01*
X9493729Y-16440126D02*
X9474681Y-16430602D01*
X9465157Y-16411555D01*
X9465157Y-16240126D01*
X9646110Y-16430602D02*
X9627062Y-16440126D01*
X9588967Y-16440126D01*
X9569919Y-16430602D01*
X9560395Y-16411555D01*
X9560395Y-16335364D01*
X9569919Y-16316317D01*
X9588967Y-16306793D01*
X9627062Y-16306793D01*
X9646110Y-16316317D01*
X9655633Y-16335364D01*
X9655633Y-16354412D01*
X9560395Y-16373459D01*
X9731824Y-16430602D02*
X9750871Y-16440126D01*
X9788967Y-16440126D01*
X9808014Y-16430602D01*
X9817538Y-16411555D01*
X9817538Y-16402031D01*
X9808014Y-16382983D01*
X9788967Y-16373459D01*
X9760395Y-16373459D01*
X9741348Y-16363936D01*
X9731824Y-16344888D01*
X9731824Y-16335364D01*
X9741348Y-16316317D01*
X9760395Y-16306793D01*
X9788967Y-16306793D01*
X9808014Y-16316317D01*
X9884205Y-16516317D02*
X9893729Y-16506793D01*
X9912776Y-16478221D01*
X9922300Y-16459174D01*
X9931824Y-16430602D01*
X9941348Y-16382983D01*
X9941348Y-16344888D01*
X9931824Y-16297269D01*
X9922300Y-16268698D01*
X9912776Y-16249650D01*
X9893729Y-16221078D01*
X9884205Y-16211555D01*
M02*
