M48
; DRILL file {KiCad (6.0.7)} date Mon Oct 24 16:09:01 2022
; FORMAT={-:-/ absolute / inch / decimal}
; #@! TF.CreationDate,2022-10-24T16:09:01+01:00
; #@! TF.GenerationSoftware,Kicad,Pcbnew,(6.0.7)
; #@! TF.FileFunction,Plated,1,2,PTH
FMAT,2
INCH
; #@! TA.AperFunction,Plated,PTH,ViaDrill
T1C0.0157
; #@! TA.AperFunction,Plated,PTH,ComponentDrill
T2C0.0236
; #@! TA.AperFunction,Plated,PTH,ComponentDrill
T3C0.0354
; #@! TA.AperFunction,Plated,PTH,ComponentDrill
T4C0.0402
; #@! TA.AperFunction,Plated,PTH,ComponentDrill
T5C0.0531
; #@! TA.AperFunction,Plated,PTH,ComponentDrill
T6C0.0551
; #@! TA.AperFunction,Plated,PTH,ComponentDrill
T7C0.1220
%
G90
G05
T1
X2.4352Y-3.2994
X2.61Y-2.3441
X3.4584Y-4.483
X4.0Y-4.88
X4.82Y-4.45
X4.83Y-4.19
X4.86Y-2.36
X4.87Y-3.68
X4.88Y-3.07
X4.9139Y-4.1631
X5.0Y-4.07
X5.0541Y-2.4325
X5.07Y-4.49
X5.17Y-4.19
X5.2111Y-4.4053
X5.22Y-3.01
X5.23Y-2.42
X5.23Y-2.61
X5.2479Y-4.4349
X5.3118Y-4.4545
X5.45Y-2.69
X5.77Y-3.83
X5.81Y-4.24
X5.83Y-4.34
X5.83Y-4.47
X5.83Y-4.61
X5.84Y-3.59
X5.88Y-2.31
X5.9116Y-3.8214
X6.02Y-4.45
X6.14Y-4.39
X6.26Y-2.39
X6.48Y-2.75
X6.75Y-3.54
X8.79Y-3.17
X8.9Y-3.48
T2
X7.04Y-3.79
X7.04Y-3.8687
X7.04Y-4.36
X7.04Y-4.4387
T3
X7.3018Y-2.5805
X7.3018Y-2.6892
X7.3018Y-2.7979
X7.3018Y-2.9065
X7.3018Y-3.0152
X7.3018Y-3.1238
X7.3018Y-3.2325
X7.3018Y-3.3412
X7.3018Y-3.4498
X7.3018Y-3.5585
X7.3018Y-3.6671
X7.3018Y-3.7758
X7.3018Y-3.8845
X7.4136Y-2.6349
X7.4136Y-2.7435
X7.4136Y-2.8522
X7.4136Y-2.9608
X7.4136Y-3.0695
X7.4136Y-3.1782
X7.4136Y-3.2868
X7.4136Y-3.3955
X7.4136Y-3.5042
X7.4136Y-3.6128
X7.4136Y-3.7215
X7.4136Y-3.8301
T4
X3.65Y-2.2232
X3.65Y-2.3232
X3.65Y-2.4232
X3.65Y-2.5232
X3.65Y-2.6232
X3.65Y-2.7232
X3.65Y-2.8232
X3.65Y-2.9232
X3.65Y-3.0232
X3.65Y-3.1232
X3.65Y-3.2232
X3.65Y-3.3232
X3.65Y-3.4232
X3.65Y-3.5232
X3.65Y-3.6232
X3.65Y-3.7232
X3.65Y-3.8232
X3.65Y-3.9232
X3.65Y-4.0232
X3.65Y-4.1232
X3.9Y-4.1142
X4.0Y-4.1142
X4.1Y-4.1142
X4.35Y-2.2232
X4.35Y-2.3232
X4.35Y-2.4232
X4.35Y-2.5232
X4.35Y-2.6232
X4.35Y-2.7232
X4.35Y-2.8232
X4.35Y-2.9232
X4.35Y-3.0232
X4.35Y-3.1232
X4.35Y-3.2232
X4.35Y-3.3232
X4.35Y-3.4232
X4.35Y-3.5232
X4.35Y-3.6232
X4.35Y-3.7232
X4.35Y-3.8232
X4.35Y-3.9232
X4.35Y-4.0232
X4.35Y-4.1232
T5
X8.0644Y-4.2875
X8.0644Y-5.3898
X8.5337Y-3.9725
X8.7337Y-3.9725
X8.9337Y-3.9725
X9.403Y-4.2875
X9.403Y-5.3898
T6
X2.2695Y-2.2959
X2.2695Y-2.3943
X2.2695Y-2.4927
X2.2695Y-2.5912
X2.2695Y-2.8725
X2.2695Y-2.9709
X2.2695Y-3.0694
X2.2695Y-3.1678
X2.2695Y-3.4525
X2.2695Y-3.5509
X2.2695Y-3.6494
X2.2695Y-3.9325
X2.2695Y-4.0309
X2.2695Y-4.1294
X2.2695Y-4.4125
X2.2695Y-4.5109
X2.2695Y-4.6094
X2.8816Y-2.34
X2.9662Y-5.3276
X2.98Y-2.34
X3.0646Y-5.3276
X4.9346Y-5.3276
X5.033Y-5.3276
X7.4807Y-4.5057
X7.4807Y-4.6042
X7.4807Y-4.8841
X7.4807Y-4.9825
X7.4807Y-5.2641
X7.4807Y-5.3625
X8.6084Y-2.3528
X8.7069Y-2.3528
X8.8053Y-2.3528
X8.9037Y-2.3528
T7
X7.3577Y-2.3065
X7.3577Y-4.1585
T0
M30
