%TF.GenerationSoftware,KiCad,Pcbnew,(6.0.7)*%
%TF.CreationDate,2022-10-24T16:08:39+01:00*%
%TF.ProjectId,controlCircuit,636f6e74-726f-46c4-9369-72637569742e,rev?*%
%TF.SameCoordinates,Original*%
%TF.FileFunction,Profile,NP*%
%FSLAX46Y46*%
G04 Gerber Fmt 4.6, Leading zero omitted, Abs format (unit mm)*
G04 Created by KiCad (PCBNEW (6.0.7)) date 2022-10-24 16:08:39*
%MOMM*%
%LPD*%
G01*
G04 APERTURE LIST*
%TA.AperFunction,Profile*%
%ADD10C,0.050000*%
%TD*%
%TA.AperFunction,Profile*%
%ADD11C,0.120000*%
%TD*%
G04 APERTURE END LIST*
D10*
X197984000Y-55921500D02*
G75*
G03*
X194484000Y-52421500I-3500000J0D01*
G01*
X243078000Y-55921500D02*
G75*
G03*
X239578000Y-52421500I-3500000J0D01*
G01*
X243078000Y-137223500D02*
X243078000Y-56705500D01*
X200924000Y-124479500D02*
G75*
G03*
X197924000Y-124479500I-1500000J16D01*
G01*
X200984000Y-118173500D02*
X200984000Y-75223516D01*
X51148021Y-138239497D02*
G75*
G03*
X54648000Y-141231500I3499979J551097D01*
G01*
X197984000Y-75223516D02*
X197984000Y-118173500D01*
X51148000Y-138239500D02*
X51148000Y-137985500D01*
X239268000Y-52421500D02*
X204484000Y-52421500D01*
X239268000Y-52421500D02*
X239578000Y-52421500D01*
X239578000Y-141229500D02*
G75*
G03*
X243078000Y-137729500I0J3500000D01*
G01*
X197924000Y-124479500D02*
X197924000Y-137729500D01*
X54708000Y-52423500D02*
X194484000Y-52421500D01*
X243078000Y-56197500D02*
X243078000Y-55921500D01*
X243078000Y-137223500D02*
X243078000Y-137729500D01*
X194424000Y-141229500D02*
X54648000Y-141231500D01*
X200984000Y-75223516D02*
G75*
G03*
X197984000Y-75223516I-1500000J16D01*
G01*
X204484000Y-52421500D02*
G75*
G03*
X200984000Y-55921500I0J-3500000D01*
G01*
X239014000Y-141229500D02*
X239578000Y-141229500D01*
X54708000Y-52423500D02*
G75*
G03*
X51208000Y-55923500I0J-3500000D01*
G01*
X51148000Y-137985500D02*
X51208000Y-55923500D01*
X200984000Y-68921484D02*
X200984000Y-55921500D01*
X197984000Y-55921500D02*
X197984000Y-68921484D01*
X194424000Y-141229500D02*
G75*
G03*
X197924000Y-137729500I0J3500000D01*
G01*
X200924000Y-137729500D02*
G75*
G03*
X204424000Y-141229500I3500000J0D01*
G01*
X197984000Y-118173500D02*
G75*
G03*
X200984000Y-118173500I1500000J-16D01*
G01*
X243078000Y-56197500D02*
X243078000Y-56705500D01*
X200924000Y-137729500D02*
X200924000Y-124479500D01*
X204424000Y-141229500D02*
X239014000Y-141229500D01*
X197984000Y-68921484D02*
G75*
G03*
X200984000Y-68921484I1500000J-16D01*
G01*
D11*
%TO.C,J10*%
X233336000Y-122901500D02*
G75*
G03*
X233336000Y-122901500I-11500000J0D01*
G01*
%TD*%
M02*
