%TF.GenerationSoftware,KiCad,Pcbnew,(6.0.7)*%
%TF.CreationDate,2022-10-19T11:54:54+01:00*%
%TF.ProjectId,controlCircuit,636f6e74-726f-46c4-9369-72637569742e,rev?*%
%TF.SameCoordinates,Original*%
%TF.FileFunction,Drillmap*%
%TF.FilePolarity,Positive*%
%FSLAX45Y45*%
G04 Gerber Fmt 4.5, Leading zero omitted, Abs format (unit mm)*
G04 Created by KiCad (PCBNEW (6.0.7)) date 2022-10-19 11:54:54*
%MOMM*%
%LPD*%
G01*
G04 APERTURE LIST*
%ADD10C,0.050000*%
%ADD11C,0.200000*%
%ADD12C,0.150000*%
%ADD13C,0.180000*%
G04 APERTURE END LIST*
D10*
X19798400Y-5592150D02*
G75*
G03*
X19448400Y-5242150I-350000J0D01*
G01*
X24307800Y-5592150D02*
G75*
G03*
X23957800Y-5242150I-350000J0D01*
G01*
X24307800Y-13722350D02*
X24307800Y-5670550D01*
X20092400Y-12447950D02*
G75*
G03*
X19792400Y-12447950I-150000J2D01*
G01*
X20098400Y-11817350D02*
X20098400Y-7522352D01*
X5114802Y-13823950D02*
G75*
G03*
X5464800Y-14123150I349998J55110D01*
G01*
X19798400Y-7522352D02*
X19798400Y-11817350D01*
X5114800Y-13823950D02*
X5114800Y-13798550D01*
X23926800Y-5242150D02*
X20448400Y-5242150D01*
X23926800Y-5242150D02*
X23957800Y-5242150D01*
X23957800Y-14122950D02*
G75*
G03*
X24307800Y-13772950I0J350000D01*
G01*
X19792400Y-12447950D02*
X19792400Y-13772950D01*
X5470800Y-5242350D02*
X19448400Y-5242150D01*
X24307800Y-5619750D02*
X24307800Y-5592150D01*
X24307800Y-13722350D02*
X24307800Y-13772950D01*
X19442400Y-14122950D02*
X5464800Y-14123150D01*
X20098400Y-7522352D02*
G75*
G03*
X19798400Y-7522352I-150000J2D01*
G01*
X20448400Y-5242150D02*
G75*
G03*
X20098400Y-5592150I0J-350000D01*
G01*
X23901400Y-14122950D02*
X23957800Y-14122950D01*
X5470800Y-5242350D02*
G75*
G03*
X5120800Y-5592350I0J-350000D01*
G01*
X5114800Y-13798550D02*
X5120800Y-5592350D01*
X20098400Y-6892148D02*
X20098400Y-5592150D01*
X19798400Y-5592150D02*
X19798400Y-6892148D01*
X19442400Y-14122950D02*
G75*
G03*
X19792400Y-13772950I0J350000D01*
G01*
X20092400Y-13772950D02*
G75*
G03*
X20442400Y-14122950I350000J0D01*
G01*
X19798400Y-11817350D02*
G75*
G03*
X20098400Y-11817350I150000J-2D01*
G01*
X24307800Y-5619750D02*
X24307800Y-5670550D01*
X20092400Y-13772950D02*
X20092400Y-12447950D01*
X20442400Y-14122950D02*
X23901400Y-14122950D01*
X19798400Y-6892148D02*
G75*
G03*
X20098400Y-6892148I150000J-2D01*
G01*
D11*
D12*
X9842500Y-5888050D02*
X9992500Y-6038050D01*
X9992500Y-5888050D02*
X9842500Y-6038050D01*
X10327500Y-5888050D02*
X10477500Y-6038050D01*
X10477500Y-5888050D02*
X10327500Y-6038050D01*
D13*
X9977500Y-5660050D02*
G75*
G03*
X9977500Y-5660050I-90000J0D01*
G01*
X10522500Y-5660050D02*
G75*
G03*
X10522500Y-5660050I-90000J0D01*
G01*
D11*
X5369919Y-14436126D02*
X5369919Y-14236126D01*
X5417538Y-14236126D01*
X5446110Y-14245650D01*
X5465157Y-14264698D01*
X5474681Y-14283745D01*
X5484205Y-14321840D01*
X5484205Y-14350412D01*
X5474681Y-14388507D01*
X5465157Y-14407555D01*
X5446110Y-14426602D01*
X5417538Y-14436126D01*
X5369919Y-14436126D01*
X5569919Y-14436126D02*
X5569919Y-14302793D01*
X5569919Y-14340888D02*
X5579443Y-14321840D01*
X5588967Y-14312317D01*
X5608014Y-14302793D01*
X5627062Y-14302793D01*
X5693728Y-14436126D02*
X5693728Y-14302793D01*
X5693728Y-14236126D02*
X5684205Y-14245650D01*
X5693728Y-14255174D01*
X5703252Y-14245650D01*
X5693728Y-14236126D01*
X5693728Y-14255174D01*
X5817538Y-14436126D02*
X5798490Y-14426602D01*
X5788967Y-14407555D01*
X5788967Y-14236126D01*
X5922300Y-14436126D02*
X5903252Y-14426602D01*
X5893728Y-14407555D01*
X5893728Y-14236126D01*
X6150871Y-14436126D02*
X6150871Y-14236126D01*
X6217538Y-14378983D01*
X6284205Y-14236126D01*
X6284205Y-14436126D01*
X6465157Y-14436126D02*
X6465157Y-14331364D01*
X6455633Y-14312317D01*
X6436586Y-14302793D01*
X6398490Y-14302793D01*
X6379443Y-14312317D01*
X6465157Y-14426602D02*
X6446109Y-14436126D01*
X6398490Y-14436126D01*
X6379443Y-14426602D01*
X6369919Y-14407555D01*
X6369919Y-14388507D01*
X6379443Y-14369459D01*
X6398490Y-14359936D01*
X6446109Y-14359936D01*
X6465157Y-14350412D01*
X6560395Y-14302793D02*
X6560395Y-14502793D01*
X6560395Y-14312317D02*
X6579443Y-14302793D01*
X6617538Y-14302793D01*
X6636586Y-14312317D01*
X6646109Y-14321840D01*
X6655633Y-14340888D01*
X6655633Y-14398031D01*
X6646109Y-14417078D01*
X6636586Y-14426602D01*
X6617538Y-14436126D01*
X6579443Y-14436126D01*
X6560395Y-14426602D01*
X6741348Y-14417078D02*
X6750871Y-14426602D01*
X6741348Y-14436126D01*
X6731824Y-14426602D01*
X6741348Y-14417078D01*
X6741348Y-14436126D01*
X6741348Y-14312317D02*
X6750871Y-14321840D01*
X6741348Y-14331364D01*
X6731824Y-14321840D01*
X6741348Y-14312317D01*
X6741348Y-14331364D01*
D12*
X4962300Y-14690650D02*
X5112300Y-14840650D01*
X5112300Y-14690650D02*
X4962300Y-14840650D01*
D11*
X5474681Y-14856126D02*
X5360395Y-14856126D01*
X5417538Y-14856126D02*
X5417538Y-14656126D01*
X5398490Y-14684698D01*
X5379443Y-14703745D01*
X5360395Y-14713269D01*
X5560395Y-14837078D02*
X5569919Y-14846602D01*
X5560395Y-14856126D01*
X5550871Y-14846602D01*
X5560395Y-14837078D01*
X5560395Y-14856126D01*
X5750871Y-14656126D02*
X5655633Y-14656126D01*
X5646109Y-14751364D01*
X5655633Y-14741840D01*
X5674681Y-14732317D01*
X5722300Y-14732317D01*
X5741348Y-14741840D01*
X5750871Y-14751364D01*
X5760395Y-14770412D01*
X5760395Y-14818031D01*
X5750871Y-14837078D01*
X5741348Y-14846602D01*
X5722300Y-14856126D01*
X5674681Y-14856126D01*
X5655633Y-14846602D01*
X5646109Y-14837078D01*
X5884205Y-14656126D02*
X5903252Y-14656126D01*
X5922300Y-14665650D01*
X5931824Y-14675174D01*
X5941348Y-14694221D01*
X5950871Y-14732317D01*
X5950871Y-14779936D01*
X5941348Y-14818031D01*
X5931824Y-14837078D01*
X5922300Y-14846602D01*
X5903252Y-14856126D01*
X5884205Y-14856126D01*
X5865157Y-14846602D01*
X5855633Y-14837078D01*
X5846109Y-14818031D01*
X5836586Y-14779936D01*
X5836586Y-14732317D01*
X5846109Y-14694221D01*
X5855633Y-14675174D01*
X5865157Y-14665650D01*
X5884205Y-14656126D01*
X6074681Y-14656126D02*
X6093728Y-14656126D01*
X6112776Y-14665650D01*
X6122300Y-14675174D01*
X6131824Y-14694221D01*
X6141348Y-14732317D01*
X6141348Y-14779936D01*
X6131824Y-14818031D01*
X6122300Y-14837078D01*
X6112776Y-14846602D01*
X6093728Y-14856126D01*
X6074681Y-14856126D01*
X6055633Y-14846602D01*
X6046109Y-14837078D01*
X6036586Y-14818031D01*
X6027062Y-14779936D01*
X6027062Y-14732317D01*
X6036586Y-14694221D01*
X6046109Y-14675174D01*
X6055633Y-14665650D01*
X6074681Y-14656126D01*
X6227062Y-14856126D02*
X6227062Y-14722793D01*
X6227062Y-14741840D02*
X6236586Y-14732317D01*
X6255633Y-14722793D01*
X6284205Y-14722793D01*
X6303252Y-14732317D01*
X6312776Y-14751364D01*
X6312776Y-14856126D01*
X6312776Y-14751364D02*
X6322300Y-14732317D01*
X6341348Y-14722793D01*
X6369919Y-14722793D01*
X6388967Y-14732317D01*
X6398490Y-14751364D01*
X6398490Y-14856126D01*
X6493728Y-14856126D02*
X6493728Y-14722793D01*
X6493728Y-14741840D02*
X6503252Y-14732317D01*
X6522300Y-14722793D01*
X6550871Y-14722793D01*
X6569919Y-14732317D01*
X6579443Y-14751364D01*
X6579443Y-14856126D01*
X6579443Y-14751364D02*
X6588967Y-14732317D01*
X6608014Y-14722793D01*
X6636586Y-14722793D01*
X6655633Y-14732317D01*
X6665157Y-14751364D01*
X6665157Y-14856126D01*
X7055633Y-14646602D02*
X6884205Y-14903745D01*
X7312776Y-14656126D02*
X7331824Y-14656126D01*
X7350871Y-14665650D01*
X7360395Y-14675174D01*
X7369919Y-14694221D01*
X7379443Y-14732317D01*
X7379443Y-14779936D01*
X7369919Y-14818031D01*
X7360395Y-14837078D01*
X7350871Y-14846602D01*
X7331824Y-14856126D01*
X7312776Y-14856126D01*
X7293728Y-14846602D01*
X7284205Y-14837078D01*
X7274681Y-14818031D01*
X7265157Y-14779936D01*
X7265157Y-14732317D01*
X7274681Y-14694221D01*
X7284205Y-14675174D01*
X7293728Y-14665650D01*
X7312776Y-14656126D01*
X7465157Y-14837078D02*
X7474681Y-14846602D01*
X7465157Y-14856126D01*
X7455633Y-14846602D01*
X7465157Y-14837078D01*
X7465157Y-14856126D01*
X7598490Y-14656126D02*
X7617538Y-14656126D01*
X7636586Y-14665650D01*
X7646109Y-14675174D01*
X7655633Y-14694221D01*
X7665157Y-14732317D01*
X7665157Y-14779936D01*
X7655633Y-14818031D01*
X7646109Y-14837078D01*
X7636586Y-14846602D01*
X7617538Y-14856126D01*
X7598490Y-14856126D01*
X7579443Y-14846602D01*
X7569919Y-14837078D01*
X7560395Y-14818031D01*
X7550871Y-14779936D01*
X7550871Y-14732317D01*
X7560395Y-14694221D01*
X7569919Y-14675174D01*
X7579443Y-14665650D01*
X7598490Y-14656126D01*
X7846109Y-14656126D02*
X7750871Y-14656126D01*
X7741348Y-14751364D01*
X7750871Y-14741840D01*
X7769919Y-14732317D01*
X7817538Y-14732317D01*
X7836586Y-14741840D01*
X7846109Y-14751364D01*
X7855633Y-14770412D01*
X7855633Y-14818031D01*
X7846109Y-14837078D01*
X7836586Y-14846602D01*
X7817538Y-14856126D01*
X7769919Y-14856126D01*
X7750871Y-14846602D01*
X7741348Y-14837078D01*
X7950871Y-14856126D02*
X7988967Y-14856126D01*
X8008014Y-14846602D01*
X8017538Y-14837078D01*
X8036586Y-14808507D01*
X8046109Y-14770412D01*
X8046109Y-14694221D01*
X8036586Y-14675174D01*
X8027062Y-14665650D01*
X8008014Y-14656126D01*
X7969919Y-14656126D01*
X7950871Y-14665650D01*
X7941348Y-14675174D01*
X7931824Y-14694221D01*
X7931824Y-14741840D01*
X7941348Y-14760888D01*
X7950871Y-14770412D01*
X7969919Y-14779936D01*
X8008014Y-14779936D01*
X8027062Y-14770412D01*
X8036586Y-14760888D01*
X8046109Y-14741840D01*
X8236586Y-14856126D02*
X8122300Y-14856126D01*
X8179443Y-14856126D02*
X8179443Y-14656126D01*
X8160395Y-14684698D01*
X8141348Y-14703745D01*
X8122300Y-14713269D01*
X8312776Y-14656126D02*
X8312776Y-14694221D01*
X8388967Y-14656126D02*
X8388967Y-14694221D01*
X8684205Y-14932317D02*
X8674681Y-14922793D01*
X8655633Y-14894221D01*
X8646110Y-14875174D01*
X8636586Y-14846602D01*
X8627062Y-14798983D01*
X8627062Y-14760888D01*
X8636586Y-14713269D01*
X8646110Y-14684698D01*
X8655633Y-14665650D01*
X8674681Y-14637078D01*
X8684205Y-14627555D01*
X8750871Y-14675174D02*
X8760395Y-14665650D01*
X8779443Y-14656126D01*
X8827062Y-14656126D01*
X8846110Y-14665650D01*
X8855633Y-14675174D01*
X8865157Y-14694221D01*
X8865157Y-14713269D01*
X8855633Y-14741840D01*
X8741348Y-14856126D01*
X8865157Y-14856126D01*
X9103252Y-14856126D02*
X9103252Y-14656126D01*
X9188967Y-14856126D02*
X9188967Y-14751364D01*
X9179443Y-14732317D01*
X9160395Y-14722793D01*
X9131824Y-14722793D01*
X9112776Y-14732317D01*
X9103252Y-14741840D01*
X9312776Y-14856126D02*
X9293729Y-14846602D01*
X9284205Y-14837078D01*
X9274681Y-14818031D01*
X9274681Y-14760888D01*
X9284205Y-14741840D01*
X9293729Y-14732317D01*
X9312776Y-14722793D01*
X9341348Y-14722793D01*
X9360395Y-14732317D01*
X9369919Y-14741840D01*
X9379443Y-14760888D01*
X9379443Y-14818031D01*
X9369919Y-14837078D01*
X9360395Y-14846602D01*
X9341348Y-14856126D01*
X9312776Y-14856126D01*
X9493729Y-14856126D02*
X9474681Y-14846602D01*
X9465157Y-14827555D01*
X9465157Y-14656126D01*
X9646110Y-14846602D02*
X9627062Y-14856126D01*
X9588967Y-14856126D01*
X9569919Y-14846602D01*
X9560395Y-14827555D01*
X9560395Y-14751364D01*
X9569919Y-14732317D01*
X9588967Y-14722793D01*
X9627062Y-14722793D01*
X9646110Y-14732317D01*
X9655633Y-14751364D01*
X9655633Y-14770412D01*
X9560395Y-14789459D01*
X9731824Y-14846602D02*
X9750871Y-14856126D01*
X9788967Y-14856126D01*
X9808014Y-14846602D01*
X9817538Y-14827555D01*
X9817538Y-14818031D01*
X9808014Y-14798983D01*
X9788967Y-14789459D01*
X9760395Y-14789459D01*
X9741348Y-14779936D01*
X9731824Y-14760888D01*
X9731824Y-14751364D01*
X9741348Y-14732317D01*
X9760395Y-14722793D01*
X9788967Y-14722793D01*
X9808014Y-14732317D01*
X9884205Y-14932317D02*
X9893729Y-14922793D01*
X9912776Y-14894221D01*
X9922300Y-14875174D01*
X9931824Y-14846602D01*
X9941348Y-14798983D01*
X9941348Y-14760888D01*
X9931824Y-14713269D01*
X9922300Y-14684698D01*
X9912776Y-14665650D01*
X9893729Y-14637078D01*
X9884205Y-14627555D01*
X10246110Y-14932317D02*
X10236586Y-14922793D01*
X10217538Y-14894221D01*
X10208014Y-14875174D01*
X10198490Y-14846602D01*
X10188967Y-14798983D01*
X10188967Y-14760888D01*
X10198490Y-14713269D01*
X10208014Y-14684698D01*
X10217538Y-14665650D01*
X10236586Y-14637078D01*
X10246110Y-14627555D01*
X10322300Y-14722793D02*
X10322300Y-14856126D01*
X10322300Y-14741840D02*
X10331824Y-14732317D01*
X10350871Y-14722793D01*
X10379443Y-14722793D01*
X10398490Y-14732317D01*
X10408014Y-14751364D01*
X10408014Y-14856126D01*
X10531824Y-14856126D02*
X10512776Y-14846602D01*
X10503252Y-14837078D01*
X10493729Y-14818031D01*
X10493729Y-14760888D01*
X10503252Y-14741840D01*
X10512776Y-14732317D01*
X10531824Y-14722793D01*
X10560395Y-14722793D01*
X10579443Y-14732317D01*
X10588967Y-14741840D01*
X10598490Y-14760888D01*
X10598490Y-14818031D01*
X10588967Y-14837078D01*
X10579443Y-14846602D01*
X10560395Y-14856126D01*
X10531824Y-14856126D01*
X10655633Y-14722793D02*
X10731824Y-14722793D01*
X10684205Y-14656126D02*
X10684205Y-14827555D01*
X10693729Y-14846602D01*
X10712776Y-14856126D01*
X10731824Y-14856126D01*
X10950871Y-14722793D02*
X10950871Y-14922793D01*
X10950871Y-14732317D02*
X10969919Y-14722793D01*
X11008014Y-14722793D01*
X11027062Y-14732317D01*
X11036586Y-14741840D01*
X11046110Y-14760888D01*
X11046110Y-14818031D01*
X11036586Y-14837078D01*
X11027062Y-14846602D01*
X11008014Y-14856126D01*
X10969919Y-14856126D01*
X10950871Y-14846602D01*
X11160395Y-14856126D02*
X11141348Y-14846602D01*
X11131824Y-14827555D01*
X11131824Y-14656126D01*
X11322300Y-14856126D02*
X11322300Y-14751364D01*
X11312776Y-14732317D01*
X11293728Y-14722793D01*
X11255633Y-14722793D01*
X11236586Y-14732317D01*
X11322300Y-14846602D02*
X11303252Y-14856126D01*
X11255633Y-14856126D01*
X11236586Y-14846602D01*
X11227062Y-14827555D01*
X11227062Y-14808507D01*
X11236586Y-14789459D01*
X11255633Y-14779936D01*
X11303252Y-14779936D01*
X11322300Y-14770412D01*
X11388967Y-14722793D02*
X11465157Y-14722793D01*
X11417538Y-14656126D02*
X11417538Y-14827555D01*
X11427062Y-14846602D01*
X11446109Y-14856126D01*
X11465157Y-14856126D01*
X11608014Y-14846602D02*
X11588967Y-14856126D01*
X11550871Y-14856126D01*
X11531824Y-14846602D01*
X11522300Y-14827555D01*
X11522300Y-14751364D01*
X11531824Y-14732317D01*
X11550871Y-14722793D01*
X11588967Y-14722793D01*
X11608014Y-14732317D01*
X11617538Y-14751364D01*
X11617538Y-14770412D01*
X11522300Y-14789459D01*
X11788967Y-14856126D02*
X11788967Y-14656126D01*
X11788967Y-14846602D02*
X11769919Y-14856126D01*
X11731824Y-14856126D01*
X11712776Y-14846602D01*
X11703252Y-14837078D01*
X11693728Y-14818031D01*
X11693728Y-14760888D01*
X11703252Y-14741840D01*
X11712776Y-14732317D01*
X11731824Y-14722793D01*
X11769919Y-14722793D01*
X11788967Y-14732317D01*
X11865157Y-14932317D02*
X11874681Y-14922793D01*
X11893728Y-14894221D01*
X11903252Y-14875174D01*
X11912776Y-14846602D01*
X11922300Y-14798983D01*
X11922300Y-14760888D01*
X11912776Y-14713269D01*
X11903252Y-14684698D01*
X11893728Y-14665650D01*
X11874681Y-14637078D01*
X11865157Y-14627555D01*
D13*
X5112300Y-15035650D02*
G75*
G03*
X5112300Y-15035650I-90000J0D01*
G01*
D11*
X5474681Y-15126126D02*
X5360395Y-15126126D01*
X5417538Y-15126126D02*
X5417538Y-14926126D01*
X5398490Y-14954698D01*
X5379443Y-14973745D01*
X5360395Y-14983269D01*
X5560395Y-15107078D02*
X5569919Y-15116602D01*
X5560395Y-15126126D01*
X5550871Y-15116602D01*
X5560395Y-15107078D01*
X5560395Y-15126126D01*
X5684205Y-15011840D02*
X5665157Y-15002317D01*
X5655633Y-14992793D01*
X5646109Y-14973745D01*
X5646109Y-14964221D01*
X5655633Y-14945174D01*
X5665157Y-14935650D01*
X5684205Y-14926126D01*
X5722300Y-14926126D01*
X5741348Y-14935650D01*
X5750871Y-14945174D01*
X5760395Y-14964221D01*
X5760395Y-14973745D01*
X5750871Y-14992793D01*
X5741348Y-15002317D01*
X5722300Y-15011840D01*
X5684205Y-15011840D01*
X5665157Y-15021364D01*
X5655633Y-15030888D01*
X5646109Y-15049936D01*
X5646109Y-15088031D01*
X5655633Y-15107078D01*
X5665157Y-15116602D01*
X5684205Y-15126126D01*
X5722300Y-15126126D01*
X5741348Y-15116602D01*
X5750871Y-15107078D01*
X5760395Y-15088031D01*
X5760395Y-15049936D01*
X5750871Y-15030888D01*
X5741348Y-15021364D01*
X5722300Y-15011840D01*
X5884205Y-14926126D02*
X5903252Y-14926126D01*
X5922300Y-14935650D01*
X5931824Y-14945174D01*
X5941348Y-14964221D01*
X5950871Y-15002317D01*
X5950871Y-15049936D01*
X5941348Y-15088031D01*
X5931824Y-15107078D01*
X5922300Y-15116602D01*
X5903252Y-15126126D01*
X5884205Y-15126126D01*
X5865157Y-15116602D01*
X5855633Y-15107078D01*
X5846109Y-15088031D01*
X5836586Y-15049936D01*
X5836586Y-15002317D01*
X5846109Y-14964221D01*
X5855633Y-14945174D01*
X5865157Y-14935650D01*
X5884205Y-14926126D01*
X6074681Y-14926126D02*
X6093728Y-14926126D01*
X6112776Y-14935650D01*
X6122300Y-14945174D01*
X6131824Y-14964221D01*
X6141348Y-15002317D01*
X6141348Y-15049936D01*
X6131824Y-15088031D01*
X6122300Y-15107078D01*
X6112776Y-15116602D01*
X6093728Y-15126126D01*
X6074681Y-15126126D01*
X6055633Y-15116602D01*
X6046109Y-15107078D01*
X6036586Y-15088031D01*
X6027062Y-15049936D01*
X6027062Y-15002317D01*
X6036586Y-14964221D01*
X6046109Y-14945174D01*
X6055633Y-14935650D01*
X6074681Y-14926126D01*
X6227062Y-15126126D02*
X6227062Y-14992793D01*
X6227062Y-15011840D02*
X6236586Y-15002317D01*
X6255633Y-14992793D01*
X6284205Y-14992793D01*
X6303252Y-15002317D01*
X6312776Y-15021364D01*
X6312776Y-15126126D01*
X6312776Y-15021364D02*
X6322300Y-15002317D01*
X6341348Y-14992793D01*
X6369919Y-14992793D01*
X6388967Y-15002317D01*
X6398490Y-15021364D01*
X6398490Y-15126126D01*
X6493728Y-15126126D02*
X6493728Y-14992793D01*
X6493728Y-15011840D02*
X6503252Y-15002317D01*
X6522300Y-14992793D01*
X6550871Y-14992793D01*
X6569919Y-15002317D01*
X6579443Y-15021364D01*
X6579443Y-15126126D01*
X6579443Y-15021364D02*
X6588967Y-15002317D01*
X6608014Y-14992793D01*
X6636586Y-14992793D01*
X6655633Y-15002317D01*
X6665157Y-15021364D01*
X6665157Y-15126126D01*
X7055633Y-14916602D02*
X6884205Y-15173745D01*
X7312776Y-14926126D02*
X7331824Y-14926126D01*
X7350871Y-14935650D01*
X7360395Y-14945174D01*
X7369919Y-14964221D01*
X7379443Y-15002317D01*
X7379443Y-15049936D01*
X7369919Y-15088031D01*
X7360395Y-15107078D01*
X7350871Y-15116602D01*
X7331824Y-15126126D01*
X7312776Y-15126126D01*
X7293728Y-15116602D01*
X7284205Y-15107078D01*
X7274681Y-15088031D01*
X7265157Y-15049936D01*
X7265157Y-15002317D01*
X7274681Y-14964221D01*
X7284205Y-14945174D01*
X7293728Y-14935650D01*
X7312776Y-14926126D01*
X7465157Y-15107078D02*
X7474681Y-15116602D01*
X7465157Y-15126126D01*
X7455633Y-15116602D01*
X7465157Y-15107078D01*
X7465157Y-15126126D01*
X7598490Y-14926126D02*
X7617538Y-14926126D01*
X7636586Y-14935650D01*
X7646109Y-14945174D01*
X7655633Y-14964221D01*
X7665157Y-15002317D01*
X7665157Y-15049936D01*
X7655633Y-15088031D01*
X7646109Y-15107078D01*
X7636586Y-15116602D01*
X7617538Y-15126126D01*
X7598490Y-15126126D01*
X7579443Y-15116602D01*
X7569919Y-15107078D01*
X7560395Y-15088031D01*
X7550871Y-15049936D01*
X7550871Y-15002317D01*
X7560395Y-14964221D01*
X7569919Y-14945174D01*
X7579443Y-14935650D01*
X7598490Y-14926126D01*
X7731824Y-14926126D02*
X7865157Y-14926126D01*
X7779443Y-15126126D01*
X7979443Y-14926126D02*
X7998490Y-14926126D01*
X8017538Y-14935650D01*
X8027062Y-14945174D01*
X8036586Y-14964221D01*
X8046109Y-15002317D01*
X8046109Y-15049936D01*
X8036586Y-15088031D01*
X8027062Y-15107078D01*
X8017538Y-15116602D01*
X7998490Y-15126126D01*
X7979443Y-15126126D01*
X7960395Y-15116602D01*
X7950871Y-15107078D01*
X7941348Y-15088031D01*
X7931824Y-15049936D01*
X7931824Y-15002317D01*
X7941348Y-14964221D01*
X7950871Y-14945174D01*
X7960395Y-14935650D01*
X7979443Y-14926126D01*
X8141348Y-15126126D02*
X8179443Y-15126126D01*
X8198490Y-15116602D01*
X8208014Y-15107078D01*
X8227062Y-15078507D01*
X8236586Y-15040412D01*
X8236586Y-14964221D01*
X8227062Y-14945174D01*
X8217538Y-14935650D01*
X8198490Y-14926126D01*
X8160395Y-14926126D01*
X8141348Y-14935650D01*
X8131824Y-14945174D01*
X8122300Y-14964221D01*
X8122300Y-15011840D01*
X8131824Y-15030888D01*
X8141348Y-15040412D01*
X8160395Y-15049936D01*
X8198490Y-15049936D01*
X8217538Y-15040412D01*
X8227062Y-15030888D01*
X8236586Y-15011840D01*
X8312776Y-14926126D02*
X8312776Y-14964221D01*
X8388967Y-14926126D02*
X8388967Y-14964221D01*
X8684205Y-15202317D02*
X8674681Y-15192793D01*
X8655633Y-15164221D01*
X8646110Y-15145174D01*
X8636586Y-15116602D01*
X8627062Y-15068983D01*
X8627062Y-15030888D01*
X8636586Y-14983269D01*
X8646110Y-14954698D01*
X8655633Y-14935650D01*
X8674681Y-14907078D01*
X8684205Y-14897555D01*
X8750871Y-14945174D02*
X8760395Y-14935650D01*
X8779443Y-14926126D01*
X8827062Y-14926126D01*
X8846110Y-14935650D01*
X8855633Y-14945174D01*
X8865157Y-14964221D01*
X8865157Y-14983269D01*
X8855633Y-15011840D01*
X8741348Y-15126126D01*
X8865157Y-15126126D01*
X9103252Y-15126126D02*
X9103252Y-14926126D01*
X9188967Y-15126126D02*
X9188967Y-15021364D01*
X9179443Y-15002317D01*
X9160395Y-14992793D01*
X9131824Y-14992793D01*
X9112776Y-15002317D01*
X9103252Y-15011840D01*
X9312776Y-15126126D02*
X9293729Y-15116602D01*
X9284205Y-15107078D01*
X9274681Y-15088031D01*
X9274681Y-15030888D01*
X9284205Y-15011840D01*
X9293729Y-15002317D01*
X9312776Y-14992793D01*
X9341348Y-14992793D01*
X9360395Y-15002317D01*
X9369919Y-15011840D01*
X9379443Y-15030888D01*
X9379443Y-15088031D01*
X9369919Y-15107078D01*
X9360395Y-15116602D01*
X9341348Y-15126126D01*
X9312776Y-15126126D01*
X9493729Y-15126126D02*
X9474681Y-15116602D01*
X9465157Y-15097555D01*
X9465157Y-14926126D01*
X9646110Y-15116602D02*
X9627062Y-15126126D01*
X9588967Y-15126126D01*
X9569919Y-15116602D01*
X9560395Y-15097555D01*
X9560395Y-15021364D01*
X9569919Y-15002317D01*
X9588967Y-14992793D01*
X9627062Y-14992793D01*
X9646110Y-15002317D01*
X9655633Y-15021364D01*
X9655633Y-15040412D01*
X9560395Y-15059459D01*
X9731824Y-15116602D02*
X9750871Y-15126126D01*
X9788967Y-15126126D01*
X9808014Y-15116602D01*
X9817538Y-15097555D01*
X9817538Y-15088031D01*
X9808014Y-15068983D01*
X9788967Y-15059459D01*
X9760395Y-15059459D01*
X9741348Y-15049936D01*
X9731824Y-15030888D01*
X9731824Y-15021364D01*
X9741348Y-15002317D01*
X9760395Y-14992793D01*
X9788967Y-14992793D01*
X9808014Y-15002317D01*
X9884205Y-15202317D02*
X9893729Y-15192793D01*
X9912776Y-15164221D01*
X9922300Y-15145174D01*
X9931824Y-15116602D01*
X9941348Y-15068983D01*
X9941348Y-15030888D01*
X9931824Y-14983269D01*
X9922300Y-14954698D01*
X9912776Y-14935650D01*
X9893729Y-14907078D01*
X9884205Y-14897555D01*
X10246110Y-15202317D02*
X10236586Y-15192793D01*
X10217538Y-15164221D01*
X10208014Y-15145174D01*
X10198490Y-15116602D01*
X10188967Y-15068983D01*
X10188967Y-15030888D01*
X10198490Y-14983269D01*
X10208014Y-14954698D01*
X10217538Y-14935650D01*
X10236586Y-14907078D01*
X10246110Y-14897555D01*
X10322300Y-14992793D02*
X10322300Y-15126126D01*
X10322300Y-15011840D02*
X10331824Y-15002317D01*
X10350871Y-14992793D01*
X10379443Y-14992793D01*
X10398490Y-15002317D01*
X10408014Y-15021364D01*
X10408014Y-15126126D01*
X10531824Y-15126126D02*
X10512776Y-15116602D01*
X10503252Y-15107078D01*
X10493729Y-15088031D01*
X10493729Y-15030888D01*
X10503252Y-15011840D01*
X10512776Y-15002317D01*
X10531824Y-14992793D01*
X10560395Y-14992793D01*
X10579443Y-15002317D01*
X10588967Y-15011840D01*
X10598490Y-15030888D01*
X10598490Y-15088031D01*
X10588967Y-15107078D01*
X10579443Y-15116602D01*
X10560395Y-15126126D01*
X10531824Y-15126126D01*
X10655633Y-14992793D02*
X10731824Y-14992793D01*
X10684205Y-14926126D02*
X10684205Y-15097555D01*
X10693729Y-15116602D01*
X10712776Y-15126126D01*
X10731824Y-15126126D01*
X10950871Y-14992793D02*
X10950871Y-15192793D01*
X10950871Y-15002317D02*
X10969919Y-14992793D01*
X11008014Y-14992793D01*
X11027062Y-15002317D01*
X11036586Y-15011840D01*
X11046110Y-15030888D01*
X11046110Y-15088031D01*
X11036586Y-15107078D01*
X11027062Y-15116602D01*
X11008014Y-15126126D01*
X10969919Y-15126126D01*
X10950871Y-15116602D01*
X11160395Y-15126126D02*
X11141348Y-15116602D01*
X11131824Y-15097555D01*
X11131824Y-14926126D01*
X11322300Y-15126126D02*
X11322300Y-15021364D01*
X11312776Y-15002317D01*
X11293728Y-14992793D01*
X11255633Y-14992793D01*
X11236586Y-15002317D01*
X11322300Y-15116602D02*
X11303252Y-15126126D01*
X11255633Y-15126126D01*
X11236586Y-15116602D01*
X11227062Y-15097555D01*
X11227062Y-15078507D01*
X11236586Y-15059459D01*
X11255633Y-15049936D01*
X11303252Y-15049936D01*
X11322300Y-15040412D01*
X11388967Y-14992793D02*
X11465157Y-14992793D01*
X11417538Y-14926126D02*
X11417538Y-15097555D01*
X11427062Y-15116602D01*
X11446109Y-15126126D01*
X11465157Y-15126126D01*
X11608014Y-15116602D02*
X11588967Y-15126126D01*
X11550871Y-15126126D01*
X11531824Y-15116602D01*
X11522300Y-15097555D01*
X11522300Y-15021364D01*
X11531824Y-15002317D01*
X11550871Y-14992793D01*
X11588967Y-14992793D01*
X11608014Y-15002317D01*
X11617538Y-15021364D01*
X11617538Y-15040412D01*
X11522300Y-15059459D01*
X11788967Y-15126126D02*
X11788967Y-14926126D01*
X11788967Y-15116602D02*
X11769919Y-15126126D01*
X11731824Y-15126126D01*
X11712776Y-15116602D01*
X11703252Y-15107078D01*
X11693728Y-15088031D01*
X11693728Y-15030888D01*
X11703252Y-15011840D01*
X11712776Y-15002317D01*
X11731824Y-14992793D01*
X11769919Y-14992793D01*
X11788967Y-15002317D01*
X11865157Y-15202317D02*
X11874681Y-15192793D01*
X11893728Y-15164221D01*
X11903252Y-15145174D01*
X11912776Y-15116602D01*
X11922300Y-15068983D01*
X11922300Y-15030888D01*
X11912776Y-14983269D01*
X11903252Y-14954698D01*
X11893728Y-14935650D01*
X11874681Y-14907078D01*
X11865157Y-14897555D01*
M02*
