%TF.GenerationSoftware,KiCad,Pcbnew,(6.0.7)*%
%TF.CreationDate,2022-10-24T13:35:24+01:00*%
%TF.ProjectId,Interface,496e7465-7266-4616-9365-2e6b69636164,rev?*%
%TF.SameCoordinates,Original*%
%TF.FileFunction,Paste,Top*%
%TF.FilePolarity,Positive*%
%FSLAX46Y46*%
G04 Gerber Fmt 4.6, Leading zero omitted, Abs format (unit mm)*
G04 Created by KiCad (PCBNEW (6.0.7)) date 2022-10-24 13:35:24*
%MOMM*%
%LPD*%
G01*
G04 APERTURE LIST*
G04 Aperture macros list*
%AMRoundRect*
0 Rectangle with rounded corners*
0 $1 Rounding radius*
0 $2 $3 $4 $5 $6 $7 $8 $9 X,Y pos of 4 corners*
0 Add a 4 corners polygon primitive as box body*
4,1,4,$2,$3,$4,$5,$6,$7,$8,$9,$2,$3,0*
0 Add four circle primitives for the rounded corners*
1,1,$1+$1,$2,$3*
1,1,$1+$1,$4,$5*
1,1,$1+$1,$6,$7*
1,1,$1+$1,$8,$9*
0 Add four rect primitives between the rounded corners*
20,1,$1+$1,$2,$3,$4,$5,0*
20,1,$1+$1,$4,$5,$6,$7,0*
20,1,$1+$1,$6,$7,$8,$9,0*
20,1,$1+$1,$8,$9,$2,$3,0*%
G04 Aperture macros list end*
%ADD10RoundRect,0.237500X-0.237500X0.250000X-0.237500X-0.250000X0.237500X-0.250000X0.237500X0.250000X0*%
%ADD11RoundRect,0.237500X0.237500X-0.250000X0.237500X0.250000X-0.237500X0.250000X-0.237500X-0.250000X0*%
%ADD12RoundRect,0.150000X0.587500X0.150000X-0.587500X0.150000X-0.587500X-0.150000X0.587500X-0.150000X0*%
G04 APERTURE END LIST*
D10*
%TO.C,R21*%
X25000000Y-81587500D03*
X25000000Y-83412500D03*
%TD*%
%TO.C,R40*%
X78250000Y-46587500D03*
X78250000Y-48412500D03*
%TD*%
D11*
%TO.C,R12*%
X33000000Y-69162500D03*
X33000000Y-67337500D03*
%TD*%
%TO.C,R35*%
X86250000Y-34162500D03*
X86250000Y-32337500D03*
%TD*%
D12*
%TO.C,Q3*%
X30187500Y-37200000D03*
X30187500Y-35300000D03*
X28312500Y-36250000D03*
%TD*%
D10*
%TO.C,R37*%
X78250000Y-41837500D03*
X78250000Y-43662500D03*
%TD*%
D11*
%TO.C,R1*%
X33250000Y-16075000D03*
X33250000Y-14250000D03*
%TD*%
%TO.C,R36*%
X86250000Y-48412500D03*
X86250000Y-46587500D03*
%TD*%
D12*
%TO.C,Q7*%
X29937500Y-73950000D03*
X29937500Y-72050000D03*
X28062500Y-73000000D03*
%TD*%
D11*
%TO.C,R41*%
X86250000Y-24662500D03*
X86250000Y-22837500D03*
%TD*%
D12*
%TO.C,Q11*%
X29937500Y-92950000D03*
X29937500Y-91050000D03*
X28062500Y-92000000D03*
%TD*%
D11*
%TO.C,R33*%
X86250000Y-43662500D03*
X86250000Y-41837500D03*
%TD*%
D12*
%TO.C,Q26*%
X83187500Y-67450000D03*
X83187500Y-65550000D03*
X81312500Y-66500000D03*
%TD*%
D11*
%TO.C,R53*%
X86250000Y-53162500D03*
X86250000Y-51337500D03*
%TD*%
D12*
%TO.C,Q18*%
X83187500Y-38950000D03*
X83187500Y-37050000D03*
X81312500Y-38000000D03*
%TD*%
D11*
%TO.C,R6*%
X25000000Y-22075000D03*
X25000000Y-20250000D03*
%TD*%
D10*
%TO.C,R47*%
X78250000Y-22837500D03*
X78250000Y-24662500D03*
%TD*%
D12*
%TO.C,Q17*%
X83187500Y-43700000D03*
X83187500Y-41800000D03*
X81312500Y-42750000D03*
%TD*%
D10*
%TO.C,R31*%
X25000000Y-110087500D03*
X25000000Y-111912500D03*
%TD*%
D12*
%TO.C,Q15*%
X29937500Y-111950000D03*
X29937500Y-110050000D03*
X28062500Y-111000000D03*
%TD*%
%TO.C,Q23*%
X83187500Y-15200000D03*
X83187500Y-13300000D03*
X81312500Y-14250000D03*
%TD*%
D10*
%TO.C,R24*%
X25000000Y-86337500D03*
X25000000Y-88162500D03*
%TD*%
D11*
%TO.C,R18*%
X33062500Y-97712500D03*
X33062500Y-95887500D03*
%TD*%
D10*
%TO.C,R22*%
X25062500Y-95887500D03*
X25062500Y-97712500D03*
%TD*%
%TO.C,R23*%
X25000000Y-91087500D03*
X25000000Y-92912500D03*
%TD*%
%TO.C,R32*%
X25000000Y-105337500D03*
X25000000Y-107162500D03*
%TD*%
D11*
%TO.C,R25*%
X33000000Y-102412500D03*
X33000000Y-100587500D03*
%TD*%
D12*
%TO.C,Q2*%
X30187500Y-22112500D03*
X30187500Y-20212500D03*
X28312500Y-21162500D03*
%TD*%
%TO.C,Q8*%
X29937500Y-69200000D03*
X29937500Y-67300000D03*
X28062500Y-68250000D03*
%TD*%
D10*
%TO.C,R55*%
X78250000Y-51337500D03*
X78250000Y-53162500D03*
%TD*%
D12*
%TO.C,Q14*%
X29937500Y-116700000D03*
X29937500Y-114800000D03*
X28062500Y-115750000D03*
%TD*%
D11*
%TO.C,R42*%
X86250000Y-19912500D03*
X86250000Y-18087500D03*
%TD*%
D10*
%TO.C,R30*%
X25000000Y-114837500D03*
X25000000Y-116662500D03*
%TD*%
%TO.C,R38*%
X78250000Y-37087500D03*
X78250000Y-38912500D03*
%TD*%
D12*
%TO.C,Q4*%
X30187500Y-31200000D03*
X30187500Y-29300000D03*
X28312500Y-30250000D03*
%TD*%
D10*
%TO.C,R29*%
X25000000Y-100587500D03*
X25000000Y-102412500D03*
%TD*%
D12*
%TO.C,Q12*%
X29937500Y-88200000D03*
X29937500Y-86300000D03*
X28062500Y-87250000D03*
%TD*%
%TO.C,Q21*%
X83187500Y-24700000D03*
X83187500Y-22800000D03*
X81312500Y-23750000D03*
%TD*%
%TO.C,Q20*%
X83187500Y-48450000D03*
X83187500Y-46550000D03*
X81312500Y-47500000D03*
%TD*%
%TO.C,Q16*%
X29937500Y-107200000D03*
X29937500Y-105300000D03*
X28062500Y-106250000D03*
%TD*%
D11*
%TO.C,R11*%
X33000000Y-73912500D03*
X33000000Y-72087500D03*
%TD*%
%TO.C,R43*%
X86250000Y-15162500D03*
X86250000Y-13337500D03*
%TD*%
%TO.C,R44*%
X86250000Y-29412500D03*
X86250000Y-27587500D03*
%TD*%
D10*
%TO.C,R48*%
X78250000Y-18087500D03*
X78250000Y-19912500D03*
%TD*%
%TO.C,R5*%
X25000000Y-14250000D03*
X25000000Y-16075000D03*
%TD*%
%TO.C,R49*%
X78250000Y-13337500D03*
X78250000Y-15162500D03*
%TD*%
D12*
%TO.C,Q28*%
X83187500Y-62700000D03*
X83187500Y-60800000D03*
X81312500Y-61750000D03*
%TD*%
D10*
%TO.C,R52*%
X78250000Y-65587500D03*
X78250000Y-67412500D03*
%TD*%
%TO.C,R15*%
X25000000Y-72087500D03*
X25000000Y-73912500D03*
%TD*%
D11*
%TO.C,R4*%
X33250000Y-31162500D03*
X33250000Y-29337500D03*
%TD*%
%TO.C,R28*%
X33000000Y-107162500D03*
X33000000Y-105337500D03*
%TD*%
%TO.C,R9*%
X33000000Y-64412500D03*
X33000000Y-62587500D03*
%TD*%
%TO.C,R7*%
X25000000Y-37162500D03*
X25000000Y-35337500D03*
%TD*%
D10*
%TO.C,R14*%
X25000000Y-76837500D03*
X25000000Y-78662500D03*
%TD*%
D11*
%TO.C,R34*%
X86250000Y-38912500D03*
X86250000Y-37087500D03*
%TD*%
D12*
%TO.C,Q5*%
X29937500Y-64450000D03*
X29937500Y-62550000D03*
X28062500Y-63500000D03*
%TD*%
%TO.C,Q22*%
X83187500Y-19950000D03*
X83187500Y-18050000D03*
X81312500Y-19000000D03*
%TD*%
%TO.C,Q25*%
X83187500Y-57950000D03*
X83187500Y-56050000D03*
X81312500Y-57000000D03*
%TD*%
D11*
%TO.C,R20*%
X33000000Y-88162500D03*
X33000000Y-86337500D03*
%TD*%
%TO.C,R3*%
X33250000Y-37162500D03*
X33250000Y-35337500D03*
%TD*%
%TO.C,R26*%
X33000000Y-116662500D03*
X33000000Y-114837500D03*
%TD*%
D10*
%TO.C,R13*%
X25000000Y-62587500D03*
X25000000Y-64412500D03*
%TD*%
D12*
%TO.C,Q24*%
X83187500Y-29450000D03*
X83187500Y-27550000D03*
X81312500Y-28500000D03*
%TD*%
D10*
%TO.C,R50*%
X78250000Y-27587500D03*
X78250000Y-29412500D03*
%TD*%
%TO.C,R56*%
X78250000Y-60837500D03*
X78250000Y-62662500D03*
%TD*%
D12*
%TO.C,Q13*%
X29937500Y-102450000D03*
X29937500Y-100550000D03*
X28062500Y-101500000D03*
%TD*%
D11*
%TO.C,R46*%
X86250000Y-67412500D03*
X86250000Y-65587500D03*
%TD*%
%TO.C,R19*%
X33000000Y-92912500D03*
X33000000Y-91087500D03*
%TD*%
D12*
%TO.C,Q9*%
X29937500Y-83450000D03*
X29937500Y-81550000D03*
X28062500Y-82500000D03*
%TD*%
D11*
%TO.C,R54*%
X86250000Y-62662500D03*
X86250000Y-60837500D03*
%TD*%
D12*
%TO.C,Q10*%
X30000000Y-97750000D03*
X30000000Y-95850000D03*
X28125000Y-96800000D03*
%TD*%
D10*
%TO.C,R16*%
X25000000Y-67337500D03*
X25000000Y-69162500D03*
%TD*%
D12*
%TO.C,Q6*%
X29937500Y-78700000D03*
X29937500Y-76800000D03*
X28062500Y-77750000D03*
%TD*%
D10*
%TO.C,R51*%
X78250000Y-56087500D03*
X78250000Y-57912500D03*
%TD*%
D11*
%TO.C,R27*%
X33000000Y-111912500D03*
X33000000Y-110087500D03*
%TD*%
D12*
%TO.C,Q1*%
X30187500Y-16112500D03*
X30187500Y-14212500D03*
X28312500Y-15162500D03*
%TD*%
D11*
%TO.C,R45*%
X86250000Y-57912500D03*
X86250000Y-56087500D03*
%TD*%
D10*
%TO.C,R39*%
X78250000Y-32337500D03*
X78250000Y-34162500D03*
%TD*%
D12*
%TO.C,Q27*%
X83187500Y-53200000D03*
X83187500Y-51300000D03*
X81312500Y-52250000D03*
%TD*%
D10*
%TO.C,R8*%
X25000000Y-29337500D03*
X25000000Y-31162500D03*
%TD*%
D11*
%TO.C,R10*%
X33000000Y-78662500D03*
X33000000Y-76837500D03*
%TD*%
%TO.C,R2*%
X33250000Y-22075000D03*
X33250000Y-20250000D03*
%TD*%
D12*
%TO.C,Q19*%
X83187500Y-34200000D03*
X83187500Y-32300000D03*
X81312500Y-33250000D03*
%TD*%
D11*
%TO.C,R17*%
X33000000Y-83412500D03*
X33000000Y-81587500D03*
%TD*%
M02*
