%TF.GenerationSoftware,KiCad,Pcbnew,(6.0.7)*%
%TF.CreationDate,2022-10-24T13:35:24+01:00*%
%TF.ProjectId,Interface,496e7465-7266-4616-9365-2e6b69636164,rev?*%
%TF.SameCoordinates,Original*%
%TF.FileFunction,Soldermask,Bot*%
%TF.FilePolarity,Negative*%
%FSLAX46Y46*%
G04 Gerber Fmt 4.6, Leading zero omitted, Abs format (unit mm)*
G04 Created by KiCad (PCBNEW (6.0.7)) date 2022-10-24 13:35:24*
%MOMM*%
%LPD*%
G01*
G04 APERTURE LIST*
%ADD10R,1.800000X1.800000*%
%ADD11C,1.800000*%
%ADD12R,1.600000X1.600000*%
%ADD13C,1.600000*%
%ADD14R,2.100000X2.100000*%
%ADD15C,2.100000*%
%ADD16O,1.800000X1.800000*%
%ADD17O,1.500000X1.500000*%
%ADD18O,1.700000X1.700000*%
%ADD19R,1.700000X1.700000*%
G04 APERTURE END LIST*
D10*
%TO.C,J3*%
X17575000Y-46250000D03*
D11*
X17575000Y-48750000D03*
X17575000Y-51250000D03*
X17575000Y-53750000D03*
X17575000Y-56250000D03*
%TD*%
D10*
%TO.C,J8*%
X40150000Y-96300000D03*
D11*
X40150000Y-93800000D03*
X40150000Y-91300000D03*
X40150000Y-88800000D03*
X40150000Y-86300000D03*
%TD*%
D10*
%TO.C,J16*%
X70900000Y-43550000D03*
D11*
X70900000Y-41050000D03*
X70900000Y-38550000D03*
X70900000Y-36050000D03*
X70900000Y-33550000D03*
%TD*%
D10*
%TO.C,J4*%
X28650000Y-46250000D03*
D11*
X28650000Y-48750000D03*
X28650000Y-51250000D03*
X28650000Y-53750000D03*
X28650000Y-56250000D03*
%TD*%
D12*
%TO.C,A1*%
X116802500Y-111800000D03*
D13*
X116802500Y-109260000D03*
X116802500Y-106720000D03*
X116802500Y-104180000D03*
X116802500Y-101640000D03*
X116802500Y-99100000D03*
X116802500Y-96560000D03*
X116802500Y-94020000D03*
X116802500Y-91480000D03*
X116802500Y-88940000D03*
X116802500Y-86400000D03*
X116802500Y-83860000D03*
X116802500Y-81320000D03*
X116802500Y-78780000D03*
X116802500Y-76240000D03*
X116802500Y-73700000D03*
X96482500Y-73700000D03*
X96482500Y-76240000D03*
X96482500Y-78780000D03*
X96482500Y-81320000D03*
X96482500Y-83860000D03*
X96482500Y-86400000D03*
X96482500Y-88940000D03*
X96482500Y-91480000D03*
X96482500Y-94020000D03*
X96482500Y-96560000D03*
X96482500Y-99100000D03*
X96482500Y-101640000D03*
%TD*%
D10*
%TO.C,J7*%
X17575000Y-78550000D03*
D11*
X17575000Y-76050000D03*
X17575000Y-73550000D03*
X17575000Y-71050000D03*
X17575000Y-68550000D03*
%TD*%
D10*
%TO.C,J10*%
X40150000Y-114050000D03*
D11*
X40150000Y-111550000D03*
X40150000Y-109050000D03*
X40150000Y-106550000D03*
X40150000Y-104050000D03*
%TD*%
D14*
%TO.C,J1*%
X17750000Y-38100000D03*
D15*
X17750000Y-35600000D03*
X17750000Y-33100000D03*
X17750000Y-30600000D03*
%TD*%
D10*
%TO.C,J15*%
X70900000Y-25800000D03*
D11*
X70900000Y-23300000D03*
X70900000Y-20800000D03*
X70900000Y-18300000D03*
X70900000Y-15800000D03*
%TD*%
D10*
%TO.C,J11*%
X17575000Y-114050000D03*
D11*
X17575000Y-111550000D03*
X17575000Y-109050000D03*
X17575000Y-106550000D03*
X17575000Y-104050000D03*
%TD*%
D10*
%TO.C,J17*%
X93500000Y-25800000D03*
D11*
X93500000Y-23300000D03*
X93500000Y-20800000D03*
X93500000Y-18300000D03*
X93500000Y-15800000D03*
%TD*%
D10*
%TO.C,J14*%
X93500000Y-61300000D03*
D11*
X93500000Y-58800000D03*
X93500000Y-56300000D03*
X93500000Y-53800000D03*
X93500000Y-51300000D03*
%TD*%
D16*
%TO.C,U2*%
X64225000Y-116750000D03*
D17*
X59075000Y-113720000D03*
D16*
X58775000Y-116750000D03*
D17*
X63925000Y-113720000D03*
D18*
X70390000Y-116880000D03*
X70390000Y-114340000D03*
D19*
X70390000Y-111800000D03*
D18*
X70390000Y-109260000D03*
X70390000Y-106720000D03*
X70390000Y-104180000D03*
X70390000Y-101640000D03*
D19*
X70390000Y-99100000D03*
D18*
X70390000Y-96560000D03*
X70390000Y-94020000D03*
X70390000Y-91480000D03*
X70390000Y-88940000D03*
D19*
X70390000Y-86400000D03*
D18*
X70390000Y-83860000D03*
X70390000Y-81320000D03*
X70390000Y-78780000D03*
X70390000Y-76240000D03*
D19*
X70390000Y-73700000D03*
D18*
X70390000Y-71160000D03*
X70390000Y-68620000D03*
X52610000Y-68620000D03*
X52610000Y-71160000D03*
D19*
X52610000Y-73700000D03*
D18*
X52610000Y-76240000D03*
X52610000Y-78780000D03*
X52610000Y-81320000D03*
X52610000Y-83860000D03*
D19*
X52610000Y-86400000D03*
D18*
X52610000Y-88940000D03*
X52610000Y-91480000D03*
X52610000Y-94020000D03*
X52610000Y-96560000D03*
D19*
X52610000Y-99100000D03*
D18*
X52610000Y-101640000D03*
X52610000Y-104180000D03*
X52610000Y-106720000D03*
X52610000Y-109260000D03*
D19*
X52610000Y-111800000D03*
D18*
X52610000Y-114340000D03*
X52610000Y-116880000D03*
X64040000Y-68850000D03*
D19*
X61500000Y-68850000D03*
D18*
X58960000Y-68850000D03*
%TD*%
D14*
%TO.C,J5*%
X81025000Y-113825000D03*
D15*
X83525000Y-113825000D03*
%TD*%
D14*
%TO.C,J2*%
X17750000Y-23000000D03*
D15*
X17750000Y-20500000D03*
X17750000Y-18000000D03*
X17750000Y-15500000D03*
%TD*%
D10*
%TO.C,J6*%
X40150000Y-78550000D03*
D11*
X40150000Y-76050000D03*
X40150000Y-73550000D03*
X40150000Y-71050000D03*
X40150000Y-68550000D03*
%TD*%
D10*
%TO.C,J13*%
X70900000Y-61300000D03*
D11*
X70900000Y-58800000D03*
X70900000Y-56300000D03*
X70900000Y-53800000D03*
X70900000Y-51300000D03*
%TD*%
D10*
%TO.C,J9*%
X17575000Y-96300000D03*
D11*
X17575000Y-93800000D03*
X17575000Y-91300000D03*
X17575000Y-88800000D03*
X17575000Y-86300000D03*
%TD*%
D17*
%TO.C,U1*%
X51675000Y-17280000D03*
X46825000Y-17280000D03*
D16*
X51975000Y-14250000D03*
X46525000Y-14250000D03*
D18*
X40360000Y-14120000D03*
X40360000Y-16660000D03*
D19*
X40360000Y-19200000D03*
D18*
X40360000Y-21740000D03*
X40360000Y-24280000D03*
X40360000Y-26820000D03*
X40360000Y-29360000D03*
D19*
X40360000Y-31900000D03*
D18*
X40360000Y-34440000D03*
X40360000Y-36980000D03*
X40360000Y-39520000D03*
X40360000Y-42060000D03*
D19*
X40360000Y-44600000D03*
D18*
X40360000Y-47140000D03*
X40360000Y-49680000D03*
X40360000Y-52220000D03*
X40360000Y-54760000D03*
D19*
X40360000Y-57300000D03*
D18*
X40360000Y-59840000D03*
X40360000Y-62380000D03*
X58140000Y-62380000D03*
X58140000Y-59840000D03*
D19*
X58140000Y-57300000D03*
D18*
X58140000Y-54760000D03*
X58140000Y-52220000D03*
X58140000Y-49680000D03*
X58140000Y-47140000D03*
D19*
X58140000Y-44600000D03*
D18*
X58140000Y-42060000D03*
X58140000Y-39520000D03*
X58140000Y-36980000D03*
X58140000Y-34440000D03*
D19*
X58140000Y-31900000D03*
D18*
X58140000Y-29360000D03*
X58140000Y-26820000D03*
X58140000Y-24280000D03*
X58140000Y-21740000D03*
D19*
X58140000Y-19200000D03*
D18*
X58140000Y-16660000D03*
X58140000Y-14120000D03*
X46710000Y-62150000D03*
D19*
X49250000Y-62150000D03*
D18*
X51790000Y-62150000D03*
%TD*%
D10*
%TO.C,J12*%
X82250000Y-99500000D03*
D11*
X82250000Y-97000000D03*
X82250000Y-94500000D03*
X82250000Y-92000000D03*
X82250000Y-89500000D03*
%TD*%
D10*
%TO.C,J18*%
X93500000Y-43550000D03*
D11*
X93500000Y-41050000D03*
X93500000Y-38550000D03*
X93500000Y-36050000D03*
X93500000Y-33550000D03*
%TD*%
M02*
