  0
SECTION
  2
HEADER
  9
$ANGBASE
  50
0.0
  9
$ANGDIR
  70
1
  9
$MEASUREMENT
  70
1
  0
ENDSEC
  0
SECTION
  2
TABLES
  0
TABLE
  2
LTYPE
  70
4
  0
LTYPE
  5
40F
  2
CONTINUOUS
  70
0
  3
Solid line
  72
65
  73
0
  40
0.0
  0
LTYPE
  5
410
  2
DASHDOT
 70
0
  3
Dash Dot ____ _ ____ _
 72
65
 73
4
 40
2.0
 49
1.25
 49
-0.25
 49
0.25
 49
-0.25
  0
LTYPE
  5
411
  2
DASHED
 70
0
  3
Dashed __ __ __ __ __
 72
65
 73
2
 40
0.75
 49
0.5
 49
-0.25
  0
LTYPE
  5
43B
  2
DOTTED
 70
0
  3
Dotted .  .  .  .
 72
65
 73
2
 40
0.2
 49
0.0
 49
-0.2
  0
ENDTAB
  0
TABLE
  2
STYLE
  70
4
  0
STYLE
  2
KICAD
  70
0
  40
0
  41
1
  42
1
  50
0
  71
0
  3
isocp.shx
  0
STYLE
  2
KICADB
  70
0
  40
0
  41
1
  42
1
  50
0
  71
0
  3
isocp.shx
  0
STYLE
  2
KICADI
  70
0
  40
0
  41
1
  42
1
  50
15
  71
0
  3
isocp.shx
  0
STYLE
  2
KICADBI
  70
0
  40
0
  41
1
  42
1
  50
15
  71
0
  3
isocp.shx
  0
ENDTAB
  0
TABLE
  2
LAYER
  70
1
  0
LAYER
  2
BLACK
  70
0
  62
7
  6
CONTINUOUS
  0
ENDTAB
  0
ENDSEC
  0
SECTION
  2
ENTITIES
0
ARC
8
BLACK
10
74.0037
20
-14.9963
40
3
50
1.90986e-05
51
90
0
ARC
8
BLACK
10
74.0037
20
-33.0037
40
3
50
-90
51
-1.90986e-05
0
ARC
8
BLACK
10
14.9963
20
-33.0037
40
3
50
-180
51
-90
0
ARC
8
BLACK
10
15
20
-15
40
3
50
90
51
180
0
LINE
8
BLACK
6
CONTINUOUS
10
74.0037
20
-11.9963
11
15
21
-12
0
LINE
8
BLACK
6
CONTINUOUS
10
77.0037
20
-33.0037
11
77.0037
21
-14.9963
0
LINE
8
BLACK
6
CONTINUOUS
10
14.9963
20
-36.0037
11
74.0037
21
-36.0037
0
LINE
8
BLACK
6
CONTINUOUS
10
12
20
-15
11
11.9963
21
-33.0037
0
LINE
8
BLACK
6
CONTINUOUS
10
65.625
20
-16.375
11
66.375
21
-17.125
0
LINE
8
BLACK
6
CONTINUOUS
10
66.375
20
-16.375
11
65.625
21
-17.125
0
LINE
8
BLACK
6
CONTINUOUS
10
66.895
20
-16.375
11
67.645
21
-17.125
0
LINE
8
BLACK
6
CONTINUOUS
10
67.645
20
-16.375
11
66.895
21
-17.125
0
LINE
8
BLACK
6
CONTINUOUS
10
68.165
20
-16.375
11
68.915
21
-17.125
0
LINE
8
BLACK
6
CONTINUOUS
10
68.915
20
-16.375
11
68.165
21
-17.125
0
CIRCLE
8
BLACK
10
14.09
20
-31
40
0.4
0
CIRCLE
8
BLACK
10
24.25
20
-31
40
0.4
0
CIRCLE
8
BLACK
10
52.75
20
-21.59
40
0.4
0
CIRCLE
8
BLACK
10
52.75
20
-31.75
40
0.4
0
CIRCLE
8
BLACK
10
59.5
20
-21.75
40
0.4
0
CIRCLE
8
BLACK
10
59.5
20
-23.75
40
0.4
0
CIRCLE
8
BLACK
10
59.5
20
-28.5
40
0.4
0
CIRCLE
8
BLACK
10
59.5
20
-30.5
40
0.4
0
LINE
8
BLACK
6
CONTINUOUS
10
46.5
20
-14.5
11
46.5
21
-15.5
0
LINE
8
BLACK
6
CONTINUOUS
10
46
20
-15
11
47
21
-15
0
LINE
8
BLACK
6
CONTINUOUS
10
46.5
20
-29.5
11
46.5
21
-30.5
0
LINE
8
BLACK
6
CONTINUOUS
10
46
20
-30
11
47
21
-30
0
LINE
8
BLACK
6
CONTINUOUS
10
55.4561
20
-17.7061
11
55.4561
21
-16.7939
0
LINE
8
BLACK
6
CONTINUOUS
10
55.4561
20
-16.7939
11
54.5439
21
-16.7939
0
LINE
8
BLACK
6
CONTINUOUS
10
54.5439
20
-16.7939
11
54.5439
21
-17.7061
0
LINE
8
BLACK
6
CONTINUOUS
10
54.5439
20
-17.7061
11
55.4561
21
-17.7061
0
LINE
8
BLACK
6
CONTINUOUS
10
57.9961
20
-17.7061
11
57.9961
21
-16.7939
0
LINE
8
BLACK
6
CONTINUOUS
10
57.9961
20
-16.7939
11
57.0839
21
-16.7939
0
LINE
8
BLACK
6
CONTINUOUS
10
57.0839
20
-16.7939
11
57.0839
21
-17.7061
0
LINE
8
BLACK
6
CONTINUOUS
10
57.0839
20
-17.7061
11
57.9961
21
-17.7061
0
LINE
8
BLACK
6
CONTINUOUS
10
60.5361
20
-17.7061
11
60.5361
21
-16.7939
0
LINE
8
BLACK
6
CONTINUOUS
10
60.5361
20
-16.7939
11
59.6239
21
-16.7939
0
LINE
8
BLACK
6
CONTINUOUS
10
59.6239
20
-16.7939
11
59.6239
21
-17.7061
0
LINE
8
BLACK
6
CONTINUOUS
10
59.6239
20
-17.7061
11
60.5361
21
-17.7061
0
LINE
8
BLACK
6
CONTINUOUS
10
29.5
20
-16.4
11
30.15
21
-15.75
0
LINE
8
BLACK
6
CONTINUOUS
10
30.15
20
-15.75
11
29.5
21
-15.1
0
LINE
8
BLACK
6
CONTINUOUS
10
29.5
20
-15.1
11
28.85
21
-15.75
0
LINE
8
BLACK
6
CONTINUOUS
10
28.85
20
-15.75
11
29.5
21
-16.4
0
LINE
8
BLACK
6
CONTINUOUS
10
34.5
20
-31.4
11
35.15
21
-30.75
0
LINE
8
BLACK
6
CONTINUOUS
10
35.15
20
-30.75
11
34.5
21
-30.1
0
LINE
8
BLACK
6
CONTINUOUS
10
34.5
20
-30.1
11
33.85
21
-30.75
0
LINE
8
BLACK
6
CONTINUOUS
10
33.85
20
-30.75
11
34.5
21
-31.4
0
LINE
8
BLACK
6
CONTINUOUS
10
39.5
20
-16.4
11
40.15
21
-15.75
0
LINE
8
BLACK
6
CONTINUOUS
10
40.15
20
-15.75
11
39.5
21
-15.1
0
LINE
8
BLACK
6
CONTINUOUS
10
39.5
20
-15.1
11
38.85
21
-15.75
0
LINE
8
BLACK
6
CONTINUOUS
10
38.85
20
-15.75
11
39.5
21
-16.4
0
LINE
8
BLACK
6
CONTINUOUS
10
65.8
20
-22.05
11
67.2
21
-23.45
0
LINE
8
BLACK
6
CONTINUOUS
10
67.2
20
-22.05
11
65.8
21
-23.45
0
CIRCLE
8
BLACK
10
66.5
20
-22.75
40
0.7
0
LINE
8
BLACK
6
CONTINUOUS
10
65.8
20
-24.55
11
67.2
21
-25.95
0
LINE
8
BLACK
6
CONTINUOUS
10
67.2
20
-24.55
11
65.8
21
-25.95
0
CIRCLE
8
BLACK
10
66.5
20
-25.25
40
0.7
0
LINE
8
BLACK
6
CONTINUOUS
10
65.8
20
-27.05
11
67.2
21
-28.45
0
LINE
8
BLACK
6
CONTINUOUS
10
67.2
20
-27.05
11
65.8
21
-28.45
0
CIRCLE
8
BLACK
10
66.5
20
-27.75
40
0.7
0
LINE
8
BLACK
6
CONTINUOUS
10
65.8
20
-29.55
11
67.2
21
-30.95
0
LINE
8
BLACK
6
CONTINUOUS
10
67.2
20
-29.55
11
65.8
21
-30.95
0
CIRCLE
8
BLACK
10
66.5
20
-30.25
40
0.7
0
LINE
8
BLACK
6
CONTINUOUS
10
16.321
20
-19.401
11
18.099
21
-21.179
0
LINE
8
BLACK
6
CONTINUOUS
10
18.099
20
-19.401
11
16.321
21
-21.179
0
LINE
8
BLACK
6
CONTINUOUS
10
17.21
20
-19.401
11
17.21
21
-21.179
0
LINE
8
BLACK
6
CONTINUOUS
10
16.321
20
-20.29
11
18.099
21
-20.29
0
LINE
8
BLACK
6
CONTINUOUS
10
18.861
20
-16.861
11
20.639
21
-18.639
0
LINE
8
BLACK
6
CONTINUOUS
10
20.639
20
-16.861
11
18.861
21
-18.639
0
LINE
8
BLACK
6
CONTINUOUS
10
19.75
20
-16.861
11
19.75
21
-18.639
0
LINE
8
BLACK
6
CONTINUOUS
10
18.861
20
-17.75
11
20.639
21
-17.75
0
LINE
8
BLACK
6
CONTINUOUS
10
18.861
20
-21.941
11
20.639
21
-23.719
0
LINE
8
BLACK
6
CONTINUOUS
10
20.639
20
-21.941
11
18.861
21
-23.719
0
LINE
8
BLACK
6
CONTINUOUS
10
19.75
20
-21.941
11
19.75
21
-23.719
0
LINE
8
BLACK
6
CONTINUOUS
10
18.861
20
-22.83
11
20.639
21
-22.83
0
LINE
8
BLACK
6
CONTINUOUS
10
21.401
20
-19.401
11
23.179
21
-21.179
0
LINE
8
BLACK
6
CONTINUOUS
10
23.179
20
-19.401
11
21.401
21
-21.179
0
LINE
8
BLACK
6
CONTINUOUS
10
22.29
20
-19.401
11
22.29
21
-21.179
0
LINE
8
BLACK
6
CONTINUOUS
10
21.401
20
-20.29
11
23.179
21
-20.29
0
LINE
8
BLACK
6
CONTINUOUS
10
14.5475
20
-39.1334
11
14.5475
21
-37.1334
0
LINE
8
BLACK
6
CONTINUOUS
10
14.5475
20
-37.1334
11
15.0237
21
-37.1334
0
LINE
8
BLACK
6
CONTINUOUS
10
15.0237
20
-37.1334
11
15.3094
21
-37.2287
0
LINE
8
BLACK
6
CONTINUOUS
10
15.3094
20
-37.2287
11
15.4999
21
-37.4192
0
LINE
8
BLACK
6
CONTINUOUS
10
15.4999
20
-37.4192
11
15.5951
21
-37.6096
0
LINE
8
BLACK
6
CONTINUOUS
10
15.5951
20
-37.6096
11
15.6904
21
-37.9906
0
LINE
8
BLACK
6
CONTINUOUS
10
15.6904
20
-37.9906
11
15.6904
21
-38.2763
0
LINE
8
BLACK
6
CONTINUOUS
10
15.6904
20
-38.2763
11
15.5951
21
-38.6573
0
LINE
8
BLACK
6
CONTINUOUS
10
15.5951
20
-38.6573
11
15.4999
21
-38.8477
0
LINE
8
BLACK
6
CONTINUOUS
10
15.4999
20
-38.8477
11
15.3094
21
-39.0382
0
LINE
8
BLACK
6
CONTINUOUS
10
15.3094
20
-39.0382
11
15.0237
21
-39.1334
0
LINE
8
BLACK
6
CONTINUOUS
10
15.0237
20
-39.1334
11
14.5475
21
-39.1334
0
LINE
8
BLACK
6
CONTINUOUS
10
16.5475
20
-39.1334
11
16.5475
21
-37.8001
0
LINE
8
BLACK
6
CONTINUOUS
10
16.5475
20
-38.1811
11
16.6427
21
-37.9906
0
LINE
8
BLACK
6
CONTINUOUS
10
16.6427
20
-37.9906
11
16.738
21
-37.8953
0
LINE
8
BLACK
6
CONTINUOUS
10
16.738
20
-37.8953
11
16.9285
21
-37.8001
0
LINE
8
BLACK
6
CONTINUOUS
10
16.9285
20
-37.8001
11
17.1189
21
-37.8001
0
LINE
8
BLACK
6
CONTINUOUS
10
17.7856
20
-39.1334
11
17.7856
21
-37.8001
0
LINE
8
BLACK
6
CONTINUOUS
10
17.7856
20
-37.1334
11
17.6904
21
-37.2287
0
LINE
8
BLACK
6
CONTINUOUS
10
17.6904
20
-37.2287
11
17.7856
21
-37.3239
0
LINE
8
BLACK
6
CONTINUOUS
10
17.7856
20
-37.3239
11
17.8808
21
-37.2287
0
LINE
8
BLACK
6
CONTINUOUS
10
17.8808
20
-37.2287
11
17.7856
21
-37.1334
0
LINE
8
BLACK
6
CONTINUOUS
10
17.7856
20
-37.1334
11
17.7856
21
-37.3239
0
LINE
8
BLACK
6
CONTINUOUS
10
19.0237
20
-39.1334
11
18.8332
21
-39.0382
0
LINE
8
BLACK
6
CONTINUOUS
10
18.8332
20
-39.0382
11
18.738
21
-38.8477
0
LINE
8
BLACK
6
CONTINUOUS
10
18.738
20
-38.8477
11
18.738
21
-37.1334
0
LINE
8
BLACK
6
CONTINUOUS
10
20.0713
20
-39.1334
11
19.8808
21
-39.0382
0
LINE
8
BLACK
6
CONTINUOUS
10
19.8808
20
-39.0382
11
19.7856
21
-38.8477
0
LINE
8
BLACK
6
CONTINUOUS
10
19.7856
20
-38.8477
11
19.7856
21
-37.1334
0
LINE
8
BLACK
6
CONTINUOUS
10
22.357
20
-39.1334
11
22.357
21
-37.1334
0
LINE
8
BLACK
6
CONTINUOUS
10
22.357
20
-37.1334
11
23.0237
21
-38.562
0
LINE
8
BLACK
6
CONTINUOUS
10
23.0237
20
-38.562
11
23.6904
21
-37.1334
0
LINE
8
BLACK
6
CONTINUOUS
10
23.6904
20
-37.1334
11
23.6904
21
-39.1334
0
LINE
8
BLACK
6
CONTINUOUS
10
25.4999
20
-39.1334
11
25.4999
21
-38.0858
0
LINE
8
BLACK
6
CONTINUOUS
10
25.4999
20
-38.0858
11
25.4047
21
-37.8953
0
LINE
8
BLACK
6
CONTINUOUS
10
25.4047
20
-37.8953
11
25.2142
21
-37.8001
0
LINE
8
BLACK
6
CONTINUOUS
10
25.2142
20
-37.8001
11
24.8332
21
-37.8001
0
LINE
8
BLACK
6
CONTINUOUS
10
24.8332
20
-37.8001
11
24.6427
21
-37.8953
0
LINE
8
BLACK
6
CONTINUOUS
10
25.4999
20
-39.0382
11
25.3094
21
-39.1334
0
LINE
8
BLACK
6
CONTINUOUS
10
25.3094
20
-39.1334
11
24.8332
21
-39.1334
0
LINE
8
BLACK
6
CONTINUOUS
10
24.8332
20
-39.1334
11
24.6427
21
-39.0382
0
LINE
8
BLACK
6
CONTINUOUS
10
24.6427
20
-39.0382
11
24.5475
21
-38.8477
0
LINE
8
BLACK
6
CONTINUOUS
10
24.5475
20
-38.8477
11
24.5475
21
-38.6573
0
LINE
8
BLACK
6
CONTINUOUS
10
24.5475
20
-38.6573
11
24.6427
21
-38.4668
0
LINE
8
BLACK
6
CONTINUOUS
10
24.6427
20
-38.4668
11
24.8332
21
-38.3715
0
LINE
8
BLACK
6
CONTINUOUS
10
24.8332
20
-38.3715
11
25.3094
21
-38.3715
0
LINE
8
BLACK
6
CONTINUOUS
10
25.3094
20
-38.3715
11
25.4999
21
-38.2763
0
LINE
8
BLACK
6
CONTINUOUS
10
26.4523
20
-37.8001
11
26.4523
21
-39.8001
0
LINE
8
BLACK
6
CONTINUOUS
10
26.4523
20
-37.8953
11
26.6427
21
-37.8001
0
LINE
8
BLACK
6
CONTINUOUS
10
26.6427
20
-37.8001
11
27.0237
21
-37.8001
0
LINE
8
BLACK
6
CONTINUOUS
10
27.0237
20
-37.8001
11
27.2142
21
-37.8953
0
LINE
8
BLACK
6
CONTINUOUS
10
27.2142
20
-37.8953
11
27.3094
21
-37.9906
0
LINE
8
BLACK
6
CONTINUOUS
10
27.3094
20
-37.9906
11
27.4047
21
-38.1811
0
LINE
8
BLACK
6
CONTINUOUS
10
27.4047
20
-38.1811
11
27.4047
21
-38.7525
0
LINE
8
BLACK
6
CONTINUOUS
10
27.4047
20
-38.7525
11
27.3094
21
-38.943
0
LINE
8
BLACK
6
CONTINUOUS
10
27.3094
20
-38.943
11
27.2142
21
-39.0382
0
LINE
8
BLACK
6
CONTINUOUS
10
27.2142
20
-39.0382
11
27.0237
21
-39.1334
0
LINE
8
BLACK
6
CONTINUOUS
10
27.0237
20
-39.1334
11
26.6427
21
-39.1334
0
LINE
8
BLACK
6
CONTINUOUS
10
26.6427
20
-39.1334
11
26.4523
21
-39.0382
0
LINE
8
BLACK
6
CONTINUOUS
10
28.2618
20
-38.943
11
28.357
21
-39.0382
0
LINE
8
BLACK
6
CONTINUOUS
10
28.357
20
-39.0382
11
28.2618
21
-39.1334
0
LINE
8
BLACK
6
CONTINUOUS
10
28.2618
20
-39.1334
11
28.1666
21
-39.0382
0
LINE
8
BLACK
6
CONTINUOUS
10
28.1666
20
-39.0382
11
28.2618
21
-38.943
0
LINE
8
BLACK
6
CONTINUOUS
10
28.2618
20
-38.943
11
28.2618
21
-39.1334
0
LINE
8
BLACK
6
CONTINUOUS
10
28.2618
20
-37.8953
11
28.357
21
-37.9906
0
LINE
8
BLACK
6
CONTINUOUS
10
28.357
20
-37.9906
11
28.2618
21
-38.0858
0
LINE
8
BLACK
6
CONTINUOUS
10
28.2618
20
-38.0858
11
28.1666
21
-37.9906
0
LINE
8
BLACK
6
CONTINUOUS
10
28.1666
20
-37.9906
11
28.2618
21
-37.8953
0
LINE
8
BLACK
6
CONTINUOUS
10
28.2618
20
-37.8953
11
28.2618
21
-38.0858
0
LINE
8
BLACK
6
CONTINUOUS
10
11.2213
20
-42.0537
11
11.9713
21
-42.8037
0
LINE
8
BLACK
6
CONTINUOUS
10
11.9713
20
-42.0537
11
11.2213
21
-42.8037
0
LINE
8
BLACK
6
CONTINUOUS
10
14.9285
20
-41.3334
11
15.1189
21
-41.3334
0
LINE
8
BLACK
6
CONTINUOUS
10
15.1189
20
-41.3334
11
15.3094
21
-41.4287
0
LINE
8
BLACK
6
CONTINUOUS
10
15.3094
20
-41.4287
11
15.4047
21
-41.5239
0
LINE
8
BLACK
6
CONTINUOUS
10
15.4047
20
-41.5239
11
15.4999
21
-41.7144
0
LINE
8
BLACK
6
CONTINUOUS
10
15.4999
20
-41.7144
11
15.5951
21
-42.0953
0
LINE
8
BLACK
6
CONTINUOUS
10
15.5951
20
-42.0953
11
15.5951
21
-42.5715
0
LINE
8
BLACK
6
CONTINUOUS
10
15.5951
20
-42.5715
11
15.4999
21
-42.9525
0
LINE
8
BLACK
6
CONTINUOUS
10
15.4999
20
-42.9525
11
15.4047
21
-43.143
0
LINE
8
BLACK
6
CONTINUOUS
10
15.4047
20
-43.143
11
15.3094
21
-43.2382
0
LINE
8
BLACK
6
CONTINUOUS
10
15.3094
20
-43.2382
11
15.1189
21
-43.3334
0
LINE
8
BLACK
6
CONTINUOUS
10
15.1189
20
-43.3334
11
14.9285
21
-43.3334
0
LINE
8
BLACK
6
CONTINUOUS
10
14.9285
20
-43.3334
11
14.738
21
-43.2382
0
LINE
8
BLACK
6
CONTINUOUS
10
14.738
20
-43.2382
11
14.6427
21
-43.143
0
LINE
8
BLACK
6
CONTINUOUS
10
14.6427
20
-43.143
11
14.5475
21
-42.9525
0
LINE
8
BLACK
6
CONTINUOUS
10
14.5475
20
-42.9525
11
14.4523
21
-42.5715
0
LINE
8
BLACK
6
CONTINUOUS
10
14.4523
20
-42.5715
11
14.4523
21
-42.0953
0
LINE
8
BLACK
6
CONTINUOUS
10
14.4523
20
-42.0953
11
14.5475
21
-41.7144
0
LINE
8
BLACK
6
CONTINUOUS
10
14.5475
20
-41.7144
11
14.6427
21
-41.5239
0
LINE
8
BLACK
6
CONTINUOUS
10
14.6427
20
-41.5239
11
14.738
21
-41.4287
0
LINE
8
BLACK
6
CONTINUOUS
10
14.738
20
-41.4287
11
14.9285
21
-41.3334
0
LINE
8
BLACK
6
CONTINUOUS
10
16.4523
20
-43.143
11
16.5475
21
-43.2382
0
LINE
8
BLACK
6
CONTINUOUS
10
16.5475
20
-43.2382
11
16.4523
21
-43.3334
0
LINE
8
BLACK
6
CONTINUOUS
10
16.4523
20
-43.3334
11
16.357
21
-43.2382
0
LINE
8
BLACK
6
CONTINUOUS
10
16.357
20
-43.2382
11
16.4523
21
-43.143
0
LINE
8
BLACK
6
CONTINUOUS
10
16.4523
20
-43.143
11
16.4523
21
-43.3334
0
LINE
8
BLACK
6
CONTINUOUS
10
17.2142
20
-41.3334
11
18.5475
21
-41.3334
0
LINE
8
BLACK
6
CONTINUOUS
10
18.5475
20
-41.3334
11
17.6904
21
-43.3334
0
LINE
8
BLACK
6
CONTINUOUS
10
20.2618
20
-41.3334
11
19.3094
21
-41.3334
0
LINE
8
BLACK
6
CONTINUOUS
10
19.3094
20
-41.3334
11
19.2142
21
-42.2858
0
LINE
8
BLACK
6
CONTINUOUS
10
19.2142
20
-42.2858
11
19.3094
21
-42.1906
0
LINE
8
BLACK
6
CONTINUOUS
10
19.3094
20
-42.1906
11
19.4999
21
-42.0953
0
LINE
8
BLACK
6
CONTINUOUS
10
19.4999
20
-42.0953
11
19.9761
21
-42.0953
0
LINE
8
BLACK
6
CONTINUOUS
10
19.9761
20
-42.0953
11
20.1666
21
-42.1906
0
LINE
8
BLACK
6
CONTINUOUS
10
20.1666
20
-42.1906
11
20.2618
21
-42.2858
0
LINE
8
BLACK
6
CONTINUOUS
10
20.2618
20
-42.2858
11
20.357
21
-42.4763
0
LINE
8
BLACK
6
CONTINUOUS
10
20.357
20
-42.4763
11
20.357
21
-42.9525
0
LINE
8
BLACK
6
CONTINUOUS
10
20.357
20
-42.9525
11
20.2618
21
-43.143
0
LINE
8
BLACK
6
CONTINUOUS
10
20.2618
20
-43.143
11
20.1666
21
-43.2382
0
LINE
8
BLACK
6
CONTINUOUS
10
20.1666
20
-43.2382
11
19.9761
21
-43.3334
0
LINE
8
BLACK
6
CONTINUOUS
10
19.9761
20
-43.3334
11
19.4999
21
-43.3334
0
LINE
8
BLACK
6
CONTINUOUS
10
19.4999
20
-43.3334
11
19.3094
21
-43.2382
0
LINE
8
BLACK
6
CONTINUOUS
10
19.3094
20
-43.2382
11
19.2142
21
-43.143
0
LINE
8
BLACK
6
CONTINUOUS
10
21.5951
20
-41.3334
11
21.7856
21
-41.3334
0
LINE
8
BLACK
6
CONTINUOUS
10
21.7856
20
-41.3334
11
21.9761
21
-41.4287
0
LINE
8
BLACK
6
CONTINUOUS
10
21.9761
20
-41.4287
11
22.0713
21
-41.5239
0
LINE
8
BLACK
6
CONTINUOUS
10
22.0713
20
-41.5239
11
22.1666
21
-41.7144
0
LINE
8
BLACK
6
CONTINUOUS
10
22.1666
20
-41.7144
11
22.2618
21
-42.0953
0
LINE
8
BLACK
6
CONTINUOUS
10
22.2618
20
-42.0953
11
22.2618
21
-42.5715
0
LINE
8
BLACK
6
CONTINUOUS
10
22.2618
20
-42.5715
11
22.1666
21
-42.9525
0
LINE
8
BLACK
6
CONTINUOUS
10
22.1666
20
-42.9525
11
22.0713
21
-43.143
0
LINE
8
BLACK
6
CONTINUOUS
10
22.0713
20
-43.143
11
21.9761
21
-43.2382
0
LINE
8
BLACK
6
CONTINUOUS
10
21.9761
20
-43.2382
11
21.7856
21
-43.3334
0
LINE
8
BLACK
6
CONTINUOUS
10
21.7856
20
-43.3334
11
21.5951
21
-43.3334
0
LINE
8
BLACK
6
CONTINUOUS
10
21.5951
20
-43.3334
11
21.4047
21
-43.2382
0
LINE
8
BLACK
6
CONTINUOUS
10
21.4047
20
-43.2382
11
21.3094
21
-43.143
0
LINE
8
BLACK
6
CONTINUOUS
10
21.3094
20
-43.143
11
21.2142
21
-42.9525
0
LINE
8
BLACK
6
CONTINUOUS
10
21.2142
20
-42.9525
11
21.1189
21
-42.5715
0
LINE
8
BLACK
6
CONTINUOUS
10
21.1189
20
-42.5715
11
21.1189
21
-42.0953
0
LINE
8
BLACK
6
CONTINUOUS
10
21.1189
20
-42.0953
11
21.2142
21
-41.7144
0
LINE
8
BLACK
6
CONTINUOUS
10
21.2142
20
-41.7144
11
21.3094
21
-41.5239
0
LINE
8
BLACK
6
CONTINUOUS
10
21.3094
20
-41.5239
11
21.4047
21
-41.4287
0
LINE
8
BLACK
6
CONTINUOUS
10
21.4047
20
-41.4287
11
21.5951
21
-41.3334
0
LINE
8
BLACK
6
CONTINUOUS
10
23.1189
20
-43.3334
11
23.1189
21
-42.0001
0
LINE
8
BLACK
6
CONTINUOUS
10
23.1189
20
-42.1906
11
23.2142
21
-42.0953
0
LINE
8
BLACK
6
CONTINUOUS
10
23.2142
20
-42.0953
11
23.4047
21
-42.0001
0
LINE
8
BLACK
6
CONTINUOUS
10
23.4047
20
-42.0001
11
23.6904
21
-42.0001
0
LINE
8
BLACK
6
CONTINUOUS
10
23.6904
20
-42.0001
11
23.8808
21
-42.0953
0
LINE
8
BLACK
6
CONTINUOUS
10
23.8808
20
-42.0953
11
23.9761
21
-42.2858
0
LINE
8
BLACK
6
CONTINUOUS
10
23.9761
20
-42.2858
11
23.9761
21
-43.3334
0
LINE
8
BLACK
6
CONTINUOUS
10
23.9761
20
-42.2858
11
24.0713
21
-42.0953
0
LINE
8
BLACK
6
CONTINUOUS
10
24.0713
20
-42.0953
11
24.2618
21
-42.0001
0
LINE
8
BLACK
6
CONTINUOUS
10
24.2618
20
-42.0001
11
24.5475
21
-42.0001
0
LINE
8
BLACK
6
CONTINUOUS
10
24.5475
20
-42.0001
11
24.738
21
-42.0953
0
LINE
8
BLACK
6
CONTINUOUS
10
24.738
20
-42.0953
11
24.8332
21
-42.2858
0
LINE
8
BLACK
6
CONTINUOUS
10
24.8332
20
-42.2858
11
24.8332
21
-43.3334
0
LINE
8
BLACK
6
CONTINUOUS
10
25.7856
20
-43.3334
11
25.7856
21
-42.0001
0
LINE
8
BLACK
6
CONTINUOUS
10
25.7856
20
-42.1906
11
25.8808
21
-42.0953
0
LINE
8
BLACK
6
CONTINUOUS
10
25.8808
20
-42.0953
11
26.0713
21
-42.0001
0
LINE
8
BLACK
6
CONTINUOUS
10
26.0713
20
-42.0001
11
26.357
21
-42.0001
0
LINE
8
BLACK
6
CONTINUOUS
10
26.357
20
-42.0001
11
26.5475
21
-42.0953
0
LINE
8
BLACK
6
CONTINUOUS
10
26.5475
20
-42.0953
11
26.6427
21
-42.2858
0
LINE
8
BLACK
6
CONTINUOUS
10
26.6427
20
-42.2858
11
26.6427
21
-43.3334
0
LINE
8
BLACK
6
CONTINUOUS
10
26.6427
20
-42.2858
11
26.738
21
-42.0953
0
LINE
8
BLACK
6
CONTINUOUS
10
26.738
20
-42.0953
11
26.9285
21
-42.0001
0
LINE
8
BLACK
6
CONTINUOUS
10
26.9285
20
-42.0001
11
27.2142
21
-42.0001
0
LINE
8
BLACK
6
CONTINUOUS
10
27.2142
20
-42.0001
11
27.4047
21
-42.0953
0
LINE
8
BLACK
6
CONTINUOUS
10
27.4047
20
-42.0953
11
27.4999
21
-42.2858
0
LINE
8
BLACK
6
CONTINUOUS
10
27.4999
20
-42.2858
11
27.4999
21
-43.3334
0
LINE
8
BLACK
6
CONTINUOUS
10
31.4047
20
-41.2382
11
29.6904
21
-43.8096
0
LINE
8
BLACK
6
CONTINUOUS
10
33.9761
20
-41.3334
11
34.1666
21
-41.3334
0
LINE
8
BLACK
6
CONTINUOUS
10
34.1666
20
-41.3334
11
34.357
21
-41.4287
0
LINE
8
BLACK
6
CONTINUOUS
10
34.357
20
-41.4287
11
34.4523
21
-41.5239
0
LINE
8
BLACK
6
CONTINUOUS
10
34.4523
20
-41.5239
11
34.5475
21
-41.7144
0
LINE
8
BLACK
6
CONTINUOUS
10
34.5475
20
-41.7144
11
34.6427
21
-42.0953
0
LINE
8
BLACK
6
CONTINUOUS
10
34.6427
20
-42.0953
11
34.6427
21
-42.5715
0
LINE
8
BLACK
6
CONTINUOUS
10
34.6427
20
-42.5715
11
34.5475
21
-42.9525
0
LINE
8
BLACK
6
CONTINUOUS
10
34.5475
20
-42.9525
11
34.4523
21
-43.143
0
LINE
8
BLACK
6
CONTINUOUS
10
34.4523
20
-43.143
11
34.357
21
-43.2382
0
LINE
8
BLACK
6
CONTINUOUS
10
34.357
20
-43.2382
11
34.1666
21
-43.3334
0
LINE
8
BLACK
6
CONTINUOUS
10
34.1666
20
-43.3334
11
33.9761
21
-43.3334
0
LINE
8
BLACK
6
CONTINUOUS
10
33.9761
20
-43.3334
11
33.7856
21
-43.2382
0
LINE
8
BLACK
6
CONTINUOUS
10
33.7856
20
-43.2382
11
33.6904
21
-43.143
0
LINE
8
BLACK
6
CONTINUOUS
10
33.6904
20
-43.143
11
33.5951
21
-42.9525
0
LINE
8
BLACK
6
CONTINUOUS
10
33.5951
20
-42.9525
11
33.4999
21
-42.5715
0
LINE
8
BLACK
6
CONTINUOUS
10
33.4999
20
-42.5715
11
33.4999
21
-42.0953
0
LINE
8
BLACK
6
CONTINUOUS
10
33.4999
20
-42.0953
11
33.5951
21
-41.7144
0
LINE
8
BLACK
6
CONTINUOUS
10
33.5951
20
-41.7144
11
33.6904
21
-41.5239
0
LINE
8
BLACK
6
CONTINUOUS
10
33.6904
20
-41.5239
11
33.7856
21
-41.4287
0
LINE
8
BLACK
6
CONTINUOUS
10
33.7856
20
-41.4287
11
33.9761
21
-41.3334
0
LINE
8
BLACK
6
CONTINUOUS
10
35.4999
20
-43.143
11
35.5951
21
-43.2382
0
LINE
8
BLACK
6
CONTINUOUS
10
35.5951
20
-43.2382
11
35.4999
21
-43.3334
0
LINE
8
BLACK
6
CONTINUOUS
10
35.4999
20
-43.3334
11
35.4047
21
-43.2382
0
LINE
8
BLACK
6
CONTINUOUS
10
35.4047
20
-43.2382
11
35.4999
21
-43.143
0
LINE
8
BLACK
6
CONTINUOUS
10
35.4999
20
-43.143
11
35.4999
21
-43.3334
0
LINE
8
BLACK
6
CONTINUOUS
10
36.8332
20
-41.3334
11
37.0237
21
-41.3334
0
LINE
8
BLACK
6
CONTINUOUS
10
37.0237
20
-41.3334
11
37.2142
21
-41.4287
0
LINE
8
BLACK
6
CONTINUOUS
10
37.2142
20
-41.4287
11
37.3094
21
-41.5239
0
LINE
8
BLACK
6
CONTINUOUS
10
37.3094
20
-41.5239
11
37.4047
21
-41.7144
0
LINE
8
BLACK
6
CONTINUOUS
10
37.4047
20
-41.7144
11
37.4999
21
-42.0953
0
LINE
8
BLACK
6
CONTINUOUS
10
37.4999
20
-42.0953
11
37.4999
21
-42.5715
0
LINE
8
BLACK
6
CONTINUOUS
10
37.4999
20
-42.5715
11
37.4047
21
-42.9525
0
LINE
8
BLACK
6
CONTINUOUS
10
37.4047
20
-42.9525
11
37.3094
21
-43.143
0
LINE
8
BLACK
6
CONTINUOUS
10
37.3094
20
-43.143
11
37.2142
21
-43.2382
0
LINE
8
BLACK
6
CONTINUOUS
10
37.2142
20
-43.2382
11
37.0237
21
-43.3334
0
LINE
8
BLACK
6
CONTINUOUS
10
37.0237
20
-43.3334
11
36.8332
21
-43.3334
0
LINE
8
BLACK
6
CONTINUOUS
10
36.8332
20
-43.3334
11
36.6427
21
-43.2382
0
LINE
8
BLACK
6
CONTINUOUS
10
36.6427
20
-43.2382
11
36.5475
21
-43.143
0
LINE
8
BLACK
6
CONTINUOUS
10
36.5475
20
-43.143
11
36.4523
21
-42.9525
0
LINE
8
BLACK
6
CONTINUOUS
10
36.4523
20
-42.9525
11
36.357
21
-42.5715
0
LINE
8
BLACK
6
CONTINUOUS
10
36.357
20
-42.5715
11
36.357
21
-42.0953
0
LINE
8
BLACK
6
CONTINUOUS
10
36.357
20
-42.0953
11
36.4523
21
-41.7144
0
LINE
8
BLACK
6
CONTINUOUS
10
36.4523
20
-41.7144
11
36.5475
21
-41.5239
0
LINE
8
BLACK
6
CONTINUOUS
10
36.5475
20
-41.5239
11
36.6427
21
-41.4287
0
LINE
8
BLACK
6
CONTINUOUS
10
36.6427
20
-41.4287
11
36.8332
21
-41.3334
0
LINE
8
BLACK
6
CONTINUOUS
10
38.2618
20
-41.5239
11
38.357
21
-41.4287
0
LINE
8
BLACK
6
CONTINUOUS
10
38.357
20
-41.4287
11
38.5475
21
-41.3334
0
LINE
8
BLACK
6
CONTINUOUS
10
38.5475
20
-41.3334
11
39.0237
21
-41.3334
0
LINE
8
BLACK
6
CONTINUOUS
10
39.0237
20
-41.3334
11
39.2142
21
-41.4287
0
LINE
8
BLACK
6
CONTINUOUS
10
39.2142
20
-41.4287
11
39.3094
21
-41.5239
0
LINE
8
BLACK
6
CONTINUOUS
10
39.3094
20
-41.5239
11
39.4047
21
-41.7144
0
LINE
8
BLACK
6
CONTINUOUS
10
39.4047
20
-41.7144
11
39.4047
21
-41.9049
0
LINE
8
BLACK
6
CONTINUOUS
10
39.4047
20
-41.9049
11
39.3094
21
-42.1906
0
LINE
8
BLACK
6
CONTINUOUS
10
39.3094
20
-42.1906
11
38.1666
21
-43.3334
0
LINE
8
BLACK
6
CONTINUOUS
10
38.1666
20
-43.3334
11
39.4047
21
-43.3334
0
LINE
8
BLACK
6
CONTINUOUS
10
40.357
20
-43.3334
11
40.738
21
-43.3334
0
LINE
8
BLACK
6
CONTINUOUS
10
40.738
20
-43.3334
11
40.9285
21
-43.2382
0
LINE
8
BLACK
6
CONTINUOUS
10
40.9285
20
-43.2382
11
41.0237
21
-43.143
0
LINE
8
BLACK
6
CONTINUOUS
10
41.0237
20
-43.143
11
41.2142
21
-42.8573
0
LINE
8
BLACK
6
CONTINUOUS
10
41.2142
20
-42.8573
11
41.3094
21
-42.4763
0
LINE
8
BLACK
6
CONTINUOUS
10
41.3094
20
-42.4763
11
41.3094
21
-41.7144
0
LINE
8
BLACK
6
CONTINUOUS
10
41.3094
20
-41.7144
11
41.2142
21
-41.5239
0
LINE
8
BLACK
6
CONTINUOUS
10
41.2142
20
-41.5239
11
41.1189
21
-41.4287
0
LINE
8
BLACK
6
CONTINUOUS
10
41.1189
20
-41.4287
11
40.9285
21
-41.3334
0
LINE
8
BLACK
6
CONTINUOUS
10
40.9285
20
-41.3334
11
40.5475
21
-41.3334
0
LINE
8
BLACK
6
CONTINUOUS
10
40.5475
20
-41.3334
11
40.357
21
-41.4287
0
LINE
8
BLACK
6
CONTINUOUS
10
40.357
20
-41.4287
11
40.2618
21
-41.5239
0
LINE
8
BLACK
6
CONTINUOUS
10
40.2618
20
-41.5239
11
40.1666
21
-41.7144
0
LINE
8
BLACK
6
CONTINUOUS
10
40.1666
20
-41.7144
11
40.1666
21
-42.1906
0
LINE
8
BLACK
6
CONTINUOUS
10
40.1666
20
-42.1906
11
40.2618
21
-42.3811
0
LINE
8
BLACK
6
CONTINUOUS
10
40.2618
20
-42.3811
11
40.357
21
-42.4763
0
LINE
8
BLACK
6
CONTINUOUS
10
40.357
20
-42.4763
11
40.5475
21
-42.5715
0
LINE
8
BLACK
6
CONTINUOUS
10
40.5475
20
-42.5715
11
40.9285
21
-42.5715
0
LINE
8
BLACK
6
CONTINUOUS
10
40.9285
20
-42.5715
11
41.1189
21
-42.4763
0
LINE
8
BLACK
6
CONTINUOUS
10
41.1189
20
-42.4763
11
41.2142
21
-42.3811
0
LINE
8
BLACK
6
CONTINUOUS
10
41.2142
20
-42.3811
11
41.3094
21
-42.1906
0
LINE
8
BLACK
6
CONTINUOUS
10
43.1189
20
-41.3334
11
42.1666
21
-41.3334
0
LINE
8
BLACK
6
CONTINUOUS
10
42.1666
20
-41.3334
11
42.0713
21
-42.2858
0
LINE
8
BLACK
6
CONTINUOUS
10
42.0713
20
-42.2858
11
42.1666
21
-42.1906
0
LINE
8
BLACK
6
CONTINUOUS
10
42.1666
20
-42.1906
11
42.357
21
-42.0953
0
LINE
8
BLACK
6
CONTINUOUS
10
42.357
20
-42.0953
11
42.8332
21
-42.0953
0
LINE
8
BLACK
6
CONTINUOUS
10
42.8332
20
-42.0953
11
43.0237
21
-42.1906
0
LINE
8
BLACK
6
CONTINUOUS
10
43.0237
20
-42.1906
11
43.1189
21
-42.2858
0
LINE
8
BLACK
6
CONTINUOUS
10
43.1189
20
-42.2858
11
43.2142
21
-42.4763
0
LINE
8
BLACK
6
CONTINUOUS
10
43.2142
20
-42.4763
11
43.2142
21
-42.9525
0
LINE
8
BLACK
6
CONTINUOUS
10
43.2142
20
-42.9525
11
43.1189
21
-43.143
0
LINE
8
BLACK
6
CONTINUOUS
10
43.1189
20
-43.143
11
43.0237
21
-43.2382
0
LINE
8
BLACK
6
CONTINUOUS
10
43.0237
20
-43.2382
11
42.8332
21
-43.3334
0
LINE
8
BLACK
6
CONTINUOUS
10
42.8332
20
-43.3334
11
42.357
21
-43.3334
0
LINE
8
BLACK
6
CONTINUOUS
10
42.357
20
-43.3334
11
42.1666
21
-43.2382
0
LINE
8
BLACK
6
CONTINUOUS
10
42.1666
20
-43.2382
11
42.0713
21
-43.143
0
LINE
8
BLACK
6
CONTINUOUS
10
43.9761
20
-41.3334
11
43.9761
21
-41.7144
0
LINE
8
BLACK
6
CONTINUOUS
10
44.738
20
-41.3334
11
44.738
21
-41.7144
0
LINE
8
BLACK
6
CONTINUOUS
10
47.6904
20
-44.0953
11
47.5951
21
-44.0001
0
LINE
8
BLACK
6
CONTINUOUS
10
47.5951
20
-44.0001
11
47.4047
21
-43.7144
0
LINE
8
BLACK
6
CONTINUOUS
10
47.4047
20
-43.7144
11
47.3094
21
-43.5239
0
LINE
8
BLACK
6
CONTINUOUS
10
47.3094
20
-43.5239
11
47.2142
21
-43.2382
0
LINE
8
BLACK
6
CONTINUOUS
10
47.2142
20
-43.2382
11
47.1189
21
-42.762
0
LINE
8
BLACK
6
CONTINUOUS
10
47.1189
20
-42.762
11
47.1189
21
-42.3811
0
LINE
8
BLACK
6
CONTINUOUS
10
47.1189
20
-42.3811
11
47.2142
21
-41.9049
0
LINE
8
BLACK
6
CONTINUOUS
10
47.2142
20
-41.9049
11
47.3094
21
-41.6192
0
LINE
8
BLACK
6
CONTINUOUS
10
47.3094
20
-41.6192
11
47.4047
21
-41.4287
0
LINE
8
BLACK
6
CONTINUOUS
10
47.4047
20
-41.4287
11
47.5951
21
-41.143
0
LINE
8
BLACK
6
CONTINUOUS
10
47.5951
20
-41.143
11
47.6904
21
-41.0477
0
LINE
8
BLACK
6
CONTINUOUS
10
48.2618
20
-41.3334
11
49.4999
21
-41.3334
0
LINE
8
BLACK
6
CONTINUOUS
10
49.4999
20
-41.3334
11
48.8332
21
-42.0953
0
LINE
8
BLACK
6
CONTINUOUS
10
48.8332
20
-42.0953
11
49.1189
21
-42.0953
0
LINE
8
BLACK
6
CONTINUOUS
10
49.1189
20
-42.0953
11
49.3094
21
-42.1906
0
LINE
8
BLACK
6
CONTINUOUS
10
49.3094
20
-42.1906
11
49.4047
21
-42.2858
0
LINE
8
BLACK
6
CONTINUOUS
10
49.4047
20
-42.2858
11
49.4999
21
-42.4763
0
LINE
8
BLACK
6
CONTINUOUS
10
49.4999
20
-42.4763
11
49.4999
21
-42.9525
0
LINE
8
BLACK
6
CONTINUOUS
10
49.4999
20
-42.9525
11
49.4047
21
-43.143
0
LINE
8
BLACK
6
CONTINUOUS
10
49.4047
20
-43.143
11
49.3094
21
-43.2382
0
LINE
8
BLACK
6
CONTINUOUS
10
49.3094
20
-43.2382
11
49.1189
21
-43.3334
0
LINE
8
BLACK
6
CONTINUOUS
10
49.1189
20
-43.3334
11
48.5475
21
-43.3334
0
LINE
8
BLACK
6
CONTINUOUS
10
48.5475
20
-43.3334
11
48.357
21
-43.2382
0
LINE
8
BLACK
6
CONTINUOUS
10
48.357
20
-43.2382
11
48.2618
21
-43.143
0
LINE
8
BLACK
6
CONTINUOUS
10
51.8808
20
-43.3334
11
51.8808
21
-41.3334
0
LINE
8
BLACK
6
CONTINUOUS
10
52.738
20
-43.3334
11
52.738
21
-42.2858
0
LINE
8
BLACK
6
CONTINUOUS
10
52.738
20
-42.2858
11
52.6427
21
-42.0953
0
LINE
8
BLACK
6
CONTINUOUS
10
52.6427
20
-42.0953
11
52.4523
21
-42.0001
0
LINE
8
BLACK
6
CONTINUOUS
10
52.4523
20
-42.0001
11
52.1666
21
-42.0001
0
LINE
8
BLACK
6
CONTINUOUS
10
52.1666
20
-42.0001
11
51.9761
21
-42.0953
0
LINE
8
BLACK
6
CONTINUOUS
10
51.9761
20
-42.0953
11
51.8808
21
-42.1906
0
LINE
8
BLACK
6
CONTINUOUS
10
53.9761
20
-43.3334
11
53.7856
21
-43.2382
0
LINE
8
BLACK
6
CONTINUOUS
10
53.7856
20
-43.2382
11
53.6904
21
-43.143
0
LINE
8
BLACK
6
CONTINUOUS
10
53.6904
20
-43.143
11
53.5951
21
-42.9525
0
LINE
8
BLACK
6
CONTINUOUS
10
53.5951
20
-42.9525
11
53.5951
21
-42.3811
0
LINE
8
BLACK
6
CONTINUOUS
10
53.5951
20
-42.3811
11
53.6904
21
-42.1906
0
LINE
8
BLACK
6
CONTINUOUS
10
53.6904
20
-42.1906
11
53.7856
21
-42.0953
0
LINE
8
BLACK
6
CONTINUOUS
10
53.7856
20
-42.0953
11
53.9761
21
-42.0001
0
LINE
8
BLACK
6
CONTINUOUS
10
53.9761
20
-42.0001
11
54.2618
21
-42.0001
0
LINE
8
BLACK
6
CONTINUOUS
10
54.2618
20
-42.0001
11
54.4523
21
-42.0953
0
LINE
8
BLACK
6
CONTINUOUS
10
54.4523
20
-42.0953
11
54.5475
21
-42.1906
0
LINE
8
BLACK
6
CONTINUOUS
10
54.5475
20
-42.1906
11
54.6427
21
-42.3811
0
LINE
8
BLACK
6
CONTINUOUS
10
54.6427
20
-42.3811
11
54.6427
21
-42.9525
0
LINE
8
BLACK
6
CONTINUOUS
10
54.6427
20
-42.9525
11
54.5475
21
-43.143
0
LINE
8
BLACK
6
CONTINUOUS
10
54.5475
20
-43.143
11
54.4523
21
-43.2382
0
LINE
8
BLACK
6
CONTINUOUS
10
54.4523
20
-43.2382
11
54.2618
21
-43.3334
0
LINE
8
BLACK
6
CONTINUOUS
10
54.2618
20
-43.3334
11
53.9761
21
-43.3334
0
LINE
8
BLACK
6
CONTINUOUS
10
55.7856
20
-43.3334
11
55.5951
21
-43.2382
0
LINE
8
BLACK
6
CONTINUOUS
10
55.5951
20
-43.2382
11
55.4999
21
-43.0477
0
LINE
8
BLACK
6
CONTINUOUS
10
55.4999
20
-43.0477
11
55.4999
21
-41.3334
0
LINE
8
BLACK
6
CONTINUOUS
10
57.3094
20
-43.2382
11
57.1189
21
-43.3334
0
LINE
8
BLACK
6
CONTINUOUS
10
57.1189
20
-43.3334
11
56.738
21
-43.3334
0
LINE
8
BLACK
6
CONTINUOUS
10
56.738
20
-43.3334
11
56.5475
21
-43.2382
0
LINE
8
BLACK
6
CONTINUOUS
10
56.5475
20
-43.2382
11
56.4523
21
-43.0477
0
LINE
8
BLACK
6
CONTINUOUS
10
56.4523
20
-43.0477
11
56.4523
21
-42.2858
0
LINE
8
BLACK
6
CONTINUOUS
10
56.4523
20
-42.2858
11
56.5475
21
-42.0953
0
LINE
8
BLACK
6
CONTINUOUS
10
56.5475
20
-42.0953
11
56.738
21
-42.0001
0
LINE
8
BLACK
6
CONTINUOUS
10
56.738
20
-42.0001
11
57.1189
21
-42.0001
0
LINE
8
BLACK
6
CONTINUOUS
10
57.1189
20
-42.0001
11
57.3094
21
-42.0953
0
LINE
8
BLACK
6
CONTINUOUS
10
57.3094
20
-42.0953
11
57.4047
21
-42.2858
0
LINE
8
BLACK
6
CONTINUOUS
10
57.4047
20
-42.2858
11
57.4047
21
-42.4763
0
LINE
8
BLACK
6
CONTINUOUS
10
57.4047
20
-42.4763
11
56.4523
21
-42.6668
0
LINE
8
BLACK
6
CONTINUOUS
10
58.1666
20
-43.2382
11
58.357
21
-43.3334
0
LINE
8
BLACK
6
CONTINUOUS
10
58.357
20
-43.3334
11
58.738
21
-43.3334
0
LINE
8
BLACK
6
CONTINUOUS
10
58.738
20
-43.3334
11
58.9285
21
-43.2382
0
LINE
8
BLACK
6
CONTINUOUS
10
58.9285
20
-43.2382
11
59.0237
21
-43.0477
0
LINE
8
BLACK
6
CONTINUOUS
10
59.0237
20
-43.0477
11
59.0237
21
-42.9525
0
LINE
8
BLACK
6
CONTINUOUS
10
59.0237
20
-42.9525
11
58.9285
21
-42.762
0
LINE
8
BLACK
6
CONTINUOUS
10
58.9285
20
-42.762
11
58.738
21
-42.6668
0
LINE
8
BLACK
6
CONTINUOUS
10
58.738
20
-42.6668
11
58.4523
21
-42.6668
0
LINE
8
BLACK
6
CONTINUOUS
10
58.4523
20
-42.6668
11
58.2618
21
-42.5715
0
LINE
8
BLACK
6
CONTINUOUS
10
58.2618
20
-42.5715
11
58.1666
21
-42.3811
0
LINE
8
BLACK
6
CONTINUOUS
10
58.1666
20
-42.3811
11
58.1666
21
-42.2858
0
LINE
8
BLACK
6
CONTINUOUS
10
58.1666
20
-42.2858
11
58.2618
21
-42.0953
0
LINE
8
BLACK
6
CONTINUOUS
10
58.2618
20
-42.0953
11
58.4523
21
-42.0001
0
LINE
8
BLACK
6
CONTINUOUS
10
58.4523
20
-42.0001
11
58.738
21
-42.0001
0
LINE
8
BLACK
6
CONTINUOUS
10
58.738
20
-42.0001
11
58.9285
21
-42.0953
0
LINE
8
BLACK
6
CONTINUOUS
10
59.6904
20
-44.0953
11
59.7856
21
-44.0001
0
LINE
8
BLACK
6
CONTINUOUS
10
59.7856
20
-44.0001
11
59.9761
21
-43.7144
0
LINE
8
BLACK
6
CONTINUOUS
10
59.9761
20
-43.7144
11
60.0713
21
-43.5239
0
LINE
8
BLACK
6
CONTINUOUS
10
60.0713
20
-43.5239
11
60.1666
21
-43.2382
0
LINE
8
BLACK
6
CONTINUOUS
10
60.1666
20
-43.2382
11
60.2618
21
-42.762
0
LINE
8
BLACK
6
CONTINUOUS
10
60.2618
20
-42.762
11
60.2618
21
-42.3811
0
LINE
8
BLACK
6
CONTINUOUS
10
60.2618
20
-42.3811
11
60.1666
21
-41.9049
0
LINE
8
BLACK
6
CONTINUOUS
10
60.1666
20
-41.9049
11
60.0713
21
-41.6192
0
LINE
8
BLACK
6
CONTINUOUS
10
60.0713
20
-41.6192
11
59.9761
21
-41.4287
0
LINE
8
BLACK
6
CONTINUOUS
10
59.9761
20
-41.4287
11
59.7856
21
-41.143
0
LINE
8
BLACK
6
CONTINUOUS
10
59.7856
20
-41.143
11
59.6904
21
-41.0477
0
CIRCLE
8
BLACK
10
11.5713
20
-45.0687
40
0.4
0
LINE
8
BLACK
6
CONTINUOUS
10
14.9285
20
-43.9734
11
15.1189
21
-43.9734
0
LINE
8
BLACK
6
CONTINUOUS
10
15.1189
20
-43.9734
11
15.3094
21
-44.0687
0
LINE
8
BLACK
6
CONTINUOUS
10
15.3094
20
-44.0687
11
15.4047
21
-44.1639
0
LINE
8
BLACK
6
CONTINUOUS
10
15.4047
20
-44.1639
11
15.4999
21
-44.3544
0
LINE
8
BLACK
6
CONTINUOUS
10
15.4999
20
-44.3544
11
15.5951
21
-44.7353
0
LINE
8
BLACK
6
CONTINUOUS
10
15.5951
20
-44.7353
11
15.5951
21
-45.2115
0
LINE
8
BLACK
6
CONTINUOUS
10
15.5951
20
-45.2115
11
15.4999
21
-45.5925
0
LINE
8
BLACK
6
CONTINUOUS
10
15.4999
20
-45.5925
11
15.4047
21
-45.783
0
LINE
8
BLACK
6
CONTINUOUS
10
15.4047
20
-45.783
11
15.3094
21
-45.8782
0
LINE
8
BLACK
6
CONTINUOUS
10
15.3094
20
-45.8782
11
15.1189
21
-45.9734
0
LINE
8
BLACK
6
CONTINUOUS
10
15.1189
20
-45.9734
11
14.9285
21
-45.9734
0
LINE
8
BLACK
6
CONTINUOUS
10
14.9285
20
-45.9734
11
14.738
21
-45.8782
0
LINE
8
BLACK
6
CONTINUOUS
10
14.738
20
-45.8782
11
14.6427
21
-45.783
0
LINE
8
BLACK
6
CONTINUOUS
10
14.6427
20
-45.783
11
14.5475
21
-45.5925
0
LINE
8
BLACK
6
CONTINUOUS
10
14.5475
20
-45.5925
11
14.4523
21
-45.2115
0
LINE
8
BLACK
6
CONTINUOUS
10
14.4523
20
-45.2115
11
14.4523
21
-44.7353
0
LINE
8
BLACK
6
CONTINUOUS
10
14.4523
20
-44.7353
11
14.5475
21
-44.3544
0
LINE
8
BLACK
6
CONTINUOUS
10
14.5475
20
-44.3544
11
14.6427
21
-44.1639
0
LINE
8
BLACK
6
CONTINUOUS
10
14.6427
20
-44.1639
11
14.738
21
-44.0687
0
LINE
8
BLACK
6
CONTINUOUS
10
14.738
20
-44.0687
11
14.9285
21
-43.9734
0
LINE
8
BLACK
6
CONTINUOUS
10
16.4523
20
-45.783
11
16.5475
21
-45.8782
0
LINE
8
BLACK
6
CONTINUOUS
10
16.5475
20
-45.8782
11
16.4523
21
-45.9734
0
LINE
8
BLACK
6
CONTINUOUS
10
16.4523
20
-45.9734
11
16.357
21
-45.8782
0
LINE
8
BLACK
6
CONTINUOUS
10
16.357
20
-45.8782
11
16.4523
21
-45.783
0
LINE
8
BLACK
6
CONTINUOUS
10
16.4523
20
-45.783
11
16.4523
21
-45.9734
0
LINE
8
BLACK
6
CONTINUOUS
10
17.6904
20
-44.8306
11
17.4999
21
-44.7353
0
LINE
8
BLACK
6
CONTINUOUS
10
17.4999
20
-44.7353
11
17.4047
21
-44.6401
0
LINE
8
BLACK
6
CONTINUOUS
10
17.4047
20
-44.6401
11
17.3094
21
-44.4496
0
LINE
8
BLACK
6
CONTINUOUS
10
17.3094
20
-44.4496
11
17.3094
21
-44.3544
0
LINE
8
BLACK
6
CONTINUOUS
10
17.3094
20
-44.3544
11
17.4047
21
-44.1639
0
LINE
8
BLACK
6
CONTINUOUS
10
17.4047
20
-44.1639
11
17.4999
21
-44.0687
0
LINE
8
BLACK
6
CONTINUOUS
10
17.4999
20
-44.0687
11
17.6904
21
-43.9734
0
LINE
8
BLACK
6
CONTINUOUS
10
17.6904
20
-43.9734
11
18.0713
21
-43.9734
0
LINE
8
BLACK
6
CONTINUOUS
10
18.0713
20
-43.9734
11
18.2618
21
-44.0687
0
LINE
8
BLACK
6
CONTINUOUS
10
18.2618
20
-44.0687
11
18.357
21
-44.1639
0
LINE
8
BLACK
6
CONTINUOUS
10
18.357
20
-44.1639
11
18.4523
21
-44.3544
0
LINE
8
BLACK
6
CONTINUOUS
10
18.4523
20
-44.3544
11
18.4523
21
-44.4496
0
LINE
8
BLACK
6
CONTINUOUS
10
18.4523
20
-44.4496
11
18.357
21
-44.6401
0
LINE
8
BLACK
6
CONTINUOUS
10
18.357
20
-44.6401
11
18.2618
21
-44.7353
0
LINE
8
BLACK
6
CONTINUOUS
10
18.2618
20
-44.7353
11
18.0713
21
-44.8306
0
LINE
8
BLACK
6
CONTINUOUS
10
18.0713
20
-44.8306
11
17.6904
21
-44.8306
0
LINE
8
BLACK
6
CONTINUOUS
10
17.6904
20
-44.8306
11
17.4999
21
-44.9258
0
LINE
8
BLACK
6
CONTINUOUS
10
17.4999
20
-44.9258
11
17.4047
21
-45.0211
0
LINE
8
BLACK
6
CONTINUOUS
10
17.4047
20
-45.0211
11
17.3094
21
-45.2115
0
LINE
8
BLACK
6
CONTINUOUS
10
17.3094
20
-45.2115
11
17.3094
21
-45.5925
0
LINE
8
BLACK
6
CONTINUOUS
10
17.3094
20
-45.5925
11
17.4047
21
-45.783
0
LINE
8
BLACK
6
CONTINUOUS
10
17.4047
20
-45.783
11
17.4999
21
-45.8782
0
LINE
8
BLACK
6
CONTINUOUS
10
17.4999
20
-45.8782
11
17.6904
21
-45.9734
0
LINE
8
BLACK
6
CONTINUOUS
10
17.6904
20
-45.9734
11
18.0713
21
-45.9734
0
LINE
8
BLACK
6
CONTINUOUS
10
18.0713
20
-45.9734
11
18.2618
21
-45.8782
0
LINE
8
BLACK
6
CONTINUOUS
10
18.2618
20
-45.8782
11
18.357
21
-45.783
0
LINE
8
BLACK
6
CONTINUOUS
10
18.357
20
-45.783
11
18.4523
21
-45.5925
0
LINE
8
BLACK
6
CONTINUOUS
10
18.4523
20
-45.5925
11
18.4523
21
-45.2115
0
LINE
8
BLACK
6
CONTINUOUS
10
18.4523
20
-45.2115
11
18.357
21
-45.0211
0
LINE
8
BLACK
6
CONTINUOUS
10
18.357
20
-45.0211
11
18.2618
21
-44.9258
0
LINE
8
BLACK
6
CONTINUOUS
10
18.2618
20
-44.9258
11
18.0713
21
-44.8306
0
LINE
8
BLACK
6
CONTINUOUS
10
19.6904
20
-43.9734
11
19.8808
21
-43.9734
0
LINE
8
BLACK
6
CONTINUOUS
10
19.8808
20
-43.9734
11
20.0713
21
-44.0687
0
LINE
8
BLACK
6
CONTINUOUS
10
20.0713
20
-44.0687
11
20.1666
21
-44.1639
0
LINE
8
BLACK
6
CONTINUOUS
10
20.1666
20
-44.1639
11
20.2618
21
-44.3544
0
LINE
8
BLACK
6
CONTINUOUS
10
20.2618
20
-44.3544
11
20.357
21
-44.7353
0
LINE
8
BLACK
6
CONTINUOUS
10
20.357
20
-44.7353
11
20.357
21
-45.2115
0
LINE
8
BLACK
6
CONTINUOUS
10
20.357
20
-45.2115
11
20.2618
21
-45.5925
0
LINE
8
BLACK
6
CONTINUOUS
10
20.2618
20
-45.5925
11
20.1666
21
-45.783
0
LINE
8
BLACK
6
CONTINUOUS
10
20.1666
20
-45.783
11
20.0713
21
-45.8782
0
LINE
8
BLACK
6
CONTINUOUS
10
20.0713
20
-45.8782
11
19.8808
21
-45.9734
0
LINE
8
BLACK
6
CONTINUOUS
10
19.8808
20
-45.9734
11
19.6904
21
-45.9734
0
LINE
8
BLACK
6
CONTINUOUS
10
19.6904
20
-45.9734
11
19.4999
21
-45.8782
0
LINE
8
BLACK
6
CONTINUOUS
10
19.4999
20
-45.8782
11
19.4047
21
-45.783
0
LINE
8
BLACK
6
CONTINUOUS
10
19.4047
20
-45.783
11
19.3094
21
-45.5925
0
LINE
8
BLACK
6
CONTINUOUS
10
19.3094
20
-45.5925
11
19.2142
21
-45.2115
0
LINE
8
BLACK
6
CONTINUOUS
10
19.2142
20
-45.2115
11
19.2142
21
-44.7353
0
LINE
8
BLACK
6
CONTINUOUS
10
19.2142
20
-44.7353
11
19.3094
21
-44.3544
0
LINE
8
BLACK
6
CONTINUOUS
10
19.3094
20
-44.3544
11
19.4047
21
-44.1639
0
LINE
8
BLACK
6
CONTINUOUS
10
19.4047
20
-44.1639
11
19.4999
21
-44.0687
0
LINE
8
BLACK
6
CONTINUOUS
10
19.4999
20
-44.0687
11
19.6904
21
-43.9734
0
LINE
8
BLACK
6
CONTINUOUS
10
21.5951
20
-43.9734
11
21.7856
21
-43.9734
0
LINE
8
BLACK
6
CONTINUOUS
10
21.7856
20
-43.9734
11
21.9761
21
-44.0687
0
LINE
8
BLACK
6
CONTINUOUS
10
21.9761
20
-44.0687
11
22.0713
21
-44.1639
0
LINE
8
BLACK
6
CONTINUOUS
10
22.0713
20
-44.1639
11
22.1666
21
-44.3544
0
LINE
8
BLACK
6
CONTINUOUS
10
22.1666
20
-44.3544
11
22.2618
21
-44.7353
0
LINE
8
BLACK
6
CONTINUOUS
10
22.2618
20
-44.7353
11
22.2618
21
-45.2115
0
LINE
8
BLACK
6
CONTINUOUS
10
22.2618
20
-45.2115
11
22.1666
21
-45.5925
0
LINE
8
BLACK
6
CONTINUOUS
10
22.1666
20
-45.5925
11
22.0713
21
-45.783
0
LINE
8
BLACK
6
CONTINUOUS
10
22.0713
20
-45.783
11
21.9761
21
-45.8782
0
LINE
8
BLACK
6
CONTINUOUS
10
21.9761
20
-45.8782
11
21.7856
21
-45.9734
0
LINE
8
BLACK
6
CONTINUOUS
10
21.7856
20
-45.9734
11
21.5951
21
-45.9734
0
LINE
8
BLACK
6
CONTINUOUS
10
21.5951
20
-45.9734
11
21.4047
21
-45.8782
0
LINE
8
BLACK
6
CONTINUOUS
10
21.4047
20
-45.8782
11
21.3094
21
-45.783
0
LINE
8
BLACK
6
CONTINUOUS
10
21.3094
20
-45.783
11
21.2142
21
-45.5925
0
LINE
8
BLACK
6
CONTINUOUS
10
21.2142
20
-45.5925
11
21.1189
21
-45.2115
0
LINE
8
BLACK
6
CONTINUOUS
10
21.1189
20
-45.2115
11
21.1189
21
-44.7353
0
LINE
8
BLACK
6
CONTINUOUS
10
21.1189
20
-44.7353
11
21.2142
21
-44.3544
0
LINE
8
BLACK
6
CONTINUOUS
10
21.2142
20
-44.3544
11
21.3094
21
-44.1639
0
LINE
8
BLACK
6
CONTINUOUS
10
21.3094
20
-44.1639
11
21.4047
21
-44.0687
0
LINE
8
BLACK
6
CONTINUOUS
10
21.4047
20
-44.0687
11
21.5951
21
-43.9734
0
LINE
8
BLACK
6
CONTINUOUS
10
23.1189
20
-45.9734
11
23.1189
21
-44.6401
0
LINE
8
BLACK
6
CONTINUOUS
10
23.1189
20
-44.8306
11
23.2142
21
-44.7353
0
LINE
8
BLACK
6
CONTINUOUS
10
23.2142
20
-44.7353
11
23.4047
21
-44.6401
0
LINE
8
BLACK
6
CONTINUOUS
10
23.4047
20
-44.6401
11
23.6904
21
-44.6401
0
LINE
8
BLACK
6
CONTINUOUS
10
23.6904
20
-44.6401
11
23.8808
21
-44.7353
0
LINE
8
BLACK
6
CONTINUOUS
10
23.8808
20
-44.7353
11
23.9761
21
-44.9258
0
LINE
8
BLACK
6
CONTINUOUS
10
23.9761
20
-44.9258
11
23.9761
21
-45.9734
0
LINE
8
BLACK
6
CONTINUOUS
10
23.9761
20
-44.9258
11
24.0713
21
-44.7353
0
LINE
8
BLACK
6
CONTINUOUS
10
24.0713
20
-44.7353
11
24.2618
21
-44.6401
0
LINE
8
BLACK
6
CONTINUOUS
10
24.2618
20
-44.6401
11
24.5475
21
-44.6401
0
LINE
8
BLACK
6
CONTINUOUS
10
24.5475
20
-44.6401
11
24.738
21
-44.7353
0
LINE
8
BLACK
6
CONTINUOUS
10
24.738
20
-44.7353
11
24.8332
21
-44.9258
0
LINE
8
BLACK
6
CONTINUOUS
10
24.8332
20
-44.9258
11
24.8332
21
-45.9734
0
LINE
8
BLACK
6
CONTINUOUS
10
25.7856
20
-45.9734
11
25.7856
21
-44.6401
0
LINE
8
BLACK
6
CONTINUOUS
10
25.7856
20
-44.8306
11
25.8808
21
-44.7353
0
LINE
8
BLACK
6
CONTINUOUS
10
25.8808
20
-44.7353
11
26.0713
21
-44.6401
0
LINE
8
BLACK
6
CONTINUOUS
10
26.0713
20
-44.6401
11
26.357
21
-44.6401
0
LINE
8
BLACK
6
CONTINUOUS
10
26.357
20
-44.6401
11
26.5475
21
-44.7353
0
LINE
8
BLACK
6
CONTINUOUS
10
26.5475
20
-44.7353
11
26.6427
21
-44.9258
0
LINE
8
BLACK
6
CONTINUOUS
10
26.6427
20
-44.9258
11
26.6427
21
-45.9734
0
LINE
8
BLACK
6
CONTINUOUS
10
26.6427
20
-44.9258
11
26.738
21
-44.7353
0
LINE
8
BLACK
6
CONTINUOUS
10
26.738
20
-44.7353
11
26.9285
21
-44.6401
0
LINE
8
BLACK
6
CONTINUOUS
10
26.9285
20
-44.6401
11
27.2142
21
-44.6401
0
LINE
8
BLACK
6
CONTINUOUS
10
27.2142
20
-44.6401
11
27.4047
21
-44.7353
0
LINE
8
BLACK
6
CONTINUOUS
10
27.4047
20
-44.7353
11
27.4999
21
-44.9258
0
LINE
8
BLACK
6
CONTINUOUS
10
27.4999
20
-44.9258
11
27.4999
21
-45.9734
0
LINE
8
BLACK
6
CONTINUOUS
10
31.4047
20
-43.8782
11
29.6904
21
-46.4496
0
LINE
8
BLACK
6
CONTINUOUS
10
33.9761
20
-43.9734
11
34.1666
21
-43.9734
0
LINE
8
BLACK
6
CONTINUOUS
10
34.1666
20
-43.9734
11
34.357
21
-44.0687
0
LINE
8
BLACK
6
CONTINUOUS
10
34.357
20
-44.0687
11
34.4523
21
-44.1639
0
LINE
8
BLACK
6
CONTINUOUS
10
34.4523
20
-44.1639
11
34.5475
21
-44.3544
0
LINE
8
BLACK
6
CONTINUOUS
10
34.5475
20
-44.3544
11
34.6427
21
-44.7353
0
LINE
8
BLACK
6
CONTINUOUS
10
34.6427
20
-44.7353
11
34.6427
21
-45.2115
0
LINE
8
BLACK
6
CONTINUOUS
10
34.6427
20
-45.2115
11
34.5475
21
-45.5925
0
LINE
8
BLACK
6
CONTINUOUS
10
34.5475
20
-45.5925
11
34.4523
21
-45.783
0
LINE
8
BLACK
6
CONTINUOUS
10
34.4523
20
-45.783
11
34.357
21
-45.8782
0
LINE
8
BLACK
6
CONTINUOUS
10
34.357
20
-45.8782
11
34.1666
21
-45.9734
0
LINE
8
BLACK
6
CONTINUOUS
10
34.1666
20
-45.9734
11
33.9761
21
-45.9734
0
LINE
8
BLACK
6
CONTINUOUS
10
33.9761
20
-45.9734
11
33.7856
21
-45.8782
0
LINE
8
BLACK
6
CONTINUOUS
10
33.7856
20
-45.8782
11
33.6904
21
-45.783
0
LINE
8
BLACK
6
CONTINUOUS
10
33.6904
20
-45.783
11
33.5951
21
-45.5925
0
LINE
8
BLACK
6
CONTINUOUS
10
33.5951
20
-45.5925
11
33.4999
21
-45.2115
0
LINE
8
BLACK
6
CONTINUOUS
10
33.4999
20
-45.2115
11
33.4999
21
-44.7353
0
LINE
8
BLACK
6
CONTINUOUS
10
33.4999
20
-44.7353
11
33.5951
21
-44.3544
0
LINE
8
BLACK
6
CONTINUOUS
10
33.5951
20
-44.3544
11
33.6904
21
-44.1639
0
LINE
8
BLACK
6
CONTINUOUS
10
33.6904
20
-44.1639
11
33.7856
21
-44.0687
0
LINE
8
BLACK
6
CONTINUOUS
10
33.7856
20
-44.0687
11
33.9761
21
-43.9734
0
LINE
8
BLACK
6
CONTINUOUS
10
35.4999
20
-45.783
11
35.5951
21
-45.8782
0
LINE
8
BLACK
6
CONTINUOUS
10
35.5951
20
-45.8782
11
35.4999
21
-45.9734
0
LINE
8
BLACK
6
CONTINUOUS
10
35.4999
20
-45.9734
11
35.4047
21
-45.8782
0
LINE
8
BLACK
6
CONTINUOUS
10
35.4047
20
-45.8782
11
35.4999
21
-45.783
0
LINE
8
BLACK
6
CONTINUOUS
10
35.4999
20
-45.783
11
35.4999
21
-45.9734
0
LINE
8
BLACK
6
CONTINUOUS
10
36.8332
20
-43.9734
11
37.0237
21
-43.9734
0
LINE
8
BLACK
6
CONTINUOUS
10
37.0237
20
-43.9734
11
37.2142
21
-44.0687
0
LINE
8
BLACK
6
CONTINUOUS
10
37.2142
20
-44.0687
11
37.3094
21
-44.1639
0
LINE
8
BLACK
6
CONTINUOUS
10
37.3094
20
-44.1639
11
37.4047
21
-44.3544
0
LINE
8
BLACK
6
CONTINUOUS
10
37.4047
20
-44.3544
11
37.4999
21
-44.7353
0
LINE
8
BLACK
6
CONTINUOUS
10
37.4999
20
-44.7353
11
37.4999
21
-45.2115
0
LINE
8
BLACK
6
CONTINUOUS
10
37.4999
20
-45.2115
11
37.4047
21
-45.5925
0
LINE
8
BLACK
6
CONTINUOUS
10
37.4047
20
-45.5925
11
37.3094
21
-45.783
0
LINE
8
BLACK
6
CONTINUOUS
10
37.3094
20
-45.783
11
37.2142
21
-45.8782
0
LINE
8
BLACK
6
CONTINUOUS
10
37.2142
20
-45.8782
11
37.0237
21
-45.9734
0
LINE
8
BLACK
6
CONTINUOUS
10
37.0237
20
-45.9734
11
36.8332
21
-45.9734
0
LINE
8
BLACK
6
CONTINUOUS
10
36.8332
20
-45.9734
11
36.6427
21
-45.8782
0
LINE
8
BLACK
6
CONTINUOUS
10
36.6427
20
-45.8782
11
36.5475
21
-45.783
0
LINE
8
BLACK
6
CONTINUOUS
10
36.5475
20
-45.783
11
36.4523
21
-45.5925
0
LINE
8
BLACK
6
CONTINUOUS
10
36.4523
20
-45.5925
11
36.357
21
-45.2115
0
LINE
8
BLACK
6
CONTINUOUS
10
36.357
20
-45.2115
11
36.357
21
-44.7353
0
LINE
8
BLACK
6
CONTINUOUS
10
36.357
20
-44.7353
11
36.4523
21
-44.3544
0
LINE
8
BLACK
6
CONTINUOUS
10
36.4523
20
-44.3544
11
36.5475
21
-44.1639
0
LINE
8
BLACK
6
CONTINUOUS
10
36.5475
20
-44.1639
11
36.6427
21
-44.0687
0
LINE
8
BLACK
6
CONTINUOUS
10
36.6427
20
-44.0687
11
36.8332
21
-43.9734
0
LINE
8
BLACK
6
CONTINUOUS
10
38.1666
20
-43.9734
11
39.4047
21
-43.9734
0
LINE
8
BLACK
6
CONTINUOUS
10
39.4047
20
-43.9734
11
38.738
21
-44.7353
0
LINE
8
BLACK
6
CONTINUOUS
10
38.738
20
-44.7353
11
39.0237
21
-44.7353
0
LINE
8
BLACK
6
CONTINUOUS
10
39.0237
20
-44.7353
11
39.2142
21
-44.8306
0
LINE
8
BLACK
6
CONTINUOUS
10
39.2142
20
-44.8306
11
39.3094
21
-44.9258
0
LINE
8
BLACK
6
CONTINUOUS
10
39.3094
20
-44.9258
11
39.4047
21
-45.1163
0
LINE
8
BLACK
6
CONTINUOUS
10
39.4047
20
-45.1163
11
39.4047
21
-45.5925
0
LINE
8
BLACK
6
CONTINUOUS
10
39.4047
20
-45.5925
11
39.3094
21
-45.783
0
LINE
8
BLACK
6
CONTINUOUS
10
39.3094
20
-45.783
11
39.2142
21
-45.8782
0
LINE
8
BLACK
6
CONTINUOUS
10
39.2142
20
-45.8782
11
39.0237
21
-45.9734
0
LINE
8
BLACK
6
CONTINUOUS
10
39.0237
20
-45.9734
11
38.4523
21
-45.9734
0
LINE
8
BLACK
6
CONTINUOUS
10
38.4523
20
-45.9734
11
38.2618
21
-45.8782
0
LINE
8
BLACK
6
CONTINUOUS
10
38.2618
20
-45.8782
11
38.1666
21
-45.783
0
LINE
8
BLACK
6
CONTINUOUS
10
41.3094
20
-45.9734
11
40.1666
21
-45.9734
0
LINE
8
BLACK
6
CONTINUOUS
10
40.738
20
-45.9734
11
40.738
21
-43.9734
0
LINE
8
BLACK
6
CONTINUOUS
10
40.738
20
-43.9734
11
40.5475
21
-44.2592
0
LINE
8
BLACK
6
CONTINUOUS
10
40.5475
20
-44.2592
11
40.357
21
-44.4496
0
LINE
8
BLACK
6
CONTINUOUS
10
40.357
20
-44.4496
11
40.1666
21
-44.5449
0
LINE
8
BLACK
6
CONTINUOUS
10
43.1189
20
-43.9734
11
42.1666
21
-43.9734
0
LINE
8
BLACK
6
CONTINUOUS
10
42.1666
20
-43.9734
11
42.0713
21
-44.9258
0
LINE
8
BLACK
6
CONTINUOUS
10
42.0713
20
-44.9258
11
42.1666
21
-44.8306
0
LINE
8
BLACK
6
CONTINUOUS
10
42.1666
20
-44.8306
11
42.357
21
-44.7353
0
LINE
8
BLACK
6
CONTINUOUS
10
42.357
20
-44.7353
11
42.8332
21
-44.7353
0
LINE
8
BLACK
6
CONTINUOUS
10
42.8332
20
-44.7353
11
43.0237
21
-44.8306
0
LINE
8
BLACK
6
CONTINUOUS
10
43.0237
20
-44.8306
11
43.1189
21
-44.9258
0
LINE
8
BLACK
6
CONTINUOUS
10
43.1189
20
-44.9258
11
43.2142
21
-45.1163
0
LINE
8
BLACK
6
CONTINUOUS
10
43.2142
20
-45.1163
11
43.2142
21
-45.5925
0
LINE
8
BLACK
6
CONTINUOUS
10
43.2142
20
-45.5925
11
43.1189
21
-45.783
0
LINE
8
BLACK
6
CONTINUOUS
10
43.1189
20
-45.783
11
43.0237
21
-45.8782
0
LINE
8
BLACK
6
CONTINUOUS
10
43.0237
20
-45.8782
11
42.8332
21
-45.9734
0
LINE
8
BLACK
6
CONTINUOUS
10
42.8332
20
-45.9734
11
42.357
21
-45.9734
0
LINE
8
BLACK
6
CONTINUOUS
10
42.357
20
-45.9734
11
42.1666
21
-45.8782
0
LINE
8
BLACK
6
CONTINUOUS
10
42.1666
20
-45.8782
11
42.0713
21
-45.783
0
LINE
8
BLACK
6
CONTINUOUS
10
43.9761
20
-43.9734
11
43.9761
21
-44.3544
0
LINE
8
BLACK
6
CONTINUOUS
10
44.738
20
-43.9734
11
44.738
21
-44.3544
0
LINE
8
BLACK
6
CONTINUOUS
10
47.6904
20
-46.7353
11
47.5951
21
-46.6401
0
LINE
8
BLACK
6
CONTINUOUS
10
47.5951
20
-46.6401
11
47.4047
21
-46.3544
0
LINE
8
BLACK
6
CONTINUOUS
10
47.4047
20
-46.3544
11
47.3094
21
-46.1639
0
LINE
8
BLACK
6
CONTINUOUS
10
47.3094
20
-46.1639
11
47.2142
21
-45.8782
0
LINE
8
BLACK
6
CONTINUOUS
10
47.2142
20
-45.8782
11
47.1189
21
-45.402
0
LINE
8
BLACK
6
CONTINUOUS
10
47.1189
20
-45.402
11
47.1189
21
-45.0211
0
LINE
8
BLACK
6
CONTINUOUS
10
47.1189
20
-45.0211
11
47.2142
21
-44.5449
0
LINE
8
BLACK
6
CONTINUOUS
10
47.2142
20
-44.5449
11
47.3094
21
-44.2592
0
LINE
8
BLACK
6
CONTINUOUS
10
47.3094
20
-44.2592
11
47.4047
21
-44.0687
0
LINE
8
BLACK
6
CONTINUOUS
10
47.4047
20
-44.0687
11
47.5951
21
-43.783
0
LINE
8
BLACK
6
CONTINUOUS
10
47.5951
20
-43.783
11
47.6904
21
-43.6877
0
LINE
8
BLACK
6
CONTINUOUS
10
48.738
20
-44.8306
11
48.5475
21
-44.7353
0
LINE
8
BLACK
6
CONTINUOUS
10
48.5475
20
-44.7353
11
48.4523
21
-44.6401
0
LINE
8
BLACK
6
CONTINUOUS
10
48.4523
20
-44.6401
11
48.357
21
-44.4496
0
LINE
8
BLACK
6
CONTINUOUS
10
48.357
20
-44.4496
11
48.357
21
-44.3544
0
LINE
8
BLACK
6
CONTINUOUS
10
48.357
20
-44.3544
11
48.4523
21
-44.1639
0
LINE
8
BLACK
6
CONTINUOUS
10
48.4523
20
-44.1639
11
48.5475
21
-44.0687
0
LINE
8
BLACK
6
CONTINUOUS
10
48.5475
20
-44.0687
11
48.738
21
-43.9734
0
LINE
8
BLACK
6
CONTINUOUS
10
48.738
20
-43.9734
11
49.1189
21
-43.9734
0
LINE
8
BLACK
6
CONTINUOUS
10
49.1189
20
-43.9734
11
49.3094
21
-44.0687
0
LINE
8
BLACK
6
CONTINUOUS
10
49.3094
20
-44.0687
11
49.4047
21
-44.1639
0
LINE
8
BLACK
6
CONTINUOUS
10
49.4047
20
-44.1639
11
49.4999
21
-44.3544
0
LINE
8
BLACK
6
CONTINUOUS
10
49.4999
20
-44.3544
11
49.4999
21
-44.4496
0
LINE
8
BLACK
6
CONTINUOUS
10
49.4999
20
-44.4496
11
49.4047
21
-44.6401
0
LINE
8
BLACK
6
CONTINUOUS
10
49.4047
20
-44.6401
11
49.3094
21
-44.7353
0
LINE
8
BLACK
6
CONTINUOUS
10
49.3094
20
-44.7353
11
49.1189
21
-44.8306
0
LINE
8
BLACK
6
CONTINUOUS
10
49.1189
20
-44.8306
11
48.738
21
-44.8306
0
LINE
8
BLACK
6
CONTINUOUS
10
48.738
20
-44.8306
11
48.5475
21
-44.9258
0
LINE
8
BLACK
6
CONTINUOUS
10
48.5475
20
-44.9258
11
48.4523
21
-45.0211
0
LINE
8
BLACK
6
CONTINUOUS
10
48.4523
20
-45.0211
11
48.357
21
-45.2115
0
LINE
8
BLACK
6
CONTINUOUS
10
48.357
20
-45.2115
11
48.357
21
-45.5925
0
LINE
8
BLACK
6
CONTINUOUS
10
48.357
20
-45.5925
11
48.4523
21
-45.783
0
LINE
8
BLACK
6
CONTINUOUS
10
48.4523
20
-45.783
11
48.5475
21
-45.8782
0
LINE
8
BLACK
6
CONTINUOUS
10
48.5475
20
-45.8782
11
48.738
21
-45.9734
0
LINE
8
BLACK
6
CONTINUOUS
10
48.738
20
-45.9734
11
49.1189
21
-45.9734
0
LINE
8
BLACK
6
CONTINUOUS
10
49.1189
20
-45.9734
11
49.3094
21
-45.8782
0
LINE
8
BLACK
6
CONTINUOUS
10
49.3094
20
-45.8782
11
49.4047
21
-45.783
0
LINE
8
BLACK
6
CONTINUOUS
10
49.4047
20
-45.783
11
49.4999
21
-45.5925
0
LINE
8
BLACK
6
CONTINUOUS
10
49.4999
20
-45.5925
11
49.4999
21
-45.2115
0
LINE
8
BLACK
6
CONTINUOUS
10
49.4999
20
-45.2115
11
49.4047
21
-45.0211
0
LINE
8
BLACK
6
CONTINUOUS
10
49.4047
20
-45.0211
11
49.3094
21
-44.9258
0
LINE
8
BLACK
6
CONTINUOUS
10
49.3094
20
-44.9258
11
49.1189
21
-44.8306
0
LINE
8
BLACK
6
CONTINUOUS
10
51.8808
20
-45.9734
11
51.8808
21
-43.9734
0
LINE
8
BLACK
6
CONTINUOUS
10
52.738
20
-45.9734
11
52.738
21
-44.9258
0
LINE
8
BLACK
6
CONTINUOUS
10
52.738
20
-44.9258
11
52.6427
21
-44.7353
0
LINE
8
BLACK
6
CONTINUOUS
10
52.6427
20
-44.7353
11
52.4523
21
-44.6401
0
LINE
8
BLACK
6
CONTINUOUS
10
52.4523
20
-44.6401
11
52.1666
21
-44.6401
0
LINE
8
BLACK
6
CONTINUOUS
10
52.1666
20
-44.6401
11
51.9761
21
-44.7353
0
LINE
8
BLACK
6
CONTINUOUS
10
51.9761
20
-44.7353
11
51.8808
21
-44.8306
0
LINE
8
BLACK
6
CONTINUOUS
10
53.9761
20
-45.9734
11
53.7856
21
-45.8782
0
LINE
8
BLACK
6
CONTINUOUS
10
53.7856
20
-45.8782
11
53.6904
21
-45.783
0
LINE
8
BLACK
6
CONTINUOUS
10
53.6904
20
-45.783
11
53.5951
21
-45.5925
0
LINE
8
BLACK
6
CONTINUOUS
10
53.5951
20
-45.5925
11
53.5951
21
-45.0211
0
LINE
8
BLACK
6
CONTINUOUS
10
53.5951
20
-45.0211
11
53.6904
21
-44.8306
0
LINE
8
BLACK
6
CONTINUOUS
10
53.6904
20
-44.8306
11
53.7856
21
-44.7353
0
LINE
8
BLACK
6
CONTINUOUS
10
53.7856
20
-44.7353
11
53.9761
21
-44.6401
0
LINE
8
BLACK
6
CONTINUOUS
10
53.9761
20
-44.6401
11
54.2618
21
-44.6401
0
LINE
8
BLACK
6
CONTINUOUS
10
54.2618
20
-44.6401
11
54.4523
21
-44.7353
0
LINE
8
BLACK
6
CONTINUOUS
10
54.4523
20
-44.7353
11
54.5475
21
-44.8306
0
LINE
8
BLACK
6
CONTINUOUS
10
54.5475
20
-44.8306
11
54.6427
21
-45.0211
0
LINE
8
BLACK
6
CONTINUOUS
10
54.6427
20
-45.0211
11
54.6427
21
-45.5925
0
LINE
8
BLACK
6
CONTINUOUS
10
54.6427
20
-45.5925
11
54.5475
21
-45.783
0
LINE
8
BLACK
6
CONTINUOUS
10
54.5475
20
-45.783
11
54.4523
21
-45.8782
0
LINE
8
BLACK
6
CONTINUOUS
10
54.4523
20
-45.8782
11
54.2618
21
-45.9734
0
LINE
8
BLACK
6
CONTINUOUS
10
54.2618
20
-45.9734
11
53.9761
21
-45.9734
0
LINE
8
BLACK
6
CONTINUOUS
10
55.7856
20
-45.9734
11
55.5951
21
-45.8782
0
LINE
8
BLACK
6
CONTINUOUS
10
55.5951
20
-45.8782
11
55.4999
21
-45.6877
0
LINE
8
BLACK
6
CONTINUOUS
10
55.4999
20
-45.6877
11
55.4999
21
-43.9734
0
LINE
8
BLACK
6
CONTINUOUS
10
57.3094
20
-45.8782
11
57.1189
21
-45.9734
0
LINE
8
BLACK
6
CONTINUOUS
10
57.1189
20
-45.9734
11
56.738
21
-45.9734
0
LINE
8
BLACK
6
CONTINUOUS
10
56.738
20
-45.9734
11
56.5475
21
-45.8782
0
LINE
8
BLACK
6
CONTINUOUS
10
56.5475
20
-45.8782
11
56.4523
21
-45.6877
0
LINE
8
BLACK
6
CONTINUOUS
10
56.4523
20
-45.6877
11
56.4523
21
-44.9258
0
LINE
8
BLACK
6
CONTINUOUS
10
56.4523
20
-44.9258
11
56.5475
21
-44.7353
0
LINE
8
BLACK
6
CONTINUOUS
10
56.5475
20
-44.7353
11
56.738
21
-44.6401
0
LINE
8
BLACK
6
CONTINUOUS
10
56.738
20
-44.6401
11
57.1189
21
-44.6401
0
LINE
8
BLACK
6
CONTINUOUS
10
57.1189
20
-44.6401
11
57.3094
21
-44.7353
0
LINE
8
BLACK
6
CONTINUOUS
10
57.3094
20
-44.7353
11
57.4047
21
-44.9258
0
LINE
8
BLACK
6
CONTINUOUS
10
57.4047
20
-44.9258
11
57.4047
21
-45.1163
0
LINE
8
BLACK
6
CONTINUOUS
10
57.4047
20
-45.1163
11
56.4523
21
-45.3068
0
LINE
8
BLACK
6
CONTINUOUS
10
58.1666
20
-45.8782
11
58.357
21
-45.9734
0
LINE
8
BLACK
6
CONTINUOUS
10
58.357
20
-45.9734
11
58.738
21
-45.9734
0
LINE
8
BLACK
6
CONTINUOUS
10
58.738
20
-45.9734
11
58.9285
21
-45.8782
0
LINE
8
BLACK
6
CONTINUOUS
10
58.9285
20
-45.8782
11
59.0237
21
-45.6877
0
LINE
8
BLACK
6
CONTINUOUS
10
59.0237
20
-45.6877
11
59.0237
21
-45.5925
0
LINE
8
BLACK
6
CONTINUOUS
10
59.0237
20
-45.5925
11
58.9285
21
-45.402
0
LINE
8
BLACK
6
CONTINUOUS
10
58.9285
20
-45.402
11
58.738
21
-45.3068
0
LINE
8
BLACK
6
CONTINUOUS
10
58.738
20
-45.3068
11
58.4523
21
-45.3068
0
LINE
8
BLACK
6
CONTINUOUS
10
58.4523
20
-45.3068
11
58.2618
21
-45.2115
0
LINE
8
BLACK
6
CONTINUOUS
10
58.2618
20
-45.2115
11
58.1666
21
-45.0211
0
LINE
8
BLACK
6
CONTINUOUS
10
58.1666
20
-45.0211
11
58.1666
21
-44.9258
0
LINE
8
BLACK
6
CONTINUOUS
10
58.1666
20
-44.9258
11
58.2618
21
-44.7353
0
LINE
8
BLACK
6
CONTINUOUS
10
58.2618
20
-44.7353
11
58.4523
21
-44.6401
0
LINE
8
BLACK
6
CONTINUOUS
10
58.4523
20
-44.6401
11
58.738
21
-44.6401
0
LINE
8
BLACK
6
CONTINUOUS
10
58.738
20
-44.6401
11
58.9285
21
-44.7353
0
LINE
8
BLACK
6
CONTINUOUS
10
59.6904
20
-46.7353
11
59.7856
21
-46.6401
0
LINE
8
BLACK
6
CONTINUOUS
10
59.7856
20
-46.6401
11
59.9761
21
-46.3544
0
LINE
8
BLACK
6
CONTINUOUS
10
59.9761
20
-46.3544
11
60.0713
21
-46.1639
0
LINE
8
BLACK
6
CONTINUOUS
10
60.0713
20
-46.1639
11
60.1666
21
-45.8782
0
LINE
8
BLACK
6
CONTINUOUS
10
60.1666
20
-45.8782
11
60.2618
21
-45.402
0
LINE
8
BLACK
6
CONTINUOUS
10
60.2618
20
-45.402
11
60.2618
21
-45.0211
0
LINE
8
BLACK
6
CONTINUOUS
10
60.2618
20
-45.0211
11
60.1666
21
-44.5449
0
LINE
8
BLACK
6
CONTINUOUS
10
60.1666
20
-44.5449
11
60.0713
21
-44.2592
0
LINE
8
BLACK
6
CONTINUOUS
10
60.0713
20
-44.2592
11
59.9761
21
-44.0687
0
LINE
8
BLACK
6
CONTINUOUS
10
59.9761
20
-44.0687
11
59.7856
21
-43.783
0
LINE
8
BLACK
6
CONTINUOUS
10
59.7856
20
-43.783
11
59.6904
21
-43.6877
0
LINE
8
BLACK
6
CONTINUOUS
10
11.4713
20
-47.2087
11
11.4713
21
-48.2087
0
LINE
8
BLACK
6
CONTINUOUS
10
10.9713
20
-47.7087
11
11.9713
21
-47.7087
0
LINE
8
BLACK
6
CONTINUOUS
10
15.5951
20
-48.6134
11
14.4523
21
-48.6134
0
LINE
8
BLACK
6
CONTINUOUS
10
15.0237
20
-48.6134
11
15.0237
21
-46.6134
0
LINE
8
BLACK
6
CONTINUOUS
10
15.0237
20
-46.6134
11
14.8332
21
-46.8992
0
LINE
8
BLACK
6
CONTINUOUS
10
14.8332
20
-46.8992
11
14.6427
21
-47.0896
0
LINE
8
BLACK
6
CONTINUOUS
10
14.6427
20
-47.0896
11
14.4523
21
-47.1849
0
LINE
8
BLACK
6
CONTINUOUS
10
16.4523
20
-48.423
11
16.5475
21
-48.5182
0
LINE
8
BLACK
6
CONTINUOUS
10
16.5475
20
-48.5182
11
16.4523
21
-48.6134
0
LINE
8
BLACK
6
CONTINUOUS
10
16.4523
20
-48.6134
11
16.357
21
-48.5182
0
LINE
8
BLACK
6
CONTINUOUS
10
16.357
20
-48.5182
11
16.4523
21
-48.423
0
LINE
8
BLACK
6
CONTINUOUS
10
16.4523
20
-48.423
11
16.4523
21
-48.6134
0
LINE
8
BLACK
6
CONTINUOUS
10
17.7856
20
-46.6134
11
17.9761
21
-46.6134
0
LINE
8
BLACK
6
CONTINUOUS
10
17.9761
20
-46.6134
11
18.1666
21
-46.7087
0
LINE
8
BLACK
6
CONTINUOUS
10
18.1666
20
-46.7087
11
18.2618
21
-46.8039
0
LINE
8
BLACK
6
CONTINUOUS
10
18.2618
20
-46.8039
11
18.357
21
-46.9944
0
LINE
8
BLACK
6
CONTINUOUS
10
18.357
20
-46.9944
11
18.4523
21
-47.3753
0
LINE
8
BLACK
6
CONTINUOUS
10
18.4523
20
-47.3753
11
18.4523
21
-47.8515
0
LINE
8
BLACK
6
CONTINUOUS
10
18.4523
20
-47.8515
11
18.357
21
-48.2325
0
LINE
8
BLACK
6
CONTINUOUS
10
18.357
20
-48.2325
11
18.2618
21
-48.423
0
LINE
8
BLACK
6
CONTINUOUS
10
18.2618
20
-48.423
11
18.1666
21
-48.5182
0
LINE
8
BLACK
6
CONTINUOUS
10
18.1666
20
-48.5182
11
17.9761
21
-48.6134
0
LINE
8
BLACK
6
CONTINUOUS
10
17.9761
20
-48.6134
11
17.7856
21
-48.6134
0
LINE
8
BLACK
6
CONTINUOUS
10
17.7856
20
-48.6134
11
17.5951
21
-48.5182
0
LINE
8
BLACK
6
CONTINUOUS
10
17.5951
20
-48.5182
11
17.4999
21
-48.423
0
LINE
8
BLACK
6
CONTINUOUS
10
17.4999
20
-48.423
11
17.4047
21
-48.2325
0
LINE
8
BLACK
6
CONTINUOUS
10
17.4047
20
-48.2325
11
17.3094
21
-47.8515
0
LINE
8
BLACK
6
CONTINUOUS
10
17.3094
20
-47.8515
11
17.3094
21
-47.3753
0
LINE
8
BLACK
6
CONTINUOUS
10
17.3094
20
-47.3753
11
17.4047
21
-46.9944
0
LINE
8
BLACK
6
CONTINUOUS
10
17.4047
20
-46.9944
11
17.4999
21
-46.8039
0
LINE
8
BLACK
6
CONTINUOUS
10
17.4999
20
-46.8039
11
17.5951
21
-46.7087
0
LINE
8
BLACK
6
CONTINUOUS
10
17.5951
20
-46.7087
11
17.7856
21
-46.6134
0
LINE
8
BLACK
6
CONTINUOUS
10
19.6904
20
-46.6134
11
19.8808
21
-46.6134
0
LINE
8
BLACK
6
CONTINUOUS
10
19.8808
20
-46.6134
11
20.0713
21
-46.7087
0
LINE
8
BLACK
6
CONTINUOUS
10
20.0713
20
-46.7087
11
20.1666
21
-46.8039
0
LINE
8
BLACK
6
CONTINUOUS
10
20.1666
20
-46.8039
11
20.2618
21
-46.9944
0
LINE
8
BLACK
6
CONTINUOUS
10
20.2618
20
-46.9944
11
20.357
21
-47.3753
0
LINE
8
BLACK
6
CONTINUOUS
10
20.357
20
-47.3753
11
20.357
21
-47.8515
0
LINE
8
BLACK
6
CONTINUOUS
10
20.357
20
-47.8515
11
20.2618
21
-48.2325
0
LINE
8
BLACK
6
CONTINUOUS
10
20.2618
20
-48.2325
11
20.1666
21
-48.423
0
LINE
8
BLACK
6
CONTINUOUS
10
20.1666
20
-48.423
11
20.0713
21
-48.5182
0
LINE
8
BLACK
6
CONTINUOUS
10
20.0713
20
-48.5182
11
19.8808
21
-48.6134
0
LINE
8
BLACK
6
CONTINUOUS
10
19.8808
20
-48.6134
11
19.6904
21
-48.6134
0
LINE
8
BLACK
6
CONTINUOUS
10
19.6904
20
-48.6134
11
19.4999
21
-48.5182
0
LINE
8
BLACK
6
CONTINUOUS
10
19.4999
20
-48.5182
11
19.4047
21
-48.423
0
LINE
8
BLACK
6
CONTINUOUS
10
19.4047
20
-48.423
11
19.3094
21
-48.2325
0
LINE
8
BLACK
6
CONTINUOUS
10
19.3094
20
-48.2325
11
19.2142
21
-47.8515
0
LINE
8
BLACK
6
CONTINUOUS
10
19.2142
20
-47.8515
11
19.2142
21
-47.3753
0
LINE
8
BLACK
6
CONTINUOUS
10
19.2142
20
-47.3753
11
19.3094
21
-46.9944
0
LINE
8
BLACK
6
CONTINUOUS
10
19.3094
20
-46.9944
11
19.4047
21
-46.8039
0
LINE
8
BLACK
6
CONTINUOUS
10
19.4047
20
-46.8039
11
19.4999
21
-46.7087
0
LINE
8
BLACK
6
CONTINUOUS
10
19.4999
20
-46.7087
11
19.6904
21
-46.6134
0
LINE
8
BLACK
6
CONTINUOUS
10
21.5951
20
-46.6134
11
21.7856
21
-46.6134
0
LINE
8
BLACK
6
CONTINUOUS
10
21.7856
20
-46.6134
11
21.9761
21
-46.7087
0
LINE
8
BLACK
6
CONTINUOUS
10
21.9761
20
-46.7087
11
22.0713
21
-46.8039
0
LINE
8
BLACK
6
CONTINUOUS
10
22.0713
20
-46.8039
11
22.1666
21
-46.9944
0
LINE
8
BLACK
6
CONTINUOUS
10
22.1666
20
-46.9944
11
22.2618
21
-47.3753
0
LINE
8
BLACK
6
CONTINUOUS
10
22.2618
20
-47.3753
11
22.2618
21
-47.8515
0
LINE
8
BLACK
6
CONTINUOUS
10
22.2618
20
-47.8515
11
22.1666
21
-48.2325
0
LINE
8
BLACK
6
CONTINUOUS
10
22.1666
20
-48.2325
11
22.0713
21
-48.423
0
LINE
8
BLACK
6
CONTINUOUS
10
22.0713
20
-48.423
11
21.9761
21
-48.5182
0
LINE
8
BLACK
6
CONTINUOUS
10
21.9761
20
-48.5182
11
21.7856
21
-48.6134
0
LINE
8
BLACK
6
CONTINUOUS
10
21.7856
20
-48.6134
11
21.5951
21
-48.6134
0
LINE
8
BLACK
6
CONTINUOUS
10
21.5951
20
-48.6134
11
21.4047
21
-48.5182
0
LINE
8
BLACK
6
CONTINUOUS
10
21.4047
20
-48.5182
11
21.3094
21
-48.423
0
LINE
8
BLACK
6
CONTINUOUS
10
21.3094
20
-48.423
11
21.2142
21
-48.2325
0
LINE
8
BLACK
6
CONTINUOUS
10
21.2142
20
-48.2325
11
21.1189
21
-47.8515
0
LINE
8
BLACK
6
CONTINUOUS
10
21.1189
20
-47.8515
11
21.1189
21
-47.3753
0
LINE
8
BLACK
6
CONTINUOUS
10
21.1189
20
-47.3753
11
21.2142
21
-46.9944
0
LINE
8
BLACK
6
CONTINUOUS
10
21.2142
20
-46.9944
11
21.3094
21
-46.8039
0
LINE
8
BLACK
6
CONTINUOUS
10
21.3094
20
-46.8039
11
21.4047
21
-46.7087
0
LINE
8
BLACK
6
CONTINUOUS
10
21.4047
20
-46.7087
11
21.5951
21
-46.6134
0
LINE
8
BLACK
6
CONTINUOUS
10
23.1189
20
-48.6134
11
23.1189
21
-47.2801
0
LINE
8
BLACK
6
CONTINUOUS
10
23.1189
20
-47.4706
11
23.2142
21
-47.3753
0
LINE
8
BLACK
6
CONTINUOUS
10
23.2142
20
-47.3753
11
23.4047
21
-47.2801
0
LINE
8
BLACK
6
CONTINUOUS
10
23.4047
20
-47.2801
11
23.6904
21
-47.2801
0
LINE
8
BLACK
6
CONTINUOUS
10
23.6904
20
-47.2801
11
23.8808
21
-47.3753
0
LINE
8
BLACK
6
CONTINUOUS
10
23.8808
20
-47.3753
11
23.9761
21
-47.5658
0
LINE
8
BLACK
6
CONTINUOUS
10
23.9761
20
-47.5658
11
23.9761
21
-48.6134
0
LINE
8
BLACK
6
CONTINUOUS
10
23.9761
20
-47.5658
11
24.0713
21
-47.3753
0
LINE
8
BLACK
6
CONTINUOUS
10
24.0713
20
-47.3753
11
24.2618
21
-47.2801
0
LINE
8
BLACK
6
CONTINUOUS
10
24.2618
20
-47.2801
11
24.5475
21
-47.2801
0
LINE
8
BLACK
6
CONTINUOUS
10
24.5475
20
-47.2801
11
24.738
21
-47.3753
0
LINE
8
BLACK
6
CONTINUOUS
10
24.738
20
-47.3753
11
24.8332
21
-47.5658
0
LINE
8
BLACK
6
CONTINUOUS
10
24.8332
20
-47.5658
11
24.8332
21
-48.6134
0
LINE
8
BLACK
6
CONTINUOUS
10
25.7856
20
-48.6134
11
25.7856
21
-47.2801
0
LINE
8
BLACK
6
CONTINUOUS
10
25.7856
20
-47.4706
11
25.8808
21
-47.3753
0
LINE
8
BLACK
6
CONTINUOUS
10
25.8808
20
-47.3753
11
26.0713
21
-47.2801
0
LINE
8
BLACK
6
CONTINUOUS
10
26.0713
20
-47.2801
11
26.357
21
-47.2801
0
LINE
8
BLACK
6
CONTINUOUS
10
26.357
20
-47.2801
11
26.5475
21
-47.3753
0
LINE
8
BLACK
6
CONTINUOUS
10
26.5475
20
-47.3753
11
26.6427
21
-47.5658
0
LINE
8
BLACK
6
CONTINUOUS
10
26.6427
20
-47.5658
11
26.6427
21
-48.6134
0
LINE
8
BLACK
6
CONTINUOUS
10
26.6427
20
-47.5658
11
26.738
21
-47.3753
0
LINE
8
BLACK
6
CONTINUOUS
10
26.738
20
-47.3753
11
26.9285
21
-47.2801
0
LINE
8
BLACK
6
CONTINUOUS
10
26.9285
20
-47.2801
11
27.2142
21
-47.2801
0
LINE
8
BLACK
6
CONTINUOUS
10
27.2142
20
-47.2801
11
27.4047
21
-47.3753
0
LINE
8
BLACK
6
CONTINUOUS
10
27.4047
20
-47.3753
11
27.4999
21
-47.5658
0
LINE
8
BLACK
6
CONTINUOUS
10
27.4999
20
-47.5658
11
27.4999
21
-48.6134
0
LINE
8
BLACK
6
CONTINUOUS
10
31.4047
20
-46.5182
11
29.6904
21
-49.0896
0
LINE
8
BLACK
6
CONTINUOUS
10
33.9761
20
-46.6134
11
34.1666
21
-46.6134
0
LINE
8
BLACK
6
CONTINUOUS
10
34.1666
20
-46.6134
11
34.357
21
-46.7087
0
LINE
8
BLACK
6
CONTINUOUS
10
34.357
20
-46.7087
11
34.4523
21
-46.8039
0
LINE
8
BLACK
6
CONTINUOUS
10
34.4523
20
-46.8039
11
34.5475
21
-46.9944
0
LINE
8
BLACK
6
CONTINUOUS
10
34.5475
20
-46.9944
11
34.6427
21
-47.3753
0
LINE
8
BLACK
6
CONTINUOUS
10
34.6427
20
-47.3753
11
34.6427
21
-47.8515
0
LINE
8
BLACK
6
CONTINUOUS
10
34.6427
20
-47.8515
11
34.5475
21
-48.2325
0
LINE
8
BLACK
6
CONTINUOUS
10
34.5475
20
-48.2325
11
34.4523
21
-48.423
0
LINE
8
BLACK
6
CONTINUOUS
10
34.4523
20
-48.423
11
34.357
21
-48.5182
0
LINE
8
BLACK
6
CONTINUOUS
10
34.357
20
-48.5182
11
34.1666
21
-48.6134
0
LINE
8
BLACK
6
CONTINUOUS
10
34.1666
20
-48.6134
11
33.9761
21
-48.6134
0
LINE
8
BLACK
6
CONTINUOUS
10
33.9761
20
-48.6134
11
33.7856
21
-48.5182
0
LINE
8
BLACK
6
CONTINUOUS
10
33.7856
20
-48.5182
11
33.6904
21
-48.423
0
LINE
8
BLACK
6
CONTINUOUS
10
33.6904
20
-48.423
11
33.5951
21
-48.2325
0
LINE
8
BLACK
6
CONTINUOUS
10
33.5951
20
-48.2325
11
33.4999
21
-47.8515
0
LINE
8
BLACK
6
CONTINUOUS
10
33.4999
20
-47.8515
11
33.4999
21
-47.3753
0
LINE
8
BLACK
6
CONTINUOUS
10
33.4999
20
-47.3753
11
33.5951
21
-46.9944
0
LINE
8
BLACK
6
CONTINUOUS
10
33.5951
20
-46.9944
11
33.6904
21
-46.8039
0
LINE
8
BLACK
6
CONTINUOUS
10
33.6904
20
-46.8039
11
33.7856
21
-46.7087
0
LINE
8
BLACK
6
CONTINUOUS
10
33.7856
20
-46.7087
11
33.9761
21
-46.6134
0
LINE
8
BLACK
6
CONTINUOUS
10
35.4999
20
-48.423
11
35.5951
21
-48.5182
0
LINE
8
BLACK
6
CONTINUOUS
10
35.5951
20
-48.5182
11
35.4999
21
-48.6134
0
LINE
8
BLACK
6
CONTINUOUS
10
35.4999
20
-48.6134
11
35.4047
21
-48.5182
0
LINE
8
BLACK
6
CONTINUOUS
10
35.4047
20
-48.5182
11
35.4999
21
-48.423
0
LINE
8
BLACK
6
CONTINUOUS
10
35.4999
20
-48.423
11
35.4999
21
-48.6134
0
LINE
8
BLACK
6
CONTINUOUS
10
36.8332
20
-46.6134
11
37.0237
21
-46.6134
0
LINE
8
BLACK
6
CONTINUOUS
10
37.0237
20
-46.6134
11
37.2142
21
-46.7087
0
LINE
8
BLACK
6
CONTINUOUS
10
37.2142
20
-46.7087
11
37.3094
21
-46.8039
0
LINE
8
BLACK
6
CONTINUOUS
10
37.3094
20
-46.8039
11
37.4047
21
-46.9944
0
LINE
8
BLACK
6
CONTINUOUS
10
37.4047
20
-46.9944
11
37.4999
21
-47.3753
0
LINE
8
BLACK
6
CONTINUOUS
10
37.4999
20
-47.3753
11
37.4999
21
-47.8515
0
LINE
8
BLACK
6
CONTINUOUS
10
37.4999
20
-47.8515
11
37.4047
21
-48.2325
0
LINE
8
BLACK
6
CONTINUOUS
10
37.4047
20
-48.2325
11
37.3094
21
-48.423
0
LINE
8
BLACK
6
CONTINUOUS
10
37.3094
20
-48.423
11
37.2142
21
-48.5182
0
LINE
8
BLACK
6
CONTINUOUS
10
37.2142
20
-48.5182
11
37.0237
21
-48.6134
0
LINE
8
BLACK
6
CONTINUOUS
10
37.0237
20
-48.6134
11
36.8332
21
-48.6134
0
LINE
8
BLACK
6
CONTINUOUS
10
36.8332
20
-48.6134
11
36.6427
21
-48.5182
0
LINE
8
BLACK
6
CONTINUOUS
10
36.6427
20
-48.5182
11
36.5475
21
-48.423
0
LINE
8
BLACK
6
CONTINUOUS
10
36.5475
20
-48.423
11
36.4523
21
-48.2325
0
LINE
8
BLACK
6
CONTINUOUS
10
36.4523
20
-48.2325
11
36.357
21
-47.8515
0
LINE
8
BLACK
6
CONTINUOUS
10
36.357
20
-47.8515
11
36.357
21
-47.3753
0
LINE
8
BLACK
6
CONTINUOUS
10
36.357
20
-47.3753
11
36.4523
21
-46.9944
0
LINE
8
BLACK
6
CONTINUOUS
10
36.4523
20
-46.9944
11
36.5475
21
-46.8039
0
LINE
8
BLACK
6
CONTINUOUS
10
36.5475
20
-46.8039
11
36.6427
21
-46.7087
0
LINE
8
BLACK
6
CONTINUOUS
10
36.6427
20
-46.7087
11
36.8332
21
-46.6134
0
LINE
8
BLACK
6
CONTINUOUS
10
38.1666
20
-46.6134
11
39.4047
21
-46.6134
0
LINE
8
BLACK
6
CONTINUOUS
10
39.4047
20
-46.6134
11
38.738
21
-47.3753
0
LINE
8
BLACK
6
CONTINUOUS
10
38.738
20
-47.3753
11
39.0237
21
-47.3753
0
LINE
8
BLACK
6
CONTINUOUS
10
39.0237
20
-47.3753
11
39.2142
21
-47.4706
0
LINE
8
BLACK
6
CONTINUOUS
10
39.2142
20
-47.4706
11
39.3094
21
-47.5658
0
LINE
8
BLACK
6
CONTINUOUS
10
39.3094
20
-47.5658
11
39.4047
21
-47.7563
0
LINE
8
BLACK
6
CONTINUOUS
10
39.4047
20
-47.7563
11
39.4047
21
-48.2325
0
LINE
8
BLACK
6
CONTINUOUS
10
39.4047
20
-48.2325
11
39.3094
21
-48.423
0
LINE
8
BLACK
6
CONTINUOUS
10
39.3094
20
-48.423
11
39.2142
21
-48.5182
0
LINE
8
BLACK
6
CONTINUOUS
10
39.2142
20
-48.5182
11
39.0237
21
-48.6134
0
LINE
8
BLACK
6
CONTINUOUS
10
39.0237
20
-48.6134
11
38.4523
21
-48.6134
0
LINE
8
BLACK
6
CONTINUOUS
10
38.4523
20
-48.6134
11
38.2618
21
-48.5182
0
LINE
8
BLACK
6
CONTINUOUS
10
38.2618
20
-48.5182
11
38.1666
21
-48.423
0
LINE
8
BLACK
6
CONTINUOUS
10
40.357
20
-48.6134
11
40.738
21
-48.6134
0
LINE
8
BLACK
6
CONTINUOUS
10
40.738
20
-48.6134
11
40.9285
21
-48.5182
0
LINE
8
BLACK
6
CONTINUOUS
10
40.9285
20
-48.5182
11
41.0237
21
-48.423
0
LINE
8
BLACK
6
CONTINUOUS
10
41.0237
20
-48.423
11
41.2142
21
-48.1373
0
LINE
8
BLACK
6
CONTINUOUS
10
41.2142
20
-48.1373
11
41.3094
21
-47.7563
0
LINE
8
BLACK
6
CONTINUOUS
10
41.3094
20
-47.7563
11
41.3094
21
-46.9944
0
LINE
8
BLACK
6
CONTINUOUS
10
41.3094
20
-46.9944
11
41.2142
21
-46.8039
0
LINE
8
BLACK
6
CONTINUOUS
10
41.2142
20
-46.8039
11
41.1189
21
-46.7087
0
LINE
8
BLACK
6
CONTINUOUS
10
41.1189
20
-46.7087
11
40.9285
21
-46.6134
0
LINE
8
BLACK
6
CONTINUOUS
10
40.9285
20
-46.6134
11
40.5475
21
-46.6134
0
LINE
8
BLACK
6
CONTINUOUS
10
40.5475
20
-46.6134
11
40.357
21
-46.7087
0
LINE
8
BLACK
6
CONTINUOUS
10
40.357
20
-46.7087
11
40.2618
21
-46.8039
0
LINE
8
BLACK
6
CONTINUOUS
10
40.2618
20
-46.8039
11
40.1666
21
-46.9944
0
LINE
8
BLACK
6
CONTINUOUS
10
40.1666
20
-46.9944
11
40.1666
21
-47.4706
0
LINE
8
BLACK
6
CONTINUOUS
10
40.1666
20
-47.4706
11
40.2618
21
-47.6611
0
LINE
8
BLACK
6
CONTINUOUS
10
40.2618
20
-47.6611
11
40.357
21
-47.7563
0
LINE
8
BLACK
6
CONTINUOUS
10
40.357
20
-47.7563
11
40.5475
21
-47.8515
0
LINE
8
BLACK
6
CONTINUOUS
10
40.5475
20
-47.8515
11
40.9285
21
-47.8515
0
LINE
8
BLACK
6
CONTINUOUS
10
40.9285
20
-47.8515
11
41.1189
21
-47.7563
0
LINE
8
BLACK
6
CONTINUOUS
10
41.1189
20
-47.7563
11
41.2142
21
-47.6611
0
LINE
8
BLACK
6
CONTINUOUS
10
41.2142
20
-47.6611
11
41.3094
21
-47.4706
0
LINE
8
BLACK
6
CONTINUOUS
10
43.0237
20
-47.2801
11
43.0237
21
-48.6134
0
LINE
8
BLACK
6
CONTINUOUS
10
42.5475
20
-46.5182
11
42.0713
21
-47.9468
0
LINE
8
BLACK
6
CONTINUOUS
10
42.0713
20
-47.9468
11
43.3094
21
-47.9468
0
LINE
8
BLACK
6
CONTINUOUS
10
43.9761
20
-46.6134
11
43.9761
21
-46.9944
0
LINE
8
BLACK
6
CONTINUOUS
10
44.738
20
-46.6134
11
44.738
21
-46.9944
0
LINE
8
BLACK
6
CONTINUOUS
10
47.6904
20
-49.3753
11
47.5951
21
-49.2801
0
LINE
8
BLACK
6
CONTINUOUS
10
47.5951
20
-49.2801
11
47.4047
21
-48.9944
0
LINE
8
BLACK
6
CONTINUOUS
10
47.4047
20
-48.9944
11
47.3094
21
-48.8039
0
LINE
8
BLACK
6
CONTINUOUS
10
47.3094
20
-48.8039
11
47.2142
21
-48.5182
0
LINE
8
BLACK
6
CONTINUOUS
10
47.2142
20
-48.5182
11
47.1189
21
-48.042
0
LINE
8
BLACK
6
CONTINUOUS
10
47.1189
20
-48.042
11
47.1189
21
-47.6611
0
LINE
8
BLACK
6
CONTINUOUS
10
47.1189
20
-47.6611
11
47.2142
21
-47.1849
0
LINE
8
BLACK
6
CONTINUOUS
10
47.2142
20
-47.1849
11
47.3094
21
-46.8992
0
LINE
8
BLACK
6
CONTINUOUS
10
47.3094
20
-46.8992
11
47.4047
21
-46.7087
0
LINE
8
BLACK
6
CONTINUOUS
10
47.4047
20
-46.7087
11
47.5951
21
-46.423
0
LINE
8
BLACK
6
CONTINUOUS
10
47.5951
20
-46.423
11
47.6904
21
-46.3277
0
LINE
8
BLACK
6
CONTINUOUS
10
48.357
20
-46.8039
11
48.4523
21
-46.7087
0
LINE
8
BLACK
6
CONTINUOUS
10
48.4523
20
-46.7087
11
48.6427
21
-46.6134
0
LINE
8
BLACK
6
CONTINUOUS
10
48.6427
20
-46.6134
11
49.1189
21
-46.6134
0
LINE
8
BLACK
6
CONTINUOUS
10
49.1189
20
-46.6134
11
49.3094
21
-46.7087
0
LINE
8
BLACK
6
CONTINUOUS
10
49.3094
20
-46.7087
11
49.4047
21
-46.8039
0
LINE
8
BLACK
6
CONTINUOUS
10
49.4047
20
-46.8039
11
49.4999
21
-46.9944
0
LINE
8
BLACK
6
CONTINUOUS
10
49.4999
20
-46.9944
11
49.4999
21
-47.1849
0
LINE
8
BLACK
6
CONTINUOUS
10
49.4999
20
-47.1849
11
49.4047
21
-47.4706
0
LINE
8
BLACK
6
CONTINUOUS
10
49.4047
20
-47.4706
11
48.2618
21
-48.6134
0
LINE
8
BLACK
6
CONTINUOUS
10
48.2618
20
-48.6134
11
49.4999
21
-48.6134
0
LINE
8
BLACK
6
CONTINUOUS
10
51.8808
20
-48.6134
11
51.8808
21
-46.6134
0
LINE
8
BLACK
6
CONTINUOUS
10
52.738
20
-48.6134
11
52.738
21
-47.5658
0
LINE
8
BLACK
6
CONTINUOUS
10
52.738
20
-47.5658
11
52.6427
21
-47.3753
0
LINE
8
BLACK
6
CONTINUOUS
10
52.6427
20
-47.3753
11
52.4523
21
-47.2801
0
LINE
8
BLACK
6
CONTINUOUS
10
52.4523
20
-47.2801
11
52.1666
21
-47.2801
0
LINE
8
BLACK
6
CONTINUOUS
10
52.1666
20
-47.2801
11
51.9761
21
-47.3753
0
LINE
8
BLACK
6
CONTINUOUS
10
51.9761
20
-47.3753
11
51.8808
21
-47.4706
0
LINE
8
BLACK
6
CONTINUOUS
10
53.9761
20
-48.6134
11
53.7856
21
-48.5182
0
LINE
8
BLACK
6
CONTINUOUS
10
53.7856
20
-48.5182
11
53.6904
21
-48.423
0
LINE
8
BLACK
6
CONTINUOUS
10
53.6904
20
-48.423
11
53.5951
21
-48.2325
0
LINE
8
BLACK
6
CONTINUOUS
10
53.5951
20
-48.2325
11
53.5951
21
-47.6611
0
LINE
8
BLACK
6
CONTINUOUS
10
53.5951
20
-47.6611
11
53.6904
21
-47.4706
0
LINE
8
BLACK
6
CONTINUOUS
10
53.6904
20
-47.4706
11
53.7856
21
-47.3753
0
LINE
8
BLACK
6
CONTINUOUS
10
53.7856
20
-47.3753
11
53.9761
21
-47.2801
0
LINE
8
BLACK
6
CONTINUOUS
10
53.9761
20
-47.2801
11
54.2618
21
-47.2801
0
LINE
8
BLACK
6
CONTINUOUS
10
54.2618
20
-47.2801
11
54.4523
21
-47.3753
0
LINE
8
BLACK
6
CONTINUOUS
10
54.4523
20
-47.3753
11
54.5475
21
-47.4706
0
LINE
8
BLACK
6
CONTINUOUS
10
54.5475
20
-47.4706
11
54.6427
21
-47.6611
0
LINE
8
BLACK
6
CONTINUOUS
10
54.6427
20
-47.6611
11
54.6427
21
-48.2325
0
LINE
8
BLACK
6
CONTINUOUS
10
54.6427
20
-48.2325
11
54.5475
21
-48.423
0
LINE
8
BLACK
6
CONTINUOUS
10
54.5475
20
-48.423
11
54.4523
21
-48.5182
0
LINE
8
BLACK
6
CONTINUOUS
10
54.4523
20
-48.5182
11
54.2618
21
-48.6134
0
LINE
8
BLACK
6
CONTINUOUS
10
54.2618
20
-48.6134
11
53.9761
21
-48.6134
0
LINE
8
BLACK
6
CONTINUOUS
10
55.7856
20
-48.6134
11
55.5951
21
-48.5182
0
LINE
8
BLACK
6
CONTINUOUS
10
55.5951
20
-48.5182
11
55.4999
21
-48.3277
0
LINE
8
BLACK
6
CONTINUOUS
10
55.4999
20
-48.3277
11
55.4999
21
-46.6134
0
LINE
8
BLACK
6
CONTINUOUS
10
57.3094
20
-48.5182
11
57.1189
21
-48.6134
0
LINE
8
BLACK
6
CONTINUOUS
10
57.1189
20
-48.6134
11
56.738
21
-48.6134
0
LINE
8
BLACK
6
CONTINUOUS
10
56.738
20
-48.6134
11
56.5475
21
-48.5182
0
LINE
8
BLACK
6
CONTINUOUS
10
56.5475
20
-48.5182
11
56.4523
21
-48.3277
0
LINE
8
BLACK
6
CONTINUOUS
10
56.4523
20
-48.3277
11
56.4523
21
-47.5658
0
LINE
8
BLACK
6
CONTINUOUS
10
56.4523
20
-47.5658
11
56.5475
21
-47.3753
0
LINE
8
BLACK
6
CONTINUOUS
10
56.5475
20
-47.3753
11
56.738
21
-47.2801
0
LINE
8
BLACK
6
CONTINUOUS
10
56.738
20
-47.2801
11
57.1189
21
-47.2801
0
LINE
8
BLACK
6
CONTINUOUS
10
57.1189
20
-47.2801
11
57.3094
21
-47.3753
0
LINE
8
BLACK
6
CONTINUOUS
10
57.3094
20
-47.3753
11
57.4047
21
-47.5658
0
LINE
8
BLACK
6
CONTINUOUS
10
57.4047
20
-47.5658
11
57.4047
21
-47.7563
0
LINE
8
BLACK
6
CONTINUOUS
10
57.4047
20
-47.7563
11
56.4523
21
-47.9468
0
LINE
8
BLACK
6
CONTINUOUS
10
58.1666
20
-48.5182
11
58.357
21
-48.6134
0
LINE
8
BLACK
6
CONTINUOUS
10
58.357
20
-48.6134
11
58.738
21
-48.6134
0
LINE
8
BLACK
6
CONTINUOUS
10
58.738
20
-48.6134
11
58.9285
21
-48.5182
0
LINE
8
BLACK
6
CONTINUOUS
10
58.9285
20
-48.5182
11
59.0237
21
-48.3277
0
LINE
8
BLACK
6
CONTINUOUS
10
59.0237
20
-48.3277
11
59.0237
21
-48.2325
0
LINE
8
BLACK
6
CONTINUOUS
10
59.0237
20
-48.2325
11
58.9285
21
-48.042
0
LINE
8
BLACK
6
CONTINUOUS
10
58.9285
20
-48.042
11
58.738
21
-47.9468
0
LINE
8
BLACK
6
CONTINUOUS
10
58.738
20
-47.9468
11
58.4523
21
-47.9468
0
LINE
8
BLACK
6
CONTINUOUS
10
58.4523
20
-47.9468
11
58.2618
21
-47.8515
0
LINE
8
BLACK
6
CONTINUOUS
10
58.2618
20
-47.8515
11
58.1666
21
-47.6611
0
LINE
8
BLACK
6
CONTINUOUS
10
58.1666
20
-47.6611
11
58.1666
21
-47.5658
0
LINE
8
BLACK
6
CONTINUOUS
10
58.1666
20
-47.5658
11
58.2618
21
-47.3753
0
LINE
8
BLACK
6
CONTINUOUS
10
58.2618
20
-47.3753
11
58.4523
21
-47.2801
0
LINE
8
BLACK
6
CONTINUOUS
10
58.4523
20
-47.2801
11
58.738
21
-47.2801
0
LINE
8
BLACK
6
CONTINUOUS
10
58.738
20
-47.2801
11
58.9285
21
-47.3753
0
LINE
8
BLACK
6
CONTINUOUS
10
59.6904
20
-49.3753
11
59.7856
21
-49.2801
0
LINE
8
BLACK
6
CONTINUOUS
10
59.7856
20
-49.2801
11
59.9761
21
-48.9944
0
LINE
8
BLACK
6
CONTINUOUS
10
59.9761
20
-48.9944
11
60.0713
21
-48.8039
0
LINE
8
BLACK
6
CONTINUOUS
10
60.0713
20
-48.8039
11
60.1666
21
-48.5182
0
LINE
8
BLACK
6
CONTINUOUS
10
60.1666
20
-48.5182
11
60.2618
21
-48.042
0
LINE
8
BLACK
6
CONTINUOUS
10
60.2618
20
-48.042
11
60.2618
21
-47.6611
0
LINE
8
BLACK
6
CONTINUOUS
10
60.2618
20
-47.6611
11
60.1666
21
-47.1849
0
LINE
8
BLACK
6
CONTINUOUS
10
60.1666
20
-47.1849
11
60.0713
21
-46.8992
0
LINE
8
BLACK
6
CONTINUOUS
10
60.0713
20
-46.8992
11
59.9761
21
-46.7087
0
LINE
8
BLACK
6
CONTINUOUS
10
59.9761
20
-46.7087
11
59.7856
21
-46.423
0
LINE
8
BLACK
6
CONTINUOUS
10
59.7856
20
-46.423
11
59.6904
21
-46.3277
0
LINE
8
BLACK
6
CONTINUOUS
10
11.7824
20
-50.8048
11
11.7824
21
-49.8926
0
LINE
8
BLACK
6
CONTINUOUS
10
11.7824
20
-49.8926
11
10.8702
21
-49.8926
0
LINE
8
BLACK
6
CONTINUOUS
10
10.8702
20
-49.8926
11
10.8702
21
-50.8048
0
LINE
8
BLACK
6
CONTINUOUS
10
10.8702
20
-50.8048
11
11.7824
21
-50.8048
0
LINE
8
BLACK
6
CONTINUOUS
10
15.5951
20
-51.2534
11
14.4523
21
-51.2534
0
LINE
8
BLACK
6
CONTINUOUS
10
15.0237
20
-51.2534
11
15.0237
21
-49.2534
0
LINE
8
BLACK
6
CONTINUOUS
10
15.0237
20
-49.2534
11
14.8332
21
-49.5392
0
LINE
8
BLACK
6
CONTINUOUS
10
14.8332
20
-49.5392
11
14.6427
21
-49.7296
0
LINE
8
BLACK
6
CONTINUOUS
10
14.6427
20
-49.7296
11
14.4523
21
-49.8249
0
LINE
8
BLACK
6
CONTINUOUS
10
16.4523
20
-51.063
11
16.5475
21
-51.1582
0
LINE
8
BLACK
6
CONTINUOUS
10
16.5475
20
-51.1582
11
16.4523
21
-51.2534
0
LINE
8
BLACK
6
CONTINUOUS
10
16.4523
20
-51.2534
11
16.357
21
-51.1582
0
LINE
8
BLACK
6
CONTINUOUS
10
16.357
20
-51.1582
11
16.4523
21
-51.063
0
LINE
8
BLACK
6
CONTINUOUS
10
16.4523
20
-51.063
11
16.4523
21
-51.2534
0
LINE
8
BLACK
6
CONTINUOUS
10
17.3094
20
-49.4439
11
17.4047
21
-49.3487
0
LINE
8
BLACK
6
CONTINUOUS
10
17.4047
20
-49.3487
11
17.5951
21
-49.2534
0
LINE
8
BLACK
6
CONTINUOUS
10
17.5951
20
-49.2534
11
18.0713
21
-49.2534
0
LINE
8
BLACK
6
CONTINUOUS
10
18.0713
20
-49.2534
11
18.2618
21
-49.3487
0
LINE
8
BLACK
6
CONTINUOUS
10
18.2618
20
-49.3487
11
18.357
21
-49.4439
0
LINE
8
BLACK
6
CONTINUOUS
10
18.357
20
-49.4439
11
18.4523
21
-49.6344
0
LINE
8
BLACK
6
CONTINUOUS
10
18.4523
20
-49.6344
11
18.4523
21
-49.8249
0
LINE
8
BLACK
6
CONTINUOUS
10
18.4523
20
-49.8249
11
18.357
21
-50.1106
0
LINE
8
BLACK
6
CONTINUOUS
10
18.357
20
-50.1106
11
17.2142
21
-51.2534
0
LINE
8
BLACK
6
CONTINUOUS
10
17.2142
20
-51.2534
11
18.4523
21
-51.2534
0
LINE
8
BLACK
6
CONTINUOUS
10
19.4047
20
-51.2534
11
19.7856
21
-51.2534
0
LINE
8
BLACK
6
CONTINUOUS
10
19.7856
20
-51.2534
11
19.9761
21
-51.1582
0
LINE
8
BLACK
6
CONTINUOUS
10
19.9761
20
-51.1582
11
20.0713
21
-51.063
0
LINE
8
BLACK
6
CONTINUOUS
10
20.0713
20
-51.063
11
20.2618
21
-50.7773
0
LINE
8
BLACK
6
CONTINUOUS
10
20.2618
20
-50.7773
11
20.357
21
-50.3963
0
LINE
8
BLACK
6
CONTINUOUS
10
20.357
20
-50.3963
11
20.357
21
-49.6344
0
LINE
8
BLACK
6
CONTINUOUS
10
20.357
20
-49.6344
11
20.2618
21
-49.4439
0
LINE
8
BLACK
6
CONTINUOUS
10
20.2618
20
-49.4439
11
20.1666
21
-49.3487
0
LINE
8
BLACK
6
CONTINUOUS
10
20.1666
20
-49.3487
11
19.9761
21
-49.2534
0
LINE
8
BLACK
6
CONTINUOUS
10
19.9761
20
-49.2534
11
19.5951
21
-49.2534
0
LINE
8
BLACK
6
CONTINUOUS
10
19.5951
20
-49.2534
11
19.4047
21
-49.3487
0
LINE
8
BLACK
6
CONTINUOUS
10
19.4047
20
-49.3487
11
19.3094
21
-49.4439
0
LINE
8
BLACK
6
CONTINUOUS
10
19.3094
20
-49.4439
11
19.2142
21
-49.6344
0
LINE
8
BLACK
6
CONTINUOUS
10
19.2142
20
-49.6344
11
19.2142
21
-50.1106
0
LINE
8
BLACK
6
CONTINUOUS
10
19.2142
20
-50.1106
11
19.3094
21
-50.3011
0
LINE
8
BLACK
6
CONTINUOUS
10
19.3094
20
-50.3011
11
19.4047
21
-50.3963
0
LINE
8
BLACK
6
CONTINUOUS
10
19.4047
20
-50.3963
11
19.5951
21
-50.4915
0
LINE
8
BLACK
6
CONTINUOUS
10
19.5951
20
-50.4915
11
19.9761
21
-50.4915
0
LINE
8
BLACK
6
CONTINUOUS
10
19.9761
20
-50.4915
11
20.1666
21
-50.3963
0
LINE
8
BLACK
6
CONTINUOUS
10
20.1666
20
-50.3963
11
20.2618
21
-50.3011
0
LINE
8
BLACK
6
CONTINUOUS
10
20.2618
20
-50.3011
11
20.357
21
-50.1106
0
LINE
8
BLACK
6
CONTINUOUS
10
21.5951
20
-49.2534
11
21.7856
21
-49.2534
0
LINE
8
BLACK
6
CONTINUOUS
10
21.7856
20
-49.2534
11
21.9761
21
-49.3487
0
LINE
8
BLACK
6
CONTINUOUS
10
21.9761
20
-49.3487
11
22.0713
21
-49.4439
0
LINE
8
BLACK
6
CONTINUOUS
10
22.0713
20
-49.4439
11
22.1666
21
-49.6344
0
LINE
8
BLACK
6
CONTINUOUS
10
22.1666
20
-49.6344
11
22.2618
21
-50.0153
0
LINE
8
BLACK
6
CONTINUOUS
10
22.2618
20
-50.0153
11
22.2618
21
-50.4915
0
LINE
8
BLACK
6
CONTINUOUS
10
22.2618
20
-50.4915
11
22.1666
21
-50.8725
0
LINE
8
BLACK
6
CONTINUOUS
10
22.1666
20
-50.8725
11
22.0713
21
-51.063
0
LINE
8
BLACK
6
CONTINUOUS
10
22.0713
20
-51.063
11
21.9761
21
-51.1582
0
LINE
8
BLACK
6
CONTINUOUS
10
21.9761
20
-51.1582
11
21.7856
21
-51.2534
0
LINE
8
BLACK
6
CONTINUOUS
10
21.7856
20
-51.2534
11
21.5951
21
-51.2534
0
LINE
8
BLACK
6
CONTINUOUS
10
21.5951
20
-51.2534
11
21.4047
21
-51.1582
0
LINE
8
BLACK
6
CONTINUOUS
10
21.4047
20
-51.1582
11
21.3094
21
-51.063
0
LINE
8
BLACK
6
CONTINUOUS
10
21.3094
20
-51.063
11
21.2142
21
-50.8725
0
LINE
8
BLACK
6
CONTINUOUS
10
21.2142
20
-50.8725
11
21.1189
21
-50.4915
0
LINE
8
BLACK
6
CONTINUOUS
10
21.1189
20
-50.4915
11
21.1189
21
-50.0153
0
LINE
8
BLACK
6
CONTINUOUS
10
21.1189
20
-50.0153
11
21.2142
21
-49.6344
0
LINE
8
BLACK
6
CONTINUOUS
10
21.2142
20
-49.6344
11
21.3094
21
-49.4439
0
LINE
8
BLACK
6
CONTINUOUS
10
21.3094
20
-49.4439
11
21.4047
21
-49.3487
0
LINE
8
BLACK
6
CONTINUOUS
10
21.4047
20
-49.3487
11
21.5951
21
-49.2534
0
LINE
8
BLACK
6
CONTINUOUS
10
23.1189
20
-51.2534
11
23.1189
21
-49.9201
0
LINE
8
BLACK
6
CONTINUOUS
10
23.1189
20
-50.1106
11
23.2142
21
-50.0153
0
LINE
8
BLACK
6
CONTINUOUS
10
23.2142
20
-50.0153
11
23.4047
21
-49.9201
0
LINE
8
BLACK
6
CONTINUOUS
10
23.4047
20
-49.9201
11
23.6904
21
-49.9201
0
LINE
8
BLACK
6
CONTINUOUS
10
23.6904
20
-49.9201
11
23.8808
21
-50.0153
0
LINE
8
BLACK
6
CONTINUOUS
10
23.8808
20
-50.0153
11
23.9761
21
-50.2058
0
LINE
8
BLACK
6
CONTINUOUS
10
23.9761
20
-50.2058
11
23.9761
21
-51.2534
0
LINE
8
BLACK
6
CONTINUOUS
10
23.9761
20
-50.2058
11
24.0713
21
-50.0153
0
LINE
8
BLACK
6
CONTINUOUS
10
24.0713
20
-50.0153
11
24.2618
21
-49.9201
0
LINE
8
BLACK
6
CONTINUOUS
10
24.2618
20
-49.9201
11
24.5475
21
-49.9201
0
LINE
8
BLACK
6
CONTINUOUS
10
24.5475
20
-49.9201
11
24.738
21
-50.0153
0
LINE
8
BLACK
6
CONTINUOUS
10
24.738
20
-50.0153
11
24.8332
21
-50.2058
0
LINE
8
BLACK
6
CONTINUOUS
10
24.8332
20
-50.2058
11
24.8332
21
-51.2534
0
LINE
8
BLACK
6
CONTINUOUS
10
25.7856
20
-51.2534
11
25.7856
21
-49.9201
0
LINE
8
BLACK
6
CONTINUOUS
10
25.7856
20
-50.1106
11
25.8808
21
-50.0153
0
LINE
8
BLACK
6
CONTINUOUS
10
25.8808
20
-50.0153
11
26.0713
21
-49.9201
0
LINE
8
BLACK
6
CONTINUOUS
10
26.0713
20
-49.9201
11
26.357
21
-49.9201
0
LINE
8
BLACK
6
CONTINUOUS
10
26.357
20
-49.9201
11
26.5475
21
-50.0153
0
LINE
8
BLACK
6
CONTINUOUS
10
26.5475
20
-50.0153
11
26.6427
21
-50.2058
0
LINE
8
BLACK
6
CONTINUOUS
10
26.6427
20
-50.2058
11
26.6427
21
-51.2534
0
LINE
8
BLACK
6
CONTINUOUS
10
26.6427
20
-50.2058
11
26.738
21
-50.0153
0
LINE
8
BLACK
6
CONTINUOUS
10
26.738
20
-50.0153
11
26.9285
21
-49.9201
0
LINE
8
BLACK
6
CONTINUOUS
10
26.9285
20
-49.9201
11
27.2142
21
-49.9201
0
LINE
8
BLACK
6
CONTINUOUS
10
27.2142
20
-49.9201
11
27.4047
21
-50.0153
0
LINE
8
BLACK
6
CONTINUOUS
10
27.4047
20
-50.0153
11
27.4999
21
-50.2058
0
LINE
8
BLACK
6
CONTINUOUS
10
27.4999
20
-50.2058
11
27.4999
21
-51.2534
0
LINE
8
BLACK
6
CONTINUOUS
10
31.4047
20
-49.1582
11
29.6904
21
-51.7296
0
LINE
8
BLACK
6
CONTINUOUS
10
33.9761
20
-49.2534
11
34.1666
21
-49.2534
0
LINE
8
BLACK
6
CONTINUOUS
10
34.1666
20
-49.2534
11
34.357
21
-49.3487
0
LINE
8
BLACK
6
CONTINUOUS
10
34.357
20
-49.3487
11
34.4523
21
-49.4439
0
LINE
8
BLACK
6
CONTINUOUS
10
34.4523
20
-49.4439
11
34.5475
21
-49.6344
0
LINE
8
BLACK
6
CONTINUOUS
10
34.5475
20
-49.6344
11
34.6427
21
-50.0153
0
LINE
8
BLACK
6
CONTINUOUS
10
34.6427
20
-50.0153
11
34.6427
21
-50.4915
0
LINE
8
BLACK
6
CONTINUOUS
10
34.6427
20
-50.4915
11
34.5475
21
-50.8725
0
LINE
8
BLACK
6
CONTINUOUS
10
34.5475
20
-50.8725
11
34.4523
21
-51.063
0
LINE
8
BLACK
6
CONTINUOUS
10
34.4523
20
-51.063
11
34.357
21
-51.1582
0
LINE
8
BLACK
6
CONTINUOUS
10
34.357
20
-51.1582
11
34.1666
21
-51.2534
0
LINE
8
BLACK
6
CONTINUOUS
10
34.1666
20
-51.2534
11
33.9761
21
-51.2534
0
LINE
8
BLACK
6
CONTINUOUS
10
33.9761
20
-51.2534
11
33.7856
21
-51.1582
0
LINE
8
BLACK
6
CONTINUOUS
10
33.7856
20
-51.1582
11
33.6904
21
-51.063
0
LINE
8
BLACK
6
CONTINUOUS
10
33.6904
20
-51.063
11
33.5951
21
-50.8725
0
LINE
8
BLACK
6
CONTINUOUS
10
33.5951
20
-50.8725
11
33.4999
21
-50.4915
0
LINE
8
BLACK
6
CONTINUOUS
10
33.4999
20
-50.4915
11
33.4999
21
-50.0153
0
LINE
8
BLACK
6
CONTINUOUS
10
33.4999
20
-50.0153
11
33.5951
21
-49.6344
0
LINE
8
BLACK
6
CONTINUOUS
10
33.5951
20
-49.6344
11
33.6904
21
-49.4439
0
LINE
8
BLACK
6
CONTINUOUS
10
33.6904
20
-49.4439
11
33.7856
21
-49.3487
0
LINE
8
BLACK
6
CONTINUOUS
10
33.7856
20
-49.3487
11
33.9761
21
-49.2534
0
LINE
8
BLACK
6
CONTINUOUS
10
35.4999
20
-51.063
11
35.5951
21
-51.1582
0
LINE
8
BLACK
6
CONTINUOUS
10
35.5951
20
-51.1582
11
35.4999
21
-51.2534
0
LINE
8
BLACK
6
CONTINUOUS
10
35.4999
20
-51.2534
11
35.4047
21
-51.1582
0
LINE
8
BLACK
6
CONTINUOUS
10
35.4047
20
-51.1582
11
35.4999
21
-51.063
0
LINE
8
BLACK
6
CONTINUOUS
10
35.4999
20
-51.063
11
35.4999
21
-51.2534
0
LINE
8
BLACK
6
CONTINUOUS
10
36.8332
20
-49.2534
11
37.0237
21
-49.2534
0
LINE
8
BLACK
6
CONTINUOUS
10
37.0237
20
-49.2534
11
37.2142
21
-49.3487
0
LINE
8
BLACK
6
CONTINUOUS
10
37.2142
20
-49.3487
11
37.3094
21
-49.4439
0
LINE
8
BLACK
6
CONTINUOUS
10
37.3094
20
-49.4439
11
37.4047
21
-49.6344
0
LINE
8
BLACK
6
CONTINUOUS
10
37.4047
20
-49.6344
11
37.4999
21
-50.0153
0
LINE
8
BLACK
6
CONTINUOUS
10
37.4999
20
-50.0153
11
37.4999
21
-50.4915
0
LINE
8
BLACK
6
CONTINUOUS
10
37.4999
20
-50.4915
11
37.4047
21
-50.8725
0
LINE
8
BLACK
6
CONTINUOUS
10
37.4047
20
-50.8725
11
37.3094
21
-51.063
0
LINE
8
BLACK
6
CONTINUOUS
10
37.3094
20
-51.063
11
37.2142
21
-51.1582
0
LINE
8
BLACK
6
CONTINUOUS
10
37.2142
20
-51.1582
11
37.0237
21
-51.2534
0
LINE
8
BLACK
6
CONTINUOUS
10
37.0237
20
-51.2534
11
36.8332
21
-51.2534
0
LINE
8
BLACK
6
CONTINUOUS
10
36.8332
20
-51.2534
11
36.6427
21
-51.1582
0
LINE
8
BLACK
6
CONTINUOUS
10
36.6427
20
-51.1582
11
36.5475
21
-51.063
0
LINE
8
BLACK
6
CONTINUOUS
10
36.5475
20
-51.063
11
36.4523
21
-50.8725
0
LINE
8
BLACK
6
CONTINUOUS
10
36.4523
20
-50.8725
11
36.357
21
-50.4915
0
LINE
8
BLACK
6
CONTINUOUS
10
36.357
20
-50.4915
11
36.357
21
-50.0153
0
LINE
8
BLACK
6
CONTINUOUS
10
36.357
20
-50.0153
11
36.4523
21
-49.6344
0
LINE
8
BLACK
6
CONTINUOUS
10
36.4523
20
-49.6344
11
36.5475
21
-49.4439
0
LINE
8
BLACK
6
CONTINUOUS
10
36.5475
20
-49.4439
11
36.6427
21
-49.3487
0
LINE
8
BLACK
6
CONTINUOUS
10
36.6427
20
-49.3487
11
36.8332
21
-49.2534
0
LINE
8
BLACK
6
CONTINUOUS
10
39.3094
20
-49.2534
11
38.357
21
-49.2534
0
LINE
8
BLACK
6
CONTINUOUS
10
38.357
20
-49.2534
11
38.2618
21
-50.2058
0
LINE
8
BLACK
6
CONTINUOUS
10
38.2618
20
-50.2058
11
38.357
21
-50.1106
0
LINE
8
BLACK
6
CONTINUOUS
10
38.357
20
-50.1106
11
38.5475
21
-50.0153
0
LINE
8
BLACK
6
CONTINUOUS
10
38.5475
20
-50.0153
11
39.0237
21
-50.0153
0
LINE
8
BLACK
6
CONTINUOUS
10
39.0237
20
-50.0153
11
39.2142
21
-50.1106
0
LINE
8
BLACK
6
CONTINUOUS
10
39.2142
20
-50.1106
11
39.3094
21
-50.2058
0
LINE
8
BLACK
6
CONTINUOUS
10
39.3094
20
-50.2058
11
39.4047
21
-50.3963
0
LINE
8
BLACK
6
CONTINUOUS
10
39.4047
20
-50.3963
11
39.4047
21
-50.8725
0
LINE
8
BLACK
6
CONTINUOUS
10
39.4047
20
-50.8725
11
39.3094
21
-51.063
0
LINE
8
BLACK
6
CONTINUOUS
10
39.3094
20
-51.063
11
39.2142
21
-51.1582
0
LINE
8
BLACK
6
CONTINUOUS
10
39.2142
20
-51.1582
11
39.0237
21
-51.2534
0
LINE
8
BLACK
6
CONTINUOUS
10
39.0237
20
-51.2534
11
38.5475
21
-51.2534
0
LINE
8
BLACK
6
CONTINUOUS
10
38.5475
20
-51.2534
11
38.357
21
-51.1582
0
LINE
8
BLACK
6
CONTINUOUS
10
38.357
20
-51.1582
11
38.2618
21
-51.063
0
LINE
8
BLACK
6
CONTINUOUS
10
40.6427
20
-49.2534
11
40.8332
21
-49.2534
0
LINE
8
BLACK
6
CONTINUOUS
10
40.8332
20
-49.2534
11
41.0237
21
-49.3487
0
LINE
8
BLACK
6
CONTINUOUS
10
41.0237
20
-49.3487
11
41.1189
21
-49.4439
0
LINE
8
BLACK
6
CONTINUOUS
10
41.1189
20
-49.4439
11
41.2142
21
-49.6344
0
LINE
8
BLACK
6
CONTINUOUS
10
41.2142
20
-49.6344
11
41.3094
21
-50.0153
0
LINE
8
BLACK
6
CONTINUOUS
10
41.3094
20
-50.0153
11
41.3094
21
-50.4915
0
LINE
8
BLACK
6
CONTINUOUS
10
41.3094
20
-50.4915
11
41.2142
21
-50.8725
0
LINE
8
BLACK
6
CONTINUOUS
10
41.2142
20
-50.8725
11
41.1189
21
-51.063
0
LINE
8
BLACK
6
CONTINUOUS
10
41.1189
20
-51.063
11
41.0237
21
-51.1582
0
LINE
8
BLACK
6
CONTINUOUS
10
41.0237
20
-51.1582
11
40.8332
21
-51.2534
0
LINE
8
BLACK
6
CONTINUOUS
10
40.8332
20
-51.2534
11
40.6427
21
-51.2534
0
LINE
8
BLACK
6
CONTINUOUS
10
40.6427
20
-51.2534
11
40.4523
21
-51.1582
0
LINE
8
BLACK
6
CONTINUOUS
10
40.4523
20
-51.1582
11
40.357
21
-51.063
0
LINE
8
BLACK
6
CONTINUOUS
10
40.357
20
-51.063
11
40.2618
21
-50.8725
0
LINE
8
BLACK
6
CONTINUOUS
10
40.2618
20
-50.8725
11
40.1666
21
-50.4915
0
LINE
8
BLACK
6
CONTINUOUS
10
40.1666
20
-50.4915
11
40.1666
21
-50.0153
0
LINE
8
BLACK
6
CONTINUOUS
10
40.1666
20
-50.0153
11
40.2618
21
-49.6344
0
LINE
8
BLACK
6
CONTINUOUS
10
40.2618
20
-49.6344
11
40.357
21
-49.4439
0
LINE
8
BLACK
6
CONTINUOUS
10
40.357
20
-49.4439
11
40.4523
21
-49.3487
0
LINE
8
BLACK
6
CONTINUOUS
10
40.4523
20
-49.3487
11
40.6427
21
-49.2534
0
LINE
8
BLACK
6
CONTINUOUS
10
42.4523
20
-50.1106
11
42.2618
21
-50.0153
0
LINE
8
BLACK
6
CONTINUOUS
10
42.2618
20
-50.0153
11
42.1666
21
-49.9201
0
LINE
8
BLACK
6
CONTINUOUS
10
42.1666
20
-49.9201
11
42.0713
21
-49.7296
0
LINE
8
BLACK
6
CONTINUOUS
10
42.0713
20
-49.7296
11
42.0713
21
-49.6344
0
LINE
8
BLACK
6
CONTINUOUS
10
42.0713
20
-49.6344
11
42.1666
21
-49.4439
0
LINE
8
BLACK
6
CONTINUOUS
10
42.1666
20
-49.4439
11
42.2618
21
-49.3487
0
LINE
8
BLACK
6
CONTINUOUS
10
42.2618
20
-49.3487
11
42.4523
21
-49.2534
0
LINE
8
BLACK
6
CONTINUOUS
10
42.4523
20
-49.2534
11
42.8332
21
-49.2534
0
LINE
8
BLACK
6
CONTINUOUS
10
42.8332
20
-49.2534
11
43.0237
21
-49.3487
0
LINE
8
BLACK
6
CONTINUOUS
10
43.0237
20
-49.3487
11
43.1189
21
-49.4439
0
LINE
8
BLACK
6
CONTINUOUS
10
43.1189
20
-49.4439
11
43.2142
21
-49.6344
0
LINE
8
BLACK
6
CONTINUOUS
10
43.2142
20
-49.6344
11
43.2142
21
-49.7296
0
LINE
8
BLACK
6
CONTINUOUS
10
43.2142
20
-49.7296
11
43.1189
21
-49.9201
0
LINE
8
BLACK
6
CONTINUOUS
10
43.1189
20
-49.9201
11
43.0237
21
-50.0153
0
LINE
8
BLACK
6
CONTINUOUS
10
43.0237
20
-50.0153
11
42.8332
21
-50.1106
0
LINE
8
BLACK
6
CONTINUOUS
10
42.8332
20
-50.1106
11
42.4523
21
-50.1106
0
LINE
8
BLACK
6
CONTINUOUS
10
42.4523
20
-50.1106
11
42.2618
21
-50.2058
0
LINE
8
BLACK
6
CONTINUOUS
10
42.2618
20
-50.2058
11
42.1666
21
-50.3011
0
LINE
8
BLACK
6
CONTINUOUS
10
42.1666
20
-50.3011
11
42.0713
21
-50.4915
0
LINE
8
BLACK
6
CONTINUOUS
10
42.0713
20
-50.4915
11
42.0713
21
-50.8725
0
LINE
8
BLACK
6
CONTINUOUS
10
42.0713
20
-50.8725
11
42.1666
21
-51.063
0
LINE
8
BLACK
6
CONTINUOUS
10
42.1666
20
-51.063
11
42.2618
21
-51.1582
0
LINE
8
BLACK
6
CONTINUOUS
10
42.2618
20
-51.1582
11
42.4523
21
-51.2534
0
LINE
8
BLACK
6
CONTINUOUS
10
42.4523
20
-51.2534
11
42.8332
21
-51.2534
0
LINE
8
BLACK
6
CONTINUOUS
10
42.8332
20
-51.2534
11
43.0237
21
-51.1582
0
LINE
8
BLACK
6
CONTINUOUS
10
43.0237
20
-51.1582
11
43.1189
21
-51.063
0
LINE
8
BLACK
6
CONTINUOUS
10
43.1189
20
-51.063
11
43.2142
21
-50.8725
0
LINE
8
BLACK
6
CONTINUOUS
10
43.2142
20
-50.8725
11
43.2142
21
-50.4915
0
LINE
8
BLACK
6
CONTINUOUS
10
43.2142
20
-50.4915
11
43.1189
21
-50.3011
0
LINE
8
BLACK
6
CONTINUOUS
10
43.1189
20
-50.3011
11
43.0237
21
-50.2058
0
LINE
8
BLACK
6
CONTINUOUS
10
43.0237
20
-50.2058
11
42.8332
21
-50.1106
0
LINE
8
BLACK
6
CONTINUOUS
10
43.9761
20
-49.2534
11
43.9761
21
-49.6344
0
LINE
8
BLACK
6
CONTINUOUS
10
44.738
20
-49.2534
11
44.738
21
-49.6344
0
LINE
8
BLACK
6
CONTINUOUS
10
47.6904
20
-52.0153
11
47.5951
21
-51.9201
0
LINE
8
BLACK
6
CONTINUOUS
10
47.5951
20
-51.9201
11
47.4047
21
-51.6344
0
LINE
8
BLACK
6
CONTINUOUS
10
47.4047
20
-51.6344
11
47.3094
21
-51.4439
0
LINE
8
BLACK
6
CONTINUOUS
10
47.3094
20
-51.4439
11
47.2142
21
-51.1582
0
LINE
8
BLACK
6
CONTINUOUS
10
47.2142
20
-51.1582
11
47.1189
21
-50.682
0
LINE
8
BLACK
6
CONTINUOUS
10
47.1189
20
-50.682
11
47.1189
21
-50.3011
0
LINE
8
BLACK
6
CONTINUOUS
10
47.1189
20
-50.3011
11
47.2142
21
-49.8249
0
LINE
8
BLACK
6
CONTINUOUS
10
47.2142
20
-49.8249
11
47.3094
21
-49.5392
0
LINE
8
BLACK
6
CONTINUOUS
10
47.3094
20
-49.5392
11
47.4047
21
-49.3487
0
LINE
8
BLACK
6
CONTINUOUS
10
47.4047
20
-49.3487
11
47.5951
21
-49.063
0
LINE
8
BLACK
6
CONTINUOUS
10
47.5951
20
-49.063
11
47.6904
21
-48.9677
0
LINE
8
BLACK
6
CONTINUOUS
10
48.2618
20
-49.2534
11
49.4999
21
-49.2534
0
LINE
8
BLACK
6
CONTINUOUS
10
49.4999
20
-49.2534
11
48.8332
21
-50.0153
0
LINE
8
BLACK
6
CONTINUOUS
10
48.8332
20
-50.0153
11
49.1189
21
-50.0153
0
LINE
8
BLACK
6
CONTINUOUS
10
49.1189
20
-50.0153
11
49.3094
21
-50.1106
0
LINE
8
BLACK
6
CONTINUOUS
10
49.3094
20
-50.1106
11
49.4047
21
-50.2058
0
LINE
8
BLACK
6
CONTINUOUS
10
49.4047
20
-50.2058
11
49.4999
21
-50.3963
0
LINE
8
BLACK
6
CONTINUOUS
10
49.4999
20
-50.3963
11
49.4999
21
-50.8725
0
LINE
8
BLACK
6
CONTINUOUS
10
49.4999
20
-50.8725
11
49.4047
21
-51.063
0
LINE
8
BLACK
6
CONTINUOUS
10
49.4047
20
-51.063
11
49.3094
21
-51.1582
0
LINE
8
BLACK
6
CONTINUOUS
10
49.3094
20
-51.1582
11
49.1189
21
-51.2534
0
LINE
8
BLACK
6
CONTINUOUS
10
49.1189
20
-51.2534
11
48.5475
21
-51.2534
0
LINE
8
BLACK
6
CONTINUOUS
10
48.5475
20
-51.2534
11
48.357
21
-51.1582
0
LINE
8
BLACK
6
CONTINUOUS
10
48.357
20
-51.1582
11
48.2618
21
-51.063
0
LINE
8
BLACK
6
CONTINUOUS
10
51.8808
20
-51.2534
11
51.8808
21
-49.2534
0
LINE
8
BLACK
6
CONTINUOUS
10
52.738
20
-51.2534
11
52.738
21
-50.2058
0
LINE
8
BLACK
6
CONTINUOUS
10
52.738
20
-50.2058
11
52.6427
21
-50.0153
0
LINE
8
BLACK
6
CONTINUOUS
10
52.6427
20
-50.0153
11
52.4523
21
-49.9201
0
LINE
8
BLACK
6
CONTINUOUS
10
52.4523
20
-49.9201
11
52.1666
21
-49.9201
0
LINE
8
BLACK
6
CONTINUOUS
10
52.1666
20
-49.9201
11
51.9761
21
-50.0153
0
LINE
8
BLACK
6
CONTINUOUS
10
51.9761
20
-50.0153
11
51.8808
21
-50.1106
0
LINE
8
BLACK
6
CONTINUOUS
10
53.9761
20
-51.2534
11
53.7856
21
-51.1582
0
LINE
8
BLACK
6
CONTINUOUS
10
53.7856
20
-51.1582
11
53.6904
21
-51.063
0
LINE
8
BLACK
6
CONTINUOUS
10
53.6904
20
-51.063
11
53.5951
21
-50.8725
0
LINE
8
BLACK
6
CONTINUOUS
10
53.5951
20
-50.8725
11
53.5951
21
-50.3011
0
LINE
8
BLACK
6
CONTINUOUS
10
53.5951
20
-50.3011
11
53.6904
21
-50.1106
0
LINE
8
BLACK
6
CONTINUOUS
10
53.6904
20
-50.1106
11
53.7856
21
-50.0153
0
LINE
8
BLACK
6
CONTINUOUS
10
53.7856
20
-50.0153
11
53.9761
21
-49.9201
0
LINE
8
BLACK
6
CONTINUOUS
10
53.9761
20
-49.9201
11
54.2618
21
-49.9201
0
LINE
8
BLACK
6
CONTINUOUS
10
54.2618
20
-49.9201
11
54.4523
21
-50.0153
0
LINE
8
BLACK
6
CONTINUOUS
10
54.4523
20
-50.0153
11
54.5475
21
-50.1106
0
LINE
8
BLACK
6
CONTINUOUS
10
54.5475
20
-50.1106
11
54.6427
21
-50.3011
0
LINE
8
BLACK
6
CONTINUOUS
10
54.6427
20
-50.3011
11
54.6427
21
-50.8725
0
LINE
8
BLACK
6
CONTINUOUS
10
54.6427
20
-50.8725
11
54.5475
21
-51.063
0
LINE
8
BLACK
6
CONTINUOUS
10
54.5475
20
-51.063
11
54.4523
21
-51.1582
0
LINE
8
BLACK
6
CONTINUOUS
10
54.4523
20
-51.1582
11
54.2618
21
-51.2534
0
LINE
8
BLACK
6
CONTINUOUS
10
54.2618
20
-51.2534
11
53.9761
21
-51.2534
0
LINE
8
BLACK
6
CONTINUOUS
10
55.7856
20
-51.2534
11
55.5951
21
-51.1582
0
LINE
8
BLACK
6
CONTINUOUS
10
55.5951
20
-51.1582
11
55.4999
21
-50.9677
0
LINE
8
BLACK
6
CONTINUOUS
10
55.4999
20
-50.9677
11
55.4999
21
-49.2534
0
LINE
8
BLACK
6
CONTINUOUS
10
57.3094
20
-51.1582
11
57.1189
21
-51.2534
0
LINE
8
BLACK
6
CONTINUOUS
10
57.1189
20
-51.2534
11
56.738
21
-51.2534
0
LINE
8
BLACK
6
CONTINUOUS
10
56.738
20
-51.2534
11
56.5475
21
-51.1582
0
LINE
8
BLACK
6
CONTINUOUS
10
56.5475
20
-51.1582
11
56.4523
21
-50.9677
0
LINE
8
BLACK
6
CONTINUOUS
10
56.4523
20
-50.9677
11
56.4523
21
-50.2058
0
LINE
8
BLACK
6
CONTINUOUS
10
56.4523
20
-50.2058
11
56.5475
21
-50.0153
0
LINE
8
BLACK
6
CONTINUOUS
10
56.5475
20
-50.0153
11
56.738
21
-49.9201
0
LINE
8
BLACK
6
CONTINUOUS
10
56.738
20
-49.9201
11
57.1189
21
-49.9201
0
LINE
8
BLACK
6
CONTINUOUS
10
57.1189
20
-49.9201
11
57.3094
21
-50.0153
0
LINE
8
BLACK
6
CONTINUOUS
10
57.3094
20
-50.0153
11
57.4047
21
-50.2058
0
LINE
8
BLACK
6
CONTINUOUS
10
57.4047
20
-50.2058
11
57.4047
21
-50.3963
0
LINE
8
BLACK
6
CONTINUOUS
10
57.4047
20
-50.3963
11
56.4523
21
-50.5868
0
LINE
8
BLACK
6
CONTINUOUS
10
58.1666
20
-51.1582
11
58.357
21
-51.2534
0
LINE
8
BLACK
6
CONTINUOUS
10
58.357
20
-51.2534
11
58.738
21
-51.2534
0
LINE
8
BLACK
6
CONTINUOUS
10
58.738
20
-51.2534
11
58.9285
21
-51.1582
0
LINE
8
BLACK
6
CONTINUOUS
10
58.9285
20
-51.1582
11
59.0237
21
-50.9677
0
LINE
8
BLACK
6
CONTINUOUS
10
59.0237
20
-50.9677
11
59.0237
21
-50.8725
0
LINE
8
BLACK
6
CONTINUOUS
10
59.0237
20
-50.8725
11
58.9285
21
-50.682
0
LINE
8
BLACK
6
CONTINUOUS
10
58.9285
20
-50.682
11
58.738
21
-50.5868
0
LINE
8
BLACK
6
CONTINUOUS
10
58.738
20
-50.5868
11
58.4523
21
-50.5868
0
LINE
8
BLACK
6
CONTINUOUS
10
58.4523
20
-50.5868
11
58.2618
21
-50.4915
0
LINE
8
BLACK
6
CONTINUOUS
10
58.2618
20
-50.4915
11
58.1666
21
-50.3011
0
LINE
8
BLACK
6
CONTINUOUS
10
58.1666
20
-50.3011
11
58.1666
21
-50.2058
0
LINE
8
BLACK
6
CONTINUOUS
10
58.1666
20
-50.2058
11
58.2618
21
-50.0153
0
LINE
8
BLACK
6
CONTINUOUS
10
58.2618
20
-50.0153
11
58.4523
21
-49.9201
0
LINE
8
BLACK
6
CONTINUOUS
10
58.4523
20
-49.9201
11
58.738
21
-49.9201
0
LINE
8
BLACK
6
CONTINUOUS
10
58.738
20
-49.9201
11
58.9285
21
-50.0153
0
LINE
8
BLACK
6
CONTINUOUS
10
59.6904
20
-52.0153
11
59.7856
21
-51.9201
0
LINE
8
BLACK
6
CONTINUOUS
10
59.7856
20
-51.9201
11
59.9761
21
-51.6344
0
LINE
8
BLACK
6
CONTINUOUS
10
59.9761
20
-51.6344
11
60.0713
21
-51.4439
0
LINE
8
BLACK
6
CONTINUOUS
10
60.0713
20
-51.4439
11
60.1666
21
-51.1582
0
LINE
8
BLACK
6
CONTINUOUS
10
60.1666
20
-51.1582
11
60.2618
21
-50.682
0
LINE
8
BLACK
6
CONTINUOUS
10
60.2618
20
-50.682
11
60.2618
21
-50.3011
0
LINE
8
BLACK
6
CONTINUOUS
10
60.2618
20
-50.3011
11
60.1666
21
-49.8249
0
LINE
8
BLACK
6
CONTINUOUS
10
60.1666
20
-49.8249
11
60.0713
21
-49.5392
0
LINE
8
BLACK
6
CONTINUOUS
10
60.0713
20
-49.5392
11
59.9761
21
-49.3487
0
LINE
8
BLACK
6
CONTINUOUS
10
59.9761
20
-49.3487
11
59.7856
21
-49.063
0
LINE
8
BLACK
6
CONTINUOUS
10
59.7856
20
-49.063
11
59.6904
21
-48.9677
0
LINE
8
BLACK
6
CONTINUOUS
10
11.3213
20
-53.6387
11
11.9713
21
-52.9887
0
LINE
8
BLACK
6
CONTINUOUS
10
11.9713
20
-52.9887
11
11.3213
21
-52.3387
0
LINE
8
BLACK
6
CONTINUOUS
10
11.3213
20
-52.3387
11
10.6713
21
-52.9887
0
LINE
8
BLACK
6
CONTINUOUS
10
10.6713
20
-52.9887
11
11.3213
21
-53.6387
0
LINE
8
BLACK
6
CONTINUOUS
10
15.5951
20
-53.8934
11
14.4523
21
-53.8934
0
LINE
8
BLACK
6
CONTINUOUS
10
15.0237
20
-53.8934
11
15.0237
21
-51.8934
0
LINE
8
BLACK
6
CONTINUOUS
10
15.0237
20
-51.8934
11
14.8332
21
-52.1792
0
LINE
8
BLACK
6
CONTINUOUS
10
14.8332
20
-52.1792
11
14.6427
21
-52.3696
0
LINE
8
BLACK
6
CONTINUOUS
10
14.6427
20
-52.3696
11
14.4523
21
-52.4649
0
LINE
8
BLACK
6
CONTINUOUS
10
16.4523
20
-53.703
11
16.5475
21
-53.7982
0
LINE
8
BLACK
6
CONTINUOUS
10
16.5475
20
-53.7982
11
16.4523
21
-53.8934
0
LINE
8
BLACK
6
CONTINUOUS
10
16.4523
20
-53.8934
11
16.357
21
-53.7982
0
LINE
8
BLACK
6
CONTINUOUS
10
16.357
20
-53.7982
11
16.4523
21
-53.703
0
LINE
8
BLACK
6
CONTINUOUS
10
16.4523
20
-53.703
11
16.4523
21
-53.8934
0
LINE
8
BLACK
6
CONTINUOUS
10
17.2142
20
-51.8934
11
18.4523
21
-51.8934
0
LINE
8
BLACK
6
CONTINUOUS
10
18.4523
20
-51.8934
11
17.7856
21
-52.6553
0
LINE
8
BLACK
6
CONTINUOUS
10
17.7856
20
-52.6553
11
18.0713
21
-52.6553
0
LINE
8
BLACK
6
CONTINUOUS
10
18.0713
20
-52.6553
11
18.2618
21
-52.7506
0
LINE
8
BLACK
6
CONTINUOUS
10
18.2618
20
-52.7506
11
18.357
21
-52.8458
0
LINE
8
BLACK
6
CONTINUOUS
10
18.357
20
-52.8458
11
18.4523
21
-53.0363
0
LINE
8
BLACK
6
CONTINUOUS
10
18.4523
20
-53.0363
11
18.4523
21
-53.5125
0
LINE
8
BLACK
6
CONTINUOUS
10
18.4523
20
-53.5125
11
18.357
21
-53.703
0
LINE
8
BLACK
6
CONTINUOUS
10
18.357
20
-53.703
11
18.2618
21
-53.7982
0
LINE
8
BLACK
6
CONTINUOUS
10
18.2618
20
-53.7982
11
18.0713
21
-53.8934
0
LINE
8
BLACK
6
CONTINUOUS
10
18.0713
20
-53.8934
11
17.4999
21
-53.8934
0
LINE
8
BLACK
6
CONTINUOUS
10
17.4999
20
-53.8934
11
17.3094
21
-53.7982
0
LINE
8
BLACK
6
CONTINUOUS
10
17.3094
20
-53.7982
11
17.2142
21
-53.703
0
LINE
8
BLACK
6
CONTINUOUS
10
19.6904
20
-51.8934
11
19.8808
21
-51.8934
0
LINE
8
BLACK
6
CONTINUOUS
10
19.8808
20
-51.8934
11
20.0713
21
-51.9887
0
LINE
8
BLACK
6
CONTINUOUS
10
20.0713
20
-51.9887
11
20.1666
21
-52.0839
0
LINE
8
BLACK
6
CONTINUOUS
10
20.1666
20
-52.0839
11
20.2618
21
-52.2744
0
LINE
8
BLACK
6
CONTINUOUS
10
20.2618
20
-52.2744
11
20.357
21
-52.6553
0
LINE
8
BLACK
6
CONTINUOUS
10
20.357
20
-52.6553
11
20.357
21
-53.1315
0
LINE
8
BLACK
6
CONTINUOUS
10
20.357
20
-53.1315
11
20.2618
21
-53.5125
0
LINE
8
BLACK
6
CONTINUOUS
10
20.2618
20
-53.5125
11
20.1666
21
-53.703
0
LINE
8
BLACK
6
CONTINUOUS
10
20.1666
20
-53.703
11
20.0713
21
-53.7982
0
LINE
8
BLACK
6
CONTINUOUS
10
20.0713
20
-53.7982
11
19.8808
21
-53.8934
0
LINE
8
BLACK
6
CONTINUOUS
10
19.8808
20
-53.8934
11
19.6904
21
-53.8934
0
LINE
8
BLACK
6
CONTINUOUS
10
19.6904
20
-53.8934
11
19.4999
21
-53.7982
0
LINE
8
BLACK
6
CONTINUOUS
10
19.4999
20
-53.7982
11
19.4047
21
-53.703
0
LINE
8
BLACK
6
CONTINUOUS
10
19.4047
20
-53.703
11
19.3094
21
-53.5125
0
LINE
8
BLACK
6
CONTINUOUS
10
19.3094
20
-53.5125
11
19.2142
21
-53.1315
0
LINE
8
BLACK
6
CONTINUOUS
10
19.2142
20
-53.1315
11
19.2142
21
-52.6553
0
LINE
8
BLACK
6
CONTINUOUS
10
19.2142
20
-52.6553
11
19.3094
21
-52.2744
0
LINE
8
BLACK
6
CONTINUOUS
10
19.3094
20
-52.2744
11
19.4047
21
-52.0839
0
LINE
8
BLACK
6
CONTINUOUS
10
19.4047
20
-52.0839
11
19.4999
21
-51.9887
0
LINE
8
BLACK
6
CONTINUOUS
10
19.4999
20
-51.9887
11
19.6904
21
-51.8934
0
LINE
8
BLACK
6
CONTINUOUS
10
21.5951
20
-51.8934
11
21.7856
21
-51.8934
0
LINE
8
BLACK
6
CONTINUOUS
10
21.7856
20
-51.8934
11
21.9761
21
-51.9887
0
LINE
8
BLACK
6
CONTINUOUS
10
21.9761
20
-51.9887
11
22.0713
21
-52.0839
0
LINE
8
BLACK
6
CONTINUOUS
10
22.0713
20
-52.0839
11
22.1666
21
-52.2744
0
LINE
8
BLACK
6
CONTINUOUS
10
22.1666
20
-52.2744
11
22.2618
21
-52.6553
0
LINE
8
BLACK
6
CONTINUOUS
10
22.2618
20
-52.6553
11
22.2618
21
-53.1315
0
LINE
8
BLACK
6
CONTINUOUS
10
22.2618
20
-53.1315
11
22.1666
21
-53.5125
0
LINE
8
BLACK
6
CONTINUOUS
10
22.1666
20
-53.5125
11
22.0713
21
-53.703
0
LINE
8
BLACK
6
CONTINUOUS
10
22.0713
20
-53.703
11
21.9761
21
-53.7982
0
LINE
8
BLACK
6
CONTINUOUS
10
21.9761
20
-53.7982
11
21.7856
21
-53.8934
0
LINE
8
BLACK
6
CONTINUOUS
10
21.7856
20
-53.8934
11
21.5951
21
-53.8934
0
LINE
8
BLACK
6
CONTINUOUS
10
21.5951
20
-53.8934
11
21.4047
21
-53.7982
0
LINE
8
BLACK
6
CONTINUOUS
10
21.4047
20
-53.7982
11
21.3094
21
-53.703
0
LINE
8
BLACK
6
CONTINUOUS
10
21.3094
20
-53.703
11
21.2142
21
-53.5125
0
LINE
8
BLACK
6
CONTINUOUS
10
21.2142
20
-53.5125
11
21.1189
21
-53.1315
0
LINE
8
BLACK
6
CONTINUOUS
10
21.1189
20
-53.1315
11
21.1189
21
-52.6553
0
LINE
8
BLACK
6
CONTINUOUS
10
21.1189
20
-52.6553
11
21.2142
21
-52.2744
0
LINE
8
BLACK
6
CONTINUOUS
10
21.2142
20
-52.2744
11
21.3094
21
-52.0839
0
LINE
8
BLACK
6
CONTINUOUS
10
21.3094
20
-52.0839
11
21.4047
21
-51.9887
0
LINE
8
BLACK
6
CONTINUOUS
10
21.4047
20
-51.9887
11
21.5951
21
-51.8934
0
LINE
8
BLACK
6
CONTINUOUS
10
23.1189
20
-53.8934
11
23.1189
21
-52.5601
0
LINE
8
BLACK
6
CONTINUOUS
10
23.1189
20
-52.7506
11
23.2142
21
-52.6553
0
LINE
8
BLACK
6
CONTINUOUS
10
23.2142
20
-52.6553
11
23.4047
21
-52.5601
0
LINE
8
BLACK
6
CONTINUOUS
10
23.4047
20
-52.5601
11
23.6904
21
-52.5601
0
LINE
8
BLACK
6
CONTINUOUS
10
23.6904
20
-52.5601
11
23.8808
21
-52.6553
0
LINE
8
BLACK
6
CONTINUOUS
10
23.8808
20
-52.6553
11
23.9761
21
-52.8458
0
LINE
8
BLACK
6
CONTINUOUS
10
23.9761
20
-52.8458
11
23.9761
21
-53.8934
0
LINE
8
BLACK
6
CONTINUOUS
10
23.9761
20
-52.8458
11
24.0713
21
-52.6553
0
LINE
8
BLACK
6
CONTINUOUS
10
24.0713
20
-52.6553
11
24.2618
21
-52.5601
0
LINE
8
BLACK
6
CONTINUOUS
10
24.2618
20
-52.5601
11
24.5475
21
-52.5601
0
LINE
8
BLACK
6
CONTINUOUS
10
24.5475
20
-52.5601
11
24.738
21
-52.6553
0
LINE
8
BLACK
6
CONTINUOUS
10
24.738
20
-52.6553
11
24.8332
21
-52.8458
0
LINE
8
BLACK
6
CONTINUOUS
10
24.8332
20
-52.8458
11
24.8332
21
-53.8934
0
LINE
8
BLACK
6
CONTINUOUS
10
25.7856
20
-53.8934
11
25.7856
21
-52.5601
0
LINE
8
BLACK
6
CONTINUOUS
10
25.7856
20
-52.7506
11
25.8808
21
-52.6553
0
LINE
8
BLACK
6
CONTINUOUS
10
25.8808
20
-52.6553
11
26.0713
21
-52.5601
0
LINE
8
BLACK
6
CONTINUOUS
10
26.0713
20
-52.5601
11
26.357
21
-52.5601
0
LINE
8
BLACK
6
CONTINUOUS
10
26.357
20
-52.5601
11
26.5475
21
-52.6553
0
LINE
8
BLACK
6
CONTINUOUS
10
26.5475
20
-52.6553
11
26.6427
21
-52.8458
0
LINE
8
BLACK
6
CONTINUOUS
10
26.6427
20
-52.8458
11
26.6427
21
-53.8934
0
LINE
8
BLACK
6
CONTINUOUS
10
26.6427
20
-52.8458
11
26.738
21
-52.6553
0
LINE
8
BLACK
6
CONTINUOUS
10
26.738
20
-52.6553
11
26.9285
21
-52.5601
0
LINE
8
BLACK
6
CONTINUOUS
10
26.9285
20
-52.5601
11
27.2142
21
-52.5601
0
LINE
8
BLACK
6
CONTINUOUS
10
27.2142
20
-52.5601
11
27.4047
21
-52.6553
0
LINE
8
BLACK
6
CONTINUOUS
10
27.4047
20
-52.6553
11
27.4999
21
-52.8458
0
LINE
8
BLACK
6
CONTINUOUS
10
27.4999
20
-52.8458
11
27.4999
21
-53.8934
0
LINE
8
BLACK
6
CONTINUOUS
10
31.4047
20
-51.7982
11
29.6904
21
-54.3696
0
LINE
8
BLACK
6
CONTINUOUS
10
33.9761
20
-51.8934
11
34.1666
21
-51.8934
0
LINE
8
BLACK
6
CONTINUOUS
10
34.1666
20
-51.8934
11
34.357
21
-51.9887
0
LINE
8
BLACK
6
CONTINUOUS
10
34.357
20
-51.9887
11
34.4523
21
-52.0839
0
LINE
8
BLACK
6
CONTINUOUS
10
34.4523
20
-52.0839
11
34.5475
21
-52.2744
0
LINE
8
BLACK
6
CONTINUOUS
10
34.5475
20
-52.2744
11
34.6427
21
-52.6553
0
LINE
8
BLACK
6
CONTINUOUS
10
34.6427
20
-52.6553
11
34.6427
21
-53.1315
0
LINE
8
BLACK
6
CONTINUOUS
10
34.6427
20
-53.1315
11
34.5475
21
-53.5125
0
LINE
8
BLACK
6
CONTINUOUS
10
34.5475
20
-53.5125
11
34.4523
21
-53.703
0
LINE
8
BLACK
6
CONTINUOUS
10
34.4523
20
-53.703
11
34.357
21
-53.7982
0
LINE
8
BLACK
6
CONTINUOUS
10
34.357
20
-53.7982
11
34.1666
21
-53.8934
0
LINE
8
BLACK
6
CONTINUOUS
10
34.1666
20
-53.8934
11
33.9761
21
-53.8934
0
LINE
8
BLACK
6
CONTINUOUS
10
33.9761
20
-53.8934
11
33.7856
21
-53.7982
0
LINE
8
BLACK
6
CONTINUOUS
10
33.7856
20
-53.7982
11
33.6904
21
-53.703
0
LINE
8
BLACK
6
CONTINUOUS
10
33.6904
20
-53.703
11
33.5951
21
-53.5125
0
LINE
8
BLACK
6
CONTINUOUS
10
33.5951
20
-53.5125
11
33.4999
21
-53.1315
0
LINE
8
BLACK
6
CONTINUOUS
10
33.4999
20
-53.1315
11
33.4999
21
-52.6553
0
LINE
8
BLACK
6
CONTINUOUS
10
33.4999
20
-52.6553
11
33.5951
21
-52.2744
0
LINE
8
BLACK
6
CONTINUOUS
10
33.5951
20
-52.2744
11
33.6904
21
-52.0839
0
LINE
8
BLACK
6
CONTINUOUS
10
33.6904
20
-52.0839
11
33.7856
21
-51.9887
0
LINE
8
BLACK
6
CONTINUOUS
10
33.7856
20
-51.9887
11
33.9761
21
-51.8934
0
LINE
8
BLACK
6
CONTINUOUS
10
35.4999
20
-53.703
11
35.5951
21
-53.7982
0
LINE
8
BLACK
6
CONTINUOUS
10
35.5951
20
-53.7982
11
35.4999
21
-53.8934
0
LINE
8
BLACK
6
CONTINUOUS
10
35.4999
20
-53.8934
11
35.4047
21
-53.7982
0
LINE
8
BLACK
6
CONTINUOUS
10
35.4047
20
-53.7982
11
35.4999
21
-53.703
0
LINE
8
BLACK
6
CONTINUOUS
10
35.4999
20
-53.703
11
35.4999
21
-53.8934
0
LINE
8
BLACK
6
CONTINUOUS
10
36.8332
20
-51.8934
11
37.0237
21
-51.8934
0
LINE
8
BLACK
6
CONTINUOUS
10
37.0237
20
-51.8934
11
37.2142
21
-51.9887
0
LINE
8
BLACK
6
CONTINUOUS
10
37.2142
20
-51.9887
11
37.3094
21
-52.0839
0
LINE
8
BLACK
6
CONTINUOUS
10
37.3094
20
-52.0839
11
37.4047
21
-52.2744
0
LINE
8
BLACK
6
CONTINUOUS
10
37.4047
20
-52.2744
11
37.4999
21
-52.6553
0
LINE
8
BLACK
6
CONTINUOUS
10
37.4999
20
-52.6553
11
37.4999
21
-53.1315
0
LINE
8
BLACK
6
CONTINUOUS
10
37.4999
20
-53.1315
11
37.4047
21
-53.5125
0
LINE
8
BLACK
6
CONTINUOUS
10
37.4047
20
-53.5125
11
37.3094
21
-53.703
0
LINE
8
BLACK
6
CONTINUOUS
10
37.3094
20
-53.703
11
37.2142
21
-53.7982
0
LINE
8
BLACK
6
CONTINUOUS
10
37.2142
20
-53.7982
11
37.0237
21
-53.8934
0
LINE
8
BLACK
6
CONTINUOUS
10
37.0237
20
-53.8934
11
36.8332
21
-53.8934
0
LINE
8
BLACK
6
CONTINUOUS
10
36.8332
20
-53.8934
11
36.6427
21
-53.7982
0
LINE
8
BLACK
6
CONTINUOUS
10
36.6427
20
-53.7982
11
36.5475
21
-53.703
0
LINE
8
BLACK
6
CONTINUOUS
10
36.5475
20
-53.703
11
36.4523
21
-53.5125
0
LINE
8
BLACK
6
CONTINUOUS
10
36.4523
20
-53.5125
11
36.357
21
-53.1315
0
LINE
8
BLACK
6
CONTINUOUS
10
36.357
20
-53.1315
11
36.357
21
-52.6553
0
LINE
8
BLACK
6
CONTINUOUS
10
36.357
20
-52.6553
11
36.4523
21
-52.2744
0
LINE
8
BLACK
6
CONTINUOUS
10
36.4523
20
-52.2744
11
36.5475
21
-52.0839
0
LINE
8
BLACK
6
CONTINUOUS
10
36.5475
20
-52.0839
11
36.6427
21
-51.9887
0
LINE
8
BLACK
6
CONTINUOUS
10
36.6427
20
-51.9887
11
36.8332
21
-51.8934
0
LINE
8
BLACK
6
CONTINUOUS
10
39.3094
20
-51.8934
11
38.357
21
-51.8934
0
LINE
8
BLACK
6
CONTINUOUS
10
38.357
20
-51.8934
11
38.2618
21
-52.8458
0
LINE
8
BLACK
6
CONTINUOUS
10
38.2618
20
-52.8458
11
38.357
21
-52.7506
0
LINE
8
BLACK
6
CONTINUOUS
10
38.357
20
-52.7506
11
38.5475
21
-52.6553
0
LINE
8
BLACK
6
CONTINUOUS
10
38.5475
20
-52.6553
11
39.0237
21
-52.6553
0
LINE
8
BLACK
6
CONTINUOUS
10
39.0237
20
-52.6553
11
39.2142
21
-52.7506
0
LINE
8
BLACK
6
CONTINUOUS
10
39.2142
20
-52.7506
11
39.3094
21
-52.8458
0
LINE
8
BLACK
6
CONTINUOUS
10
39.3094
20
-52.8458
11
39.4047
21
-53.0363
0
LINE
8
BLACK
6
CONTINUOUS
10
39.4047
20
-53.0363
11
39.4047
21
-53.5125
0
LINE
8
BLACK
6
CONTINUOUS
10
39.4047
20
-53.5125
11
39.3094
21
-53.703
0
LINE
8
BLACK
6
CONTINUOUS
10
39.3094
20
-53.703
11
39.2142
21
-53.7982
0
LINE
8
BLACK
6
CONTINUOUS
10
39.2142
20
-53.7982
11
39.0237
21
-53.8934
0
LINE
8
BLACK
6
CONTINUOUS
10
39.0237
20
-53.8934
11
38.5475
21
-53.8934
0
LINE
8
BLACK
6
CONTINUOUS
10
38.5475
20
-53.8934
11
38.357
21
-53.7982
0
LINE
8
BLACK
6
CONTINUOUS
10
38.357
20
-53.7982
11
38.2618
21
-53.703
0
LINE
8
BLACK
6
CONTINUOUS
10
41.3094
20
-53.8934
11
40.1666
21
-53.8934
0
LINE
8
BLACK
6
CONTINUOUS
10
40.738
20
-53.8934
11
40.738
21
-51.8934
0
LINE
8
BLACK
6
CONTINUOUS
10
40.738
20
-51.8934
11
40.5475
21
-52.1792
0
LINE
8
BLACK
6
CONTINUOUS
10
40.5475
20
-52.1792
11
40.357
21
-52.3696
0
LINE
8
BLACK
6
CONTINUOUS
10
40.357
20
-52.3696
11
40.1666
21
-52.4649
0
LINE
8
BLACK
6
CONTINUOUS
10
42.0713
20
-52.0839
11
42.1666
21
-51.9887
0
LINE
8
BLACK
6
CONTINUOUS
10
42.1666
20
-51.9887
11
42.357
21
-51.8934
0
LINE
8
BLACK
6
CONTINUOUS
10
42.357
20
-51.8934
11
42.8332
21
-51.8934
0
LINE
8
BLACK
6
CONTINUOUS
10
42.8332
20
-51.8934
11
43.0237
21
-51.9887
0
LINE
8
BLACK
6
CONTINUOUS
10
43.0237
20
-51.9887
11
43.1189
21
-52.0839
0
LINE
8
BLACK
6
CONTINUOUS
10
43.1189
20
-52.0839
11
43.2142
21
-52.2744
0
LINE
8
BLACK
6
CONTINUOUS
10
43.2142
20
-52.2744
11
43.2142
21
-52.4649
0
LINE
8
BLACK
6
CONTINUOUS
10
43.2142
20
-52.4649
11
43.1189
21
-52.7506
0
LINE
8
BLACK
6
CONTINUOUS
10
43.1189
20
-52.7506
11
41.9761
21
-53.8934
0
LINE
8
BLACK
6
CONTINUOUS
10
41.9761
20
-53.8934
11
43.2142
21
-53.8934
0
LINE
8
BLACK
6
CONTINUOUS
10
43.9761
20
-51.8934
11
43.9761
21
-52.2744
0
LINE
8
BLACK
6
CONTINUOUS
10
44.738
20
-51.8934
11
44.738
21
-52.2744
0
LINE
8
BLACK
6
CONTINUOUS
10
47.6904
20
-54.6553
11
47.5951
21
-54.5601
0
LINE
8
BLACK
6
CONTINUOUS
10
47.5951
20
-54.5601
11
47.4047
21
-54.2744
0
LINE
8
BLACK
6
CONTINUOUS
10
47.4047
20
-54.2744
11
47.3094
21
-54.0839
0
LINE
8
BLACK
6
CONTINUOUS
10
47.3094
20
-54.0839
11
47.2142
21
-53.7982
0
LINE
8
BLACK
6
CONTINUOUS
10
47.2142
20
-53.7982
11
47.1189
21
-53.322
0
LINE
8
BLACK
6
CONTINUOUS
10
47.1189
20
-53.322
11
47.1189
21
-52.9411
0
LINE
8
BLACK
6
CONTINUOUS
10
47.1189
20
-52.9411
11
47.2142
21
-52.4649
0
LINE
8
BLACK
6
CONTINUOUS
10
47.2142
20
-52.4649
11
47.3094
21
-52.1792
0
LINE
8
BLACK
6
CONTINUOUS
10
47.3094
20
-52.1792
11
47.4047
21
-51.9887
0
LINE
8
BLACK
6
CONTINUOUS
10
47.4047
20
-51.9887
11
47.5951
21
-51.703
0
LINE
8
BLACK
6
CONTINUOUS
10
47.5951
20
-51.703
11
47.6904
21
-51.6077
0
LINE
8
BLACK
6
CONTINUOUS
10
48.2618
20
-51.8934
11
49.4999
21
-51.8934
0
LINE
8
BLACK
6
CONTINUOUS
10
49.4999
20
-51.8934
11
48.8332
21
-52.6553
0
LINE
8
BLACK
6
CONTINUOUS
10
48.8332
20
-52.6553
11
49.1189
21
-52.6553
0
LINE
8
BLACK
6
CONTINUOUS
10
49.1189
20
-52.6553
11
49.3094
21
-52.7506
0
LINE
8
BLACK
6
CONTINUOUS
10
49.3094
20
-52.7506
11
49.4047
21
-52.8458
0
LINE
8
BLACK
6
CONTINUOUS
10
49.4047
20
-52.8458
11
49.4999
21
-53.0363
0
LINE
8
BLACK
6
CONTINUOUS
10
49.4999
20
-53.0363
11
49.4999
21
-53.5125
0
LINE
8
BLACK
6
CONTINUOUS
10
49.4999
20
-53.5125
11
49.4047
21
-53.703
0
LINE
8
BLACK
6
CONTINUOUS
10
49.4047
20
-53.703
11
49.3094
21
-53.7982
0
LINE
8
BLACK
6
CONTINUOUS
10
49.3094
20
-53.7982
11
49.1189
21
-53.8934
0
LINE
8
BLACK
6
CONTINUOUS
10
49.1189
20
-53.8934
11
48.5475
21
-53.8934
0
LINE
8
BLACK
6
CONTINUOUS
10
48.5475
20
-53.8934
11
48.357
21
-53.7982
0
LINE
8
BLACK
6
CONTINUOUS
10
48.357
20
-53.7982
11
48.2618
21
-53.703
0
LINE
8
BLACK
6
CONTINUOUS
10
51.8808
20
-53.8934
11
51.8808
21
-51.8934
0
LINE
8
BLACK
6
CONTINUOUS
10
52.738
20
-53.8934
11
52.738
21
-52.8458
0
LINE
8
BLACK
6
CONTINUOUS
10
52.738
20
-52.8458
11
52.6427
21
-52.6553
0
LINE
8
BLACK
6
CONTINUOUS
10
52.6427
20
-52.6553
11
52.4523
21
-52.5601
0
LINE
8
BLACK
6
CONTINUOUS
10
52.4523
20
-52.5601
11
52.1666
21
-52.5601
0
LINE
8
BLACK
6
CONTINUOUS
10
52.1666
20
-52.5601
11
51.9761
21
-52.6553
0
LINE
8
BLACK
6
CONTINUOUS
10
51.9761
20
-52.6553
11
51.8808
21
-52.7506
0
LINE
8
BLACK
6
CONTINUOUS
10
53.9761
20
-53.8934
11
53.7856
21
-53.7982
0
LINE
8
BLACK
6
CONTINUOUS
10
53.7856
20
-53.7982
11
53.6904
21
-53.703
0
LINE
8
BLACK
6
CONTINUOUS
10
53.6904
20
-53.703
11
53.5951
21
-53.5125
0
LINE
8
BLACK
6
CONTINUOUS
10
53.5951
20
-53.5125
11
53.5951
21
-52.9411
0
LINE
8
BLACK
6
CONTINUOUS
10
53.5951
20
-52.9411
11
53.6904
21
-52.7506
0
LINE
8
BLACK
6
CONTINUOUS
10
53.6904
20
-52.7506
11
53.7856
21
-52.6553
0
LINE
8
BLACK
6
CONTINUOUS
10
53.7856
20
-52.6553
11
53.9761
21
-52.5601
0
LINE
8
BLACK
6
CONTINUOUS
10
53.9761
20
-52.5601
11
54.2618
21
-52.5601
0
LINE
8
BLACK
6
CONTINUOUS
10
54.2618
20
-52.5601
11
54.4523
21
-52.6553
0
LINE
8
BLACK
6
CONTINUOUS
10
54.4523
20
-52.6553
11
54.5475
21
-52.7506
0
LINE
8
BLACK
6
CONTINUOUS
10
54.5475
20
-52.7506
11
54.6427
21
-52.9411
0
LINE
8
BLACK
6
CONTINUOUS
10
54.6427
20
-52.9411
11
54.6427
21
-53.5125
0
LINE
8
BLACK
6
CONTINUOUS
10
54.6427
20
-53.5125
11
54.5475
21
-53.703
0
LINE
8
BLACK
6
CONTINUOUS
10
54.5475
20
-53.703
11
54.4523
21
-53.7982
0
LINE
8
BLACK
6
CONTINUOUS
10
54.4523
20
-53.7982
11
54.2618
21
-53.8934
0
LINE
8
BLACK
6
CONTINUOUS
10
54.2618
20
-53.8934
11
53.9761
21
-53.8934
0
LINE
8
BLACK
6
CONTINUOUS
10
55.7856
20
-53.8934
11
55.5951
21
-53.7982
0
LINE
8
BLACK
6
CONTINUOUS
10
55.5951
20
-53.7982
11
55.4999
21
-53.6077
0
LINE
8
BLACK
6
CONTINUOUS
10
55.4999
20
-53.6077
11
55.4999
21
-51.8934
0
LINE
8
BLACK
6
CONTINUOUS
10
57.3094
20
-53.7982
11
57.1189
21
-53.8934
0
LINE
8
BLACK
6
CONTINUOUS
10
57.1189
20
-53.8934
11
56.738
21
-53.8934
0
LINE
8
BLACK
6
CONTINUOUS
10
56.738
20
-53.8934
11
56.5475
21
-53.7982
0
LINE
8
BLACK
6
CONTINUOUS
10
56.5475
20
-53.7982
11
56.4523
21
-53.6077
0
LINE
8
BLACK
6
CONTINUOUS
10
56.4523
20
-53.6077
11
56.4523
21
-52.8458
0
LINE
8
BLACK
6
CONTINUOUS
10
56.4523
20
-52.8458
11
56.5475
21
-52.6553
0
LINE
8
BLACK
6
CONTINUOUS
10
56.5475
20
-52.6553
11
56.738
21
-52.5601
0
LINE
8
BLACK
6
CONTINUOUS
10
56.738
20
-52.5601
11
57.1189
21
-52.5601
0
LINE
8
BLACK
6
CONTINUOUS
10
57.1189
20
-52.5601
11
57.3094
21
-52.6553
0
LINE
8
BLACK
6
CONTINUOUS
10
57.3094
20
-52.6553
11
57.4047
21
-52.8458
0
LINE
8
BLACK
6
CONTINUOUS
10
57.4047
20
-52.8458
11
57.4047
21
-53.0363
0
LINE
8
BLACK
6
CONTINUOUS
10
57.4047
20
-53.0363
11
56.4523
21
-53.2268
0
LINE
8
BLACK
6
CONTINUOUS
10
58.1666
20
-53.7982
11
58.357
21
-53.8934
0
LINE
8
BLACK
6
CONTINUOUS
10
58.357
20
-53.8934
11
58.738
21
-53.8934
0
LINE
8
BLACK
6
CONTINUOUS
10
58.738
20
-53.8934
11
58.9285
21
-53.7982
0
LINE
8
BLACK
6
CONTINUOUS
10
58.9285
20
-53.7982
11
59.0237
21
-53.6077
0
LINE
8
BLACK
6
CONTINUOUS
10
59.0237
20
-53.6077
11
59.0237
21
-53.5125
0
LINE
8
BLACK
6
CONTINUOUS
10
59.0237
20
-53.5125
11
58.9285
21
-53.322
0
LINE
8
BLACK
6
CONTINUOUS
10
58.9285
20
-53.322
11
58.738
21
-53.2268
0
LINE
8
BLACK
6
CONTINUOUS
10
58.738
20
-53.2268
11
58.4523
21
-53.2268
0
LINE
8
BLACK
6
CONTINUOUS
10
58.4523
20
-53.2268
11
58.2618
21
-53.1315
0
LINE
8
BLACK
6
CONTINUOUS
10
58.2618
20
-53.1315
11
58.1666
21
-52.9411
0
LINE
8
BLACK
6
CONTINUOUS
10
58.1666
20
-52.9411
11
58.1666
21
-52.8458
0
LINE
8
BLACK
6
CONTINUOUS
10
58.1666
20
-52.8458
11
58.2618
21
-52.6553
0
LINE
8
BLACK
6
CONTINUOUS
10
58.2618
20
-52.6553
11
58.4523
21
-52.5601
0
LINE
8
BLACK
6
CONTINUOUS
10
58.4523
20
-52.5601
11
58.738
21
-52.5601
0
LINE
8
BLACK
6
CONTINUOUS
10
58.738
20
-52.5601
11
58.9285
21
-52.6553
0
LINE
8
BLACK
6
CONTINUOUS
10
59.6904
20
-54.6553
11
59.7856
21
-54.5601
0
LINE
8
BLACK
6
CONTINUOUS
10
59.7856
20
-54.5601
11
59.9761
21
-54.2744
0
LINE
8
BLACK
6
CONTINUOUS
10
59.9761
20
-54.2744
11
60.0713
21
-54.0839
0
LINE
8
BLACK
6
CONTINUOUS
10
60.0713
20
-54.0839
11
60.1666
21
-53.7982
0
LINE
8
BLACK
6
CONTINUOUS
10
60.1666
20
-53.7982
11
60.2618
21
-53.322
0
LINE
8
BLACK
6
CONTINUOUS
10
60.2618
20
-53.322
11
60.2618
21
-52.9411
0
LINE
8
BLACK
6
CONTINUOUS
10
60.2618
20
-52.9411
11
60.1666
21
-52.4649
0
LINE
8
BLACK
6
CONTINUOUS
10
60.1666
20
-52.4649
11
60.0713
21
-52.1792
0
LINE
8
BLACK
6
CONTINUOUS
10
60.0713
20
-52.1792
11
59.9761
21
-51.9887
0
LINE
8
BLACK
6
CONTINUOUS
10
59.9761
20
-51.9887
11
59.7856
21
-51.703
0
LINE
8
BLACK
6
CONTINUOUS
10
59.7856
20
-51.703
11
59.6904
21
-51.6077
0
LINE
8
BLACK
6
CONTINUOUS
10
10.5713
20
-54.9287
11
11.9713
21
-56.3287
0
LINE
8
BLACK
6
CONTINUOUS
10
11.9713
20
-54.9287
11
10.5713
21
-56.3287
0
CIRCLE
8
BLACK
10
11.2713
20
-55.6287
40
0.7
0
LINE
8
BLACK
6
CONTINUOUS
10
15.5951
20
-56.5334
11
14.4523
21
-56.5334
0
LINE
8
BLACK
6
CONTINUOUS
10
15.0237
20
-56.5334
11
15.0237
21
-54.5334
0
LINE
8
BLACK
6
CONTINUOUS
10
15.0237
20
-54.5334
11
14.8332
21
-54.8192
0
LINE
8
BLACK
6
CONTINUOUS
10
14.8332
20
-54.8192
11
14.6427
21
-55.0096
0
LINE
8
BLACK
6
CONTINUOUS
10
14.6427
20
-55.0096
11
14.4523
21
-55.1049
0
LINE
8
BLACK
6
CONTINUOUS
10
16.4523
20
-56.343
11
16.5475
21
-56.4382
0
LINE
8
BLACK
6
CONTINUOUS
10
16.5475
20
-56.4382
11
16.4523
21
-56.5334
0
LINE
8
BLACK
6
CONTINUOUS
10
16.4523
20
-56.5334
11
16.357
21
-56.4382
0
LINE
8
BLACK
6
CONTINUOUS
10
16.357
20
-56.4382
11
16.4523
21
-56.343
0
LINE
8
BLACK
6
CONTINUOUS
10
16.4523
20
-56.343
11
16.4523
21
-56.5334
0
LINE
8
BLACK
6
CONTINUOUS
10
18.2618
20
-55.2001
11
18.2618
21
-56.5334
0
LINE
8
BLACK
6
CONTINUOUS
10
17.7856
20
-54.4382
11
17.3094
21
-55.8668
0
LINE
8
BLACK
6
CONTINUOUS
10
17.3094
20
-55.8668
11
18.5475
21
-55.8668
0
LINE
8
BLACK
6
CONTINUOUS
10
19.6904
20
-54.5334
11
19.8808
21
-54.5334
0
LINE
8
BLACK
6
CONTINUOUS
10
19.8808
20
-54.5334
11
20.0713
21
-54.6287
0
LINE
8
BLACK
6
CONTINUOUS
10
20.0713
20
-54.6287
11
20.1666
21
-54.7239
0
LINE
8
BLACK
6
CONTINUOUS
10
20.1666
20
-54.7239
11
20.2618
21
-54.9144
0
LINE
8
BLACK
6
CONTINUOUS
10
20.2618
20
-54.9144
11
20.357
21
-55.2953
0
LINE
8
BLACK
6
CONTINUOUS
10
20.357
20
-55.2953
11
20.357
21
-55.7715
0
LINE
8
BLACK
6
CONTINUOUS
10
20.357
20
-55.7715
11
20.2618
21
-56.1525
0
LINE
8
BLACK
6
CONTINUOUS
10
20.2618
20
-56.1525
11
20.1666
21
-56.343
0
LINE
8
BLACK
6
CONTINUOUS
10
20.1666
20
-56.343
11
20.0713
21
-56.4382
0
LINE
8
BLACK
6
CONTINUOUS
10
20.0713
20
-56.4382
11
19.8808
21
-56.5334
0
LINE
8
BLACK
6
CONTINUOUS
10
19.8808
20
-56.5334
11
19.6904
21
-56.5334
0
LINE
8
BLACK
6
CONTINUOUS
10
19.6904
20
-56.5334
11
19.4999
21
-56.4382
0
LINE
8
BLACK
6
CONTINUOUS
10
19.4999
20
-56.4382
11
19.4047
21
-56.343
0
LINE
8
BLACK
6
CONTINUOUS
10
19.4047
20
-56.343
11
19.3094
21
-56.1525
0
LINE
8
BLACK
6
CONTINUOUS
10
19.3094
20
-56.1525
11
19.2142
21
-55.7715
0
LINE
8
BLACK
6
CONTINUOUS
10
19.2142
20
-55.7715
11
19.2142
21
-55.2953
0
LINE
8
BLACK
6
CONTINUOUS
10
19.2142
20
-55.2953
11
19.3094
21
-54.9144
0
LINE
8
BLACK
6
CONTINUOUS
10
19.3094
20
-54.9144
11
19.4047
21
-54.7239
0
LINE
8
BLACK
6
CONTINUOUS
10
19.4047
20
-54.7239
11
19.4999
21
-54.6287
0
LINE
8
BLACK
6
CONTINUOUS
10
19.4999
20
-54.6287
11
19.6904
21
-54.5334
0
LINE
8
BLACK
6
CONTINUOUS
10
21.5951
20
-54.5334
11
21.7856
21
-54.5334
0
LINE
8
BLACK
6
CONTINUOUS
10
21.7856
20
-54.5334
11
21.9761
21
-54.6287
0
LINE
8
BLACK
6
CONTINUOUS
10
21.9761
20
-54.6287
11
22.0713
21
-54.7239
0
LINE
8
BLACK
6
CONTINUOUS
10
22.0713
20
-54.7239
11
22.1666
21
-54.9144
0
LINE
8
BLACK
6
CONTINUOUS
10
22.1666
20
-54.9144
11
22.2618
21
-55.2953
0
LINE
8
BLACK
6
CONTINUOUS
10
22.2618
20
-55.2953
11
22.2618
21
-55.7715
0
LINE
8
BLACK
6
CONTINUOUS
10
22.2618
20
-55.7715
11
22.1666
21
-56.1525
0
LINE
8
BLACK
6
CONTINUOUS
10
22.1666
20
-56.1525
11
22.0713
21
-56.343
0
LINE
8
BLACK
6
CONTINUOUS
10
22.0713
20
-56.343
11
21.9761
21
-56.4382
0
LINE
8
BLACK
6
CONTINUOUS
10
21.9761
20
-56.4382
11
21.7856
21
-56.5334
0
LINE
8
BLACK
6
CONTINUOUS
10
21.7856
20
-56.5334
11
21.5951
21
-56.5334
0
LINE
8
BLACK
6
CONTINUOUS
10
21.5951
20
-56.5334
11
21.4047
21
-56.4382
0
LINE
8
BLACK
6
CONTINUOUS
10
21.4047
20
-56.4382
11
21.3094
21
-56.343
0
LINE
8
BLACK
6
CONTINUOUS
10
21.3094
20
-56.343
11
21.2142
21
-56.1525
0
LINE
8
BLACK
6
CONTINUOUS
10
21.2142
20
-56.1525
11
21.1189
21
-55.7715
0
LINE
8
BLACK
6
CONTINUOUS
10
21.1189
20
-55.7715
11
21.1189
21
-55.2953
0
LINE
8
BLACK
6
CONTINUOUS
10
21.1189
20
-55.2953
11
21.2142
21
-54.9144
0
LINE
8
BLACK
6
CONTINUOUS
10
21.2142
20
-54.9144
11
21.3094
21
-54.7239
0
LINE
8
BLACK
6
CONTINUOUS
10
21.3094
20
-54.7239
11
21.4047
21
-54.6287
0
LINE
8
BLACK
6
CONTINUOUS
10
21.4047
20
-54.6287
11
21.5951
21
-54.5334
0
LINE
8
BLACK
6
CONTINUOUS
10
23.1189
20
-56.5334
11
23.1189
21
-55.2001
0
LINE
8
BLACK
6
CONTINUOUS
10
23.1189
20
-55.3906
11
23.2142
21
-55.2953
0
LINE
8
BLACK
6
CONTINUOUS
10
23.2142
20
-55.2953
11
23.4047
21
-55.2001
0
LINE
8
BLACK
6
CONTINUOUS
10
23.4047
20
-55.2001
11
23.6904
21
-55.2001
0
LINE
8
BLACK
6
CONTINUOUS
10
23.6904
20
-55.2001
11
23.8808
21
-55.2953
0
LINE
8
BLACK
6
CONTINUOUS
10
23.8808
20
-55.2953
11
23.9761
21
-55.4858
0
LINE
8
BLACK
6
CONTINUOUS
10
23.9761
20
-55.4858
11
23.9761
21
-56.5334
0
LINE
8
BLACK
6
CONTINUOUS
10
23.9761
20
-55.4858
11
24.0713
21
-55.2953
0
LINE
8
BLACK
6
CONTINUOUS
10
24.0713
20
-55.2953
11
24.2618
21
-55.2001
0
LINE
8
BLACK
6
CONTINUOUS
10
24.2618
20
-55.2001
11
24.5475
21
-55.2001
0
LINE
8
BLACK
6
CONTINUOUS
10
24.5475
20
-55.2001
11
24.738
21
-55.2953
0
LINE
8
BLACK
6
CONTINUOUS
10
24.738
20
-55.2953
11
24.8332
21
-55.4858
0
LINE
8
BLACK
6
CONTINUOUS
10
24.8332
20
-55.4858
11
24.8332
21
-56.5334
0
LINE
8
BLACK
6
CONTINUOUS
10
25.7856
20
-56.5334
11
25.7856
21
-55.2001
0
LINE
8
BLACK
6
CONTINUOUS
10
25.7856
20
-55.3906
11
25.8808
21
-55.2953
0
LINE
8
BLACK
6
CONTINUOUS
10
25.8808
20
-55.2953
11
26.0713
21
-55.2001
0
LINE
8
BLACK
6
CONTINUOUS
10
26.0713
20
-55.2001
11
26.357
21
-55.2001
0
LINE
8
BLACK
6
CONTINUOUS
10
26.357
20
-55.2001
11
26.5475
21
-55.2953
0
LINE
8
BLACK
6
CONTINUOUS
10
26.5475
20
-55.2953
11
26.6427
21
-55.4858
0
LINE
8
BLACK
6
CONTINUOUS
10
26.6427
20
-55.4858
11
26.6427
21
-56.5334
0
LINE
8
BLACK
6
CONTINUOUS
10
26.6427
20
-55.4858
11
26.738
21
-55.2953
0
LINE
8
BLACK
6
CONTINUOUS
10
26.738
20
-55.2953
11
26.9285
21
-55.2001
0
LINE
8
BLACK
6
CONTINUOUS
10
26.9285
20
-55.2001
11
27.2142
21
-55.2001
0
LINE
8
BLACK
6
CONTINUOUS
10
27.2142
20
-55.2001
11
27.4047
21
-55.2953
0
LINE
8
BLACK
6
CONTINUOUS
10
27.4047
20
-55.2953
11
27.4999
21
-55.4858
0
LINE
8
BLACK
6
CONTINUOUS
10
27.4999
20
-55.4858
11
27.4999
21
-56.5334
0
LINE
8
BLACK
6
CONTINUOUS
10
31.4047
20
-54.4382
11
29.6904
21
-57.0096
0
LINE
8
BLACK
6
CONTINUOUS
10
33.9761
20
-54.5334
11
34.1666
21
-54.5334
0
LINE
8
BLACK
6
CONTINUOUS
10
34.1666
20
-54.5334
11
34.357
21
-54.6287
0
LINE
8
BLACK
6
CONTINUOUS
10
34.357
20
-54.6287
11
34.4523
21
-54.7239
0
LINE
8
BLACK
6
CONTINUOUS
10
34.4523
20
-54.7239
11
34.5475
21
-54.9144
0
LINE
8
BLACK
6
CONTINUOUS
10
34.5475
20
-54.9144
11
34.6427
21
-55.2953
0
LINE
8
BLACK
6
CONTINUOUS
10
34.6427
20
-55.2953
11
34.6427
21
-55.7715
0
LINE
8
BLACK
6
CONTINUOUS
10
34.6427
20
-55.7715
11
34.5475
21
-56.1525
0
LINE
8
BLACK
6
CONTINUOUS
10
34.5475
20
-56.1525
11
34.4523
21
-56.343
0
LINE
8
BLACK
6
CONTINUOUS
10
34.4523
20
-56.343
11
34.357
21
-56.4382
0
LINE
8
BLACK
6
CONTINUOUS
10
34.357
20
-56.4382
11
34.1666
21
-56.5334
0
LINE
8
BLACK
6
CONTINUOUS
10
34.1666
20
-56.5334
11
33.9761
21
-56.5334
0
LINE
8
BLACK
6
CONTINUOUS
10
33.9761
20
-56.5334
11
33.7856
21
-56.4382
0
LINE
8
BLACK
6
CONTINUOUS
10
33.7856
20
-56.4382
11
33.6904
21
-56.343
0
LINE
8
BLACK
6
CONTINUOUS
10
33.6904
20
-56.343
11
33.5951
21
-56.1525
0
LINE
8
BLACK
6
CONTINUOUS
10
33.5951
20
-56.1525
11
33.4999
21
-55.7715
0
LINE
8
BLACK
6
CONTINUOUS
10
33.4999
20
-55.7715
11
33.4999
21
-55.2953
0
LINE
8
BLACK
6
CONTINUOUS
10
33.4999
20
-55.2953
11
33.5951
21
-54.9144
0
LINE
8
BLACK
6
CONTINUOUS
10
33.5951
20
-54.9144
11
33.6904
21
-54.7239
0
LINE
8
BLACK
6
CONTINUOUS
10
33.6904
20
-54.7239
11
33.7856
21
-54.6287
0
LINE
8
BLACK
6
CONTINUOUS
10
33.7856
20
-54.6287
11
33.9761
21
-54.5334
0
LINE
8
BLACK
6
CONTINUOUS
10
35.4999
20
-56.343
11
35.5951
21
-56.4382
0
LINE
8
BLACK
6
CONTINUOUS
10
35.5951
20
-56.4382
11
35.4999
21
-56.5334
0
LINE
8
BLACK
6
CONTINUOUS
10
35.4999
20
-56.5334
11
35.4047
21
-56.4382
0
LINE
8
BLACK
6
CONTINUOUS
10
35.4047
20
-56.4382
11
35.4999
21
-56.343
0
LINE
8
BLACK
6
CONTINUOUS
10
35.4999
20
-56.343
11
35.4999
21
-56.5334
0
LINE
8
BLACK
6
CONTINUOUS
10
36.8332
20
-54.5334
11
37.0237
21
-54.5334
0
LINE
8
BLACK
6
CONTINUOUS
10
37.0237
20
-54.5334
11
37.2142
21
-54.6287
0
LINE
8
BLACK
6
CONTINUOUS
10
37.2142
20
-54.6287
11
37.3094
21
-54.7239
0
LINE
8
BLACK
6
CONTINUOUS
10
37.3094
20
-54.7239
11
37.4047
21
-54.9144
0
LINE
8
BLACK
6
CONTINUOUS
10
37.4047
20
-54.9144
11
37.4999
21
-55.2953
0
LINE
8
BLACK
6
CONTINUOUS
10
37.4999
20
-55.2953
11
37.4999
21
-55.7715
0
LINE
8
BLACK
6
CONTINUOUS
10
37.4999
20
-55.7715
11
37.4047
21
-56.1525
0
LINE
8
BLACK
6
CONTINUOUS
10
37.4047
20
-56.1525
11
37.3094
21
-56.343
0
LINE
8
BLACK
6
CONTINUOUS
10
37.3094
20
-56.343
11
37.2142
21
-56.4382
0
LINE
8
BLACK
6
CONTINUOUS
10
37.2142
20
-56.4382
11
37.0237
21
-56.5334
0
LINE
8
BLACK
6
CONTINUOUS
10
37.0237
20
-56.5334
11
36.8332
21
-56.5334
0
LINE
8
BLACK
6
CONTINUOUS
10
36.8332
20
-56.5334
11
36.6427
21
-56.4382
0
LINE
8
BLACK
6
CONTINUOUS
10
36.6427
20
-56.4382
11
36.5475
21
-56.343
0
LINE
8
BLACK
6
CONTINUOUS
10
36.5475
20
-56.343
11
36.4523
21
-56.1525
0
LINE
8
BLACK
6
CONTINUOUS
10
36.4523
20
-56.1525
11
36.357
21
-55.7715
0
LINE
8
BLACK
6
CONTINUOUS
10
36.357
20
-55.7715
11
36.357
21
-55.2953
0
LINE
8
BLACK
6
CONTINUOUS
10
36.357
20
-55.2953
11
36.4523
21
-54.9144
0
LINE
8
BLACK
6
CONTINUOUS
10
36.4523
20
-54.9144
11
36.5475
21
-54.7239
0
LINE
8
BLACK
6
CONTINUOUS
10
36.5475
20
-54.7239
11
36.6427
21
-54.6287
0
LINE
8
BLACK
6
CONTINUOUS
10
36.6427
20
-54.6287
11
36.8332
21
-54.5334
0
LINE
8
BLACK
6
CONTINUOUS
10
39.3094
20
-54.5334
11
38.357
21
-54.5334
0
LINE
8
BLACK
6
CONTINUOUS
10
38.357
20
-54.5334
11
38.2618
21
-55.4858
0
LINE
8
BLACK
6
CONTINUOUS
10
38.2618
20
-55.4858
11
38.357
21
-55.3906
0
LINE
8
BLACK
6
CONTINUOUS
10
38.357
20
-55.3906
11
38.5475
21
-55.2953
0
LINE
8
BLACK
6
CONTINUOUS
10
38.5475
20
-55.2953
11
39.0237
21
-55.2953
0
LINE
8
BLACK
6
CONTINUOUS
10
39.0237
20
-55.2953
11
39.2142
21
-55.3906
0
LINE
8
BLACK
6
CONTINUOUS
10
39.2142
20
-55.3906
11
39.3094
21
-55.4858
0
LINE
8
BLACK
6
CONTINUOUS
10
39.3094
20
-55.4858
11
39.4047
21
-55.6763
0
LINE
8
BLACK
6
CONTINUOUS
10
39.4047
20
-55.6763
11
39.4047
21
-56.1525
0
LINE
8
BLACK
6
CONTINUOUS
10
39.4047
20
-56.1525
11
39.3094
21
-56.343
0
LINE
8
BLACK
6
CONTINUOUS
10
39.3094
20
-56.343
11
39.2142
21
-56.4382
0
LINE
8
BLACK
6
CONTINUOUS
10
39.2142
20
-56.4382
11
39.0237
21
-56.5334
0
LINE
8
BLACK
6
CONTINUOUS
10
39.0237
20
-56.5334
11
38.5475
21
-56.5334
0
LINE
8
BLACK
6
CONTINUOUS
10
38.5475
20
-56.5334
11
38.357
21
-56.4382
0
LINE
8
BLACK
6
CONTINUOUS
10
38.357
20
-56.4382
11
38.2618
21
-56.343
0
LINE
8
BLACK
6
CONTINUOUS
10
41.2142
20
-54.5334
11
40.2618
21
-54.5334
0
LINE
8
BLACK
6
CONTINUOUS
10
40.2618
20
-54.5334
11
40.1666
21
-55.4858
0
LINE
8
BLACK
6
CONTINUOUS
10
40.1666
20
-55.4858
11
40.2618
21
-55.3906
0
LINE
8
BLACK
6
CONTINUOUS
10
40.2618
20
-55.3906
11
40.4523
21
-55.2953
0
LINE
8
BLACK
6
CONTINUOUS
10
40.4523
20
-55.2953
11
40.9285
21
-55.2953
0
LINE
8
BLACK
6
CONTINUOUS
10
40.9285
20
-55.2953
11
41.1189
21
-55.3906
0
LINE
8
BLACK
6
CONTINUOUS
10
41.1189
20
-55.3906
11
41.2142
21
-55.4858
0
LINE
8
BLACK
6
CONTINUOUS
10
41.2142
20
-55.4858
11
41.3094
21
-55.6763
0
LINE
8
BLACK
6
CONTINUOUS
10
41.3094
20
-55.6763
11
41.3094
21
-56.1525
0
LINE
8
BLACK
6
CONTINUOUS
10
41.3094
20
-56.1525
11
41.2142
21
-56.343
0
LINE
8
BLACK
6
CONTINUOUS
10
41.2142
20
-56.343
11
41.1189
21
-56.4382
0
LINE
8
BLACK
6
CONTINUOUS
10
41.1189
20
-56.4382
11
40.9285
21
-56.5334
0
LINE
8
BLACK
6
CONTINUOUS
10
40.9285
20
-56.5334
11
40.4523
21
-56.5334
0
LINE
8
BLACK
6
CONTINUOUS
10
40.4523
20
-56.5334
11
40.2618
21
-56.4382
0
LINE
8
BLACK
6
CONTINUOUS
10
40.2618
20
-56.4382
11
40.1666
21
-56.343
0
LINE
8
BLACK
6
CONTINUOUS
10
43.2142
20
-56.5334
11
42.0713
21
-56.5334
0
LINE
8
BLACK
6
CONTINUOUS
10
42.6427
20
-56.5334
11
42.6427
21
-54.5334
0
LINE
8
BLACK
6
CONTINUOUS
10
42.6427
20
-54.5334
11
42.4523
21
-54.8192
0
LINE
8
BLACK
6
CONTINUOUS
10
42.4523
20
-54.8192
11
42.2618
21
-55.0096
0
LINE
8
BLACK
6
CONTINUOUS
10
42.2618
20
-55.0096
11
42.0713
21
-55.1049
0
LINE
8
BLACK
6
CONTINUOUS
10
43.9761
20
-54.5334
11
43.9761
21
-54.9144
0
LINE
8
BLACK
6
CONTINUOUS
10
44.738
20
-54.5334
11
44.738
21
-54.9144
0
LINE
8
BLACK
6
CONTINUOUS
10
47.6904
20
-57.2953
11
47.5951
21
-57.2001
0
LINE
8
BLACK
6
CONTINUOUS
10
47.5951
20
-57.2001
11
47.4047
21
-56.9144
0
LINE
8
BLACK
6
CONTINUOUS
10
47.4047
20
-56.9144
11
47.3094
21
-56.7239
0
LINE
8
BLACK
6
CONTINUOUS
10
47.3094
20
-56.7239
11
47.2142
21
-56.4382
0
LINE
8
BLACK
6
CONTINUOUS
10
47.2142
20
-56.4382
11
47.1189
21
-55.962
0
LINE
8
BLACK
6
CONTINUOUS
10
47.1189
20
-55.962
11
47.1189
21
-55.5811
0
LINE
8
BLACK
6
CONTINUOUS
10
47.1189
20
-55.5811
11
47.2142
21
-55.1049
0
LINE
8
BLACK
6
CONTINUOUS
10
47.2142
20
-55.1049
11
47.3094
21
-54.8192
0
LINE
8
BLACK
6
CONTINUOUS
10
47.3094
20
-54.8192
11
47.4047
21
-54.6287
0
LINE
8
BLACK
6
CONTINUOUS
10
47.4047
20
-54.6287
11
47.5951
21
-54.343
0
LINE
8
BLACK
6
CONTINUOUS
10
47.5951
20
-54.343
11
47.6904
21
-54.2477
0
LINE
8
BLACK
6
CONTINUOUS
10
49.3094
20
-55.2001
11
49.3094
21
-56.5334
0
LINE
8
BLACK
6
CONTINUOUS
10
48.8332
20
-54.4382
11
48.357
21
-55.8668
0
LINE
8
BLACK
6
CONTINUOUS
10
48.357
20
-55.8668
11
49.5951
21
-55.8668
0
LINE
8
BLACK
6
CONTINUOUS
10
51.8808
20
-56.5334
11
51.8808
21
-54.5334
0
LINE
8
BLACK
6
CONTINUOUS
10
52.738
20
-56.5334
11
52.738
21
-55.4858
0
LINE
8
BLACK
6
CONTINUOUS
10
52.738
20
-55.4858
11
52.6427
21
-55.2953
0
LINE
8
BLACK
6
CONTINUOUS
10
52.6427
20
-55.2953
11
52.4523
21
-55.2001
0
LINE
8
BLACK
6
CONTINUOUS
10
52.4523
20
-55.2001
11
52.1666
21
-55.2001
0
LINE
8
BLACK
6
CONTINUOUS
10
52.1666
20
-55.2001
11
51.9761
21
-55.2953
0
LINE
8
BLACK
6
CONTINUOUS
10
51.9761
20
-55.2953
11
51.8808
21
-55.3906
0
LINE
8
BLACK
6
CONTINUOUS
10
53.9761
20
-56.5334
11
53.7856
21
-56.4382
0
LINE
8
BLACK
6
CONTINUOUS
10
53.7856
20
-56.4382
11
53.6904
21
-56.343
0
LINE
8
BLACK
6
CONTINUOUS
10
53.6904
20
-56.343
11
53.5951
21
-56.1525
0
LINE
8
BLACK
6
CONTINUOUS
10
53.5951
20
-56.1525
11
53.5951
21
-55.5811
0
LINE
8
BLACK
6
CONTINUOUS
10
53.5951
20
-55.5811
11
53.6904
21
-55.3906
0
LINE
8
BLACK
6
CONTINUOUS
10
53.6904
20
-55.3906
11
53.7856
21
-55.2953
0
LINE
8
BLACK
6
CONTINUOUS
10
53.7856
20
-55.2953
11
53.9761
21
-55.2001
0
LINE
8
BLACK
6
CONTINUOUS
10
53.9761
20
-55.2001
11
54.2618
21
-55.2001
0
LINE
8
BLACK
6
CONTINUOUS
10
54.2618
20
-55.2001
11
54.4523
21
-55.2953
0
LINE
8
BLACK
6
CONTINUOUS
10
54.4523
20
-55.2953
11
54.5475
21
-55.3906
0
LINE
8
BLACK
6
CONTINUOUS
10
54.5475
20
-55.3906
11
54.6427
21
-55.5811
0
LINE
8
BLACK
6
CONTINUOUS
10
54.6427
20
-55.5811
11
54.6427
21
-56.1525
0
LINE
8
BLACK
6
CONTINUOUS
10
54.6427
20
-56.1525
11
54.5475
21
-56.343
0
LINE
8
BLACK
6
CONTINUOUS
10
54.5475
20
-56.343
11
54.4523
21
-56.4382
0
LINE
8
BLACK
6
CONTINUOUS
10
54.4523
20
-56.4382
11
54.2618
21
-56.5334
0
LINE
8
BLACK
6
CONTINUOUS
10
54.2618
20
-56.5334
11
53.9761
21
-56.5334
0
LINE
8
BLACK
6
CONTINUOUS
10
55.7856
20
-56.5334
11
55.5951
21
-56.4382
0
LINE
8
BLACK
6
CONTINUOUS
10
55.5951
20
-56.4382
11
55.4999
21
-56.2477
0
LINE
8
BLACK
6
CONTINUOUS
10
55.4999
20
-56.2477
11
55.4999
21
-54.5334
0
LINE
8
BLACK
6
CONTINUOUS
10
57.3094
20
-56.4382
11
57.1189
21
-56.5334
0
LINE
8
BLACK
6
CONTINUOUS
10
57.1189
20
-56.5334
11
56.738
21
-56.5334
0
LINE
8
BLACK
6
CONTINUOUS
10
56.738
20
-56.5334
11
56.5475
21
-56.4382
0
LINE
8
BLACK
6
CONTINUOUS
10
56.5475
20
-56.4382
11
56.4523
21
-56.2477
0
LINE
8
BLACK
6
CONTINUOUS
10
56.4523
20
-56.2477
11
56.4523
21
-55.4858
0
LINE
8
BLACK
6
CONTINUOUS
10
56.4523
20
-55.4858
11
56.5475
21
-55.2953
0
LINE
8
BLACK
6
CONTINUOUS
10
56.5475
20
-55.2953
11
56.738
21
-55.2001
0
LINE
8
BLACK
6
CONTINUOUS
10
56.738
20
-55.2001
11
57.1189
21
-55.2001
0
LINE
8
BLACK
6
CONTINUOUS
10
57.1189
20
-55.2001
11
57.3094
21
-55.2953
0
LINE
8
BLACK
6
CONTINUOUS
10
57.3094
20
-55.2953
11
57.4047
21
-55.4858
0
LINE
8
BLACK
6
CONTINUOUS
10
57.4047
20
-55.4858
11
57.4047
21
-55.6763
0
LINE
8
BLACK
6
CONTINUOUS
10
57.4047
20
-55.6763
11
56.4523
21
-55.8668
0
LINE
8
BLACK
6
CONTINUOUS
10
58.1666
20
-56.4382
11
58.357
21
-56.5334
0
LINE
8
BLACK
6
CONTINUOUS
10
58.357
20
-56.5334
11
58.738
21
-56.5334
0
LINE
8
BLACK
6
CONTINUOUS
10
58.738
20
-56.5334
11
58.9285
21
-56.4382
0
LINE
8
BLACK
6
CONTINUOUS
10
58.9285
20
-56.4382
11
59.0237
21
-56.2477
0
LINE
8
BLACK
6
CONTINUOUS
10
59.0237
20
-56.2477
11
59.0237
21
-56.1525
0
LINE
8
BLACK
6
CONTINUOUS
10
59.0237
20
-56.1525
11
58.9285
21
-55.962
0
LINE
8
BLACK
6
CONTINUOUS
10
58.9285
20
-55.962
11
58.738
21
-55.8668
0
LINE
8
BLACK
6
CONTINUOUS
10
58.738
20
-55.8668
11
58.4523
21
-55.8668
0
LINE
8
BLACK
6
CONTINUOUS
10
58.4523
20
-55.8668
11
58.2618
21
-55.7715
0
LINE
8
BLACK
6
CONTINUOUS
10
58.2618
20
-55.7715
11
58.1666
21
-55.5811
0
LINE
8
BLACK
6
CONTINUOUS
10
58.1666
20
-55.5811
11
58.1666
21
-55.4858
0
LINE
8
BLACK
6
CONTINUOUS
10
58.1666
20
-55.4858
11
58.2618
21
-55.2953
0
LINE
8
BLACK
6
CONTINUOUS
10
58.2618
20
-55.2953
11
58.4523
21
-55.2001
0
LINE
8
BLACK
6
CONTINUOUS
10
58.4523
20
-55.2001
11
58.738
21
-55.2001
0
LINE
8
BLACK
6
CONTINUOUS
10
58.738
20
-55.2001
11
58.9285
21
-55.2953
0
LINE
8
BLACK
6
CONTINUOUS
10
59.6904
20
-57.2953
11
59.7856
21
-57.2001
0
LINE
8
BLACK
6
CONTINUOUS
10
59.7856
20
-57.2001
11
59.9761
21
-56.9144
0
LINE
8
BLACK
6
CONTINUOUS
10
59.9761
20
-56.9144
11
60.0713
21
-56.7239
0
LINE
8
BLACK
6
CONTINUOUS
10
60.0713
20
-56.7239
11
60.1666
21
-56.4382
0
LINE
8
BLACK
6
CONTINUOUS
10
60.1666
20
-56.4382
11
60.2618
21
-55.962
0
LINE
8
BLACK
6
CONTINUOUS
10
60.2618
20
-55.962
11
60.2618
21
-55.5811
0
LINE
8
BLACK
6
CONTINUOUS
10
60.2618
20
-55.5811
11
60.1666
21
-55.1049
0
LINE
8
BLACK
6
CONTINUOUS
10
60.1666
20
-55.1049
11
60.0713
21
-54.8192
0
LINE
8
BLACK
6
CONTINUOUS
10
60.0713
20
-54.8192
11
59.9761
21
-54.6287
0
LINE
8
BLACK
6
CONTINUOUS
10
59.9761
20
-54.6287
11
59.7856
21
-54.343
0
LINE
8
BLACK
6
CONTINUOUS
10
59.7856
20
-54.343
11
59.6904
21
-54.2477
0
LINE
8
BLACK
6
CONTINUOUS
10
10.1933
20
-57.3797
11
11.9713
21
-59.1577
0
LINE
8
BLACK
6
CONTINUOUS
10
11.9713
20
-57.3797
11
10.1933
21
-59.1577
0
LINE
8
BLACK
6
CONTINUOUS
10
11.0823
20
-57.3797
11
11.0823
21
-59.1577
0
LINE
8
BLACK
6
CONTINUOUS
10
10.1933
20
-58.2687
11
11.9713
21
-58.2687
0
LINE
8
BLACK
6
CONTINUOUS
10
15.5951
20
-59.1734
11
14.4523
21
-59.1734
0
LINE
8
BLACK
6
CONTINUOUS
10
15.0237
20
-59.1734
11
15.0237
21
-57.1734
0
LINE
8
BLACK
6
CONTINUOUS
10
15.0237
20
-57.1734
11
14.8332
21
-57.4592
0
LINE
8
BLACK
6
CONTINUOUS
10
14.8332
20
-57.4592
11
14.6427
21
-57.6496
0
LINE
8
BLACK
6
CONTINUOUS
10
14.6427
20
-57.6496
11
14.4523
21
-57.7449
0
LINE
8
BLACK
6
CONTINUOUS
10
16.4523
20
-58.983
11
16.5475
21
-59.0782
0
LINE
8
BLACK
6
CONTINUOUS
10
16.5475
20
-59.0782
11
16.4523
21
-59.1734
0
LINE
8
BLACK
6
CONTINUOUS
10
16.4523
20
-59.1734
11
16.357
21
-59.0782
0
LINE
8
BLACK
6
CONTINUOUS
10
16.357
20
-59.0782
11
16.4523
21
-58.983
0
LINE
8
BLACK
6
CONTINUOUS
10
16.4523
20
-58.983
11
16.4523
21
-59.1734
0
LINE
8
BLACK
6
CONTINUOUS
10
17.2142
20
-57.1734
11
18.5475
21
-57.1734
0
LINE
8
BLACK
6
CONTINUOUS
10
18.5475
20
-57.1734
11
17.6904
21
-59.1734
0
LINE
8
BLACK
6
CONTINUOUS
10
19.1189
20
-57.1734
11
20.4523
21
-57.1734
0
LINE
8
BLACK
6
CONTINUOUS
10
20.4523
20
-57.1734
11
19.5951
21
-59.1734
0
LINE
8
BLACK
6
CONTINUOUS
10
21.4999
20
-58.0306
11
21.3094
21
-57.9353
0
LINE
8
BLACK
6
CONTINUOUS
10
21.3094
20
-57.9353
11
21.2142
21
-57.8401
0
LINE
8
BLACK
6
CONTINUOUS
10
21.2142
20
-57.8401
11
21.1189
21
-57.6496
0
LINE
8
BLACK
6
CONTINUOUS
10
21.1189
20
-57.6496
11
21.1189
21
-57.5544
0
LINE
8
BLACK
6
CONTINUOUS
10
21.1189
20
-57.5544
11
21.2142
21
-57.3639
0
LINE
8
BLACK
6
CONTINUOUS
10
21.2142
20
-57.3639
11
21.3094
21
-57.2687
0
LINE
8
BLACK
6
CONTINUOUS
10
21.3094
20
-57.2687
11
21.4999
21
-57.1734
0
LINE
8
BLACK
6
CONTINUOUS
10
21.4999
20
-57.1734
11
21.8808
21
-57.1734
0
LINE
8
BLACK
6
CONTINUOUS
10
21.8808
20
-57.1734
11
22.0713
21
-57.2687
0
LINE
8
BLACK
6
CONTINUOUS
10
22.0713
20
-57.2687
11
22.1666
21
-57.3639
0
LINE
8
BLACK
6
CONTINUOUS
10
22.1666
20
-57.3639
11
22.2618
21
-57.5544
0
LINE
8
BLACK
6
CONTINUOUS
10
22.2618
20
-57.5544
11
22.2618
21
-57.6496
0
LINE
8
BLACK
6
CONTINUOUS
10
22.2618
20
-57.6496
11
22.1666
21
-57.8401
0
LINE
8
BLACK
6
CONTINUOUS
10
22.1666
20
-57.8401
11
22.0713
21
-57.9353
0
LINE
8
BLACK
6
CONTINUOUS
10
22.0713
20
-57.9353
11
21.8808
21
-58.0306
0
LINE
8
BLACK
6
CONTINUOUS
10
21.8808
20
-58.0306
11
21.4999
21
-58.0306
0
LINE
8
BLACK
6
CONTINUOUS
10
21.4999
20
-58.0306
11
21.3094
21
-58.1258
0
LINE
8
BLACK
6
CONTINUOUS
10
21.3094
20
-58.1258
11
21.2142
21
-58.2211
0
LINE
8
BLACK
6
CONTINUOUS
10
21.2142
20
-58.2211
11
21.1189
21
-58.4115
0
LINE
8
BLACK
6
CONTINUOUS
10
21.1189
20
-58.4115
11
21.1189
21
-58.7925
0
LINE
8
BLACK
6
CONTINUOUS
10
21.1189
20
-58.7925
11
21.2142
21
-58.983
0
LINE
8
BLACK
6
CONTINUOUS
10
21.2142
20
-58.983
11
21.3094
21
-59.0782
0
LINE
8
BLACK
6
CONTINUOUS
10
21.3094
20
-59.0782
11
21.4999
21
-59.1734
0
LINE
8
BLACK
6
CONTINUOUS
10
21.4999
20
-59.1734
11
21.8808
21
-59.1734
0
LINE
8
BLACK
6
CONTINUOUS
10
21.8808
20
-59.1734
11
22.0713
21
-59.0782
0
LINE
8
BLACK
6
CONTINUOUS
10
22.0713
20
-59.0782
11
22.1666
21
-58.983
0
LINE
8
BLACK
6
CONTINUOUS
10
22.1666
20
-58.983
11
22.2618
21
-58.7925
0
LINE
8
BLACK
6
CONTINUOUS
10
22.2618
20
-58.7925
11
22.2618
21
-58.4115
0
LINE
8
BLACK
6
CONTINUOUS
10
22.2618
20
-58.4115
11
22.1666
21
-58.2211
0
LINE
8
BLACK
6
CONTINUOUS
10
22.1666
20
-58.2211
11
22.0713
21
-58.1258
0
LINE
8
BLACK
6
CONTINUOUS
10
22.0713
20
-58.1258
11
21.8808
21
-58.0306
0
LINE
8
BLACK
6
CONTINUOUS
10
23.1189
20
-59.1734
11
23.1189
21
-57.8401
0
LINE
8
BLACK
6
CONTINUOUS
10
23.1189
20
-58.0306
11
23.2142
21
-57.9353
0
LINE
8
BLACK
6
CONTINUOUS
10
23.2142
20
-57.9353
11
23.4047
21
-57.8401
0
LINE
8
BLACK
6
CONTINUOUS
10
23.4047
20
-57.8401
11
23.6904
21
-57.8401
0
LINE
8
BLACK
6
CONTINUOUS
10
23.6904
20
-57.8401
11
23.8808
21
-57.9353
0
LINE
8
BLACK
6
CONTINUOUS
10
23.8808
20
-57.9353
11
23.9761
21
-58.1258
0
LINE
8
BLACK
6
CONTINUOUS
10
23.9761
20
-58.1258
11
23.9761
21
-59.1734
0
LINE
8
BLACK
6
CONTINUOUS
10
23.9761
20
-58.1258
11
24.0713
21
-57.9353
0
LINE
8
BLACK
6
CONTINUOUS
10
24.0713
20
-57.9353
11
24.2618
21
-57.8401
0
LINE
8
BLACK
6
CONTINUOUS
10
24.2618
20
-57.8401
11
24.5475
21
-57.8401
0
LINE
8
BLACK
6
CONTINUOUS
10
24.5475
20
-57.8401
11
24.738
21
-57.9353
0
LINE
8
BLACK
6
CONTINUOUS
10
24.738
20
-57.9353
11
24.8332
21
-58.1258
0
LINE
8
BLACK
6
CONTINUOUS
10
24.8332
20
-58.1258
11
24.8332
21
-59.1734
0
LINE
8
BLACK
6
CONTINUOUS
10
25.7856
20
-59.1734
11
25.7856
21
-57.8401
0
LINE
8
BLACK
6
CONTINUOUS
10
25.7856
20
-58.0306
11
25.8808
21
-57.9353
0
LINE
8
BLACK
6
CONTINUOUS
10
25.8808
20
-57.9353
11
26.0713
21
-57.8401
0
LINE
8
BLACK
6
CONTINUOUS
10
26.0713
20
-57.8401
11
26.357
21
-57.8401
0
LINE
8
BLACK
6
CONTINUOUS
10
26.357
20
-57.8401
11
26.5475
21
-57.9353
0
LINE
8
BLACK
6
CONTINUOUS
10
26.5475
20
-57.9353
11
26.6427
21
-58.1258
0
LINE
8
BLACK
6
CONTINUOUS
10
26.6427
20
-58.1258
11
26.6427
21
-59.1734
0
LINE
8
BLACK
6
CONTINUOUS
10
26.6427
20
-58.1258
11
26.738
21
-57.9353
0
LINE
8
BLACK
6
CONTINUOUS
10
26.738
20
-57.9353
11
26.9285
21
-57.8401
0
LINE
8
BLACK
6
CONTINUOUS
10
26.9285
20
-57.8401
11
27.2142
21
-57.8401
0
LINE
8
BLACK
6
CONTINUOUS
10
27.2142
20
-57.8401
11
27.4047
21
-57.9353
0
LINE
8
BLACK
6
CONTINUOUS
10
27.4047
20
-57.9353
11
27.4999
21
-58.1258
0
LINE
8
BLACK
6
CONTINUOUS
10
27.4999
20
-58.1258
11
27.4999
21
-59.1734
0
LINE
8
BLACK
6
CONTINUOUS
10
31.4047
20
-57.0782
11
29.6904
21
-59.6496
0
LINE
8
BLACK
6
CONTINUOUS
10
33.9761
20
-57.1734
11
34.1666
21
-57.1734
0
LINE
8
BLACK
6
CONTINUOUS
10
34.1666
20
-57.1734
11
34.357
21
-57.2687
0
LINE
8
BLACK
6
CONTINUOUS
10
34.357
20
-57.2687
11
34.4523
21
-57.3639
0
LINE
8
BLACK
6
CONTINUOUS
10
34.4523
20
-57.3639
11
34.5475
21
-57.5544
0
LINE
8
BLACK
6
CONTINUOUS
10
34.5475
20
-57.5544
11
34.6427
21
-57.9353
0
LINE
8
BLACK
6
CONTINUOUS
10
34.6427
20
-57.9353
11
34.6427
21
-58.4115
0
LINE
8
BLACK
6
CONTINUOUS
10
34.6427
20
-58.4115
11
34.5475
21
-58.7925
0
LINE
8
BLACK
6
CONTINUOUS
10
34.5475
20
-58.7925
11
34.4523
21
-58.983
0
LINE
8
BLACK
6
CONTINUOUS
10
34.4523
20
-58.983
11
34.357
21
-59.0782
0
LINE
8
BLACK
6
CONTINUOUS
10
34.357
20
-59.0782
11
34.1666
21
-59.1734
0
LINE
8
BLACK
6
CONTINUOUS
10
34.1666
20
-59.1734
11
33.9761
21
-59.1734
0
LINE
8
BLACK
6
CONTINUOUS
10
33.9761
20
-59.1734
11
33.7856
21
-59.0782
0
LINE
8
BLACK
6
CONTINUOUS
10
33.7856
20
-59.0782
11
33.6904
21
-58.983
0
LINE
8
BLACK
6
CONTINUOUS
10
33.6904
20
-58.983
11
33.5951
21
-58.7925
0
LINE
8
BLACK
6
CONTINUOUS
10
33.5951
20
-58.7925
11
33.4999
21
-58.4115
0
LINE
8
BLACK
6
CONTINUOUS
10
33.4999
20
-58.4115
11
33.4999
21
-57.9353
0
LINE
8
BLACK
6
CONTINUOUS
10
33.4999
20
-57.9353
11
33.5951
21
-57.5544
0
LINE
8
BLACK
6
CONTINUOUS
10
33.5951
20
-57.5544
11
33.6904
21
-57.3639
0
LINE
8
BLACK
6
CONTINUOUS
10
33.6904
20
-57.3639
11
33.7856
21
-57.2687
0
LINE
8
BLACK
6
CONTINUOUS
10
33.7856
20
-57.2687
11
33.9761
21
-57.1734
0
LINE
8
BLACK
6
CONTINUOUS
10
35.4999
20
-58.983
11
35.5951
21
-59.0782
0
LINE
8
BLACK
6
CONTINUOUS
10
35.5951
20
-59.0782
11
35.4999
21
-59.1734
0
LINE
8
BLACK
6
CONTINUOUS
10
35.4999
20
-59.1734
11
35.4047
21
-59.0782
0
LINE
8
BLACK
6
CONTINUOUS
10
35.4047
20
-59.0782
11
35.4999
21
-58.983
0
LINE
8
BLACK
6
CONTINUOUS
10
35.4999
20
-58.983
11
35.4999
21
-59.1734
0
LINE
8
BLACK
6
CONTINUOUS
10
36.8332
20
-57.1734
11
37.0237
21
-57.1734
0
LINE
8
BLACK
6
CONTINUOUS
10
37.0237
20
-57.1734
11
37.2142
21
-57.2687
0
LINE
8
BLACK
6
CONTINUOUS
10
37.2142
20
-57.2687
11
37.3094
21
-57.3639
0
LINE
8
BLACK
6
CONTINUOUS
10
37.3094
20
-57.3639
11
37.4047
21
-57.5544
0
LINE
8
BLACK
6
CONTINUOUS
10
37.4047
20
-57.5544
11
37.4999
21
-57.9353
0
LINE
8
BLACK
6
CONTINUOUS
10
37.4999
20
-57.9353
11
37.4999
21
-58.4115
0
LINE
8
BLACK
6
CONTINUOUS
10
37.4999
20
-58.4115
11
37.4047
21
-58.7925
0
LINE
8
BLACK
6
CONTINUOUS
10
37.4047
20
-58.7925
11
37.3094
21
-58.983
0
LINE
8
BLACK
6
CONTINUOUS
10
37.3094
20
-58.983
11
37.2142
21
-59.0782
0
LINE
8
BLACK
6
CONTINUOUS
10
37.2142
20
-59.0782
11
37.0237
21
-59.1734
0
LINE
8
BLACK
6
CONTINUOUS
10
37.0237
20
-59.1734
11
36.8332
21
-59.1734
0
LINE
8
BLACK
6
CONTINUOUS
10
36.8332
20
-59.1734
11
36.6427
21
-59.0782
0
LINE
8
BLACK
6
CONTINUOUS
10
36.6427
20
-59.0782
11
36.5475
21
-58.983
0
LINE
8
BLACK
6
CONTINUOUS
10
36.5475
20
-58.983
11
36.4523
21
-58.7925
0
LINE
8
BLACK
6
CONTINUOUS
10
36.4523
20
-58.7925
11
36.357
21
-58.4115
0
LINE
8
BLACK
6
CONTINUOUS
10
36.357
20
-58.4115
11
36.357
21
-57.9353
0
LINE
8
BLACK
6
CONTINUOUS
10
36.357
20
-57.9353
11
36.4523
21
-57.5544
0
LINE
8
BLACK
6
CONTINUOUS
10
36.4523
20
-57.5544
11
36.5475
21
-57.3639
0
LINE
8
BLACK
6
CONTINUOUS
10
36.5475
20
-57.3639
11
36.6427
21
-57.2687
0
LINE
8
BLACK
6
CONTINUOUS
10
36.6427
20
-57.2687
11
36.8332
21
-57.1734
0
LINE
8
BLACK
6
CONTINUOUS
10
38.1666
20
-57.1734
11
39.4999
21
-57.1734
0
LINE
8
BLACK
6
CONTINUOUS
10
39.4999
20
-57.1734
11
38.6427
21
-59.1734
0
LINE
8
BLACK
6
CONTINUOUS
10
40.6427
20
-57.1734
11
40.8332
21
-57.1734
0
LINE
8
BLACK
6
CONTINUOUS
10
40.8332
20
-57.1734
11
41.0237
21
-57.2687
0
LINE
8
BLACK
6
CONTINUOUS
10
41.0237
20
-57.2687
11
41.1189
21
-57.3639
0
LINE
8
BLACK
6
CONTINUOUS
10
41.1189
20
-57.3639
11
41.2142
21
-57.5544
0
LINE
8
BLACK
6
CONTINUOUS
10
41.2142
20
-57.5544
11
41.3094
21
-57.9353
0
LINE
8
BLACK
6
CONTINUOUS
10
41.3094
20
-57.9353
11
41.3094
21
-58.4115
0
LINE
8
BLACK
6
CONTINUOUS
10
41.3094
20
-58.4115
11
41.2142
21
-58.7925
0
LINE
8
BLACK
6
CONTINUOUS
10
41.2142
20
-58.7925
11
41.1189
21
-58.983
0
LINE
8
BLACK
6
CONTINUOUS
10
41.1189
20
-58.983
11
41.0237
21
-59.0782
0
LINE
8
BLACK
6
CONTINUOUS
10
41.0237
20
-59.0782
11
40.8332
21
-59.1734
0
LINE
8
BLACK
6
CONTINUOUS
10
40.8332
20
-59.1734
11
40.6427
21
-59.1734
0
LINE
8
BLACK
6
CONTINUOUS
10
40.6427
20
-59.1734
11
40.4523
21
-59.0782
0
LINE
8
BLACK
6
CONTINUOUS
10
40.4523
20
-59.0782
11
40.357
21
-58.983
0
LINE
8
BLACK
6
CONTINUOUS
10
40.357
20
-58.983
11
40.2618
21
-58.7925
0
LINE
8
BLACK
6
CONTINUOUS
10
40.2618
20
-58.7925
11
40.1666
21
-58.4115
0
LINE
8
BLACK
6
CONTINUOUS
10
40.1666
20
-58.4115
11
40.1666
21
-57.9353
0
LINE
8
BLACK
6
CONTINUOUS
10
40.1666
20
-57.9353
11
40.2618
21
-57.5544
0
LINE
8
BLACK
6
CONTINUOUS
10
40.2618
20
-57.5544
11
40.357
21
-57.3639
0
LINE
8
BLACK
6
CONTINUOUS
10
40.357
20
-57.3639
11
40.4523
21
-57.2687
0
LINE
8
BLACK
6
CONTINUOUS
10
40.4523
20
-57.2687
11
40.6427
21
-57.1734
0
LINE
8
BLACK
6
CONTINUOUS
10
42.5475
20
-57.1734
11
42.738
21
-57.1734
0
LINE
8
BLACK
6
CONTINUOUS
10
42.738
20
-57.1734
11
42.9285
21
-57.2687
0
LINE
8
BLACK
6
CONTINUOUS
10
42.9285
20
-57.2687
11
43.0237
21
-57.3639
0
LINE
8
BLACK
6
CONTINUOUS
10
43.0237
20
-57.3639
11
43.1189
21
-57.5544
0
LINE
8
BLACK
6
CONTINUOUS
10
43.1189
20
-57.5544
11
43.2142
21
-57.9353
0
LINE
8
BLACK
6
CONTINUOUS
10
43.2142
20
-57.9353
11
43.2142
21
-58.4115
0
LINE
8
BLACK
6
CONTINUOUS
10
43.2142
20
-58.4115
11
43.1189
21
-58.7925
0
LINE
8
BLACK
6
CONTINUOUS
10
43.1189
20
-58.7925
11
43.0237
21
-58.983
0
LINE
8
BLACK
6
CONTINUOUS
10
43.0237
20
-58.983
11
42.9285
21
-59.0782
0
LINE
8
BLACK
6
CONTINUOUS
10
42.9285
20
-59.0782
11
42.738
21
-59.1734
0
LINE
8
BLACK
6
CONTINUOUS
10
42.738
20
-59.1734
11
42.5475
21
-59.1734
0
LINE
8
BLACK
6
CONTINUOUS
10
42.5475
20
-59.1734
11
42.357
21
-59.0782
0
LINE
8
BLACK
6
CONTINUOUS
10
42.357
20
-59.0782
11
42.2618
21
-58.983
0
LINE
8
BLACK
6
CONTINUOUS
10
42.2618
20
-58.983
11
42.1666
21
-58.7925
0
LINE
8
BLACK
6
CONTINUOUS
10
42.1666
20
-58.7925
11
42.0713
21
-58.4115
0
LINE
8
BLACK
6
CONTINUOUS
10
42.0713
20
-58.4115
11
42.0713
21
-57.9353
0
LINE
8
BLACK
6
CONTINUOUS
10
42.0713
20
-57.9353
11
42.1666
21
-57.5544
0
LINE
8
BLACK
6
CONTINUOUS
10
42.1666
20
-57.5544
11
42.2618
21
-57.3639
0
LINE
8
BLACK
6
CONTINUOUS
10
42.2618
20
-57.3639
11
42.357
21
-57.2687
0
LINE
8
BLACK
6
CONTINUOUS
10
42.357
20
-57.2687
11
42.5475
21
-57.1734
0
LINE
8
BLACK
6
CONTINUOUS
10
43.9761
20
-57.1734
11
43.9761
21
-57.5544
0
LINE
8
BLACK
6
CONTINUOUS
10
44.738
20
-57.1734
11
44.738
21
-57.5544
0
LINE
8
BLACK
6
CONTINUOUS
10
47.6904
20
-59.9353
11
47.5951
21
-59.8401
0
LINE
8
BLACK
6
CONTINUOUS
10
47.5951
20
-59.8401
11
47.4047
21
-59.5544
0
LINE
8
BLACK
6
CONTINUOUS
10
47.4047
20
-59.5544
11
47.3094
21
-59.3639
0
LINE
8
BLACK
6
CONTINUOUS
10
47.3094
20
-59.3639
11
47.2142
21
-59.0782
0
LINE
8
BLACK
6
CONTINUOUS
10
47.2142
20
-59.0782
11
47.1189
21
-58.602
0
LINE
8
BLACK
6
CONTINUOUS
10
47.1189
20
-58.602
11
47.1189
21
-58.2211
0
LINE
8
BLACK
6
CONTINUOUS
10
47.1189
20
-58.2211
11
47.2142
21
-57.7449
0
LINE
8
BLACK
6
CONTINUOUS
10
47.2142
20
-57.7449
11
47.3094
21
-57.4592
0
LINE
8
BLACK
6
CONTINUOUS
10
47.3094
20
-57.4592
11
47.4047
21
-57.2687
0
LINE
8
BLACK
6
CONTINUOUS
10
47.4047
20
-57.2687
11
47.5951
21
-56.983
0
LINE
8
BLACK
6
CONTINUOUS
10
47.5951
20
-56.983
11
47.6904
21
-56.8877
0
LINE
8
BLACK
6
CONTINUOUS
10
49.3094
20
-57.8401
11
49.3094
21
-59.1734
0
LINE
8
BLACK
6
CONTINUOUS
10
48.8332
20
-57.0782
11
48.357
21
-58.5068
0
LINE
8
BLACK
6
CONTINUOUS
10
48.357
20
-58.5068
11
49.5951
21
-58.5068
0
LINE
8
BLACK
6
CONTINUOUS
10
51.8808
20
-59.1734
11
51.8808
21
-57.1734
0
LINE
8
BLACK
6
CONTINUOUS
10
52.738
20
-59.1734
11
52.738
21
-58.1258
0
LINE
8
BLACK
6
CONTINUOUS
10
52.738
20
-58.1258
11
52.6427
21
-57.9353
0
LINE
8
BLACK
6
CONTINUOUS
10
52.6427
20
-57.9353
11
52.4523
21
-57.8401
0
LINE
8
BLACK
6
CONTINUOUS
10
52.4523
20
-57.8401
11
52.1666
21
-57.8401
0
LINE
8
BLACK
6
CONTINUOUS
10
52.1666
20
-57.8401
11
51.9761
21
-57.9353
0
LINE
8
BLACK
6
CONTINUOUS
10
51.9761
20
-57.9353
11
51.8808
21
-58.0306
0
LINE
8
BLACK
6
CONTINUOUS
10
53.9761
20
-59.1734
11
53.7856
21
-59.0782
0
LINE
8
BLACK
6
CONTINUOUS
10
53.7856
20
-59.0782
11
53.6904
21
-58.983
0
LINE
8
BLACK
6
CONTINUOUS
10
53.6904
20
-58.983
11
53.5951
21
-58.7925
0
LINE
8
BLACK
6
CONTINUOUS
10
53.5951
20
-58.7925
11
53.5951
21
-58.2211
0
LINE
8
BLACK
6
CONTINUOUS
10
53.5951
20
-58.2211
11
53.6904
21
-58.0306
0
LINE
8
BLACK
6
CONTINUOUS
10
53.6904
20
-58.0306
11
53.7856
21
-57.9353
0
LINE
8
BLACK
6
CONTINUOUS
10
53.7856
20
-57.9353
11
53.9761
21
-57.8401
0
LINE
8
BLACK
6
CONTINUOUS
10
53.9761
20
-57.8401
11
54.2618
21
-57.8401
0
LINE
8
BLACK
6
CONTINUOUS
10
54.2618
20
-57.8401
11
54.4523
21
-57.9353
0
LINE
8
BLACK
6
CONTINUOUS
10
54.4523
20
-57.9353
11
54.5475
21
-58.0306
0
LINE
8
BLACK
6
CONTINUOUS
10
54.5475
20
-58.0306
11
54.6427
21
-58.2211
0
LINE
8
BLACK
6
CONTINUOUS
10
54.6427
20
-58.2211
11
54.6427
21
-58.7925
0
LINE
8
BLACK
6
CONTINUOUS
10
54.6427
20
-58.7925
11
54.5475
21
-58.983
0
LINE
8
BLACK
6
CONTINUOUS
10
54.5475
20
-58.983
11
54.4523
21
-59.0782
0
LINE
8
BLACK
6
CONTINUOUS
10
54.4523
20
-59.0782
11
54.2618
21
-59.1734
0
LINE
8
BLACK
6
CONTINUOUS
10
54.2618
20
-59.1734
11
53.9761
21
-59.1734
0
LINE
8
BLACK
6
CONTINUOUS
10
55.7856
20
-59.1734
11
55.5951
21
-59.0782
0
LINE
8
BLACK
6
CONTINUOUS
10
55.5951
20
-59.0782
11
55.4999
21
-58.8877
0
LINE
8
BLACK
6
CONTINUOUS
10
55.4999
20
-58.8877
11
55.4999
21
-57.1734
0
LINE
8
BLACK
6
CONTINUOUS
10
57.3094
20
-59.0782
11
57.1189
21
-59.1734
0
LINE
8
BLACK
6
CONTINUOUS
10
57.1189
20
-59.1734
11
56.738
21
-59.1734
0
LINE
8
BLACK
6
CONTINUOUS
10
56.738
20
-59.1734
11
56.5475
21
-59.0782
0
LINE
8
BLACK
6
CONTINUOUS
10
56.5475
20
-59.0782
11
56.4523
21
-58.8877
0
LINE
8
BLACK
6
CONTINUOUS
10
56.4523
20
-58.8877
11
56.4523
21
-58.1258
0
LINE
8
BLACK
6
CONTINUOUS
10
56.4523
20
-58.1258
11
56.5475
21
-57.9353
0
LINE
8
BLACK
6
CONTINUOUS
10
56.5475
20
-57.9353
11
56.738
21
-57.8401
0
LINE
8
BLACK
6
CONTINUOUS
10
56.738
20
-57.8401
11
57.1189
21
-57.8401
0
LINE
8
BLACK
6
CONTINUOUS
10
57.1189
20
-57.8401
11
57.3094
21
-57.9353
0
LINE
8
BLACK
6
CONTINUOUS
10
57.3094
20
-57.9353
11
57.4047
21
-58.1258
0
LINE
8
BLACK
6
CONTINUOUS
10
57.4047
20
-58.1258
11
57.4047
21
-58.3163
0
LINE
8
BLACK
6
CONTINUOUS
10
57.4047
20
-58.3163
11
56.4523
21
-58.5068
0
LINE
8
BLACK
6
CONTINUOUS
10
58.1666
20
-59.0782
11
58.357
21
-59.1734
0
LINE
8
BLACK
6
CONTINUOUS
10
58.357
20
-59.1734
11
58.738
21
-59.1734
0
LINE
8
BLACK
6
CONTINUOUS
10
58.738
20
-59.1734
11
58.9285
21
-59.0782
0
LINE
8
BLACK
6
CONTINUOUS
10
58.9285
20
-59.0782
11
59.0237
21
-58.8877
0
LINE
8
BLACK
6
CONTINUOUS
10
59.0237
20
-58.8877
11
59.0237
21
-58.7925
0
LINE
8
BLACK
6
CONTINUOUS
10
59.0237
20
-58.7925
11
58.9285
21
-58.602
0
LINE
8
BLACK
6
CONTINUOUS
10
58.9285
20
-58.602
11
58.738
21
-58.5068
0
LINE
8
BLACK
6
CONTINUOUS
10
58.738
20
-58.5068
11
58.4523
21
-58.5068
0
LINE
8
BLACK
6
CONTINUOUS
10
58.4523
20
-58.5068
11
58.2618
21
-58.4115
0
LINE
8
BLACK
6
CONTINUOUS
10
58.2618
20
-58.4115
11
58.1666
21
-58.2211
0
LINE
8
BLACK
6
CONTINUOUS
10
58.1666
20
-58.2211
11
58.1666
21
-58.1258
0
LINE
8
BLACK
6
CONTINUOUS
10
58.1666
20
-58.1258
11
58.2618
21
-57.9353
0
LINE
8
BLACK
6
CONTINUOUS
10
58.2618
20
-57.9353
11
58.4523
21
-57.8401
0
LINE
8
BLACK
6
CONTINUOUS
10
58.4523
20
-57.8401
11
58.738
21
-57.8401
0
LINE
8
BLACK
6
CONTINUOUS
10
58.738
20
-57.8401
11
58.9285
21
-57.9353
0
LINE
8
BLACK
6
CONTINUOUS
10
59.6904
20
-59.9353
11
59.7856
21
-59.8401
0
LINE
8
BLACK
6
CONTINUOUS
10
59.7856
20
-59.8401
11
59.9761
21
-59.5544
0
LINE
8
BLACK
6
CONTINUOUS
10
59.9761
20
-59.5544
11
60.0713
21
-59.3639
0
LINE
8
BLACK
6
CONTINUOUS
10
60.0713
20
-59.3639
11
60.1666
21
-59.0782
0
LINE
8
BLACK
6
CONTINUOUS
10
60.1666
20
-59.0782
11
60.2618
21
-58.602
0
LINE
8
BLACK
6
CONTINUOUS
10
60.2618
20
-58.602
11
60.2618
21
-58.2211
0
LINE
8
BLACK
6
CONTINUOUS
10
60.2618
20
-58.2211
11
60.1666
21
-57.7449
0
LINE
8
BLACK
6
CONTINUOUS
10
60.1666
20
-57.7449
11
60.0713
21
-57.4592
0
LINE
8
BLACK
6
CONTINUOUS
10
60.0713
20
-57.4592
11
59.9761
21
-57.2687
0
LINE
8
BLACK
6
CONTINUOUS
10
59.9761
20
-57.2687
11
59.7856
21
-56.983
0
LINE
8
BLACK
6
CONTINUOUS
10
59.7856
20
-56.983
11
59.6904
21
-56.8877
  0
ENDSEC
  0
EOF
