%TF.GenerationSoftware,KiCad,Pcbnew,(6.0.7)*%
%TF.CreationDate,2022-09-16T11:39:32+01:00*%
%TF.ProjectId,gas sniffer,67617320-736e-4696-9666-65722e6b6963,rev?*%
%TF.SameCoordinates,Original*%
%TF.FileFunction,Copper,L2,Bot*%
%TF.FilePolarity,Positive*%
%FSLAX46Y46*%
G04 Gerber Fmt 4.6, Leading zero omitted, Abs format (unit mm)*
G04 Created by KiCad (PCBNEW (6.0.7)) date 2022-09-16 11:39:32*
%MOMM*%
%LPD*%
G01*
G04 APERTURE LIST*
%TA.AperFunction,ComponentPad*%
%ADD10C,1.950000*%
%TD*%
%TA.AperFunction,ComponentPad*%
%ADD11R,1.050000X1.500000*%
%TD*%
%TA.AperFunction,ComponentPad*%
%ADD12O,1.050000X1.500000*%
%TD*%
%TA.AperFunction,ComponentPad*%
%ADD13C,2.667000*%
%TD*%
%TA.AperFunction,ComponentPad*%
%ADD14O,1.600000X1.600000*%
%TD*%
%TA.AperFunction,ComponentPad*%
%ADD15C,1.600000*%
%TD*%
%TA.AperFunction,ComponentPad*%
%ADD16C,2.100000*%
%TD*%
%TA.AperFunction,ComponentPad*%
%ADD17R,2.100000X2.100000*%
%TD*%
%TA.AperFunction,ComponentPad*%
%ADD18C,1.935000*%
%TD*%
%TA.AperFunction,ComponentPad*%
%ADD19R,1.935000X1.935000*%
%TD*%
%TA.AperFunction,ComponentPad*%
%ADD20R,1.600000X1.600000*%
%TD*%
%TA.AperFunction,ComponentPad*%
%ADD21O,2.000000X2.000000*%
%TD*%
%TA.AperFunction,ComponentPad*%
%ADD22R,2.000000X2.000000*%
%TD*%
%TA.AperFunction,Conductor*%
%ADD23C,0.750000*%
%TD*%
G04 APERTURE END LIST*
D10*
X34500000Y-30750000D03*
X29500000Y-15750000D03*
X39500000Y-15750000D03*
D11*
X66000000Y-16750000D03*
D12*
X68540000Y-16750000D03*
X67270000Y-16750000D03*
D13*
X17210000Y-20290000D03*
X19750000Y-22830000D03*
X22290000Y-20290000D03*
X19750000Y-17750000D03*
D14*
X52750000Y-21590000D03*
D15*
X52750000Y-31750000D03*
D14*
X14090000Y-31000000D03*
D15*
X24250000Y-31000000D03*
D16*
X66500000Y-22750000D03*
X66500000Y-25250000D03*
X66500000Y-27750000D03*
D17*
X66500000Y-30250000D03*
D18*
X60080000Y-17250000D03*
X57540000Y-17250000D03*
D19*
X55000000Y-17250000D03*
D15*
X59500000Y-21750000D03*
D20*
X59500000Y-23750000D03*
D15*
X59500000Y-30500000D03*
D20*
X59500000Y-28500000D03*
D21*
X46500000Y-30000000D03*
D22*
X46500000Y-15000000D03*
D23*
X21168300Y-24248200D02*
X19750000Y-22830000D01*
X24250000Y-31000000D02*
X24250000Y-27330000D01*
X24250000Y-27330000D02*
X21168300Y-24248200D01*
X21168300Y-24248200D02*
X29500000Y-15916500D01*
X29500000Y-15916500D02*
X29500000Y-15750000D01*
X59500000Y-28500000D02*
X59500000Y-23750000D01*
X66000000Y-16750000D02*
X64725000Y-16750000D01*
X60080000Y-17250000D02*
X64225000Y-17250000D01*
X64225000Y-17250000D02*
X64725000Y-16750000D01*
X57540000Y-30500000D02*
X56290000Y-31750000D01*
X56290000Y-31750000D02*
X52750000Y-31750000D01*
X57540000Y-17250000D02*
X57540000Y-30500000D01*
X59500000Y-30500000D02*
X57540000Y-30500000D01*
X55000000Y-17250000D02*
X55000000Y-18967500D01*
X55000000Y-18967500D02*
X54597500Y-18967500D01*
X54597500Y-18967500D02*
X52750000Y-20815000D01*
X52750000Y-20815000D02*
X44565000Y-20815000D01*
X44565000Y-20815000D02*
X39500000Y-15750000D01*
X52750000Y-21590000D02*
X52750000Y-20815000D01*
X64775300Y-21830900D02*
X59580900Y-21830900D01*
X59580900Y-21830900D02*
X59500000Y-21750000D01*
X68540000Y-18250000D02*
X64959100Y-21830900D01*
X64959100Y-21830900D02*
X64775300Y-21830900D01*
X66500000Y-27750000D02*
X64775300Y-26025300D01*
X64775300Y-26025300D02*
X64775300Y-21830900D01*
X68540000Y-16750000D02*
X68540000Y-18250000D01*
X14090000Y-31000000D02*
X14090000Y-29450000D01*
X14090000Y-29450000D02*
X17210000Y-26330000D01*
X17210000Y-26330000D02*
X17210000Y-20290000D01*
%TA.AperFunction,Conductor*%
G36*
X73973721Y-12506324D02*
G01*
X73987264Y-12508432D01*
X73997407Y-12510011D01*
X74014605Y-12507762D01*
X74038546Y-12506929D01*
X74296395Y-12522524D01*
X74311497Y-12524358D01*
X74331592Y-12528040D01*
X74592440Y-12575841D01*
X74607213Y-12579482D01*
X74790935Y-12636731D01*
X74879905Y-12664455D01*
X74894128Y-12669849D01*
X75154595Y-12787074D01*
X75168069Y-12794146D01*
X75412497Y-12941908D01*
X75425019Y-12950551D01*
X75649862Y-13126704D01*
X75661250Y-13136794D01*
X75863206Y-13338750D01*
X75873296Y-13350138D01*
X76049449Y-13574981D01*
X76058092Y-13587503D01*
X76205854Y-13831931D01*
X76212926Y-13845405D01*
X76330151Y-14105872D01*
X76335546Y-14120098D01*
X76420518Y-14392787D01*
X76424159Y-14407560D01*
X76475642Y-14688500D01*
X76477476Y-14703605D01*
X76490008Y-14910796D01*
X76492634Y-14954221D01*
X76491372Y-14981026D01*
X76491370Y-14981170D01*
X76489989Y-14990041D01*
X76491153Y-14998944D01*
X76491153Y-14998949D01*
X76494116Y-15021611D01*
X76495180Y-15037947D01*
X76495180Y-32954316D01*
X76493680Y-32973701D01*
X76491370Y-32988534D01*
X76491370Y-32988538D01*
X76489989Y-32997407D01*
X76491446Y-33008545D01*
X76492238Y-33014604D01*
X76493071Y-33038546D01*
X76477476Y-33296395D01*
X76475642Y-33311500D01*
X76424159Y-33592440D01*
X76420518Y-33607213D01*
X76335546Y-33879902D01*
X76330151Y-33894128D01*
X76212926Y-34154595D01*
X76205854Y-34168069D01*
X76058092Y-34412497D01*
X76049449Y-34425019D01*
X75873296Y-34649862D01*
X75863206Y-34661250D01*
X75661250Y-34863206D01*
X75649862Y-34873296D01*
X75425019Y-35049449D01*
X75412497Y-35058092D01*
X75168069Y-35205854D01*
X75154595Y-35212926D01*
X74894128Y-35330151D01*
X74879905Y-35335545D01*
X74790935Y-35363269D01*
X74607213Y-35420518D01*
X74592440Y-35424159D01*
X74451970Y-35449900D01*
X74311497Y-35475642D01*
X74296395Y-35477476D01*
X74045775Y-35492634D01*
X74018974Y-35491372D01*
X74018830Y-35491370D01*
X74009959Y-35489989D01*
X74001056Y-35491153D01*
X74001051Y-35491153D01*
X73978389Y-35494116D01*
X73962053Y-35495180D01*
X15045687Y-35495180D01*
X15026302Y-35493680D01*
X15011469Y-35491370D01*
X15011465Y-35491370D01*
X15002596Y-35489989D01*
X14985397Y-35492238D01*
X14961457Y-35493071D01*
X14703610Y-35477474D01*
X14688506Y-35475640D01*
X14616534Y-35462451D01*
X14407560Y-35424155D01*
X14392793Y-35420516D01*
X14120089Y-35335538D01*
X14105875Y-35330146D01*
X13845412Y-35212922D01*
X13831941Y-35205852D01*
X13587507Y-35058085D01*
X13574986Y-35049442D01*
X13350149Y-34873295D01*
X13338760Y-34863205D01*
X13136795Y-34661240D01*
X13126705Y-34649851D01*
X12950558Y-34425014D01*
X12941915Y-34412493D01*
X12794148Y-34168059D01*
X12787077Y-34154586D01*
X12669854Y-33894125D01*
X12664461Y-33879907D01*
X12664460Y-33879902D01*
X12579484Y-33607206D01*
X12575845Y-33592440D01*
X12524360Y-33311494D01*
X12522526Y-33296390D01*
X12507589Y-33049448D01*
X12508840Y-33025896D01*
X12508654Y-33025879D01*
X12509089Y-33021030D01*
X12509896Y-33016232D01*
X12510049Y-33003680D01*
X12506102Y-32976115D01*
X12504830Y-32958229D01*
X12505230Y-31000000D01*
X12776502Y-31000000D01*
X12796457Y-31228087D01*
X12797881Y-31233400D01*
X12797881Y-31233402D01*
X12849374Y-31425573D01*
X12855716Y-31449243D01*
X12858039Y-31454224D01*
X12858039Y-31454225D01*
X12950151Y-31651762D01*
X12950154Y-31651767D01*
X12952477Y-31656749D01*
X12955634Y-31661257D01*
X13064585Y-31816855D01*
X13083802Y-31844300D01*
X13245700Y-32006198D01*
X13250208Y-32009355D01*
X13250211Y-32009357D01*
X13328389Y-32064098D01*
X13433251Y-32137523D01*
X13438233Y-32139846D01*
X13438238Y-32139849D01*
X13634765Y-32231490D01*
X13640757Y-32234284D01*
X13646065Y-32235706D01*
X13646067Y-32235707D01*
X13856598Y-32292119D01*
X13856600Y-32292119D01*
X13861913Y-32293543D01*
X14090000Y-32313498D01*
X14318087Y-32293543D01*
X14323400Y-32292119D01*
X14323402Y-32292119D01*
X14533933Y-32235707D01*
X14533935Y-32235706D01*
X14539243Y-32234284D01*
X14545235Y-32231490D01*
X14741762Y-32139849D01*
X14741767Y-32139846D01*
X14746749Y-32137523D01*
X14820243Y-32086062D01*
X23528493Y-32086062D01*
X23537789Y-32098077D01*
X23588994Y-32133931D01*
X23598489Y-32139414D01*
X23795947Y-32231490D01*
X23806239Y-32235236D01*
X24016688Y-32291625D01*
X24027481Y-32293528D01*
X24244525Y-32312517D01*
X24255475Y-32312517D01*
X24472519Y-32293528D01*
X24483312Y-32291625D01*
X24693761Y-32235236D01*
X24704053Y-32231490D01*
X24901511Y-32139414D01*
X24911006Y-32133931D01*
X24963048Y-32097491D01*
X24971424Y-32087012D01*
X24964356Y-32073566D01*
X24262812Y-31372022D01*
X24248868Y-31364408D01*
X24247035Y-31364539D01*
X24240420Y-31368790D01*
X23534923Y-32074287D01*
X23528493Y-32086062D01*
X14820243Y-32086062D01*
X14851611Y-32064098D01*
X14929789Y-32009357D01*
X14929792Y-32009355D01*
X14934300Y-32006198D01*
X15096198Y-31844300D01*
X15115416Y-31816855D01*
X15224366Y-31661257D01*
X15227523Y-31656749D01*
X15229846Y-31651767D01*
X15229849Y-31651762D01*
X15321961Y-31454225D01*
X15321961Y-31454224D01*
X15324284Y-31449243D01*
X15330627Y-31425573D01*
X15382119Y-31233402D01*
X15382119Y-31233400D01*
X15383543Y-31228087D01*
X15403019Y-31005475D01*
X22937483Y-31005475D01*
X22956472Y-31222519D01*
X22958375Y-31233312D01*
X23014764Y-31443761D01*
X23018510Y-31454053D01*
X23110586Y-31651511D01*
X23116069Y-31661006D01*
X23152509Y-31713048D01*
X23162988Y-31721424D01*
X23176434Y-31714356D01*
X23877978Y-31012812D01*
X23884356Y-31001132D01*
X24614408Y-31001132D01*
X24614539Y-31002965D01*
X24618790Y-31009580D01*
X25324287Y-31715077D01*
X25336062Y-31721507D01*
X25348077Y-31712211D01*
X25383931Y-31661006D01*
X25389414Y-31651511D01*
X25481490Y-31454053D01*
X25485236Y-31443761D01*
X25541625Y-31233312D01*
X25543528Y-31222519D01*
X25562517Y-31005475D01*
X25562517Y-30994525D01*
X25543528Y-30777481D01*
X25541625Y-30766688D01*
X25527409Y-30713631D01*
X33011860Y-30713631D01*
X33012157Y-30718783D01*
X33012157Y-30718787D01*
X33018547Y-30829595D01*
X33025903Y-30957171D01*
X33027040Y-30962217D01*
X33027041Y-30962223D01*
X33051223Y-31069527D01*
X33079533Y-31195147D01*
X33081475Y-31199929D01*
X33081476Y-31199933D01*
X33141680Y-31348197D01*
X33171311Y-31421169D01*
X33298772Y-31629166D01*
X33458492Y-31813553D01*
X33646183Y-31969377D01*
X33856804Y-32092453D01*
X33861629Y-32094295D01*
X33861630Y-32094296D01*
X33964763Y-32133679D01*
X34084698Y-32179478D01*
X34089764Y-32180509D01*
X34089765Y-32180509D01*
X34318667Y-32227080D01*
X34318671Y-32227080D01*
X34323746Y-32228113D01*
X34328922Y-32228303D01*
X34328924Y-32228303D01*
X34562363Y-32236863D01*
X34562367Y-32236863D01*
X34567527Y-32237052D01*
X34572647Y-32236396D01*
X34572649Y-32236396D01*
X34649377Y-32226567D01*
X34809494Y-32206055D01*
X34814443Y-32204570D01*
X34814449Y-32204569D01*
X35014337Y-32144599D01*
X35043150Y-32135955D01*
X35262219Y-32028634D01*
X35266424Y-32025634D01*
X35266430Y-32025631D01*
X35456614Y-31889974D01*
X35456616Y-31889972D01*
X35460818Y-31886975D01*
X35633614Y-31714781D01*
X35775966Y-31516677D01*
X35791305Y-31485642D01*
X35881756Y-31302626D01*
X35881757Y-31302624D01*
X35884050Y-31297984D01*
X35916827Y-31190105D01*
X35953462Y-31069527D01*
X35953463Y-31069521D01*
X35954966Y-31064575D01*
X35986807Y-30822717D01*
X35986889Y-30819365D01*
X35988502Y-30753365D01*
X35988502Y-30753361D01*
X35988584Y-30750000D01*
X35968596Y-30506876D01*
X35909167Y-30270280D01*
X35907928Y-30267431D01*
X45013353Y-30267431D01*
X45060218Y-30462634D01*
X45063264Y-30472008D01*
X45150313Y-30682163D01*
X45154795Y-30690958D01*
X45273643Y-30884899D01*
X45279443Y-30892883D01*
X45427178Y-31065858D01*
X45434142Y-31072822D01*
X45607117Y-31220557D01*
X45615101Y-31226357D01*
X45809042Y-31345205D01*
X45817837Y-31349687D01*
X46027992Y-31436736D01*
X46037366Y-31439782D01*
X46228385Y-31485642D01*
X46242469Y-31484937D01*
X46246000Y-31476056D01*
X46246000Y-31471756D01*
X46754000Y-31471756D01*
X46757973Y-31485287D01*
X46767431Y-31486647D01*
X46962634Y-31439782D01*
X46972008Y-31436736D01*
X47182163Y-31349687D01*
X47190958Y-31345205D01*
X47384899Y-31226357D01*
X47392883Y-31220557D01*
X47565858Y-31072822D01*
X47572822Y-31065858D01*
X47720557Y-30892883D01*
X47726357Y-30884899D01*
X47845205Y-30690958D01*
X47849687Y-30682163D01*
X47936736Y-30472008D01*
X47939782Y-30462634D01*
X47985642Y-30271615D01*
X47984937Y-30257531D01*
X47976056Y-30254000D01*
X46772115Y-30254000D01*
X46756876Y-30258475D01*
X46755671Y-30259865D01*
X46754000Y-30267548D01*
X46754000Y-31471756D01*
X46246000Y-31471756D01*
X46246000Y-30272115D01*
X46241525Y-30256876D01*
X46240135Y-30255671D01*
X46232452Y-30254000D01*
X45028244Y-30254000D01*
X45014713Y-30257973D01*
X45013353Y-30267431D01*
X35907928Y-30267431D01*
X35822042Y-30069907D01*
X35813954Y-30051305D01*
X35813952Y-30051302D01*
X35811894Y-30046568D01*
X35679390Y-29841748D01*
X35674779Y-29836680D01*
X35576238Y-29728385D01*
X45014358Y-29728385D01*
X45015063Y-29742469D01*
X45023944Y-29746000D01*
X46227885Y-29746000D01*
X46243124Y-29741525D01*
X46244329Y-29740135D01*
X46246000Y-29732452D01*
X46246000Y-29727885D01*
X46754000Y-29727885D01*
X46758475Y-29743124D01*
X46759865Y-29744329D01*
X46767548Y-29746000D01*
X47971756Y-29746000D01*
X47985287Y-29742027D01*
X47986647Y-29732569D01*
X47939782Y-29537366D01*
X47936736Y-29527992D01*
X47849687Y-29317837D01*
X47845205Y-29309042D01*
X47726357Y-29115101D01*
X47720557Y-29107117D01*
X47572822Y-28934142D01*
X47565858Y-28927178D01*
X47392883Y-28779443D01*
X47384899Y-28773643D01*
X47190958Y-28654795D01*
X47182163Y-28650313D01*
X46972008Y-28563264D01*
X46962634Y-28560218D01*
X46771615Y-28514358D01*
X46757531Y-28515063D01*
X46754000Y-28523944D01*
X46754000Y-29727885D01*
X46246000Y-29727885D01*
X46246000Y-28528244D01*
X46242027Y-28514713D01*
X46232569Y-28513353D01*
X46037366Y-28560218D01*
X46027992Y-28563264D01*
X45817837Y-28650313D01*
X45809042Y-28654795D01*
X45615101Y-28773643D01*
X45607117Y-28779443D01*
X45434142Y-28927178D01*
X45427178Y-28934142D01*
X45279443Y-29107117D01*
X45273643Y-29115101D01*
X45154795Y-29309042D01*
X45150313Y-29317837D01*
X45063264Y-29527992D01*
X45060218Y-29537366D01*
X45014358Y-29728385D01*
X35576238Y-29728385D01*
X35518690Y-29665141D01*
X35518688Y-29665140D01*
X35515212Y-29661319D01*
X35511161Y-29658120D01*
X35511157Y-29658116D01*
X35327825Y-29513329D01*
X35327821Y-29513327D01*
X35323770Y-29510127D01*
X35287133Y-29489902D01*
X35267759Y-29479207D01*
X35110205Y-29392233D01*
X35105336Y-29390509D01*
X35105332Y-29390507D01*
X34885127Y-29312528D01*
X34885123Y-29312527D01*
X34880252Y-29310802D01*
X34875159Y-29309895D01*
X34875156Y-29309894D01*
X34645177Y-29268928D01*
X34645171Y-29268927D01*
X34640088Y-29268022D01*
X34560380Y-29267048D01*
X34401332Y-29265105D01*
X34401330Y-29265105D01*
X34396162Y-29265042D01*
X34155024Y-29301941D01*
X33923150Y-29377729D01*
X33918558Y-29380119D01*
X33918559Y-29380119D01*
X33828792Y-29426849D01*
X33706769Y-29490370D01*
X33702636Y-29493473D01*
X33702633Y-29493475D01*
X33538780Y-29616500D01*
X33511690Y-29636840D01*
X33343153Y-29813204D01*
X33340239Y-29817476D01*
X33340238Y-29817477D01*
X33322656Y-29843251D01*
X33205684Y-30014726D01*
X33102974Y-30235995D01*
X33037783Y-30471067D01*
X33011860Y-30713631D01*
X25527409Y-30713631D01*
X25485236Y-30556239D01*
X25481490Y-30545947D01*
X25389414Y-30348489D01*
X25383931Y-30338994D01*
X25347491Y-30286952D01*
X25337012Y-30278576D01*
X25323566Y-30285644D01*
X24622022Y-30987188D01*
X24614408Y-31001132D01*
X23884356Y-31001132D01*
X23885592Y-30998868D01*
X23885461Y-30997035D01*
X23881210Y-30990420D01*
X23175713Y-30284923D01*
X23163938Y-30278493D01*
X23151923Y-30287789D01*
X23116069Y-30338994D01*
X23110586Y-30348489D01*
X23018510Y-30545947D01*
X23014764Y-30556239D01*
X22958375Y-30766688D01*
X22956472Y-30777481D01*
X22937483Y-30994525D01*
X22937483Y-31005475D01*
X15403019Y-31005475D01*
X15403498Y-31000000D01*
X15383543Y-30771913D01*
X15378573Y-30753365D01*
X15325707Y-30556067D01*
X15325706Y-30556065D01*
X15324284Y-30550757D01*
X15321961Y-30545775D01*
X15229849Y-30348238D01*
X15229846Y-30348233D01*
X15227523Y-30343251D01*
X15096198Y-30155700D01*
X15010405Y-30069907D01*
X14976379Y-30007595D01*
X14973500Y-29980812D01*
X14973500Y-29912988D01*
X23528576Y-29912988D01*
X23535644Y-29926434D01*
X24237188Y-30627978D01*
X24251132Y-30635592D01*
X24252965Y-30635461D01*
X24259580Y-30631210D01*
X24965077Y-29925713D01*
X24971507Y-29913938D01*
X24962211Y-29901923D01*
X24911006Y-29866069D01*
X24901511Y-29860586D01*
X24704053Y-29768510D01*
X24693761Y-29764764D01*
X24483312Y-29708375D01*
X24472519Y-29706472D01*
X24255475Y-29687483D01*
X24244525Y-29687483D01*
X24027481Y-29706472D01*
X24016688Y-29708375D01*
X23806239Y-29764764D01*
X23795947Y-29768510D01*
X23598489Y-29860586D01*
X23588994Y-29866069D01*
X23536952Y-29902509D01*
X23528576Y-29912988D01*
X14973500Y-29912988D01*
X14973500Y-29868148D01*
X14993502Y-29800027D01*
X15010405Y-29779053D01*
X17778546Y-27010912D01*
X17793574Y-26998075D01*
X17804434Y-26990185D01*
X17848886Y-26940816D01*
X17853427Y-26936031D01*
X17867472Y-26921986D01*
X17869559Y-26919409D01*
X17879969Y-26906554D01*
X17884253Y-26901538D01*
X17924283Y-26857080D01*
X17924287Y-26857075D01*
X17928704Y-26852169D01*
X17935411Y-26840552D01*
X17946609Y-26824259D01*
X17950891Y-26818971D01*
X17955047Y-26813839D01*
X17985213Y-26754637D01*
X17988346Y-26748867D01*
X18018260Y-26697055D01*
X18018262Y-26697050D01*
X18021564Y-26691331D01*
X18023605Y-26685051D01*
X18023608Y-26685043D01*
X18025708Y-26678579D01*
X18033272Y-26660317D01*
X18036365Y-26654245D01*
X18039362Y-26648363D01*
X18056559Y-26584183D01*
X18058424Y-26577888D01*
X18078954Y-26514702D01*
X18079644Y-26508133D01*
X18079646Y-26508126D01*
X18080358Y-26501355D01*
X18083958Y-26481926D01*
X18087429Y-26468971D01*
X18090905Y-26402647D01*
X18091422Y-26396078D01*
X18093156Y-26379577D01*
X18093500Y-26376306D01*
X18093500Y-26356426D01*
X18093673Y-26349831D01*
X18096804Y-26290098D01*
X18096804Y-26290094D01*
X18097149Y-26283507D01*
X18095051Y-26270260D01*
X18093500Y-26250550D01*
X18093500Y-24300535D01*
X18644633Y-24300535D01*
X18652022Y-24310836D01*
X18684966Y-24337657D01*
X18692245Y-24342772D01*
X18908022Y-24472681D01*
X18915946Y-24476718D01*
X19147879Y-24574930D01*
X19156284Y-24577808D01*
X19399756Y-24642363D01*
X19408474Y-24644026D01*
X19658614Y-24673631D01*
X19667482Y-24674049D01*
X19919284Y-24668115D01*
X19928144Y-24667278D01*
X20176586Y-24625926D01*
X20185243Y-24623847D01*
X20425387Y-24547900D01*
X20433649Y-24544629D01*
X20660699Y-24435601D01*
X20668423Y-24431195D01*
X20847319Y-24311659D01*
X20855608Y-24301741D01*
X20848352Y-24287563D01*
X19762810Y-23202020D01*
X19748869Y-23194408D01*
X19747034Y-23194539D01*
X19740420Y-23198790D01*
X18651799Y-24287412D01*
X18644633Y-24300535D01*
X18093500Y-24300535D01*
X18093500Y-24048343D01*
X18113502Y-23980222D01*
X18167158Y-23933729D01*
X18237432Y-23923625D01*
X18261803Y-23934264D01*
X18277229Y-23935956D01*
X18293128Y-23927661D01*
X19660905Y-22559885D01*
X19723217Y-22525859D01*
X19794033Y-22530924D01*
X19839095Y-22559885D01*
X21208316Y-23929105D01*
X21221716Y-23936423D01*
X21231619Y-23929436D01*
X21240748Y-23918576D01*
X21245966Y-23911393D01*
X21379258Y-23697668D01*
X21383410Y-23689828D01*
X21485258Y-23459450D01*
X21488268Y-23451089D01*
X21521276Y-23334052D01*
X30487391Y-23334052D01*
X30487612Y-23337171D01*
X30487612Y-23337178D01*
X30503735Y-23564895D01*
X30515579Y-23732168D01*
X30583169Y-24125515D01*
X30689491Y-24510205D01*
X30690614Y-24513107D01*
X30690617Y-24513117D01*
X30803016Y-24803649D01*
X30833495Y-24882433D01*
X30834908Y-24885224D01*
X30834911Y-24885231D01*
X30851644Y-24918285D01*
X31013757Y-25238518D01*
X31015436Y-25241148D01*
X31015442Y-25241159D01*
X31141363Y-25438434D01*
X31228494Y-25574939D01*
X31230423Y-25577386D01*
X31230428Y-25577393D01*
X31375769Y-25761756D01*
X31475582Y-25888368D01*
X31477757Y-25890624D01*
X31477762Y-25890630D01*
X31540551Y-25955763D01*
X31752578Y-26175708D01*
X31754971Y-26177741D01*
X32054348Y-26432081D01*
X32054357Y-26432088D01*
X32056743Y-26434115D01*
X32059323Y-26435898D01*
X32382497Y-26659258D01*
X32382506Y-26659263D01*
X32385069Y-26661035D01*
X32387804Y-26662548D01*
X32387809Y-26662551D01*
X32454057Y-26699197D01*
X32734309Y-26854224D01*
X32737178Y-26855457D01*
X32737189Y-26855462D01*
X33098142Y-27010539D01*
X33101010Y-27011771D01*
X33103987Y-27012712D01*
X33103991Y-27012714D01*
X33191117Y-27040268D01*
X33481545Y-27132118D01*
X33484613Y-27132762D01*
X33484614Y-27132762D01*
X33676849Y-27173097D01*
X33872152Y-27214076D01*
X33875269Y-27214412D01*
X33875270Y-27214412D01*
X34266516Y-27256570D01*
X34266519Y-27256570D01*
X34268967Y-27256834D01*
X34271430Y-27256905D01*
X34271431Y-27256905D01*
X34274681Y-27256999D01*
X34326803Y-27258500D01*
X34600217Y-27258500D01*
X34601780Y-27258422D01*
X34601788Y-27258422D01*
X34699009Y-27253582D01*
X34898619Y-27243645D01*
X34901704Y-27243181D01*
X34901706Y-27243181D01*
X35290203Y-27184773D01*
X35293296Y-27184308D01*
X35399786Y-27157263D01*
X35677085Y-27086838D01*
X35677088Y-27086837D01*
X35680128Y-27086065D01*
X35697305Y-27079830D01*
X36052352Y-26950955D01*
X36052362Y-26950951D01*
X36055290Y-26949888D01*
X36415071Y-26777123D01*
X36755915Y-26569479D01*
X36932862Y-26435898D01*
X37071957Y-26330892D01*
X37071960Y-26330890D01*
X37074451Y-26329009D01*
X37076733Y-26326899D01*
X37076742Y-26326892D01*
X37349369Y-26074877D01*
X37367528Y-26058091D01*
X37373153Y-26051745D01*
X37630165Y-25761756D01*
X37632249Y-25759405D01*
X37865995Y-25435903D01*
X38066455Y-25090785D01*
X38081530Y-25057631D01*
X38230349Y-24730321D01*
X38231648Y-24727464D01*
X38251795Y-24668115D01*
X38358931Y-24352499D01*
X38358932Y-24352496D01*
X38359938Y-24349532D01*
X38360642Y-24346494D01*
X38360645Y-24346484D01*
X38449353Y-23963770D01*
X38449353Y-23963768D01*
X38450058Y-23960728D01*
X38501117Y-23564895D01*
X38512609Y-23165948D01*
X38503943Y-23043543D01*
X38484643Y-22770968D01*
X38484421Y-22767832D01*
X38416831Y-22374485D01*
X38399215Y-22310745D01*
X38325722Y-22044839D01*
X38310509Y-21989795D01*
X38309386Y-21986893D01*
X38309383Y-21986883D01*
X38177532Y-21646071D01*
X38166505Y-21617567D01*
X38155322Y-21595475D01*
X38063380Y-21413856D01*
X37986243Y-21261482D01*
X37984564Y-21258852D01*
X37984558Y-21258841D01*
X37780132Y-20938575D01*
X37771506Y-20925061D01*
X37769577Y-20922614D01*
X37769572Y-20922607D01*
X37526362Y-20614098D01*
X37524418Y-20611632D01*
X37522243Y-20609376D01*
X37522238Y-20609370D01*
X37374367Y-20455978D01*
X37247422Y-20324292D01*
X37203266Y-20286779D01*
X36945652Y-20067919D01*
X36945643Y-20067912D01*
X36943257Y-20065885D01*
X36801877Y-19968171D01*
X36617503Y-19840742D01*
X36617494Y-19840737D01*
X36614931Y-19838965D01*
X36612196Y-19837452D01*
X36612191Y-19837449D01*
X36380862Y-19709485D01*
X36265691Y-19645776D01*
X36262822Y-19644543D01*
X36262811Y-19644538D01*
X35901858Y-19489461D01*
X35901855Y-19489460D01*
X35898990Y-19488229D01*
X35896013Y-19487288D01*
X35896009Y-19487286D01*
X35673847Y-19417026D01*
X35518455Y-19367882D01*
X35497233Y-19363429D01*
X35273395Y-19316463D01*
X35127848Y-19285924D01*
X35115106Y-19284551D01*
X34733484Y-19243430D01*
X34733481Y-19243430D01*
X34731033Y-19243166D01*
X34728570Y-19243095D01*
X34728569Y-19243095D01*
X34725319Y-19243001D01*
X34673197Y-19241500D01*
X34399783Y-19241500D01*
X34398220Y-19241578D01*
X34398212Y-19241578D01*
X34300991Y-19246418D01*
X34101381Y-19256355D01*
X34098296Y-19256819D01*
X34098294Y-19256819D01*
X33872032Y-19290836D01*
X33706704Y-19315692D01*
X33703669Y-19316463D01*
X33703668Y-19316463D01*
X33322915Y-19413162D01*
X33322912Y-19413163D01*
X33319872Y-19413935D01*
X33316925Y-19415005D01*
X33316924Y-19415005D01*
X32947648Y-19549045D01*
X32947638Y-19549049D01*
X32944710Y-19550112D01*
X32584929Y-19722877D01*
X32244085Y-19930521D01*
X32241575Y-19932416D01*
X32064777Y-20065885D01*
X31925549Y-20170991D01*
X31923267Y-20173101D01*
X31923258Y-20173108D01*
X31859556Y-20231994D01*
X31632472Y-20441909D01*
X31630400Y-20444247D01*
X31630395Y-20444252D01*
X31583624Y-20497024D01*
X31367751Y-20740595D01*
X31134005Y-21064097D01*
X30933545Y-21409215D01*
X30932255Y-21412052D01*
X30932253Y-21412056D01*
X30806352Y-21688959D01*
X30768352Y-21772536D01*
X30767344Y-21775505D01*
X30767341Y-21775513D01*
X30647516Y-22128509D01*
X30640062Y-22150468D01*
X30639358Y-22153506D01*
X30639355Y-22153516D01*
X30553051Y-22525859D01*
X30549942Y-22539272D01*
X30517851Y-22788058D01*
X30502724Y-22905331D01*
X30498883Y-22935105D01*
X30487391Y-23334052D01*
X21521276Y-23334052D01*
X21556634Y-23208680D01*
X21558438Y-23199972D01*
X21592134Y-22949106D01*
X21592662Y-22942713D01*
X21596103Y-22833222D01*
X21595976Y-22826779D01*
X21578101Y-22574317D01*
X21576848Y-22565513D01*
X21523835Y-22319278D01*
X21521356Y-22310745D01*
X21470949Y-22174112D01*
X21466137Y-22103278D01*
X21500384Y-22041088D01*
X21562818Y-22007286D01*
X21638290Y-22014474D01*
X21691820Y-22037141D01*
X21696117Y-22038280D01*
X21696122Y-22038282D01*
X21817891Y-22070568D01*
X21943962Y-22103995D01*
X22203008Y-22134655D01*
X22463790Y-22128509D01*
X22468188Y-22127777D01*
X22716715Y-22086411D01*
X22716719Y-22086410D01*
X22721105Y-22085680D01*
X22725346Y-22084339D01*
X22725349Y-22084338D01*
X22965571Y-22008366D01*
X22965573Y-22008365D01*
X22969817Y-22007023D01*
X22973828Y-22005097D01*
X22973833Y-22005095D01*
X23200947Y-21896036D01*
X23200948Y-21896035D01*
X23204966Y-21894106D01*
X23208672Y-21891630D01*
X23418151Y-21751661D01*
X23418155Y-21751658D01*
X23421859Y-21749183D01*
X23616167Y-21575146D01*
X23784016Y-21375466D01*
X23792469Y-21361913D01*
X23846809Y-21274780D01*
X23922054Y-21154128D01*
X24027529Y-20915549D01*
X24028955Y-20910495D01*
X24073240Y-20753472D01*
X24098336Y-20664488D01*
X24105739Y-20609370D01*
X24132634Y-20409138D01*
X24132635Y-20409130D01*
X24133061Y-20405956D01*
X24133162Y-20402745D01*
X24136604Y-20293222D01*
X24136604Y-20293217D01*
X24136705Y-20290000D01*
X24118282Y-20029797D01*
X24063379Y-19774786D01*
X24057587Y-19759084D01*
X23974634Y-19534231D01*
X23973093Y-19530054D01*
X23849225Y-19300486D01*
X23842098Y-19290836D01*
X23696887Y-19094238D01*
X23694245Y-19090661D01*
X23511248Y-18904766D01*
X23461880Y-18867089D01*
X23307423Y-18749212D01*
X23303883Y-18746510D01*
X23256721Y-18720098D01*
X23080175Y-18621227D01*
X23080172Y-18621226D01*
X23076289Y-18619051D01*
X23072144Y-18617447D01*
X23072141Y-18617446D01*
X22928800Y-18561992D01*
X22833006Y-18524932D01*
X22828685Y-18523930D01*
X22828677Y-18523928D01*
X22616543Y-18474759D01*
X22578888Y-18466031D01*
X22319007Y-18443523D01*
X22314572Y-18443767D01*
X22314568Y-18443767D01*
X22062989Y-18457612D01*
X22062982Y-18457613D01*
X22058546Y-18457857D01*
X21802704Y-18508747D01*
X21752040Y-18526539D01*
X21634617Y-18567775D01*
X21563716Y-18571473D01*
X21502072Y-18536253D01*
X21469254Y-18473297D01*
X21477627Y-18397947D01*
X21487529Y-18375549D01*
X21498905Y-18335215D01*
X21534246Y-18209904D01*
X21558336Y-18124488D01*
X21566788Y-18061564D01*
X21592634Y-17869138D01*
X21592635Y-17869130D01*
X21593061Y-17865956D01*
X21593371Y-17856082D01*
X21596604Y-17753222D01*
X21596604Y-17753217D01*
X21596705Y-17750000D01*
X21578282Y-17489797D01*
X21523379Y-17234786D01*
X21520988Y-17228303D01*
X21434634Y-16994231D01*
X21433093Y-16990054D01*
X21420451Y-16966624D01*
X28648621Y-16966624D01*
X28652988Y-16972774D01*
X28852563Y-17089397D01*
X28861846Y-17093844D01*
X29080007Y-17177152D01*
X29089905Y-17180028D01*
X29318744Y-17226585D01*
X29328972Y-17227804D01*
X29562340Y-17236362D01*
X29572626Y-17235895D01*
X29804262Y-17206222D01*
X29814340Y-17204080D01*
X30038014Y-17136974D01*
X30047612Y-17133212D01*
X30257324Y-17030476D01*
X30266169Y-17025203D01*
X30338869Y-16973347D01*
X30347270Y-16962646D01*
X30340283Y-16949493D01*
X29512812Y-16122022D01*
X29498868Y-16114408D01*
X29497035Y-16114539D01*
X29490420Y-16118790D01*
X28655881Y-16953329D01*
X28648621Y-16966624D01*
X21420451Y-16966624D01*
X21309225Y-16760486D01*
X21154245Y-16550661D01*
X20971248Y-16364766D01*
X20947312Y-16346498D01*
X20795932Y-16230969D01*
X20763883Y-16206510D01*
X20625940Y-16129258D01*
X20540175Y-16081227D01*
X20540172Y-16081226D01*
X20536289Y-16079051D01*
X20532144Y-16077447D01*
X20532141Y-16077446D01*
X20395516Y-16024590D01*
X20293006Y-15984932D01*
X20288685Y-15983930D01*
X20288677Y-15983928D01*
X20121561Y-15945194D01*
X20038888Y-15926031D01*
X19779007Y-15903523D01*
X19774572Y-15903767D01*
X19774568Y-15903767D01*
X19522989Y-15917612D01*
X19522982Y-15917613D01*
X19518546Y-15917857D01*
X19262704Y-15968747D01*
X19016585Y-16055178D01*
X18785099Y-16175425D01*
X18781484Y-16178008D01*
X18781478Y-16178012D01*
X18647402Y-16273824D01*
X18572866Y-16327089D01*
X18384120Y-16507144D01*
X18381364Y-16510639D01*
X18381363Y-16510641D01*
X18284849Y-16633069D01*
X18222626Y-16711998D01*
X18220389Y-16715850D01*
X18093842Y-16933715D01*
X18093839Y-16933721D01*
X18091608Y-16937562D01*
X18089938Y-16941685D01*
X17995352Y-17175205D01*
X17995349Y-17175213D01*
X17993679Y-17179337D01*
X17930794Y-17432498D01*
X17904206Y-17691994D01*
X17906485Y-17750000D01*
X17914156Y-17945229D01*
X17914447Y-17952647D01*
X17915245Y-17957019D01*
X17915246Y-17957024D01*
X17936477Y-18073272D01*
X17961313Y-18209257D01*
X17962717Y-18213466D01*
X17962719Y-18213473D01*
X18028367Y-18410244D01*
X18030951Y-18481194D01*
X17994767Y-18542278D01*
X17931303Y-18574102D01*
X17863381Y-18567632D01*
X17757162Y-18526539D01*
X17757151Y-18526536D01*
X17753006Y-18524932D01*
X17748685Y-18523930D01*
X17748677Y-18523928D01*
X17536543Y-18474759D01*
X17498888Y-18466031D01*
X17239007Y-18443523D01*
X17234572Y-18443767D01*
X17234568Y-18443767D01*
X16982989Y-18457612D01*
X16982982Y-18457613D01*
X16978546Y-18457857D01*
X16722704Y-18508747D01*
X16476585Y-18595178D01*
X16245099Y-18715425D01*
X16241484Y-18718008D01*
X16241478Y-18718012D01*
X16158821Y-18777080D01*
X16032866Y-18867089D01*
X15844120Y-19047144D01*
X15841364Y-19050639D01*
X15841363Y-19050641D01*
X15721298Y-19202943D01*
X15682626Y-19251998D01*
X15662546Y-19286568D01*
X15553842Y-19473715D01*
X15553839Y-19473721D01*
X15551608Y-19477562D01*
X15549938Y-19481685D01*
X15455352Y-19715205D01*
X15455349Y-19715213D01*
X15453679Y-19719337D01*
X15390794Y-19972498D01*
X15364206Y-20231994D01*
X15366485Y-20290000D01*
X15372546Y-20444252D01*
X15374447Y-20492647D01*
X15421313Y-20749257D01*
X15422718Y-20753469D01*
X15422719Y-20753472D01*
X15460447Y-20866558D01*
X15503867Y-20996703D01*
X15505859Y-21000690D01*
X15505860Y-21000692D01*
X15586895Y-21162868D01*
X15620463Y-21230049D01*
X15768775Y-21444639D01*
X15806056Y-21484969D01*
X15926042Y-21614769D01*
X15945843Y-21636190D01*
X15949297Y-21639002D01*
X16144678Y-21798067D01*
X16144682Y-21798070D01*
X16148135Y-21800881D01*
X16205355Y-21835330D01*
X16265489Y-21871534D01*
X16313533Y-21923806D01*
X16326500Y-21979480D01*
X16326500Y-25911852D01*
X16306498Y-25979973D01*
X16289595Y-26000947D01*
X13521454Y-28769088D01*
X13506426Y-28781925D01*
X13495566Y-28789815D01*
X13491145Y-28794725D01*
X13491144Y-28794726D01*
X13451114Y-28839184D01*
X13446573Y-28843969D01*
X13432528Y-28858014D01*
X13430444Y-28860588D01*
X13430441Y-28860591D01*
X13420031Y-28873446D01*
X13415747Y-28878462D01*
X13375717Y-28922920D01*
X13375713Y-28922925D01*
X13371296Y-28927831D01*
X13364791Y-28939097D01*
X13364589Y-28939448D01*
X13353391Y-28955741D01*
X13344953Y-28966161D01*
X13314787Y-29025363D01*
X13311654Y-29031133D01*
X13281740Y-29082945D01*
X13281738Y-29082950D01*
X13278436Y-29088669D01*
X13276395Y-29094949D01*
X13276392Y-29094957D01*
X13274292Y-29101421D01*
X13266728Y-29119683D01*
X13263637Y-29125749D01*
X13263634Y-29125758D01*
X13260638Y-29131637D01*
X13258929Y-29138015D01*
X13243444Y-29195804D01*
X13241578Y-29202106D01*
X13221046Y-29265298D01*
X13220356Y-29271866D01*
X13219645Y-29278628D01*
X13216042Y-29298071D01*
X13212570Y-29311029D01*
X13212225Y-29317619D01*
X13212224Y-29317623D01*
X13209093Y-29377367D01*
X13208577Y-29383931D01*
X13206500Y-29403694D01*
X13206500Y-29423555D01*
X13206327Y-29430150D01*
X13202850Y-29496493D01*
X13203882Y-29503007D01*
X13204949Y-29509744D01*
X13206500Y-29529456D01*
X13206500Y-29980812D01*
X13186498Y-30048933D01*
X13169595Y-30069907D01*
X13083802Y-30155700D01*
X12952477Y-30343251D01*
X12950154Y-30348233D01*
X12950151Y-30348238D01*
X12858039Y-30545775D01*
X12855716Y-30550757D01*
X12854294Y-30556065D01*
X12854293Y-30556067D01*
X12801427Y-30753365D01*
X12796457Y-30771913D01*
X12776502Y-31000000D01*
X12505230Y-31000000D01*
X12508353Y-15718799D01*
X28012658Y-15718799D01*
X28026102Y-15951942D01*
X28027535Y-15962144D01*
X28078873Y-16189949D01*
X28081956Y-16199789D01*
X28169814Y-16416156D01*
X28174457Y-16425347D01*
X28275555Y-16590325D01*
X28286011Y-16599785D01*
X28294789Y-16596001D01*
X29127978Y-15762812D01*
X29134356Y-15751132D01*
X29864408Y-15751132D01*
X29864539Y-15752965D01*
X29868790Y-15759580D01*
X30700045Y-16590835D01*
X30712055Y-16597394D01*
X30723794Y-16588426D01*
X30772518Y-16520619D01*
X30777829Y-16511780D01*
X30881291Y-16302442D01*
X30885089Y-16292849D01*
X30952974Y-16069413D01*
X30955151Y-16059343D01*
X30985869Y-15826015D01*
X30986388Y-15819340D01*
X30988001Y-15753364D01*
X30987807Y-15746647D01*
X30985093Y-15713631D01*
X38011860Y-15713631D01*
X38012157Y-15718783D01*
X38012157Y-15718787D01*
X38023405Y-15913858D01*
X38025903Y-15957171D01*
X38027040Y-15962217D01*
X38027041Y-15962223D01*
X38056407Y-16092528D01*
X38079533Y-16195147D01*
X38081475Y-16199929D01*
X38081476Y-16199933D01*
X38169275Y-16416156D01*
X38171311Y-16421169D01*
X38298772Y-16629166D01*
X38458492Y-16813553D01*
X38646183Y-16969377D01*
X38856804Y-17092453D01*
X39084698Y-17179478D01*
X39089764Y-17180509D01*
X39089765Y-17180509D01*
X39318667Y-17227080D01*
X39318671Y-17227080D01*
X39323746Y-17228113D01*
X39328922Y-17228303D01*
X39328924Y-17228303D01*
X39562363Y-17236863D01*
X39562367Y-17236863D01*
X39567527Y-17237052D01*
X39656922Y-17225600D01*
X39727031Y-17236784D01*
X39762026Y-17261484D01*
X43884085Y-21383542D01*
X43896926Y-21398577D01*
X43900927Y-21404084D01*
X43900932Y-21404090D01*
X43904815Y-21409434D01*
X43909725Y-21413855D01*
X43909726Y-21413856D01*
X43954194Y-21453895D01*
X43958979Y-21458436D01*
X43973015Y-21472472D01*
X43975579Y-21474548D01*
X43988447Y-21484969D01*
X43993462Y-21489253D01*
X44037920Y-21529283D01*
X44037925Y-21529287D01*
X44042831Y-21533704D01*
X44048547Y-21537004D01*
X44048548Y-21537005D01*
X44054449Y-21540412D01*
X44070737Y-21551607D01*
X44081161Y-21560048D01*
X44140366Y-21590214D01*
X44146119Y-21593337D01*
X44203669Y-21626564D01*
X44209953Y-21628606D01*
X44209958Y-21628608D01*
X44216421Y-21630708D01*
X44234683Y-21638272D01*
X44240749Y-21641363D01*
X44240758Y-21641366D01*
X44246637Y-21644362D01*
X44253015Y-21646071D01*
X44310804Y-21661556D01*
X44317106Y-21663422D01*
X44380298Y-21683954D01*
X44393205Y-21685311D01*
X44393628Y-21685355D01*
X44413071Y-21688958D01*
X44426029Y-21692430D01*
X44432619Y-21692775D01*
X44432623Y-21692776D01*
X44476573Y-21695079D01*
X44492372Y-21695907D01*
X44498931Y-21696423D01*
X44518694Y-21698500D01*
X44538555Y-21698500D01*
X44545150Y-21698673D01*
X44604902Y-21701805D01*
X44604906Y-21701805D01*
X44611493Y-21702150D01*
X44624747Y-21700051D01*
X44644456Y-21698500D01*
X51330536Y-21698500D01*
X51398657Y-21718502D01*
X51445150Y-21772158D01*
X51454417Y-21807295D01*
X51455022Y-21807188D01*
X51455978Y-21812606D01*
X51456457Y-21818087D01*
X51515716Y-22039243D01*
X51518039Y-22044224D01*
X51518039Y-22044225D01*
X51610151Y-22241762D01*
X51610154Y-22241767D01*
X51612477Y-22246749D01*
X51743802Y-22434300D01*
X51905700Y-22596198D01*
X51910208Y-22599355D01*
X51910211Y-22599357D01*
X51988389Y-22654098D01*
X52093251Y-22727523D01*
X52098233Y-22729846D01*
X52098238Y-22729849D01*
X52295775Y-22821961D01*
X52300757Y-22824284D01*
X52306065Y-22825706D01*
X52306067Y-22825707D01*
X52516598Y-22882119D01*
X52516600Y-22882119D01*
X52521913Y-22883543D01*
X52750000Y-22903498D01*
X52978087Y-22883543D01*
X52983400Y-22882119D01*
X52983402Y-22882119D01*
X53193933Y-22825707D01*
X53193935Y-22825706D01*
X53199243Y-22824284D01*
X53204225Y-22821961D01*
X53401762Y-22729849D01*
X53401767Y-22729846D01*
X53406749Y-22727523D01*
X53511611Y-22654098D01*
X53589789Y-22599357D01*
X53589792Y-22599355D01*
X53594300Y-22596198D01*
X53756198Y-22434300D01*
X53887523Y-22246749D01*
X53889846Y-22241767D01*
X53889849Y-22241762D01*
X53981961Y-22044225D01*
X53981961Y-22044224D01*
X53984284Y-22039243D01*
X53992918Y-22007023D01*
X54042119Y-21823402D01*
X54042119Y-21823400D01*
X54043543Y-21818087D01*
X54063498Y-21590000D01*
X54043543Y-21361913D01*
X54017382Y-21264278D01*
X53985707Y-21146067D01*
X53985706Y-21146065D01*
X53984284Y-21140757D01*
X53981963Y-21135780D01*
X53981961Y-21135774D01*
X53922800Y-21008903D01*
X53912139Y-20938711D01*
X53941119Y-20873898D01*
X53947900Y-20866558D01*
X54926552Y-19887905D01*
X54988864Y-19853880D01*
X55015647Y-19851000D01*
X55092860Y-19851000D01*
X55123160Y-19844560D01*
X55131938Y-19842694D01*
X55144963Y-19840631D01*
X55178140Y-19837144D01*
X55178143Y-19837143D01*
X55184702Y-19836454D01*
X55222704Y-19824106D01*
X55235443Y-19820693D01*
X55268067Y-19813759D01*
X55268069Y-19813758D01*
X55274521Y-19812387D01*
X55311022Y-19796136D01*
X55323332Y-19791411D01*
X55355047Y-19781106D01*
X55355048Y-19781105D01*
X55361331Y-19779064D01*
X55368741Y-19774786D01*
X55395939Y-19759084D01*
X55407686Y-19753098D01*
X55419870Y-19747673D01*
X55444183Y-19736848D01*
X55476505Y-19713364D01*
X55487564Y-19706183D01*
X55516451Y-19689505D01*
X55522169Y-19686204D01*
X55551859Y-19659471D01*
X55562108Y-19651171D01*
X55589095Y-19631564D01*
X55594434Y-19627685D01*
X55598850Y-19622781D01*
X55621171Y-19597992D01*
X55630492Y-19588671D01*
X55655281Y-19566350D01*
X55655282Y-19566348D01*
X55660185Y-19561934D01*
X55683672Y-19529607D01*
X55691972Y-19519358D01*
X55714285Y-19494577D01*
X55714286Y-19494576D01*
X55718704Y-19489669D01*
X55738682Y-19455067D01*
X55745864Y-19444007D01*
X55765467Y-19417026D01*
X55765468Y-19417025D01*
X55769348Y-19411684D01*
X55772031Y-19405658D01*
X55772035Y-19405651D01*
X55785600Y-19375182D01*
X55791582Y-19363440D01*
X55811564Y-19328831D01*
X55823914Y-19290820D01*
X55828636Y-19278520D01*
X55842203Y-19248050D01*
X55842204Y-19248047D01*
X55844887Y-19242021D01*
X55853193Y-19202943D01*
X55856607Y-19190201D01*
X55866915Y-19158477D01*
X55868954Y-19152202D01*
X55873131Y-19112463D01*
X55875194Y-19099438D01*
X55882127Y-19066818D01*
X55883500Y-19060360D01*
X55883500Y-18852000D01*
X55903502Y-18783879D01*
X55957158Y-18737386D01*
X56009500Y-18726000D01*
X56015634Y-18726000D01*
X56077816Y-18719245D01*
X56214205Y-18668115D01*
X56330761Y-18580761D01*
X56418115Y-18464205D01*
X56420627Y-18457503D01*
X56470240Y-18408002D01*
X56539631Y-18392989D01*
X56606123Y-18417875D01*
X56648605Y-18474759D01*
X56656500Y-18518658D01*
X56656500Y-30081852D01*
X56636498Y-30149973D01*
X56619595Y-30170947D01*
X55960947Y-30829595D01*
X55898635Y-30863621D01*
X55871852Y-30866500D01*
X53769188Y-30866500D01*
X53701067Y-30846498D01*
X53680093Y-30829595D01*
X53594300Y-30743802D01*
X53589792Y-30740645D01*
X53589789Y-30740643D01*
X53506271Y-30682163D01*
X53406749Y-30612477D01*
X53401767Y-30610154D01*
X53401762Y-30610151D01*
X53204225Y-30518039D01*
X53204224Y-30518039D01*
X53199243Y-30515716D01*
X53193935Y-30514294D01*
X53193933Y-30514293D01*
X52983402Y-30457881D01*
X52983400Y-30457881D01*
X52978087Y-30456457D01*
X52750000Y-30436502D01*
X52521913Y-30456457D01*
X52516600Y-30457881D01*
X52516598Y-30457881D01*
X52306067Y-30514293D01*
X52306065Y-30514294D01*
X52300757Y-30515716D01*
X52295776Y-30518039D01*
X52295775Y-30518039D01*
X52098238Y-30610151D01*
X52098233Y-30610154D01*
X52093251Y-30612477D01*
X51993729Y-30682163D01*
X51910211Y-30740643D01*
X51910208Y-30740645D01*
X51905700Y-30743802D01*
X51743802Y-30905700D01*
X51740645Y-30910208D01*
X51740643Y-30910211D01*
X51704224Y-30962223D01*
X51612477Y-31093251D01*
X51610154Y-31098233D01*
X51610151Y-31098238D01*
X51550409Y-31226357D01*
X51515716Y-31300757D01*
X51514294Y-31306065D01*
X51514293Y-31306067D01*
X51461712Y-31502301D01*
X51456457Y-31521913D01*
X51436502Y-31750000D01*
X51456457Y-31978087D01*
X51457881Y-31983400D01*
X51457881Y-31983402D01*
X51498216Y-32133931D01*
X51515716Y-32199243D01*
X51518039Y-32204224D01*
X51518039Y-32204225D01*
X51610151Y-32401762D01*
X51610154Y-32401767D01*
X51612477Y-32406749D01*
X51658169Y-32472004D01*
X51723782Y-32565708D01*
X51743802Y-32594300D01*
X51905700Y-32756198D01*
X51910208Y-32759355D01*
X51910211Y-32759357D01*
X51988389Y-32814098D01*
X52093251Y-32887523D01*
X52098233Y-32889846D01*
X52098238Y-32889849D01*
X52283238Y-32976115D01*
X52300757Y-32984284D01*
X52306065Y-32985706D01*
X52306067Y-32985707D01*
X52516598Y-33042119D01*
X52516600Y-33042119D01*
X52521913Y-33043543D01*
X52750000Y-33063498D01*
X52978087Y-33043543D01*
X52983400Y-33042119D01*
X52983402Y-33042119D01*
X53193933Y-32985707D01*
X53193935Y-32985706D01*
X53199243Y-32984284D01*
X53216762Y-32976115D01*
X53401762Y-32889849D01*
X53401767Y-32889846D01*
X53406749Y-32887523D01*
X53511611Y-32814098D01*
X53589789Y-32759357D01*
X53589792Y-32759355D01*
X53594300Y-32756198D01*
X53680093Y-32670405D01*
X53742405Y-32636379D01*
X53769188Y-32633500D01*
X56210543Y-32633500D01*
X56230255Y-32635051D01*
X56243507Y-32637150D01*
X56250094Y-32636805D01*
X56250098Y-32636805D01*
X56309850Y-32633673D01*
X56316445Y-32633500D01*
X56336306Y-32633500D01*
X56356069Y-32631423D01*
X56362628Y-32630907D01*
X56378427Y-32630079D01*
X56422377Y-32627776D01*
X56422381Y-32627775D01*
X56428971Y-32627430D01*
X56441929Y-32623958D01*
X56461372Y-32620355D01*
X56461795Y-32620311D01*
X56474702Y-32618954D01*
X56537894Y-32598422D01*
X56544196Y-32596556D01*
X56601985Y-32581071D01*
X56608363Y-32579362D01*
X56614242Y-32576366D01*
X56614251Y-32576363D01*
X56620317Y-32573272D01*
X56638579Y-32565708D01*
X56645043Y-32563608D01*
X56645051Y-32563605D01*
X56651331Y-32561564D01*
X56657050Y-32558262D01*
X56657055Y-32558260D01*
X56708867Y-32528346D01*
X56714637Y-32525213D01*
X56773839Y-32495047D01*
X56784259Y-32486609D01*
X56800552Y-32475411D01*
X56800903Y-32475209D01*
X56812169Y-32468704D01*
X56817075Y-32464287D01*
X56817080Y-32464283D01*
X56861538Y-32424253D01*
X56866554Y-32419969D01*
X56879409Y-32409559D01*
X56879412Y-32409556D01*
X56881986Y-32407472D01*
X56896031Y-32393427D01*
X56900816Y-32388886D01*
X56945274Y-32348856D01*
X56945275Y-32348855D01*
X56950185Y-32344434D01*
X56958075Y-32333574D01*
X56970912Y-32318546D01*
X57869053Y-31420405D01*
X57931365Y-31386379D01*
X57958148Y-31383500D01*
X58480812Y-31383500D01*
X58548933Y-31403502D01*
X58569907Y-31420405D01*
X58655700Y-31506198D01*
X58660208Y-31509355D01*
X58660211Y-31509357D01*
X58701542Y-31538297D01*
X58843251Y-31637523D01*
X58848233Y-31639846D01*
X58848238Y-31639849D01*
X59023178Y-31721424D01*
X59050757Y-31734284D01*
X59056065Y-31735706D01*
X59056067Y-31735707D01*
X59266598Y-31792119D01*
X59266600Y-31792119D01*
X59271913Y-31793543D01*
X59500000Y-31813498D01*
X59728087Y-31793543D01*
X59733400Y-31792119D01*
X59733402Y-31792119D01*
X59943933Y-31735707D01*
X59943935Y-31735706D01*
X59949243Y-31734284D01*
X59976822Y-31721424D01*
X60151762Y-31639849D01*
X60151767Y-31639846D01*
X60156749Y-31637523D01*
X60298458Y-31538297D01*
X60339789Y-31509357D01*
X60339792Y-31509355D01*
X60344300Y-31506198D01*
X60506198Y-31344300D01*
X60637523Y-31156749D01*
X60639846Y-31151767D01*
X60639849Y-31151762D01*
X60731961Y-30954225D01*
X60731961Y-30954224D01*
X60734284Y-30949243D01*
X60745952Y-30905700D01*
X60792119Y-30733402D01*
X60792119Y-30733400D01*
X60793543Y-30728087D01*
X60813498Y-30500000D01*
X60793543Y-30271913D01*
X60762404Y-30155700D01*
X60735707Y-30056067D01*
X60735706Y-30056065D01*
X60734284Y-30050757D01*
X60715487Y-30010447D01*
X60639849Y-29848238D01*
X60639846Y-29848233D01*
X60637523Y-29843251D01*
X60633792Y-29837922D01*
X60633410Y-29837376D01*
X60633175Y-29836680D01*
X60631617Y-29833981D01*
X60632160Y-29833668D01*
X60610726Y-29770100D01*
X60628015Y-29701241D01*
X60650656Y-29675919D01*
X60649373Y-29674636D01*
X60668285Y-29655724D01*
X60744786Y-29553649D01*
X60753324Y-29538054D01*
X60798478Y-29417606D01*
X60802105Y-29402351D01*
X60807631Y-29351486D01*
X60808000Y-29344672D01*
X60808000Y-28772115D01*
X60803525Y-28756876D01*
X60802135Y-28755671D01*
X60794452Y-28754000D01*
X59372000Y-28754000D01*
X59303879Y-28733998D01*
X59257386Y-28680342D01*
X59246000Y-28628000D01*
X59246000Y-28227885D01*
X59754000Y-28227885D01*
X59758475Y-28243124D01*
X59759865Y-28244329D01*
X59767548Y-28246000D01*
X60789884Y-28246000D01*
X60805123Y-28241525D01*
X60806328Y-28240135D01*
X60807999Y-28232452D01*
X60807999Y-27655331D01*
X60807629Y-27648510D01*
X60802105Y-27597648D01*
X60798479Y-27582396D01*
X60753324Y-27461946D01*
X60744786Y-27446351D01*
X60668285Y-27344276D01*
X60655724Y-27331715D01*
X60553649Y-27255214D01*
X60538054Y-27246676D01*
X60417606Y-27201522D01*
X60402351Y-27197895D01*
X60351486Y-27192369D01*
X60344672Y-27192000D01*
X59772115Y-27192000D01*
X59756876Y-27196475D01*
X59755671Y-27197865D01*
X59754000Y-27205548D01*
X59754000Y-28227885D01*
X59246000Y-28227885D01*
X59246000Y-27210116D01*
X59241525Y-27194877D01*
X59240135Y-27193672D01*
X59232452Y-27192001D01*
X58655331Y-27192001D01*
X58648510Y-27192371D01*
X58597648Y-27197895D01*
X58578644Y-27202413D01*
X58507744Y-27198710D01*
X58450101Y-27157263D01*
X58424017Y-27091232D01*
X58423500Y-27079830D01*
X58423500Y-25170170D01*
X58443502Y-25102049D01*
X58497158Y-25055556D01*
X58567432Y-25045452D01*
X58578647Y-25047588D01*
X58597643Y-25052105D01*
X58648514Y-25057631D01*
X58655328Y-25058000D01*
X59227885Y-25058000D01*
X59243124Y-25053525D01*
X59244329Y-25052135D01*
X59246000Y-25044452D01*
X59246000Y-25039884D01*
X59754000Y-25039884D01*
X59758475Y-25055123D01*
X59759865Y-25056328D01*
X59767548Y-25057999D01*
X60344669Y-25057999D01*
X60351490Y-25057629D01*
X60402352Y-25052105D01*
X60417604Y-25048479D01*
X60538054Y-25003324D01*
X60553649Y-24994786D01*
X60655724Y-24918285D01*
X60668285Y-24905724D01*
X60744786Y-24803649D01*
X60753324Y-24788054D01*
X60798478Y-24667606D01*
X60802105Y-24652351D01*
X60807631Y-24601486D01*
X60808000Y-24594672D01*
X60808000Y-24022115D01*
X60803525Y-24006876D01*
X60802135Y-24005671D01*
X60794452Y-24004000D01*
X59772115Y-24004000D01*
X59756876Y-24008475D01*
X59755671Y-24009865D01*
X59754000Y-24017548D01*
X59754000Y-25039884D01*
X59246000Y-25039884D01*
X59246000Y-23622000D01*
X59266002Y-23553879D01*
X59319658Y-23507386D01*
X59372000Y-23496000D01*
X60789884Y-23496000D01*
X60805123Y-23491525D01*
X60806328Y-23490135D01*
X60807999Y-23482452D01*
X60807999Y-22905331D01*
X60807629Y-22898507D01*
X60802796Y-22854004D01*
X60815326Y-22784122D01*
X60863648Y-22732108D01*
X60928059Y-22714400D01*
X63765800Y-22714400D01*
X63833921Y-22734402D01*
X63880414Y-22788058D01*
X63891800Y-22840400D01*
X63891800Y-25945843D01*
X63890249Y-25965555D01*
X63888150Y-25978807D01*
X63888495Y-25985394D01*
X63888495Y-25985398D01*
X63891627Y-26045150D01*
X63891800Y-26051745D01*
X63891800Y-26071606D01*
X63892144Y-26074877D01*
X63893876Y-26091359D01*
X63894393Y-26097928D01*
X63897870Y-26164271D01*
X63901342Y-26177229D01*
X63904945Y-26196672D01*
X63906346Y-26210002D01*
X63926878Y-26273194D01*
X63928744Y-26279496D01*
X63945938Y-26343663D01*
X63948934Y-26349542D01*
X63948937Y-26349551D01*
X63952028Y-26355617D01*
X63959592Y-26373879D01*
X63961692Y-26380343D01*
X63961695Y-26380351D01*
X63963736Y-26386631D01*
X63967038Y-26392350D01*
X63967040Y-26392355D01*
X63996954Y-26444167D01*
X64000087Y-26449937D01*
X64030253Y-26509139D01*
X64034409Y-26514271D01*
X64038691Y-26519559D01*
X64049889Y-26535852D01*
X64056596Y-26547469D01*
X64061013Y-26552375D01*
X64061017Y-26552380D01*
X64101047Y-26596838D01*
X64105331Y-26601854D01*
X64115741Y-26614709D01*
X64117828Y-26617286D01*
X64131873Y-26631331D01*
X64136414Y-26636116D01*
X64180866Y-26685485D01*
X64191726Y-26693375D01*
X64206754Y-26706212D01*
X64918506Y-27417964D01*
X64952532Y-27480276D01*
X64955023Y-27516943D01*
X64936681Y-27750000D01*
X64955928Y-27994557D01*
X65013195Y-28233092D01*
X65015088Y-28237663D01*
X65015089Y-28237665D01*
X65018542Y-28246000D01*
X65107073Y-28459732D01*
X65199036Y-28609802D01*
X65217573Y-28678334D01*
X65196116Y-28746011D01*
X65167167Y-28776461D01*
X65093920Y-28831357D01*
X65086739Y-28836739D01*
X64999385Y-28953295D01*
X64948255Y-29089684D01*
X64941500Y-29151866D01*
X64941500Y-31348134D01*
X64948255Y-31410316D01*
X64999385Y-31546705D01*
X65086739Y-31663261D01*
X65203295Y-31750615D01*
X65339684Y-31801745D01*
X65401866Y-31808500D01*
X67598134Y-31808500D01*
X67660316Y-31801745D01*
X67796705Y-31750615D01*
X67913261Y-31663261D01*
X68000615Y-31546705D01*
X68051745Y-31410316D01*
X68058500Y-31348134D01*
X68058500Y-29151866D01*
X68051745Y-29089684D01*
X68000615Y-28953295D01*
X67913261Y-28836739D01*
X67906080Y-28831357D01*
X67832833Y-28776461D01*
X67790318Y-28719601D01*
X67785293Y-28648783D01*
X67800963Y-28609804D01*
X67892927Y-28459732D01*
X67981458Y-28246000D01*
X67984911Y-28237665D01*
X67984912Y-28237663D01*
X67986805Y-28233092D01*
X68044072Y-27994557D01*
X68063319Y-27750000D01*
X68044072Y-27505443D01*
X68033630Y-27461946D01*
X67987960Y-27271720D01*
X67986805Y-27266908D01*
X67983312Y-27258474D01*
X67941388Y-27157263D01*
X67892927Y-27040268D01*
X67764752Y-26831104D01*
X67754390Y-26818971D01*
X67608641Y-26648323D01*
X67605433Y-26644567D01*
X67589936Y-26631331D01*
X67422663Y-26488465D01*
X67422660Y-26488463D01*
X67418896Y-26485248D01*
X67320920Y-26425209D01*
X67297663Y-26406873D01*
X66229885Y-25339095D01*
X66195859Y-25276783D01*
X66197694Y-25251132D01*
X66864408Y-25251132D01*
X66864539Y-25252965D01*
X66868790Y-25259580D01*
X67756650Y-26147440D01*
X67769030Y-26154200D01*
X67776680Y-26148473D01*
X67889893Y-25963728D01*
X67894375Y-25954933D01*
X67984434Y-25737510D01*
X67987483Y-25728125D01*
X68042422Y-25499292D01*
X68043965Y-25489545D01*
X68062430Y-25254930D01*
X68062430Y-25245070D01*
X68043965Y-25010455D01*
X68042422Y-25000708D01*
X67987483Y-24771875D01*
X67984434Y-24762490D01*
X67894375Y-24545067D01*
X67889893Y-24536272D01*
X67778928Y-24355195D01*
X67768470Y-24345733D01*
X67759694Y-24349516D01*
X66872022Y-25237188D01*
X66864408Y-25251132D01*
X66197694Y-25251132D01*
X66200924Y-25205968D01*
X66229885Y-25160905D01*
X67297663Y-24093127D01*
X67320920Y-24074791D01*
X67418896Y-24014752D01*
X67426246Y-24008475D01*
X67601677Y-23858641D01*
X67605433Y-23855433D01*
X67740178Y-23697668D01*
X67761535Y-23672663D01*
X67761537Y-23672660D01*
X67764752Y-23668896D01*
X67892927Y-23459732D01*
X67986805Y-23233092D01*
X68044072Y-22994557D01*
X68063319Y-22750000D01*
X68044072Y-22505443D01*
X67986805Y-22266908D01*
X67892927Y-22040268D01*
X67801842Y-21891630D01*
X67767342Y-21835330D01*
X67767340Y-21835327D01*
X67764752Y-21831104D01*
X67753635Y-21818087D01*
X67608641Y-21648323D01*
X67605433Y-21644567D01*
X67541544Y-21590000D01*
X67422663Y-21488465D01*
X67422660Y-21488463D01*
X67418896Y-21485248D01*
X67414673Y-21482660D01*
X67414670Y-21482658D01*
X67302394Y-21413856D01*
X67209732Y-21357073D01*
X67011057Y-21274779D01*
X66955778Y-21230232D01*
X66933357Y-21162868D01*
X66950915Y-21094077D01*
X66970182Y-21069276D01*
X69108546Y-18930912D01*
X69123574Y-18918075D01*
X69134434Y-18910185D01*
X69178886Y-18860816D01*
X69183427Y-18856031D01*
X69197472Y-18841986D01*
X69199559Y-18839409D01*
X69209969Y-18826554D01*
X69214253Y-18821538D01*
X69254283Y-18777080D01*
X69254287Y-18777075D01*
X69258704Y-18772169D01*
X69265411Y-18760552D01*
X69276609Y-18744259D01*
X69280891Y-18738971D01*
X69285047Y-18733839D01*
X69315213Y-18674637D01*
X69318346Y-18668867D01*
X69348260Y-18617055D01*
X69348262Y-18617050D01*
X69351564Y-18611331D01*
X69353605Y-18605051D01*
X69353608Y-18605043D01*
X69355708Y-18598579D01*
X69363272Y-18580317D01*
X69366365Y-18574245D01*
X69369362Y-18568363D01*
X69386559Y-18504183D01*
X69388424Y-18497888D01*
X69408954Y-18434702D01*
X69409644Y-18428133D01*
X69409646Y-18428126D01*
X69410358Y-18421355D01*
X69413958Y-18401926D01*
X69417429Y-18388971D01*
X69420905Y-18322647D01*
X69421422Y-18316078D01*
X69421905Y-18311480D01*
X69423500Y-18296306D01*
X69423500Y-18276426D01*
X69423673Y-18269831D01*
X69426804Y-18210098D01*
X69426804Y-18210094D01*
X69427149Y-18203507D01*
X69425051Y-18190260D01*
X69423500Y-18170550D01*
X69423500Y-17545651D01*
X69439085Y-17484950D01*
X69491556Y-17389506D01*
X69494523Y-17384109D01*
X69543947Y-17228303D01*
X69553944Y-17196789D01*
X69555807Y-17190916D01*
X69556975Y-17180509D01*
X69573107Y-17036683D01*
X69573500Y-17033183D01*
X69573500Y-16473996D01*
X69558723Y-16323287D01*
X69500142Y-16129258D01*
X69404990Y-15950302D01*
X69391933Y-15934292D01*
X69333665Y-15862850D01*
X69276890Y-15793237D01*
X69255467Y-15775514D01*
X69125472Y-15667973D01*
X69125469Y-15667971D01*
X69120722Y-15664044D01*
X68942435Y-15567644D01*
X68809078Y-15526363D01*
X68754707Y-15509532D01*
X68754704Y-15509531D01*
X68748820Y-15507710D01*
X68742695Y-15507066D01*
X68742694Y-15507066D01*
X68553378Y-15487168D01*
X68553377Y-15487168D01*
X68547250Y-15486524D01*
X68463986Y-15494102D01*
X68351543Y-15504335D01*
X68351540Y-15504336D01*
X68345404Y-15504894D01*
X68339498Y-15506632D01*
X68339494Y-15506633D01*
X68246079Y-15534127D01*
X68150971Y-15562119D01*
X68145514Y-15564972D01*
X68145511Y-15564973D01*
X67976819Y-15653162D01*
X67976815Y-15653165D01*
X67971355Y-15656019D01*
X67971103Y-15656221D01*
X67905088Y-15676201D01*
X67844115Y-15661041D01*
X67677658Y-15571038D01*
X67666353Y-15566286D01*
X67541308Y-15527578D01*
X67527205Y-15527372D01*
X67524000Y-15534127D01*
X67524000Y-16303758D01*
X67523215Y-16317803D01*
X67506500Y-16466817D01*
X67506500Y-17026004D01*
X67521277Y-17176713D01*
X67521968Y-17179002D01*
X67524000Y-17199724D01*
X67524000Y-17964352D01*
X67503998Y-18032473D01*
X67487095Y-18053447D01*
X64630047Y-20910495D01*
X64567735Y-20944521D01*
X64540952Y-20947400D01*
X60599317Y-20947400D01*
X60531196Y-20927398D01*
X60506364Y-20905534D01*
X60506198Y-20905700D01*
X60344300Y-20743802D01*
X60339792Y-20740645D01*
X60339789Y-20740643D01*
X60261611Y-20685902D01*
X60156749Y-20612477D01*
X60151767Y-20610154D01*
X60151762Y-20610151D01*
X59954225Y-20518039D01*
X59954224Y-20518039D01*
X59949243Y-20515716D01*
X59943935Y-20514294D01*
X59943933Y-20514293D01*
X59733402Y-20457881D01*
X59733400Y-20457881D01*
X59728087Y-20456457D01*
X59500000Y-20436502D01*
X59271913Y-20456457D01*
X59266600Y-20457881D01*
X59266598Y-20457881D01*
X59056067Y-20514293D01*
X59056065Y-20514294D01*
X59050757Y-20515716D01*
X59045776Y-20518039D01*
X59045775Y-20518039D01*
X58848238Y-20610151D01*
X58848233Y-20610154D01*
X58843251Y-20612477D01*
X58738389Y-20685902D01*
X58660211Y-20740643D01*
X58660208Y-20740645D01*
X58655700Y-20743802D01*
X58638595Y-20760907D01*
X58576283Y-20794933D01*
X58505468Y-20789868D01*
X58448632Y-20747321D01*
X58423821Y-20680801D01*
X58423500Y-20671812D01*
X58423500Y-18497808D01*
X58443502Y-18429687D01*
X58476331Y-18395230D01*
X58491750Y-18384232D01*
X58491760Y-18384224D01*
X58495961Y-18381227D01*
X58667883Y-18209904D01*
X58670899Y-18205706D01*
X58670903Y-18205702D01*
X58706612Y-18156007D01*
X58762606Y-18112358D01*
X58833309Y-18105912D01*
X58896274Y-18138714D01*
X58904172Y-18147035D01*
X59043757Y-18308176D01*
X59047732Y-18311476D01*
X59047736Y-18311480D01*
X59061193Y-18322652D01*
X59230499Y-18463213D01*
X59308422Y-18508747D01*
X59435594Y-18583060D01*
X59435597Y-18583062D01*
X59440056Y-18585667D01*
X59444881Y-18587509D01*
X59444882Y-18587510D01*
X59470328Y-18597227D01*
X59666798Y-18672252D01*
X59671864Y-18673283D01*
X59671865Y-18673283D01*
X59678653Y-18674664D01*
X59904637Y-18720641D01*
X60037287Y-18725505D01*
X60142021Y-18729345D01*
X60142025Y-18729345D01*
X60147185Y-18729534D01*
X60152305Y-18728878D01*
X60152307Y-18728878D01*
X60237128Y-18718012D01*
X60387929Y-18698694D01*
X60392878Y-18697209D01*
X60392884Y-18697208D01*
X60528726Y-18656454D01*
X60620404Y-18628949D01*
X60636167Y-18621227D01*
X60669202Y-18605043D01*
X60838366Y-18522170D01*
X60857185Y-18508747D01*
X61031758Y-18384225D01*
X61035961Y-18381227D01*
X61207883Y-18209904D01*
X61210903Y-18205702D01*
X61217162Y-18196991D01*
X61225079Y-18185974D01*
X61281071Y-18142327D01*
X61327400Y-18133500D01*
X64145543Y-18133500D01*
X64165255Y-18135051D01*
X64178507Y-18137150D01*
X64185094Y-18136805D01*
X64185098Y-18136805D01*
X64244850Y-18133673D01*
X64251445Y-18133500D01*
X64271306Y-18133500D01*
X64291069Y-18131423D01*
X64297628Y-18130907D01*
X64313427Y-18130079D01*
X64357377Y-18127776D01*
X64357381Y-18127775D01*
X64363971Y-18127430D01*
X64376929Y-18123958D01*
X64396372Y-18120355D01*
X64396795Y-18120311D01*
X64409702Y-18118954D01*
X64472894Y-18098422D01*
X64479196Y-18096556D01*
X64536985Y-18081071D01*
X64543363Y-18079362D01*
X64549242Y-18076366D01*
X64549251Y-18076363D01*
X64555317Y-18073272D01*
X64573579Y-18065708D01*
X64580043Y-18063608D01*
X64580051Y-18063605D01*
X64586331Y-18061564D01*
X64592050Y-18058262D01*
X64592055Y-18058260D01*
X64643867Y-18028346D01*
X64649637Y-18025213D01*
X64708839Y-17995047D01*
X64719259Y-17986609D01*
X64735552Y-17975411D01*
X64735903Y-17975209D01*
X64747169Y-17968704D01*
X64752075Y-17964287D01*
X64752080Y-17964283D01*
X64796538Y-17924253D01*
X64801554Y-17919969D01*
X64814409Y-17909559D01*
X64814412Y-17909556D01*
X64816986Y-17907472D01*
X64831031Y-17893427D01*
X64835816Y-17888886D01*
X64864275Y-17863261D01*
X64885185Y-17844434D01*
X64889065Y-17839094D01*
X64889072Y-17839086D01*
X64889396Y-17838640D01*
X64889650Y-17838444D01*
X64893488Y-17834182D01*
X64894267Y-17834884D01*
X64945618Y-17795285D01*
X65016354Y-17789209D01*
X65079146Y-17822341D01*
X65092157Y-17837133D01*
X65093621Y-17839086D01*
X65111739Y-17863261D01*
X65228295Y-17950615D01*
X65364684Y-18001745D01*
X65426866Y-18008500D01*
X66573134Y-18008500D01*
X66635316Y-18001745D01*
X66705562Y-17975411D01*
X66763301Y-17953766D01*
X66763304Y-17953764D01*
X66771705Y-17950615D01*
X66778888Y-17945232D01*
X66779753Y-17944758D01*
X66849110Y-17929589D01*
X66877522Y-17934913D01*
X66998693Y-17972422D01*
X67012795Y-17972628D01*
X67016000Y-17965873D01*
X67016000Y-17661820D01*
X67022584Y-17625505D01*
X67022144Y-17625400D01*
X67023971Y-17617716D01*
X67026745Y-17610316D01*
X67033500Y-17548134D01*
X67033500Y-15951866D01*
X67026745Y-15889684D01*
X67023971Y-15882284D01*
X67022144Y-15874600D01*
X67022584Y-15874495D01*
X67016000Y-15838180D01*
X67016000Y-15541014D01*
X67012027Y-15527483D01*
X67004232Y-15526363D01*
X66887067Y-15560846D01*
X66886560Y-15561051D01*
X66886276Y-15561079D01*
X66881159Y-15562585D01*
X66880873Y-15561612D01*
X66815906Y-15568025D01*
X66778869Y-15554754D01*
X66771705Y-15549385D01*
X66635316Y-15498255D01*
X66573134Y-15491500D01*
X65426866Y-15491500D01*
X65364684Y-15498255D01*
X65228295Y-15549385D01*
X65111739Y-15636739D01*
X65024385Y-15753295D01*
X65021232Y-15761704D01*
X65021231Y-15761707D01*
X65012599Y-15784731D01*
X64969957Y-15841495D01*
X64903395Y-15866194D01*
X64894618Y-15866500D01*
X64804457Y-15866500D01*
X64784745Y-15864949D01*
X64778008Y-15863882D01*
X64778009Y-15863882D01*
X64771493Y-15862850D01*
X64764906Y-15863195D01*
X64764902Y-15863195D01*
X64705150Y-15866327D01*
X64698555Y-15866500D01*
X64678694Y-15866500D01*
X64658931Y-15868577D01*
X64652372Y-15869093D01*
X64636573Y-15869921D01*
X64592623Y-15872224D01*
X64592619Y-15872225D01*
X64586029Y-15872570D01*
X64573071Y-15876042D01*
X64553628Y-15879645D01*
X64540298Y-15881046D01*
X64477106Y-15901578D01*
X64470804Y-15903444D01*
X64459056Y-15906592D01*
X64406637Y-15920638D01*
X64400758Y-15923634D01*
X64400749Y-15923637D01*
X64394683Y-15926728D01*
X64376421Y-15934292D01*
X64369957Y-15936392D01*
X64369949Y-15936395D01*
X64363669Y-15938436D01*
X64357950Y-15941738D01*
X64357945Y-15941740D01*
X64306133Y-15971654D01*
X64300363Y-15974787D01*
X64241161Y-16004953D01*
X64232293Y-16012134D01*
X64230742Y-16013390D01*
X64214446Y-16024590D01*
X64208546Y-16027996D01*
X64208543Y-16027998D01*
X64202831Y-16031296D01*
X64197926Y-16035712D01*
X64197921Y-16035716D01*
X64153453Y-16075754D01*
X64148443Y-16080034D01*
X64133015Y-16092528D01*
X64118979Y-16106564D01*
X64114194Y-16111105D01*
X64064815Y-16155566D01*
X64060932Y-16160910D01*
X64060927Y-16160916D01*
X64056926Y-16166423D01*
X64044085Y-16181458D01*
X63895948Y-16329595D01*
X63833636Y-16363621D01*
X63806853Y-16366500D01*
X61327477Y-16366500D01*
X61259356Y-16346498D01*
X61234284Y-16325300D01*
X61093558Y-16170644D01*
X61093556Y-16170642D01*
X61090080Y-16166822D01*
X61086029Y-16163623D01*
X61086025Y-16163619D01*
X60918474Y-16031296D01*
X60899606Y-16016395D01*
X60792322Y-15957171D01*
X60691651Y-15901597D01*
X60691649Y-15901596D01*
X60687120Y-15899096D01*
X60512530Y-15837271D01*
X60463202Y-15819803D01*
X60463199Y-15819802D01*
X60458330Y-15818078D01*
X60453241Y-15817171D01*
X60453239Y-15817171D01*
X60224468Y-15776420D01*
X60224464Y-15776420D01*
X60219380Y-15775514D01*
X60139592Y-15774539D01*
X59981857Y-15772612D01*
X59981855Y-15772612D01*
X59976687Y-15772549D01*
X59736768Y-15809262D01*
X59506067Y-15884666D01*
X59439653Y-15919239D01*
X59332918Y-15974802D01*
X59290779Y-15996738D01*
X59286646Y-15999841D01*
X59286643Y-15999843D01*
X59100821Y-16139362D01*
X59096686Y-16142467D01*
X59073793Y-16166423D01*
X58952978Y-16292849D01*
X58929001Y-16317939D01*
X58926087Y-16322211D01*
X58926086Y-16322212D01*
X58915126Y-16338279D01*
X58860215Y-16383282D01*
X58789690Y-16391453D01*
X58725943Y-16360199D01*
X58713931Y-16347117D01*
X58713428Y-16346339D01*
X58586193Y-16206510D01*
X58553558Y-16170644D01*
X58553556Y-16170642D01*
X58550080Y-16166822D01*
X58546029Y-16163623D01*
X58546025Y-16163619D01*
X58378474Y-16031296D01*
X58359606Y-16016395D01*
X58252322Y-15957171D01*
X58151651Y-15901597D01*
X58151649Y-15901596D01*
X58147120Y-15899096D01*
X57972530Y-15837271D01*
X57923202Y-15819803D01*
X57923199Y-15819802D01*
X57918330Y-15818078D01*
X57913241Y-15817171D01*
X57913239Y-15817171D01*
X57684468Y-15776420D01*
X57684464Y-15776420D01*
X57679380Y-15775514D01*
X57599592Y-15774539D01*
X57441857Y-15772612D01*
X57441855Y-15772612D01*
X57436687Y-15772549D01*
X57196768Y-15809262D01*
X56966067Y-15884666D01*
X56899653Y-15919239D01*
X56792918Y-15974802D01*
X56750779Y-15996738D01*
X56746646Y-15999841D01*
X56746643Y-15999843D01*
X56614324Y-16099191D01*
X56547839Y-16124097D01*
X56478443Y-16109105D01*
X56428170Y-16058974D01*
X56422062Y-16045655D01*
X56421267Y-16044203D01*
X56418115Y-16035795D01*
X56330761Y-15919239D01*
X56214205Y-15831885D01*
X56077816Y-15780755D01*
X56015634Y-15774000D01*
X53984366Y-15774000D01*
X53922184Y-15780755D01*
X53785795Y-15831885D01*
X53669239Y-15919239D01*
X53581885Y-16035795D01*
X53530755Y-16172184D01*
X53524000Y-16234366D01*
X53524000Y-18265634D01*
X53530755Y-18327816D01*
X53581885Y-18464205D01*
X53631804Y-18530812D01*
X53656651Y-18597318D01*
X53641598Y-18666700D01*
X53620072Y-18695471D01*
X53018644Y-19296898D01*
X52420947Y-19894595D01*
X52358635Y-19928621D01*
X52331852Y-19931500D01*
X44983147Y-19931500D01*
X44915026Y-19911498D01*
X44894052Y-19894595D01*
X41047591Y-16048134D01*
X44991500Y-16048134D01*
X44998255Y-16110316D01*
X45049385Y-16246705D01*
X45136739Y-16363261D01*
X45253295Y-16450615D01*
X45389684Y-16501745D01*
X45451866Y-16508500D01*
X47548134Y-16508500D01*
X47610316Y-16501745D01*
X47746705Y-16450615D01*
X47863261Y-16363261D01*
X47950615Y-16246705D01*
X48001745Y-16110316D01*
X48008500Y-16048134D01*
X48008500Y-13951866D01*
X48001745Y-13889684D01*
X47950615Y-13753295D01*
X47863261Y-13636739D01*
X47746705Y-13549385D01*
X47610316Y-13498255D01*
X47548134Y-13491500D01*
X45451866Y-13491500D01*
X45389684Y-13498255D01*
X45253295Y-13549385D01*
X45136739Y-13636739D01*
X45049385Y-13753295D01*
X44998255Y-13889684D01*
X44991500Y-13951866D01*
X44991500Y-16048134D01*
X41047591Y-16048134D01*
X41011591Y-16012134D01*
X40977565Y-15949822D01*
X40975764Y-15906595D01*
X40986807Y-15822717D01*
X40987411Y-15798013D01*
X40988502Y-15753365D01*
X40988502Y-15753361D01*
X40988584Y-15750000D01*
X40968596Y-15506876D01*
X40909167Y-15270280D01*
X40811894Y-15046568D01*
X40718888Y-14902802D01*
X40682200Y-14846091D01*
X40682198Y-14846088D01*
X40679390Y-14841748D01*
X40557043Y-14707290D01*
X40518690Y-14665141D01*
X40518688Y-14665140D01*
X40515212Y-14661319D01*
X40511161Y-14658120D01*
X40511157Y-14658116D01*
X40327825Y-14513329D01*
X40327821Y-14513327D01*
X40323770Y-14510127D01*
X40294370Y-14493897D01*
X40267759Y-14479207D01*
X40110205Y-14392233D01*
X40105336Y-14390509D01*
X40105332Y-14390507D01*
X39885127Y-14312528D01*
X39885123Y-14312527D01*
X39880252Y-14310802D01*
X39875159Y-14309895D01*
X39875156Y-14309894D01*
X39645177Y-14268928D01*
X39645171Y-14268927D01*
X39640088Y-14268022D01*
X39560380Y-14267048D01*
X39401332Y-14265105D01*
X39401330Y-14265105D01*
X39396162Y-14265042D01*
X39155024Y-14301941D01*
X38923150Y-14377729D01*
X38706769Y-14490370D01*
X38702636Y-14493473D01*
X38702633Y-14493475D01*
X38628050Y-14549474D01*
X38511690Y-14636840D01*
X38343153Y-14813204D01*
X38340239Y-14817476D01*
X38340238Y-14817477D01*
X38320719Y-14846091D01*
X38205684Y-15014726D01*
X38102974Y-15235995D01*
X38037783Y-15471067D01*
X38011860Y-15713631D01*
X30985093Y-15713631D01*
X30968525Y-15512108D01*
X30966842Y-15501946D01*
X30909952Y-15275453D01*
X30906634Y-15265706D01*
X30813513Y-15051542D01*
X30808646Y-15042467D01*
X30723465Y-14910796D01*
X30712779Y-14901593D01*
X30703214Y-14905996D01*
X29872022Y-15737188D01*
X29864408Y-15751132D01*
X29134356Y-15751132D01*
X29135592Y-15748868D01*
X29135461Y-15747035D01*
X29131210Y-15740420D01*
X28299892Y-14909102D01*
X28288356Y-14902802D01*
X28276073Y-14912426D01*
X28209036Y-15010698D01*
X28203943Y-15019662D01*
X28105619Y-15231483D01*
X28102062Y-15241151D01*
X28039657Y-15466178D01*
X28037726Y-15476298D01*
X28012910Y-15708510D01*
X28012658Y-15718799D01*
X12508353Y-15718799D01*
X12508489Y-15053290D01*
X12510235Y-15032413D01*
X12512769Y-15017349D01*
X12513576Y-15012552D01*
X12513729Y-15000000D01*
X12513040Y-14995186D01*
X12513039Y-14995177D01*
X12511869Y-14987006D01*
X12510827Y-14961540D01*
X12526206Y-14707290D01*
X12528040Y-14692186D01*
X12556452Y-14537142D01*
X28651938Y-14537142D01*
X28658684Y-14549474D01*
X29487188Y-15377978D01*
X29501132Y-15385592D01*
X29502965Y-15385461D01*
X29509580Y-15381210D01*
X30342391Y-14548399D01*
X30349412Y-14535543D01*
X30341639Y-14524875D01*
X30327548Y-14513746D01*
X30318970Y-14508047D01*
X30114526Y-14395189D01*
X30105126Y-14390964D01*
X29884993Y-14313011D01*
X29875036Y-14310381D01*
X29645129Y-14269427D01*
X29634878Y-14268458D01*
X29401367Y-14265605D01*
X29391083Y-14266325D01*
X29160253Y-14301647D01*
X29150225Y-14304036D01*
X28928263Y-14376584D01*
X28918753Y-14380581D01*
X28711624Y-14488405D01*
X28702904Y-14493897D01*
X28660391Y-14525817D01*
X28651938Y-14537142D01*
X12556452Y-14537142D01*
X12561784Y-14508047D01*
X12579525Y-14411240D01*
X12583164Y-14396473D01*
X12609172Y-14313011D01*
X12668142Y-14123769D01*
X12673534Y-14109555D01*
X12790758Y-13849092D01*
X12797828Y-13835621D01*
X12945595Y-13591187D01*
X12954238Y-13578666D01*
X13130385Y-13353829D01*
X13140475Y-13342440D01*
X13342440Y-13140475D01*
X13353829Y-13130385D01*
X13358528Y-13126704D01*
X13463139Y-13044747D01*
X13578666Y-12954238D01*
X13591187Y-12945595D01*
X13835621Y-12797828D01*
X13849094Y-12790757D01*
X14109555Y-12673534D01*
X14123769Y-12668142D01*
X14396474Y-12583164D01*
X14411240Y-12579525D01*
X14620214Y-12541229D01*
X14692186Y-12528040D01*
X14707290Y-12526206D01*
X14957904Y-12511047D01*
X14984716Y-12512308D01*
X14984852Y-12512310D01*
X14993724Y-12513691D01*
X15025317Y-12509559D01*
X15041632Y-12508496D01*
X47740371Y-12506458D01*
X73954331Y-12504824D01*
X73973721Y-12506324D01*
G37*
%TD.AperFunction*%
M02*
