  0
SECTION
  2
HEADER
  9
$ANGBASE
  50
0.0
  9
$ANGDIR
  70
1
  9
$MEASUREMENT
  70
1
  0
ENDSEC
  0
SECTION
  2
TABLES
  0
TABLE
  2
LTYPE
  70
4
  0
LTYPE
  5
40F
  2
CONTINUOUS
  70
0
  3
Solid line
  72
65
  73
0
  40
0.0
  0
LTYPE
  5
410
  2
DASHDOT
 70
0
  3
Dash Dot ____ _ ____ _
 72
65
 73
4
 40
2.0
 49
1.25
 49
-0.25
 49
0.25
 49
-0.25
  0
LTYPE
  5
411
  2
DASHED
 70
0
  3
Dashed __ __ __ __ __
 72
65
 73
2
 40
0.75
 49
0.5
 49
-0.25
  0
LTYPE
  5
43B
  2
DOTTED
 70
0
  3
Dotted .  .  .  .
 72
65
 73
2
 40
0.2
 49
0.0
 49
-0.2
  0
ENDTAB
  0
TABLE
  2
STYLE
  70
4
  0
STYLE
  2
KICAD
  70
0
  40
0
  41
1
  42
1
  50
0
  71
0
  3
isocp.shx
  0
STYLE
  2
KICADB
  70
0
  40
0
  41
1
  42
1
  50
0
  71
0
  3
isocp.shx
  0
STYLE
  2
KICADI
  70
0
  40
0
  41
1
  42
1
  50
15
  71
0
  3
isocp.shx
  0
STYLE
  2
KICADBI
  70
0
  40
0
  41
1
  42
1
  50
15
  71
0
  3
isocp.shx
  0
ENDTAB
  0
TABLE
  2
LAYER
  70
1
  0
LAYER
  2
BLACK
  70
0
  62
7
  6
CONTINUOUS
  0
ENDTAB
  0
ENDSEC
  0
SECTION
  2
ENTITIES
0
ARC
8
BLACK
10
74.0037
20
-14.9963
40
3
50
1.90986e-05
51
90
0
ARC
8
BLACK
10
74.0037
20
-33.0037
40
3
50
-90
51
-1.90986e-05
0
ARC
8
BLACK
10
14.9963
20
-33.0037
40
3
50
-180
51
-90
0
ARC
8
BLACK
10
15
20
-15
40
3
50
90
51
180
0
LINE
8
BLACK
6
CONTINUOUS
10
74.0037
20
-11.9963
11
15
21
-12
0
LINE
8
BLACK
6
CONTINUOUS
10
77.0037
20
-33.0037
11
77.0037
21
-14.9963
0
LINE
8
BLACK
6
CONTINUOUS
10
14.9963
20
-36.0037
11
74.0037
21
-36.0037
0
LINE
8
BLACK
6
CONTINUOUS
10
12
20
-15
11
11.9963
21
-33.0037
0
LINE
8
BLACK
6
CONTINUOUS
10
31
20
-19.75
11
38
21
-26.75
0
LINE
8
BLACK
6
CONTINUOUS
10
38
20
-19.75
11
31
21
-26.75
0
LINE
8
BLACK
6
CONTINUOUS
10
14.5475
20
-39.1334
11
14.5475
21
-37.1334
0
LINE
8
BLACK
6
CONTINUOUS
10
14.5475
20
-37.1334
11
15.0237
21
-37.1334
0
LINE
8
BLACK
6
CONTINUOUS
10
15.0237
20
-37.1334
11
15.3094
21
-37.2287
0
LINE
8
BLACK
6
CONTINUOUS
10
15.3094
20
-37.2287
11
15.4999
21
-37.4192
0
LINE
8
BLACK
6
CONTINUOUS
10
15.4999
20
-37.4192
11
15.5951
21
-37.6096
0
LINE
8
BLACK
6
CONTINUOUS
10
15.5951
20
-37.6096
11
15.6904
21
-37.9906
0
LINE
8
BLACK
6
CONTINUOUS
10
15.6904
20
-37.9906
11
15.6904
21
-38.2763
0
LINE
8
BLACK
6
CONTINUOUS
10
15.6904
20
-38.2763
11
15.5951
21
-38.6573
0
LINE
8
BLACK
6
CONTINUOUS
10
15.5951
20
-38.6573
11
15.4999
21
-38.8477
0
LINE
8
BLACK
6
CONTINUOUS
10
15.4999
20
-38.8477
11
15.3094
21
-39.0382
0
LINE
8
BLACK
6
CONTINUOUS
10
15.3094
20
-39.0382
11
15.0237
21
-39.1334
0
LINE
8
BLACK
6
CONTINUOUS
10
15.0237
20
-39.1334
11
14.5475
21
-39.1334
0
LINE
8
BLACK
6
CONTINUOUS
10
16.5475
20
-39.1334
11
16.5475
21
-37.8001
0
LINE
8
BLACK
6
CONTINUOUS
10
16.5475
20
-38.1811
11
16.6427
21
-37.9906
0
LINE
8
BLACK
6
CONTINUOUS
10
16.6427
20
-37.9906
11
16.738
21
-37.8953
0
LINE
8
BLACK
6
CONTINUOUS
10
16.738
20
-37.8953
11
16.9285
21
-37.8001
0
LINE
8
BLACK
6
CONTINUOUS
10
16.9285
20
-37.8001
11
17.1189
21
-37.8001
0
LINE
8
BLACK
6
CONTINUOUS
10
17.7856
20
-39.1334
11
17.7856
21
-37.8001
0
LINE
8
BLACK
6
CONTINUOUS
10
17.7856
20
-37.1334
11
17.6904
21
-37.2287
0
LINE
8
BLACK
6
CONTINUOUS
10
17.6904
20
-37.2287
11
17.7856
21
-37.3239
0
LINE
8
BLACK
6
CONTINUOUS
10
17.7856
20
-37.3239
11
17.8808
21
-37.2287
0
LINE
8
BLACK
6
CONTINUOUS
10
17.8808
20
-37.2287
11
17.7856
21
-37.1334
0
LINE
8
BLACK
6
CONTINUOUS
10
17.7856
20
-37.1334
11
17.7856
21
-37.3239
0
LINE
8
BLACK
6
CONTINUOUS
10
19.0237
20
-39.1334
11
18.8332
21
-39.0382
0
LINE
8
BLACK
6
CONTINUOUS
10
18.8332
20
-39.0382
11
18.738
21
-38.8477
0
LINE
8
BLACK
6
CONTINUOUS
10
18.738
20
-38.8477
11
18.738
21
-37.1334
0
LINE
8
BLACK
6
CONTINUOUS
10
20.0713
20
-39.1334
11
19.8808
21
-39.0382
0
LINE
8
BLACK
6
CONTINUOUS
10
19.8808
20
-39.0382
11
19.7856
21
-38.8477
0
LINE
8
BLACK
6
CONTINUOUS
10
19.7856
20
-38.8477
11
19.7856
21
-37.1334
0
LINE
8
BLACK
6
CONTINUOUS
10
22.357
20
-39.1334
11
22.357
21
-37.1334
0
LINE
8
BLACK
6
CONTINUOUS
10
22.357
20
-37.1334
11
23.0237
21
-38.562
0
LINE
8
BLACK
6
CONTINUOUS
10
23.0237
20
-38.562
11
23.6904
21
-37.1334
0
LINE
8
BLACK
6
CONTINUOUS
10
23.6904
20
-37.1334
11
23.6904
21
-39.1334
0
LINE
8
BLACK
6
CONTINUOUS
10
25.4999
20
-39.1334
11
25.4999
21
-38.0858
0
LINE
8
BLACK
6
CONTINUOUS
10
25.4999
20
-38.0858
11
25.4047
21
-37.8953
0
LINE
8
BLACK
6
CONTINUOUS
10
25.4047
20
-37.8953
11
25.2142
21
-37.8001
0
LINE
8
BLACK
6
CONTINUOUS
10
25.2142
20
-37.8001
11
24.8332
21
-37.8001
0
LINE
8
BLACK
6
CONTINUOUS
10
24.8332
20
-37.8001
11
24.6427
21
-37.8953
0
LINE
8
BLACK
6
CONTINUOUS
10
25.4999
20
-39.0382
11
25.3094
21
-39.1334
0
LINE
8
BLACK
6
CONTINUOUS
10
25.3094
20
-39.1334
11
24.8332
21
-39.1334
0
LINE
8
BLACK
6
CONTINUOUS
10
24.8332
20
-39.1334
11
24.6427
21
-39.0382
0
LINE
8
BLACK
6
CONTINUOUS
10
24.6427
20
-39.0382
11
24.5475
21
-38.8477
0
LINE
8
BLACK
6
CONTINUOUS
10
24.5475
20
-38.8477
11
24.5475
21
-38.6573
0
LINE
8
BLACK
6
CONTINUOUS
10
24.5475
20
-38.6573
11
24.6427
21
-38.4668
0
LINE
8
BLACK
6
CONTINUOUS
10
24.6427
20
-38.4668
11
24.8332
21
-38.3715
0
LINE
8
BLACK
6
CONTINUOUS
10
24.8332
20
-38.3715
11
25.3094
21
-38.3715
0
LINE
8
BLACK
6
CONTINUOUS
10
25.3094
20
-38.3715
11
25.4999
21
-38.2763
0
LINE
8
BLACK
6
CONTINUOUS
10
26.4523
20
-37.8001
11
26.4523
21
-39.8001
0
LINE
8
BLACK
6
CONTINUOUS
10
26.4523
20
-37.8953
11
26.6427
21
-37.8001
0
LINE
8
BLACK
6
CONTINUOUS
10
26.6427
20
-37.8001
11
27.0237
21
-37.8001
0
LINE
8
BLACK
6
CONTINUOUS
10
27.0237
20
-37.8001
11
27.2142
21
-37.8953
0
LINE
8
BLACK
6
CONTINUOUS
10
27.2142
20
-37.8953
11
27.3094
21
-37.9906
0
LINE
8
BLACK
6
CONTINUOUS
10
27.3094
20
-37.9906
11
27.4047
21
-38.1811
0
LINE
8
BLACK
6
CONTINUOUS
10
27.4047
20
-38.1811
11
27.4047
21
-38.7525
0
LINE
8
BLACK
6
CONTINUOUS
10
27.4047
20
-38.7525
11
27.3094
21
-38.943
0
LINE
8
BLACK
6
CONTINUOUS
10
27.3094
20
-38.943
11
27.2142
21
-39.0382
0
LINE
8
BLACK
6
CONTINUOUS
10
27.2142
20
-39.0382
11
27.0237
21
-39.1334
0
LINE
8
BLACK
6
CONTINUOUS
10
27.0237
20
-39.1334
11
26.6427
21
-39.1334
0
LINE
8
BLACK
6
CONTINUOUS
10
26.6427
20
-39.1334
11
26.4523
21
-39.0382
0
LINE
8
BLACK
6
CONTINUOUS
10
28.2618
20
-38.943
11
28.357
21
-39.0382
0
LINE
8
BLACK
6
CONTINUOUS
10
28.357
20
-39.0382
11
28.2618
21
-39.1334
0
LINE
8
BLACK
6
CONTINUOUS
10
28.2618
20
-39.1334
11
28.1666
21
-39.0382
0
LINE
8
BLACK
6
CONTINUOUS
10
28.1666
20
-39.0382
11
28.2618
21
-38.943
0
LINE
8
BLACK
6
CONTINUOUS
10
28.2618
20
-38.943
11
28.2618
21
-39.1334
0
LINE
8
BLACK
6
CONTINUOUS
10
28.2618
20
-37.8953
11
28.357
21
-37.9906
0
LINE
8
BLACK
6
CONTINUOUS
10
28.357
20
-37.9906
11
28.2618
21
-38.0858
0
LINE
8
BLACK
6
CONTINUOUS
10
28.2618
20
-38.0858
11
28.1666
21
-37.9906
0
LINE
8
BLACK
6
CONTINUOUS
10
28.1666
20
-37.9906
11
28.2618
21
-37.8953
0
LINE
8
BLACK
6
CONTINUOUS
10
28.2618
20
-37.8953
11
28.2618
21
-38.0858
0
LINE
8
BLACK
6
CONTINUOUS
10
9.97132
20
-41.4287
11
11.9713
21
-43.4287
0
LINE
8
BLACK
6
CONTINUOUS
10
11.9713
20
-41.4287
11
9.97132
21
-43.4287
0
LINE
8
BLACK
6
CONTINUOUS
10
14.357
20
-41.3334
11
15.6904
21
-41.3334
0
LINE
8
BLACK
6
CONTINUOUS
10
15.6904
20
-41.3334
11
14.8332
21
-43.3334
0
LINE
8
BLACK
6
CONTINUOUS
10
16.4523
20
-43.143
11
16.5475
21
-43.2382
0
LINE
8
BLACK
6
CONTINUOUS
10
16.5475
20
-43.2382
11
16.4523
21
-43.3334
0
LINE
8
BLACK
6
CONTINUOUS
10
16.4523
20
-43.3334
11
16.357
21
-43.2382
0
LINE
8
BLACK
6
CONTINUOUS
10
16.357
20
-43.2382
11
16.4523
21
-43.143
0
LINE
8
BLACK
6
CONTINUOUS
10
16.4523
20
-43.143
11
16.4523
21
-43.3334
0
LINE
8
BLACK
6
CONTINUOUS
10
17.7856
20
-41.3334
11
17.9761
21
-41.3334
0
LINE
8
BLACK
6
CONTINUOUS
10
17.9761
20
-41.3334
11
18.1666
21
-41.4287
0
LINE
8
BLACK
6
CONTINUOUS
10
18.1666
20
-41.4287
11
18.2618
21
-41.5239
0
LINE
8
BLACK
6
CONTINUOUS
10
18.2618
20
-41.5239
11
18.357
21
-41.7144
0
LINE
8
BLACK
6
CONTINUOUS
10
18.357
20
-41.7144
11
18.4523
21
-42.0953
0
LINE
8
BLACK
6
CONTINUOUS
10
18.4523
20
-42.0953
11
18.4523
21
-42.5715
0
LINE
8
BLACK
6
CONTINUOUS
10
18.4523
20
-42.5715
11
18.357
21
-42.9525
0
LINE
8
BLACK
6
CONTINUOUS
10
18.357
20
-42.9525
11
18.2618
21
-43.143
0
LINE
8
BLACK
6
CONTINUOUS
10
18.2618
20
-43.143
11
18.1666
21
-43.2382
0
LINE
8
BLACK
6
CONTINUOUS
10
18.1666
20
-43.2382
11
17.9761
21
-43.3334
0
LINE
8
BLACK
6
CONTINUOUS
10
17.9761
20
-43.3334
11
17.7856
21
-43.3334
0
LINE
8
BLACK
6
CONTINUOUS
10
17.7856
20
-43.3334
11
17.5951
21
-43.2382
0
LINE
8
BLACK
6
CONTINUOUS
10
17.5951
20
-43.2382
11
17.4999
21
-43.143
0
LINE
8
BLACK
6
CONTINUOUS
10
17.4999
20
-43.143
11
17.4047
21
-42.9525
0
LINE
8
BLACK
6
CONTINUOUS
10
17.4047
20
-42.9525
11
17.3094
21
-42.5715
0
LINE
8
BLACK
6
CONTINUOUS
10
17.3094
20
-42.5715
11
17.3094
21
-42.0953
0
LINE
8
BLACK
6
CONTINUOUS
10
17.3094
20
-42.0953
11
17.4047
21
-41.7144
0
LINE
8
BLACK
6
CONTINUOUS
10
17.4047
20
-41.7144
11
17.4999
21
-41.5239
0
LINE
8
BLACK
6
CONTINUOUS
10
17.4999
20
-41.5239
11
17.5951
21
-41.4287
0
LINE
8
BLACK
6
CONTINUOUS
10
17.5951
20
-41.4287
11
17.7856
21
-41.3334
0
LINE
8
BLACK
6
CONTINUOUS
10
19.6904
20
-41.3334
11
19.8808
21
-41.3334
0
LINE
8
BLACK
6
CONTINUOUS
10
19.8808
20
-41.3334
11
20.0713
21
-41.4287
0
LINE
8
BLACK
6
CONTINUOUS
10
20.0713
20
-41.4287
11
20.1666
21
-41.5239
0
LINE
8
BLACK
6
CONTINUOUS
10
20.1666
20
-41.5239
11
20.2618
21
-41.7144
0
LINE
8
BLACK
6
CONTINUOUS
10
20.2618
20
-41.7144
11
20.357
21
-42.0953
0
LINE
8
BLACK
6
CONTINUOUS
10
20.357
20
-42.0953
11
20.357
21
-42.5715
0
LINE
8
BLACK
6
CONTINUOUS
10
20.357
20
-42.5715
11
20.2618
21
-42.9525
0
LINE
8
BLACK
6
CONTINUOUS
10
20.2618
20
-42.9525
11
20.1666
21
-43.143
0
LINE
8
BLACK
6
CONTINUOUS
10
20.1666
20
-43.143
11
20.0713
21
-43.2382
0
LINE
8
BLACK
6
CONTINUOUS
10
20.0713
20
-43.2382
11
19.8808
21
-43.3334
0
LINE
8
BLACK
6
CONTINUOUS
10
19.8808
20
-43.3334
11
19.6904
21
-43.3334
0
LINE
8
BLACK
6
CONTINUOUS
10
19.6904
20
-43.3334
11
19.4999
21
-43.2382
0
LINE
8
BLACK
6
CONTINUOUS
10
19.4999
20
-43.2382
11
19.4047
21
-43.143
0
LINE
8
BLACK
6
CONTINUOUS
10
19.4047
20
-43.143
11
19.3094
21
-42.9525
0
LINE
8
BLACK
6
CONTINUOUS
10
19.3094
20
-42.9525
11
19.2142
21
-42.5715
0
LINE
8
BLACK
6
CONTINUOUS
10
19.2142
20
-42.5715
11
19.2142
21
-42.0953
0
LINE
8
BLACK
6
CONTINUOUS
10
19.2142
20
-42.0953
11
19.3094
21
-41.7144
0
LINE
8
BLACK
6
CONTINUOUS
10
19.3094
20
-41.7144
11
19.4047
21
-41.5239
0
LINE
8
BLACK
6
CONTINUOUS
10
19.4047
20
-41.5239
11
19.4999
21
-41.4287
0
LINE
8
BLACK
6
CONTINUOUS
10
19.4999
20
-41.4287
11
19.6904
21
-41.3334
0
LINE
8
BLACK
6
CONTINUOUS
10
21.5951
20
-41.3334
11
21.7856
21
-41.3334
0
LINE
8
BLACK
6
CONTINUOUS
10
21.7856
20
-41.3334
11
21.9761
21
-41.4287
0
LINE
8
BLACK
6
CONTINUOUS
10
21.9761
20
-41.4287
11
22.0713
21
-41.5239
0
LINE
8
BLACK
6
CONTINUOUS
10
22.0713
20
-41.5239
11
22.1666
21
-41.7144
0
LINE
8
BLACK
6
CONTINUOUS
10
22.1666
20
-41.7144
11
22.2618
21
-42.0953
0
LINE
8
BLACK
6
CONTINUOUS
10
22.2618
20
-42.0953
11
22.2618
21
-42.5715
0
LINE
8
BLACK
6
CONTINUOUS
10
22.2618
20
-42.5715
11
22.1666
21
-42.9525
0
LINE
8
BLACK
6
CONTINUOUS
10
22.1666
20
-42.9525
11
22.0713
21
-43.143
0
LINE
8
BLACK
6
CONTINUOUS
10
22.0713
20
-43.143
11
21.9761
21
-43.2382
0
LINE
8
BLACK
6
CONTINUOUS
10
21.9761
20
-43.2382
11
21.7856
21
-43.3334
0
LINE
8
BLACK
6
CONTINUOUS
10
21.7856
20
-43.3334
11
21.5951
21
-43.3334
0
LINE
8
BLACK
6
CONTINUOUS
10
21.5951
20
-43.3334
11
21.4047
21
-43.2382
0
LINE
8
BLACK
6
CONTINUOUS
10
21.4047
20
-43.2382
11
21.3094
21
-43.143
0
LINE
8
BLACK
6
CONTINUOUS
10
21.3094
20
-43.143
11
21.2142
21
-42.9525
0
LINE
8
BLACK
6
CONTINUOUS
10
21.2142
20
-42.9525
11
21.1189
21
-42.5715
0
LINE
8
BLACK
6
CONTINUOUS
10
21.1189
20
-42.5715
11
21.1189
21
-42.0953
0
LINE
8
BLACK
6
CONTINUOUS
10
21.1189
20
-42.0953
11
21.2142
21
-41.7144
0
LINE
8
BLACK
6
CONTINUOUS
10
21.2142
20
-41.7144
11
21.3094
21
-41.5239
0
LINE
8
BLACK
6
CONTINUOUS
10
21.3094
20
-41.5239
11
21.4047
21
-41.4287
0
LINE
8
BLACK
6
CONTINUOUS
10
21.4047
20
-41.4287
11
21.5951
21
-41.3334
0
LINE
8
BLACK
6
CONTINUOUS
10
23.1189
20
-43.3334
11
23.1189
21
-42.0001
0
LINE
8
BLACK
6
CONTINUOUS
10
23.1189
20
-42.1906
11
23.2142
21
-42.0953
0
LINE
8
BLACK
6
CONTINUOUS
10
23.2142
20
-42.0953
11
23.4047
21
-42.0001
0
LINE
8
BLACK
6
CONTINUOUS
10
23.4047
20
-42.0001
11
23.6904
21
-42.0001
0
LINE
8
BLACK
6
CONTINUOUS
10
23.6904
20
-42.0001
11
23.8808
21
-42.0953
0
LINE
8
BLACK
6
CONTINUOUS
10
23.8808
20
-42.0953
11
23.9761
21
-42.2858
0
LINE
8
BLACK
6
CONTINUOUS
10
23.9761
20
-42.2858
11
23.9761
21
-43.3334
0
LINE
8
BLACK
6
CONTINUOUS
10
23.9761
20
-42.2858
11
24.0713
21
-42.0953
0
LINE
8
BLACK
6
CONTINUOUS
10
24.0713
20
-42.0953
11
24.2618
21
-42.0001
0
LINE
8
BLACK
6
CONTINUOUS
10
24.2618
20
-42.0001
11
24.5475
21
-42.0001
0
LINE
8
BLACK
6
CONTINUOUS
10
24.5475
20
-42.0001
11
24.738
21
-42.0953
0
LINE
8
BLACK
6
CONTINUOUS
10
24.738
20
-42.0953
11
24.8332
21
-42.2858
0
LINE
8
BLACK
6
CONTINUOUS
10
24.8332
20
-42.2858
11
24.8332
21
-43.3334
0
LINE
8
BLACK
6
CONTINUOUS
10
25.7856
20
-43.3334
11
25.7856
21
-42.0001
0
LINE
8
BLACK
6
CONTINUOUS
10
25.7856
20
-42.1906
11
25.8808
21
-42.0953
0
LINE
8
BLACK
6
CONTINUOUS
10
25.8808
20
-42.0953
11
26.0713
21
-42.0001
0
LINE
8
BLACK
6
CONTINUOUS
10
26.0713
20
-42.0001
11
26.357
21
-42.0001
0
LINE
8
BLACK
6
CONTINUOUS
10
26.357
20
-42.0001
11
26.5475
21
-42.0953
0
LINE
8
BLACK
6
CONTINUOUS
10
26.5475
20
-42.0953
11
26.6427
21
-42.2858
0
LINE
8
BLACK
6
CONTINUOUS
10
26.6427
20
-42.2858
11
26.6427
21
-43.3334
0
LINE
8
BLACK
6
CONTINUOUS
10
26.6427
20
-42.2858
11
26.738
21
-42.0953
0
LINE
8
BLACK
6
CONTINUOUS
10
26.738
20
-42.0953
11
26.9285
21
-42.0001
0
LINE
8
BLACK
6
CONTINUOUS
10
26.9285
20
-42.0001
11
27.2142
21
-42.0001
0
LINE
8
BLACK
6
CONTINUOUS
10
27.2142
20
-42.0001
11
27.4047
21
-42.0953
0
LINE
8
BLACK
6
CONTINUOUS
10
27.4047
20
-42.0953
11
27.4999
21
-42.2858
0
LINE
8
BLACK
6
CONTINUOUS
10
27.4999
20
-42.2858
11
27.4999
21
-43.3334
0
LINE
8
BLACK
6
CONTINUOUS
10
31.4047
20
-41.2382
11
29.6904
21
-43.8096
0
LINE
8
BLACK
6
CONTINUOUS
10
33.9761
20
-41.3334
11
34.1666
21
-41.3334
0
LINE
8
BLACK
6
CONTINUOUS
10
34.1666
20
-41.3334
11
34.357
21
-41.4287
0
LINE
8
BLACK
6
CONTINUOUS
10
34.357
20
-41.4287
11
34.4523
21
-41.5239
0
LINE
8
BLACK
6
CONTINUOUS
10
34.4523
20
-41.5239
11
34.5475
21
-41.7144
0
LINE
8
BLACK
6
CONTINUOUS
10
34.5475
20
-41.7144
11
34.6427
21
-42.0953
0
LINE
8
BLACK
6
CONTINUOUS
10
34.6427
20
-42.0953
11
34.6427
21
-42.5715
0
LINE
8
BLACK
6
CONTINUOUS
10
34.6427
20
-42.5715
11
34.5475
21
-42.9525
0
LINE
8
BLACK
6
CONTINUOUS
10
34.5475
20
-42.9525
11
34.4523
21
-43.143
0
LINE
8
BLACK
6
CONTINUOUS
10
34.4523
20
-43.143
11
34.357
21
-43.2382
0
LINE
8
BLACK
6
CONTINUOUS
10
34.357
20
-43.2382
11
34.1666
21
-43.3334
0
LINE
8
BLACK
6
CONTINUOUS
10
34.1666
20
-43.3334
11
33.9761
21
-43.3334
0
LINE
8
BLACK
6
CONTINUOUS
10
33.9761
20
-43.3334
11
33.7856
21
-43.2382
0
LINE
8
BLACK
6
CONTINUOUS
10
33.7856
20
-43.2382
11
33.6904
21
-43.143
0
LINE
8
BLACK
6
CONTINUOUS
10
33.6904
20
-43.143
11
33.5951
21
-42.9525
0
LINE
8
BLACK
6
CONTINUOUS
10
33.5951
20
-42.9525
11
33.4999
21
-42.5715
0
LINE
8
BLACK
6
CONTINUOUS
10
33.4999
20
-42.5715
11
33.4999
21
-42.0953
0
LINE
8
BLACK
6
CONTINUOUS
10
33.4999
20
-42.0953
11
33.5951
21
-41.7144
0
LINE
8
BLACK
6
CONTINUOUS
10
33.5951
20
-41.7144
11
33.6904
21
-41.5239
0
LINE
8
BLACK
6
CONTINUOUS
10
33.6904
20
-41.5239
11
33.7856
21
-41.4287
0
LINE
8
BLACK
6
CONTINUOUS
10
33.7856
20
-41.4287
11
33.9761
21
-41.3334
0
LINE
8
BLACK
6
CONTINUOUS
10
35.4999
20
-43.143
11
35.5951
21
-43.2382
0
LINE
8
BLACK
6
CONTINUOUS
10
35.5951
20
-43.2382
11
35.4999
21
-43.3334
0
LINE
8
BLACK
6
CONTINUOUS
10
35.4999
20
-43.3334
11
35.4047
21
-43.2382
0
LINE
8
BLACK
6
CONTINUOUS
10
35.4047
20
-43.2382
11
35.4999
21
-43.143
0
LINE
8
BLACK
6
CONTINUOUS
10
35.4999
20
-43.143
11
35.4999
21
-43.3334
0
LINE
8
BLACK
6
CONTINUOUS
10
36.357
20
-41.5239
11
36.4523
21
-41.4287
0
LINE
8
BLACK
6
CONTINUOUS
10
36.4523
20
-41.4287
11
36.6427
21
-41.3334
0
LINE
8
BLACK
6
CONTINUOUS
10
36.6427
20
-41.3334
11
37.1189
21
-41.3334
0
LINE
8
BLACK
6
CONTINUOUS
10
37.1189
20
-41.3334
11
37.3094
21
-41.4287
0
LINE
8
BLACK
6
CONTINUOUS
10
37.3094
20
-41.4287
11
37.4047
21
-41.5239
0
LINE
8
BLACK
6
CONTINUOUS
10
37.4047
20
-41.5239
11
37.4999
21
-41.7144
0
LINE
8
BLACK
6
CONTINUOUS
10
37.4999
20
-41.7144
11
37.4999
21
-41.9049
0
LINE
8
BLACK
6
CONTINUOUS
10
37.4999
20
-41.9049
11
37.4047
21
-42.1906
0
LINE
8
BLACK
6
CONTINUOUS
10
37.4047
20
-42.1906
11
36.2618
21
-43.3334
0
LINE
8
BLACK
6
CONTINUOUS
10
36.2618
20
-43.3334
11
37.4999
21
-43.3334
0
LINE
8
BLACK
6
CONTINUOUS
10
38.1666
20
-41.3334
11
39.4999
21
-41.3334
0
LINE
8
BLACK
6
CONTINUOUS
10
39.4999
20
-41.3334
11
38.6427
21
-43.3334
0
LINE
8
BLACK
6
CONTINUOUS
10
41.2142
20
-41.3334
11
40.2618
21
-41.3334
0
LINE
8
BLACK
6
CONTINUOUS
10
40.2618
20
-41.3334
11
40.1666
21
-42.2858
0
LINE
8
BLACK
6
CONTINUOUS
10
40.1666
20
-42.2858
11
40.2618
21
-42.1906
0
LINE
8
BLACK
6
CONTINUOUS
10
40.2618
20
-42.1906
11
40.4523
21
-42.0953
0
LINE
8
BLACK
6
CONTINUOUS
10
40.4523
20
-42.0953
11
40.9285
21
-42.0953
0
LINE
8
BLACK
6
CONTINUOUS
10
40.9285
20
-42.0953
11
41.1189
21
-42.1906
0
LINE
8
BLACK
6
CONTINUOUS
10
41.1189
20
-42.1906
11
41.2142
21
-42.2858
0
LINE
8
BLACK
6
CONTINUOUS
10
41.2142
20
-42.2858
11
41.3094
21
-42.4763
0
LINE
8
BLACK
6
CONTINUOUS
10
41.3094
20
-42.4763
11
41.3094
21
-42.9525
0
LINE
8
BLACK
6
CONTINUOUS
10
41.3094
20
-42.9525
11
41.2142
21
-43.143
0
LINE
8
BLACK
6
CONTINUOUS
10
41.2142
20
-43.143
11
41.1189
21
-43.2382
0
LINE
8
BLACK
6
CONTINUOUS
10
41.1189
20
-43.2382
11
40.9285
21
-43.3334
0
LINE
8
BLACK
6
CONTINUOUS
10
40.9285
20
-43.3334
11
40.4523
21
-43.3334
0
LINE
8
BLACK
6
CONTINUOUS
10
40.4523
20
-43.3334
11
40.2618
21
-43.2382
0
LINE
8
BLACK
6
CONTINUOUS
10
40.2618
20
-43.2382
11
40.1666
21
-43.143
0
LINE
8
BLACK
6
CONTINUOUS
10
43.0237
20
-41.3334
11
42.6427
21
-41.3334
0
LINE
8
BLACK
6
CONTINUOUS
10
42.6427
20
-41.3334
11
42.4523
21
-41.4287
0
LINE
8
BLACK
6
CONTINUOUS
10
42.4523
20
-41.4287
11
42.357
21
-41.5239
0
LINE
8
BLACK
6
CONTINUOUS
10
42.357
20
-41.5239
11
42.1666
21
-41.8096
0
LINE
8
BLACK
6
CONTINUOUS
10
42.1666
20
-41.8096
11
42.0713
21
-42.1906
0
LINE
8
BLACK
6
CONTINUOUS
10
42.0713
20
-42.1906
11
42.0713
21
-42.9525
0
LINE
8
BLACK
6
CONTINUOUS
10
42.0713
20
-42.9525
11
42.1666
21
-43.143
0
LINE
8
BLACK
6
CONTINUOUS
10
42.1666
20
-43.143
11
42.2618
21
-43.2382
0
LINE
8
BLACK
6
CONTINUOUS
10
42.2618
20
-43.2382
11
42.4523
21
-43.3334
0
LINE
8
BLACK
6
CONTINUOUS
10
42.4523
20
-43.3334
11
42.8332
21
-43.3334
0
LINE
8
BLACK
6
CONTINUOUS
10
42.8332
20
-43.3334
11
43.0237
21
-43.2382
0
LINE
8
BLACK
6
CONTINUOUS
10
43.0237
20
-43.2382
11
43.1189
21
-43.143
0
LINE
8
BLACK
6
CONTINUOUS
10
43.1189
20
-43.143
11
43.2142
21
-42.9525
0
LINE
8
BLACK
6
CONTINUOUS
10
43.2142
20
-42.9525
11
43.2142
21
-42.4763
0
LINE
8
BLACK
6
CONTINUOUS
10
43.2142
20
-42.4763
11
43.1189
21
-42.2858
0
LINE
8
BLACK
6
CONTINUOUS
10
43.1189
20
-42.2858
11
43.0237
21
-42.1906
0
LINE
8
BLACK
6
CONTINUOUS
10
43.0237
20
-42.1906
11
42.8332
21
-42.0953
0
LINE
8
BLACK
6
CONTINUOUS
10
42.8332
20
-42.0953
11
42.4523
21
-42.0953
0
LINE
8
BLACK
6
CONTINUOUS
10
42.4523
20
-42.0953
11
42.2618
21
-42.1906
0
LINE
8
BLACK
6
CONTINUOUS
10
42.2618
20
-42.1906
11
42.1666
21
-42.2858
0
LINE
8
BLACK
6
CONTINUOUS
10
42.1666
20
-42.2858
11
42.0713
21
-42.4763
0
LINE
8
BLACK
6
CONTINUOUS
10
43.9761
20
-41.3334
11
43.9761
21
-41.7144
0
LINE
8
BLACK
6
CONTINUOUS
10
44.738
20
-41.3334
11
44.738
21
-41.7144
0
LINE
8
BLACK
6
CONTINUOUS
10
47.6904
20
-44.0953
11
47.5951
21
-44.0001
0
LINE
8
BLACK
6
CONTINUOUS
10
47.5951
20
-44.0001
11
47.4047
21
-43.7144
0
LINE
8
BLACK
6
CONTINUOUS
10
47.4047
20
-43.7144
11
47.3094
21
-43.5239
0
LINE
8
BLACK
6
CONTINUOUS
10
47.3094
20
-43.5239
11
47.2142
21
-43.2382
0
LINE
8
BLACK
6
CONTINUOUS
10
47.2142
20
-43.2382
11
47.1189
21
-42.762
0
LINE
8
BLACK
6
CONTINUOUS
10
47.1189
20
-42.762
11
47.1189
21
-42.3811
0
LINE
8
BLACK
6
CONTINUOUS
10
47.1189
20
-42.3811
11
47.2142
21
-41.9049
0
LINE
8
BLACK
6
CONTINUOUS
10
47.2142
20
-41.9049
11
47.3094
21
-41.6192
0
LINE
8
BLACK
6
CONTINUOUS
10
47.3094
20
-41.6192
11
47.4047
21
-41.4287
0
LINE
8
BLACK
6
CONTINUOUS
10
47.4047
20
-41.4287
11
47.5951
21
-41.143
0
LINE
8
BLACK
6
CONTINUOUS
10
47.5951
20
-41.143
11
47.6904
21
-41.0477
0
LINE
8
BLACK
6
CONTINUOUS
10
49.4999
20
-43.3334
11
48.357
21
-43.3334
0
LINE
8
BLACK
6
CONTINUOUS
10
48.9285
20
-43.3334
11
48.9285
21
-41.3334
0
LINE
8
BLACK
6
CONTINUOUS
10
48.9285
20
-41.3334
11
48.738
21
-41.6192
0
LINE
8
BLACK
6
CONTINUOUS
10
48.738
20
-41.6192
11
48.5475
21
-41.8096
0
LINE
8
BLACK
6
CONTINUOUS
10
48.5475
20
-41.8096
11
48.357
21
-41.9049
0
LINE
8
BLACK
6
CONTINUOUS
10
51.8808
20
-43.3334
11
51.8808
21
-41.3334
0
LINE
8
BLACK
6
CONTINUOUS
10
52.738
20
-43.3334
11
52.738
21
-42.2858
0
LINE
8
BLACK
6
CONTINUOUS
10
52.738
20
-42.2858
11
52.6427
21
-42.0953
0
LINE
8
BLACK
6
CONTINUOUS
10
52.6427
20
-42.0953
11
52.4523
21
-42.0001
0
LINE
8
BLACK
6
CONTINUOUS
10
52.4523
20
-42.0001
11
52.1666
21
-42.0001
0
LINE
8
BLACK
6
CONTINUOUS
10
52.1666
20
-42.0001
11
51.9761
21
-42.0953
0
LINE
8
BLACK
6
CONTINUOUS
10
51.9761
20
-42.0953
11
51.8808
21
-42.1906
0
LINE
8
BLACK
6
CONTINUOUS
10
53.9761
20
-43.3334
11
53.7856
21
-43.2382
0
LINE
8
BLACK
6
CONTINUOUS
10
53.7856
20
-43.2382
11
53.6904
21
-43.143
0
LINE
8
BLACK
6
CONTINUOUS
10
53.6904
20
-43.143
11
53.5951
21
-42.9525
0
LINE
8
BLACK
6
CONTINUOUS
10
53.5951
20
-42.9525
11
53.5951
21
-42.3811
0
LINE
8
BLACK
6
CONTINUOUS
10
53.5951
20
-42.3811
11
53.6904
21
-42.1906
0
LINE
8
BLACK
6
CONTINUOUS
10
53.6904
20
-42.1906
11
53.7856
21
-42.0953
0
LINE
8
BLACK
6
CONTINUOUS
10
53.7856
20
-42.0953
11
53.9761
21
-42.0001
0
LINE
8
BLACK
6
CONTINUOUS
10
53.9761
20
-42.0001
11
54.2618
21
-42.0001
0
LINE
8
BLACK
6
CONTINUOUS
10
54.2618
20
-42.0001
11
54.4523
21
-42.0953
0
LINE
8
BLACK
6
CONTINUOUS
10
54.4523
20
-42.0953
11
54.5475
21
-42.1906
0
LINE
8
BLACK
6
CONTINUOUS
10
54.5475
20
-42.1906
11
54.6427
21
-42.3811
0
LINE
8
BLACK
6
CONTINUOUS
10
54.6427
20
-42.3811
11
54.6427
21
-42.9525
0
LINE
8
BLACK
6
CONTINUOUS
10
54.6427
20
-42.9525
11
54.5475
21
-43.143
0
LINE
8
BLACK
6
CONTINUOUS
10
54.5475
20
-43.143
11
54.4523
21
-43.2382
0
LINE
8
BLACK
6
CONTINUOUS
10
54.4523
20
-43.2382
11
54.2618
21
-43.3334
0
LINE
8
BLACK
6
CONTINUOUS
10
54.2618
20
-43.3334
11
53.9761
21
-43.3334
0
LINE
8
BLACK
6
CONTINUOUS
10
55.7856
20
-43.3334
11
55.5951
21
-43.2382
0
LINE
8
BLACK
6
CONTINUOUS
10
55.5951
20
-43.2382
11
55.4999
21
-43.0477
0
LINE
8
BLACK
6
CONTINUOUS
10
55.4999
20
-43.0477
11
55.4999
21
-41.3334
0
LINE
8
BLACK
6
CONTINUOUS
10
57.3094
20
-43.2382
11
57.1189
21
-43.3334
0
LINE
8
BLACK
6
CONTINUOUS
10
57.1189
20
-43.3334
11
56.738
21
-43.3334
0
LINE
8
BLACK
6
CONTINUOUS
10
56.738
20
-43.3334
11
56.5475
21
-43.2382
0
LINE
8
BLACK
6
CONTINUOUS
10
56.5475
20
-43.2382
11
56.4523
21
-43.0477
0
LINE
8
BLACK
6
CONTINUOUS
10
56.4523
20
-43.0477
11
56.4523
21
-42.2858
0
LINE
8
BLACK
6
CONTINUOUS
10
56.4523
20
-42.2858
11
56.5475
21
-42.0953
0
LINE
8
BLACK
6
CONTINUOUS
10
56.5475
20
-42.0953
11
56.738
21
-42.0001
0
LINE
8
BLACK
6
CONTINUOUS
10
56.738
20
-42.0001
11
57.1189
21
-42.0001
0
LINE
8
BLACK
6
CONTINUOUS
10
57.1189
20
-42.0001
11
57.3094
21
-42.0953
0
LINE
8
BLACK
6
CONTINUOUS
10
57.3094
20
-42.0953
11
57.4047
21
-42.2858
0
LINE
8
BLACK
6
CONTINUOUS
10
57.4047
20
-42.2858
11
57.4047
21
-42.4763
0
LINE
8
BLACK
6
CONTINUOUS
10
57.4047
20
-42.4763
11
56.4523
21
-42.6668
0
LINE
8
BLACK
6
CONTINUOUS
10
58.0713
20
-44.0953
11
58.1666
21
-44.0001
0
LINE
8
BLACK
6
CONTINUOUS
10
58.1666
20
-44.0001
11
58.357
21
-43.7144
0
LINE
8
BLACK
6
CONTINUOUS
10
58.357
20
-43.7144
11
58.4523
21
-43.5239
0
LINE
8
BLACK
6
CONTINUOUS
10
58.4523
20
-43.5239
11
58.5475
21
-43.2382
0
LINE
8
BLACK
6
CONTINUOUS
10
58.5475
20
-43.2382
11
58.6427
21
-42.762
0
LINE
8
BLACK
6
CONTINUOUS
10
58.6427
20
-42.762
11
58.6427
21
-42.3811
0
LINE
8
BLACK
6
CONTINUOUS
10
58.6427
20
-42.3811
11
58.5475
21
-41.9049
0
LINE
8
BLACK
6
CONTINUOUS
10
58.5475
20
-41.9049
11
58.4523
21
-41.6192
0
LINE
8
BLACK
6
CONTINUOUS
10
58.4523
20
-41.6192
11
58.357
21
-41.4287
0
LINE
8
BLACK
6
CONTINUOUS
10
58.357
20
-41.4287
11
58.1666
21
-41.143
0
LINE
8
BLACK
6
CONTINUOUS
10
58.1666
20
-41.143
11
58.0713
21
-41.0477
0
LINE
8
BLACK
6
CONTINUOUS
10
61.6904
20
-44.0953
11
61.5951
21
-44.0001
0
LINE
8
BLACK
6
CONTINUOUS
10
61.5951
20
-44.0001
11
61.4047
21
-43.7144
0
LINE
8
BLACK
6
CONTINUOUS
10
61.4047
20
-43.7144
11
61.3094
21
-43.5239
0
LINE
8
BLACK
6
CONTINUOUS
10
61.3094
20
-43.5239
11
61.2142
21
-43.2382
0
LINE
8
BLACK
6
CONTINUOUS
10
61.2142
20
-43.2382
11
61.1189
21
-42.762
0
LINE
8
BLACK
6
CONTINUOUS
10
61.1189
20
-42.762
11
61.1189
21
-42.3811
0
LINE
8
BLACK
6
CONTINUOUS
10
61.1189
20
-42.3811
11
61.2142
21
-41.9049
0
LINE
8
BLACK
6
CONTINUOUS
10
61.2142
20
-41.9049
11
61.3094
21
-41.6192
0
LINE
8
BLACK
6
CONTINUOUS
10
61.3094
20
-41.6192
11
61.4047
21
-41.4287
0
LINE
8
BLACK
6
CONTINUOUS
10
61.4047
20
-41.4287
11
61.5951
21
-41.143
0
LINE
8
BLACK
6
CONTINUOUS
10
61.5951
20
-41.143
11
61.6904
21
-41.0477
0
LINE
8
BLACK
6
CONTINUOUS
10
62.4523
20
-42.0001
11
62.4523
21
-43.3334
0
LINE
8
BLACK
6
CONTINUOUS
10
62.4523
20
-42.1906
11
62.5475
21
-42.0953
0
LINE
8
BLACK
6
CONTINUOUS
10
62.5475
20
-42.0953
11
62.738
21
-42.0001
0
LINE
8
BLACK
6
CONTINUOUS
10
62.738
20
-42.0001
11
63.0237
21
-42.0001
0
LINE
8
BLACK
6
CONTINUOUS
10
63.0237
20
-42.0001
11
63.2142
21
-42.0953
0
LINE
8
BLACK
6
CONTINUOUS
10
63.2142
20
-42.0953
11
63.3094
21
-42.2858
0
LINE
8
BLACK
6
CONTINUOUS
10
63.3094
20
-42.2858
11
63.3094
21
-43.3334
0
LINE
8
BLACK
6
CONTINUOUS
10
64.5475
20
-43.3334
11
64.357
21
-43.2382
0
LINE
8
BLACK
6
CONTINUOUS
10
64.357
20
-43.2382
11
64.2618
21
-43.143
0
LINE
8
BLACK
6
CONTINUOUS
10
64.2618
20
-43.143
11
64.1666
21
-42.9525
0
LINE
8
BLACK
6
CONTINUOUS
10
64.1666
20
-42.9525
11
64.1666
21
-42.3811
0
LINE
8
BLACK
6
CONTINUOUS
10
64.1666
20
-42.3811
11
64.2618
21
-42.1906
0
LINE
8
BLACK
6
CONTINUOUS
10
64.2618
20
-42.1906
11
64.357
21
-42.0953
0
LINE
8
BLACK
6
CONTINUOUS
10
64.357
20
-42.0953
11
64.5475
21
-42.0001
0
LINE
8
BLACK
6
CONTINUOUS
10
64.5475
20
-42.0001
11
64.8332
21
-42.0001
0
LINE
8
BLACK
6
CONTINUOUS
10
64.8332
20
-42.0001
11
65.0237
21
-42.0953
0
LINE
8
BLACK
6
CONTINUOUS
10
65.0237
20
-42.0953
11
65.1189
21
-42.1906
0
LINE
8
BLACK
6
CONTINUOUS
10
65.1189
20
-42.1906
11
65.2142
21
-42.3811
0
LINE
8
BLACK
6
CONTINUOUS
10
65.2142
20
-42.3811
11
65.2142
21
-42.9525
0
LINE
8
BLACK
6
CONTINUOUS
10
65.2142
20
-42.9525
11
65.1189
21
-43.143
0
LINE
8
BLACK
6
CONTINUOUS
10
65.1189
20
-43.143
11
65.0237
21
-43.2382
0
LINE
8
BLACK
6
CONTINUOUS
10
65.0237
20
-43.2382
11
64.8332
21
-43.3334
0
LINE
8
BLACK
6
CONTINUOUS
10
64.8332
20
-43.3334
11
64.5475
21
-43.3334
0
LINE
8
BLACK
6
CONTINUOUS
10
65.7856
20
-42.0001
11
66.5475
21
-42.0001
0
LINE
8
BLACK
6
CONTINUOUS
10
66.0713
20
-41.3334
11
66.0713
21
-43.0477
0
LINE
8
BLACK
6
CONTINUOUS
10
66.0713
20
-43.0477
11
66.1666
21
-43.2382
0
LINE
8
BLACK
6
CONTINUOUS
10
66.1666
20
-43.2382
11
66.357
21
-43.3334
0
LINE
8
BLACK
6
CONTINUOUS
10
66.357
20
-43.3334
11
66.5475
21
-43.3334
0
LINE
8
BLACK
6
CONTINUOUS
10
68.738
20
-42.0001
11
68.738
21
-44.0001
0
LINE
8
BLACK
6
CONTINUOUS
10
68.738
20
-42.0953
11
68.9285
21
-42.0001
0
LINE
8
BLACK
6
CONTINUOUS
10
68.9285
20
-42.0001
11
69.3094
21
-42.0001
0
LINE
8
BLACK
6
CONTINUOUS
10
69.3094
20
-42.0001
11
69.4999
21
-42.0953
0
LINE
8
BLACK
6
CONTINUOUS
10
69.4999
20
-42.0953
11
69.5951
21
-42.1906
0
LINE
8
BLACK
6
CONTINUOUS
10
69.5951
20
-42.1906
11
69.6904
21
-42.3811
0
LINE
8
BLACK
6
CONTINUOUS
10
69.6904
20
-42.3811
11
69.6904
21
-42.9525
0
LINE
8
BLACK
6
CONTINUOUS
10
69.6904
20
-42.9525
11
69.5951
21
-43.143
0
LINE
8
BLACK
6
CONTINUOUS
10
69.5951
20
-43.143
11
69.4999
21
-43.2382
0
LINE
8
BLACK
6
CONTINUOUS
10
69.4999
20
-43.2382
11
69.3094
21
-43.3334
0
LINE
8
BLACK
6
CONTINUOUS
10
69.3094
20
-43.3334
11
68.9285
21
-43.3334
0
LINE
8
BLACK
6
CONTINUOUS
10
68.9285
20
-43.3334
11
68.738
21
-43.2382
0
LINE
8
BLACK
6
CONTINUOUS
10
70.8332
20
-43.3334
11
70.6427
21
-43.2382
0
LINE
8
BLACK
6
CONTINUOUS
10
70.6427
20
-43.2382
11
70.5475
21
-43.0477
0
LINE
8
BLACK
6
CONTINUOUS
10
70.5475
20
-43.0477
11
70.5475
21
-41.3334
0
LINE
8
BLACK
6
CONTINUOUS
10
72.4523
20
-43.3334
11
72.4523
21
-42.2858
0
LINE
8
BLACK
6
CONTINUOUS
10
72.4523
20
-42.2858
11
72.357
21
-42.0953
0
LINE
8
BLACK
6
CONTINUOUS
10
72.357
20
-42.0953
11
72.1666
21
-42.0001
0
LINE
8
BLACK
6
CONTINUOUS
10
72.1666
20
-42.0001
11
71.7856
21
-42.0001
0
LINE
8
BLACK
6
CONTINUOUS
10
71.7856
20
-42.0001
11
71.5951
21
-42.0953
0
LINE
8
BLACK
6
CONTINUOUS
10
72.4523
20
-43.2382
11
72.2618
21
-43.3334
0
LINE
8
BLACK
6
CONTINUOUS
10
72.2618
20
-43.3334
11
71.7856
21
-43.3334
0
LINE
8
BLACK
6
CONTINUOUS
10
71.7856
20
-43.3334
11
71.5951
21
-43.2382
0
LINE
8
BLACK
6
CONTINUOUS
10
71.5951
20
-43.2382
11
71.4999
21
-43.0477
0
LINE
8
BLACK
6
CONTINUOUS
10
71.4999
20
-43.0477
11
71.4999
21
-42.8573
0
LINE
8
BLACK
6
CONTINUOUS
10
71.4999
20
-42.8573
11
71.5951
21
-42.6668
0
LINE
8
BLACK
6
CONTINUOUS
10
71.5951
20
-42.6668
11
71.7856
21
-42.5715
0
LINE
8
BLACK
6
CONTINUOUS
10
71.7856
20
-42.5715
11
72.2618
21
-42.5715
0
LINE
8
BLACK
6
CONTINUOUS
10
72.2618
20
-42.5715
11
72.4523
21
-42.4763
0
LINE
8
BLACK
6
CONTINUOUS
10
73.1189
20
-42.0001
11
73.8808
21
-42.0001
0
LINE
8
BLACK
6
CONTINUOUS
10
73.4047
20
-41.3334
11
73.4047
21
-43.0477
0
LINE
8
BLACK
6
CONTINUOUS
10
73.4047
20
-43.0477
11
73.4999
21
-43.2382
0
LINE
8
BLACK
6
CONTINUOUS
10
73.4999
20
-43.2382
11
73.6904
21
-43.3334
0
LINE
8
BLACK
6
CONTINUOUS
10
73.6904
20
-43.3334
11
73.8808
21
-43.3334
0
LINE
8
BLACK
6
CONTINUOUS
10
75.3094
20
-43.2382
11
75.1189
21
-43.3334
0
LINE
8
BLACK
6
CONTINUOUS
10
75.1189
20
-43.3334
11
74.738
21
-43.3334
0
LINE
8
BLACK
6
CONTINUOUS
10
74.738
20
-43.3334
11
74.5475
21
-43.2382
0
LINE
8
BLACK
6
CONTINUOUS
10
74.5475
20
-43.2382
11
74.4523
21
-43.0477
0
LINE
8
BLACK
6
CONTINUOUS
10
74.4523
20
-43.0477
11
74.4523
21
-42.2858
0
LINE
8
BLACK
6
CONTINUOUS
10
74.4523
20
-42.2858
11
74.5475
21
-42.0953
0
LINE
8
BLACK
6
CONTINUOUS
10
74.5475
20
-42.0953
11
74.738
21
-42.0001
0
LINE
8
BLACK
6
CONTINUOUS
10
74.738
20
-42.0001
11
75.1189
21
-42.0001
0
LINE
8
BLACK
6
CONTINUOUS
10
75.1189
20
-42.0001
11
75.3094
21
-42.0953
0
LINE
8
BLACK
6
CONTINUOUS
10
75.3094
20
-42.0953
11
75.4047
21
-42.2858
0
LINE
8
BLACK
6
CONTINUOUS
10
75.4047
20
-42.2858
11
75.4047
21
-42.4763
0
LINE
8
BLACK
6
CONTINUOUS
10
75.4047
20
-42.4763
11
74.4523
21
-42.6668
0
LINE
8
BLACK
6
CONTINUOUS
10
77.1189
20
-43.3334
11
77.1189
21
-41.3334
0
LINE
8
BLACK
6
CONTINUOUS
10
77.1189
20
-43.2382
11
76.9285
21
-43.3334
0
LINE
8
BLACK
6
CONTINUOUS
10
76.9285
20
-43.3334
11
76.5475
21
-43.3334
0
LINE
8
BLACK
6
CONTINUOUS
10
76.5475
20
-43.3334
11
76.357
21
-43.2382
0
LINE
8
BLACK
6
CONTINUOUS
10
76.357
20
-43.2382
11
76.2618
21
-43.143
0
LINE
8
BLACK
6
CONTINUOUS
10
76.2618
20
-43.143
11
76.1666
21
-42.9525
0
LINE
8
BLACK
6
CONTINUOUS
10
76.1666
20
-42.9525
11
76.1666
21
-42.3811
0
LINE
8
BLACK
6
CONTINUOUS
10
76.1666
20
-42.3811
11
76.2618
21
-42.1906
0
LINE
8
BLACK
6
CONTINUOUS
10
76.2618
20
-42.1906
11
76.357
21
-42.0953
0
LINE
8
BLACK
6
CONTINUOUS
10
76.357
20
-42.0953
11
76.5475
21
-42.0001
0
LINE
8
BLACK
6
CONTINUOUS
10
76.5475
20
-42.0001
11
76.9285
21
-42.0001
0
LINE
8
BLACK
6
CONTINUOUS
10
76.9285
20
-42.0001
11
77.1189
21
-42.0953
0
LINE
8
BLACK
6
CONTINUOUS
10
77.8808
20
-44.0953
11
77.9761
21
-44.0001
0
LINE
8
BLACK
6
CONTINUOUS
10
77.9761
20
-44.0001
11
78.1666
21
-43.7144
0
LINE
8
BLACK
6
CONTINUOUS
10
78.1666
20
-43.7144
11
78.2618
21
-43.5239
0
LINE
8
BLACK
6
CONTINUOUS
10
78.2618
20
-43.5239
11
78.357
21
-43.2382
0
LINE
8
BLACK
6
CONTINUOUS
10
78.357
20
-43.2382
11
78.4523
21
-42.762
0
LINE
8
BLACK
6
CONTINUOUS
10
78.4523
20
-42.762
11
78.4523
21
-42.3811
0
LINE
8
BLACK
6
CONTINUOUS
10
78.4523
20
-42.3811
11
78.357
21
-41.9049
0
LINE
8
BLACK
6
CONTINUOUS
10
78.357
20
-41.9049
11
78.2618
21
-41.6192
0
LINE
8
BLACK
6
CONTINUOUS
10
78.2618
20
-41.6192
11
78.1666
21
-41.4287
0
LINE
8
BLACK
6
CONTINUOUS
10
78.1666
20
-41.4287
11
77.9761
21
-41.143
0
LINE
8
BLACK
6
CONTINUOUS
10
77.9761
20
-41.143
11
77.8808
21
-41.0477
  0
ENDSEC
  0
EOF
